<svg version="1.0" xmlns="http://www.w3.org/2000/svg" width="960.000000pt" height="960.000000pt" viewBox="0 0 960.000000 960.000000" preserveAspectRatio="xMidYMid meet">
  <circle cx="470" cy="470" r="388" style="fill:#fff"/>
  <g transform="translate(-2.00000,965.000000) scale(0.10100,-0.10100)" fill="#000" stroke="none">
    <path d="M4530 9594 c-1075 -76 -2001 -442 -2810 -1113 -150 -123 -481 -455
    -602 -601 -627 -760 -988 -1616 -1095 -2600 -25 -231 -25 -729 0 -960 155
    -1423 882 -2655 2047 -3468 447 -311 1001 -564 1535 -700 2071 -527 4216 356
    5315 2186 765 1276 891 2843 340 4237 -77 194 -240 524 -349 703 -377 625
    -915 1176 -1532 1571 -627 400 -1325 643 -2089 726 -138 15 -637 27 -760 19z
    m-125 -3064 c378 -550 690 -1000 694 -1000 4 0 394 450 866 1000 l860 1000
    233 0 c180 0 231 -3 226 -12 -4 -7 -451 -527 -992 -1156 l-984 -1143 25 -37
    c13 -20 495 -723 1072 -1562 576 -838 1049 -1530 1052 -1537 4 -11 -146 -13
    -785 -13 l-790 0 -724 1053 c-398 579 -727 1054 -732 1056 -5 2 -417 -471
    -915 -1050 l-907 -1054 -233 -3 c-143 -1 -231 1 -229 7 1 5 467 548 1033 1207
    567 658 1031 1202 1032 1208 2 6 -463 688 -1032 1516 -569 828 -1035 1508
    -1035 1513 0 4 355 7 789 7 l789 0 687 -1000z"/>
    <path d="M2782 7162 c2 -5 749 -1076 1661 -2380 l1659 -2372 359 0 c286 0 359
    3 353 13 -4 6 -752 1077 -1662 2380 l-1655 2367 -359 0 c-198 0 -358 -4 -356
    -8z"/>
  </g>
</svg>
