<svg xmlns="http://www.w3.org/2000/svg" version="1.1" width="640px" height="640px" style="shape-rendering:geometricPrecision; text-rendering:geometricPrecision; image-rendering:optimizeQuality; fill-rule:evenodd; clip-rule:evenodd" xmlns:xlink="http://www.w3.org/1999/xlink"> 
    <rect fill="#3d665c" x="0" y="0" width="640" height="640" rx="160" ry="160"></rect>
    <path fill="#48ffb0" d="M 305.5,139.5 C 308.265,139.798 310.765,140.798 313,142.5C 320.839,152.853 328.172,163.52 335,174.5C 347.914,195.325 360.581,216.325 373,237.5C 408.426,292.587 443.426,347.92 478,403.5C 484.302,414.121 490.136,424.955 495.5,436C 494.084,438.835 492.417,441.502 490.5,444C 376.834,444.5 263.167,444.667 149.5,444.5C 147.819,441.797 146.153,439.131 144.5,436.5C 147.633,428.519 151.467,420.852 156,413.5C 178.748,377.673 201.248,341.673 223.5,305.5C 235.969,285.248 248.969,265.248 262.5,245.5C 264.145,244.304 265.811,243.304 267.5,242.5C 273.179,243.339 277.346,246.339 280,251.5C 297.025,277.849 313.192,304.682 328.5,332C 323.595,340.899 316.262,346.899 306.5,350C 303.518,350.498 300.518,350.665 297.5,350.5C 296.312,349.636 295.145,348.636 294,347.5C 286.304,334.993 278.47,322.66 270.5,310.5C 269.192,306.597 267.692,306.597 266,310.5C 249.062,338.433 231.729,366.099 214,393.5C 211.274,397.619 209.107,401.952 207.5,406.5C 217.043,406.629 226.377,406.629 235.5,406.5C 289.264,407.83 342.931,407.83 396.5,406.5C 408.5,406.5 420.5,406.5 432.5,406.5C 432.649,405.448 432.483,404.448 432,403.5C 384.643,329.448 338.309,254.781 293,179.5C 290.59,174.686 288.757,169.686 287.5,164.5C 289.993,158.221 293.16,152.221 297,146.5C 299.628,143.79 302.461,141.456 305.5,139.5 Z"/>
</svg>
