<svg version="1.0" xmlns="http://www.w3.org/2000/svg" width="512.000000pt" height="512.000000pt" viewBox="0 0 512.000000 512.000000" preserveAspectRatio="xMidYMid meet">
    <circle cx="256" cy="256" r="232" fill="#44f1a6"></circle>
    <g transform="translate(0.000000,512.000000) scale(0.100000,-0.100000)" fill="#304039" stroke="none">
        <path d="M2415 5064 c-350 -26 -662 -110 -954 -255 -730 -362 -1218 -1010
        -1372 -1824 -31 -160 -39 -584 -14 -758 20 -147 80 -387 130 -523 90 -247 262
        -548 418 -733 421 -501 941 -792 1589 -890 154 -24 482 -29 643 -11 261 30
        551 116 800 239 512 252 895 632 1149 1141 177 355 259 712 259 1120 0 414
        -89 773 -282 1146 -124 239 -255 418 -446 609 -469 469 -1051 719 -1720 738
        -82 3 -172 3 -200 1z m80 -691 c36 -36 122 -165 319 -483 221 -356 207 -334
        346 -555 70 -110 209 -333 309 -495 101 -162 205 -329 231 -370 26 -41 78
        -124 115 -185 37 -60 88 -141 113 -180 173 -265 272 -438 272 -474 0 -8 -11
        -29 -26 -48 l-25 -33 -1589 0 -1589 0 -25 33 c-15 19 -26 42 -26 52 0 28 75
        161 232 409 79 124 161 256 183 293 22 36 65 105 96 152 30 47 138 220 240
        384 259 418 340 540 370 556 22 12 34 13 65 3 35 -10 47 -24 109 -122 39 -61
        91 -145 117 -186 117 -183 245 -394 276 -455 l35 -67 -19 -38 c-14 -28 -39
        -50 -99 -86 -74 -45 -84 -48 -138 -46 l-59 3 -96 152 c-54 84 -110 173 -125
        199 l-28 47 -54 -89 c-30 -49 -73 -118 -95 -154 -304 -482 -413 -656 -417
        -666 -2 -6 10 -14 28 -18 41 -8 1924 -8 2012 1 63 6 66 7 52 23 -9 10 -24 33
        -34 51 -21 41 -110 183 -161 259 -20 30 -112 177 -204 325 -92 149 -194 311
        -226 360 -57 89 -312 498 -364 585 -15 25 -52 83 -82 130 -50 77 -103 169
        -233 395 -52 92 -56 127 -21 195 81 159 151 206 215 143z"/>
    </g>
</svg>
