<?xml version="1.0" encoding="UTF-8"?><svg id="a" xmlns="http://www.w3.org/2000/svg" viewBox="0 0 32 32"><defs><style>.cls-1{fill:#cd2b40;}.cls-1,.cls-2,.cls-3,.cls-4,.cls-5,.cls-6,.cls-7,.cls-8,.cls-9{stroke-width:0px;}.cls-2{fill:#e8e9e7;}.cls-3{fill:#151614;}.cls-4{fill:#251a0b;}.cls-5{fill:#e49ab5;}.cls-6{fill:#f2c64d;}.cls-7{fill:#ceb366;}.cls-8{fill:#3159a1;}.cls-9{fill:#f2c54c;}</style></defs><circle class="cls-8" cx="16" cy="16" r="16"/><polygon class="cls-6" points="5.96 12.83 5.91 16.06 6 17.7 5.95 19.34 5.52 21.49 5.58 22.18 6.36 22.87 9.12 22.21 10.64 21.11 11.23 21.1 13.38 22.14 16.51 22.68 18.46 22.55 21.78 21.42 23.97 22.41 25.48 22.09 26.27 20.84 25.78 18.43 25.76 16.75 26.07 15.54 25.89 14.57 25.94 13.94 26.43 13.24 26.27 12.75 25.78 11.51 25.14 10.16 24.25 9.58 22.66 9.53 21.05 9.09 20.01 9.05 18.12 9.5 17.59 9.51 16.67 9.2 14.48 9.2 12.58 9.78 11.52 9.63 10.37 9.29 8.66 9.66 6.93 10.82 6.05 12.47 5.96 12.83"/><path class="cls-2" d="M25.84,13.73c-1.2.78-2.5,1.11-3.89.67-.42-.13-.78-.49-1.14-.78-.25-.19-.17-.33.13-.39.24-.05.48-.12.71-.18.05.08.09.17.15.25.24.33.48.65.72.98.04.01.09.03.13.04.38-.03.75-.05,1.13-.08.04-.02.08-.03.12-.05.3-.24.73-.43.86-.74.22-.52.51-.52.92-.38.11.04.23.05.34.07.08.03.15.06.23.09-.08.11-.16.23-.25.34-.06.05-.12.1-.18.15h0Z"/><path class="cls-4" d="M10.99,20.78c.21.12.42.25.64.37-.21-.12-.42-.25-.64-.37Z"/><path class="cls-4" d="M25.85,13.73c.06-.05.12-.1.18-.15-.06.05-.12.1-.18.15Z"/><path class="cls-3" d="M25.49,10.72c.13.16.3.3.38.49.22.49.35,1.03.6,1.5.22.41.2.71-.12,1.01-.42.4-.38.86-.23,1.36.06.19.13.45.06.61-.62,1.32-.25,2.6.11,3.88.07.25.11.51.12.77.02,1.82-1.78,2.88-3.37,1.87-.88-.55-1.51-.6-2.49-.18-2.83,1.22-5.71,1.17-8.51-.24-.06-.03-.13-.04-.17-.09-1.14-1.17-1.8.19-2.6.55-.92.41-1.81.8-2.83.76-.45-.02-1.09-.79-1.03-1.33.05-.54.17-1.07.33-1.59.34-1.15.28-2.3.16-3.49-.11-1.04-.05-2.1-.06-3.15,0,.65,0,1.3,0,1.95,0,.13.09.27.14.4.02.26.15,1.99.15,2.24,0,1.1-.06.74-.12,1.84-.03.51-.3,1-.37,1.51-.12.86.35,1.35,1.19,1.24,1.27-.16,2.42-.65,3.39-1.51.13-.16.26-.33.38-.5.06-.09.11-.2.16-.3.05.11.1.22.15.33.03.03.06.07.1.1.21.12.42.25.64.37.21.13.42.25.63.38.31.16.61.37.93.47.7.22,1.41.5,2.13.53,1.17.05,2.37.01,3.53-.16.77-.11,1.47-.66,2.24-.75.38-.04.6-.92,1.18-.19.61.76,1.54.99,2.5.81.29-.06.53-.31.79-.47.12-.08.14-.11.17-.15.08-.08.17-.17.18-.22.12-.01.13.07.13.04.03-.35.07-.7.04-1.04-.1-1.02-.13-2.06-.36-3.05-.2-.85.65-1.64.05-2.46-.01-.02.02-.07.03-.11.02-.34.05-.68.07-1.03h0c.06-.05.12-.1.18-.15.08-.11.16-.23.25-.34-.03-.18-.07-.36-.1-.55-.09-.09-.19-.18-.28-.26-.12-.23-.24-.45-.35-.68-.02-.04.03-.11.03-.16-.01-.16-.04-.31-.06-.47-.02-.13-.28-.48-.3-.61.02,0,.27.22.29.22Z"/><path class="cls-4" d="M17.97,9.78c-.13-.09-1.15-.53-1.28-.62.07-.02,1.03.32,1.1.3.55-.15,1.1-.34,1.66-.4.92-.11,1.83-.17,2.75.26.48.22,1.12.14,1.69.13.65-.02,1.55.66,1.59,1.28-.02,0-.04,0-.06,0-.08-.05-.16-.05-.19-.11-.28-.58-.81-.89-1.41-.98-.22-.04-.46,0-.69.01.13.15.27.29.4.44.17.2.33.42.52.61.09.09.23.15.36.21.29.13.58.24.87.36.07.03.14.09.2.13,0-.09,0-.18.01-.27.02.16.05.31.06.47,0,.05-.05.12-.03.16.11.23.24.46.35.68-.91-.6-1.94-.65-2.98-.64-.11,0-.22.02-.32.03l-1.12.23c-.2.06-1.19.42-1.39.48-.03-.1.05-.06,0-.12l1.04-.49c.29-.11.58-.17.87-.28.07-.01.18-.02.25-.03.11,0,.08,0,.13,0,1.89-.1,1.58.02,2.36.03.14,0,.27.02.41.02-.12-.1-.23-.25-.37-.3-1.23-.43-2.45-.39-3.66.07h0s-.07.03-.11.04h0c-.23.08-.46.17-.69.26-.05.02-.11.05-.16.07-.06,0-.11,0-.17,0,.14-.11.28-.22.43-.33.84-.2,1.67-.4,2.51-.59.22-.05.44-.06.67-.1-.17-.18-.34-.36-.5-.54-.03-.02-.06-.04-.09-.07-1.06-1.06-2.77-1.33-4.35-.67-.11.04-.21.1-.31.16.09.07.2.12.26.21.04.06.01.16.02.25-.21-.11-.42-.22-.62-.33Z"/><path class="cls-4" d="M16.9,9.29c-1.18-.09-2.39-.18-3.46.35-.85.42-1.5.27-2.33-.04-1.91-.7-4.55.98-4.95,3.11-.19,1.01-.14,2.06-.19,3.1-.05-.13-.14-.27-.14-.4-.01-.65,0-1.3,0-1.95-.06-2.96,3.83-5.25,6.21-3.81.31.19.97-.11,1.43-.29,1.09-.42,2.2-.35,3.32-.21.05,0,.08.09.12.13Z"/><path class="cls-4" d="M25.56,21.75c-.27.16-.51.42-.8.48-.97.19-1.89-.05-2.5-.81-.58-.73-.8.15-1.18.19-.76.09-1.47.64-2.24.75-1.16.17-2.35.21-3.53.16-.72-.03-1.43-.32-2.13-.53-.33-.1-1.52-.77-1.83-.93.15.03,1.2.52,1.36.55.46.16.92.32,1.38.48.64.12,1.27.3,1.91.33,2.03.11,3.94-.33,5.69-1.4.1-.06.17-.16.25-.24-.08-.02-.16-.06-.24-.07-1.33-.17-2.69-.21-3.98-.52-1.97-.47-3.98-.92-5.59-2.3h0s-.05-.06-.07-.08h0c-.04-.09-.09-.18-.13-.26.11,0,.23-.01.34-.02.51.33.98.74,1.53.98,1.94.85,3.97,1.46,6.08,1.73,1.39.18,2.78.21,4.07-.47,1.59-.84,1.17-2.17.31-3.16-.08-.09-.3-.04-.46-.05.06.09.11.18.19.26.98,1.02.75,2.24-.54,2.7-.79.28-1.67.46-2.51.46-2.08.02-4.02-.63-5.9-1.48-.78-.35-1.55-.75-2.26-1.22-.45-.29-.54-.89-.23-1.29.18-.24.71-.37,1.06-.32,1.32.18,2.63.58,3.95.66,1.65.1,3.32-.03,4.98-.07.14-.02.29-.03.43-.05.82-.14,1.64-.26,2.46-.43.16-.03.29-.23.43-.35-.14-.14-.28-.27-.42-.41h0c-.33-.07-.66-.21-.99-.21-.61,0-1.22.17-1.82.15-1.05-.05-1.84-.59-2.38-1.48-.06-.1,0-.4.07-.42,1.72-.56,3.47-.79,5.27-.38l-.02.02c-.31.04-.62.12-.92.11-.73-.02-1.46-.12-2.19-.1-.27,0-.53.23-.8.36-.24.06-.47.13-.71.18-.3.06-.37.19-.13.39.36.28.72.64,1.14.78,1.39.44,2.69.11,3.89-.67-.02.34-.04.68-.07,1.03,0,.04-.04.09-.03.11.6.82-.25,1.61-.05,2.46.23.99.27,2.03.36,3.05.03.34,0,.69-.04,1.04,0,.02-.14.2-.26.21.1-.28.21-.74.18-1.01-.07-.61-.25-1.22-.38-1.82-.03-.3-.05-.59-.08-.89,0-.07-.04-.14-.07-.21-.02.08-.06.16-.05.22.19.95-.25,1.6-1.02,2.04-.56.33-1.16.58-1.74.86,0-.11,0-.21,0-.32.11-.02.21-.04.32-.06-.02-.03-.05-.08-.06-.08-.09.04-.18.09-.27.14-.1.06-.2.11-.3.17.1.05.21.1.31.15-.06.16-.11.31-.17.47h0c.83.87,1.98,1.03,3.12.44ZM24.94,16.3c-.14-.03-.29-.07-.43-.07-.04,0-.09.1-.13.15.13-.03.25-.06.38-.08.05,0,.1,0,.15,0-.04.11-.13.25-.09.34.06.18.2.33.3.49.07.1.13.2.2.31.03-.13.06-.25.08-.38.01-.12-.01-.24.01-.35.1-.44-.04-.59-.47-.42ZM19.57,18.87c1.5,0,2.05-.54,1.72-1.74-.04-.15-.3-.34-.46-.35-1.53-.09-3.07-.15-4.6-.22-.05,0-.1,0-.16,0,.03.05.05.12.09.16.37.37.79.7,1.12,1.1.6.73,1.36,1.07,2.29,1.06ZM20.98,19.62s0-.03,0-.04c.24,0,.48.04.7,0,.57-.12,1.15-.22,1.68-.45.65-.28.92-.86.76-1.34-.24-.71-.98-1.22-1.64-1.15-.54.06-.95.1-.73.88.16.59-.12,1.21-.73,1.5-.34.16-.75.16-1.13.24-.07.01-.14.05-.21.08.06.05.11.14.18.15.37.05.74.09,1.12.13ZM13.28,16.02c-.34-.03-.63.33-.43.59.24.3.51.62.84.8.72.39,1.47.74,2.23,1.01,1.04.37,2.11.65,3.17.96.09.03.2-.03.31-.05-.09-.02-.19-.05-.28-.07-.87-.14-1.59-.51-2.16-1.21-.94-1.17-2.13-1.93-3.68-2.04Z"/><path class="cls-4" d="M10.2,21.14c.16-.42.32-.84.47-1.26.08-.32.21-.63.22-.95.12-2.21.21-4.43.32-6.64,0-.13.09-.25.13-.38.02.25.03.49.06.74.02.18.08.35.13.53l.24-.51s0,0,0,0c.07-.1.13-.2.2-.29.03.11.11.23.08.32-.1.28-.25.54-.37.82-.08.2-.16.42-.18.63-.04.55-.04,1.1-.06,1.65,0,.52,0,1.05.01,1.57-.19,1.1-.38,2.2-.58,3.29-.06.21-.18.26-.23.15-.05.1-.01-.27-.08-.18-.12.17-.25.33-.38.5Z"/><path class="cls-4" d="M25.58,12.67c.2,0,.39.01.59.02.03.18.07.36.1.55-.08-.03-.15-.06-.23-.09-.16-.15-.32-.3-.48-.45l.02-.02Z"/><path class="cls-7" d="M21.12,11.92c.29-.11.57-.22.86-.33-.29.11-.57.22-.86.33Z"/><path class="cls-7" d="M22.58,11.82c-.37.08-.75.15-1.12.23.37-.08.75-.15,1.12-.23Z"/><path class="cls-7" d="M21,11.46c-.23.09-.46.18-.69.27.23-.09.46-.18.69-.27Z"/><path class="cls-7" d="M21.1,11.42s-.07.03-.11.04c.04-.01.07-.03.11-.04Z"/><path class="cls-5" d="M19.57,18.87c-.93.01-1.69-.32-2.29-1.06-.33-.4-.74-.73-1.12-1.1-.04-.04-.06-.1-.09-.16.05,0,.1,0,.16,0,1.53.07,3.07.12,4.6.22.17,0,.42.2.46.35.33,1.21-.22,1.75-1.72,1.74Z"/><path class="cls-1" d="M20.98,19.62c-.37-.04-.75-.07-1.12-.13-.07,0-.65-.07-.71-.12.07-.03.67-.1.74-.11.38-.08.79-.08,1.13-.24.61-.29.9-.91.73-1.5-.22-.79.19-.83.73-.88.65-.07,1.39.44,1.64,1.15.16.48-.11,1.06-.76,1.34-.53.23-1.11.33-1.68.45-.22.05-.47,0-.7,0,0,.01,0,.03,0,.04Z"/><path class="cls-1" d="M13.28,16.02c1.55.11,2.74.87,3.68,2.04.56.7,1.29,1.07,2.16,1.21.1.02.19.05.28.07-.1.02-.22.07-.31.05-1.06-.31-2.13-.59-3.17-.96-.77-.27-1.52-.63-2.23-1.01-.33-.18-.61-.49-.84-.8-.2-.26.09-.62.43-.59Z"/><path class="cls-3" d="M25.56,12.7c.16.15.32.3.48.45-.11-.02-.23-.03-.34-.07-.42-.13-.7-.14-.92.38-.13.31-.56.5-.86.74-.04.02-.08.03-.13.05-.84.13-.46.08-.84.1-.31-.01-.21,0-.43-.06-.5-.35-.47-.28-.67-.64s-.15-.51-.2-.59c.27-.13.53-.36.8-.36.73-.01,1.46.08,2.19.1.31,0,.62-.07.92-.11ZM23.83,13.31c.12-.08.22-.15.31-.22-.11-.06-.23-.16-.34-.16-.09,0-.19.11-.29.17.1.06.19.13.31.21Z"/><path class="cls-3" d="M12.12,15.75c-.49.63-.26,1.21.14,1.78-.11,0-.23.01-.34.02,0,0,0,0,0,0-.03-.03-.06-.05-.1-.08,0,0,0,0,0,0-.02-.03-.04-.07-.05-.1-.03-.04-.06-.09-.09-.13,0-.03,0-.07.01-.1,0,0,.02-.02.02-.02l-.02.02s-.04,0-.07,0c-.05.08-.11.16-.16.23,0-.52,0-1.05-.01-1.57.05.05.11.1.16.15l.09.1.07-.4s0,0,0,0c.12.03.23.06.35.09Z"/><path class="cls-3" d="M24.94,16.3s-.02,0-.02,0c-.05,0-.1-.02-.15,0-.13.02-.25.06-.38.08.04-.05.09-.16.13-.15.14,0,.29.04.43.07Z"/><path class="cls-3" d="M22.6,20.84c-.1-.05-.21-.1-.31-.15.1-.06.2-.11.3-.17h0c0,.11,0,.22,0,.32,0,0,0,0,0,0Z"/><path class="cls-3" d="M22.59,20.52c.09-.05.18-.1.27-.14,0,0,.04.05.06.08-.11.02-.21.04-.32.06,0,0,0,0,0,0Z"/><path class="cls-9" d="M22.52,16.26c.14-.02.28-.03.43-.05-.14.02-.28.03-.43.05Z"/><path class="cls-7" d="M12.12,17.9s-.05-.06-.07-.09c.02.03.05.06.07.09Z"/><path class="cls-5" d="M23.79,14.25s.08-.03.13-.05c-.04.02-.08.03-.13.05Z"/><path class="cls-5" d="M22.52,14.29s.09.03.13.04c-.04-.01-.09-.03-.13-.04Z"/><path class="cls-4" d="M11.7,17.15s0,.07-.01.1c-.02-.03-.04-.07-.06-.1.02,0,.04,0,.07,0h0Z"/><path class="cls-4" d="M11.78,17.38s.04.07.05.1c-.02-.03-.04-.07-.05-.1Z"/><path class="cls-4" d="M11.83,17.48s.06.05.1.08c-.03-.03-.06-.05-.1-.08Z"/><path class="cls-3" d="M12.8,14.25s-.06-.06-.09-.09c-.05-.07-.11-.14-.16-.22,0,0,0,0,0,0,.06-.06.12-.14.19-.17,1.2-.5,2.4-1,3.75-.95.15,0,.31-.1.46-.16.05,0,.1,0,.15,0,.41.05.82.11,1.22.16.11.02.23.04.34.06.14.03.28.06.42.09.02.17.1.34.06.49-.18.69-.7,1.09-1.33,1.31-.44.16-.93.2-1.41.25-.55.07-1.11.09-1.66.14,0-.12-.52-.24,0-.37.72-.03,1.45-.02,2.16-.1.71-.08,1.36-.37,1.75-1.03.06-.09.05-.34.01-.36-.29-.1-.6-.19-.91-.22-.05,0-.11.3-.2.44-.15.24-.29.5-.49.7-.75.71-2.41.6-2.68-.22-.21-.63-.48-.54-.9-.34-.08.04-.17.06-.26.09-.08.03-.15.08-.22.12.05.07.09.17.17.21.31.19.63.36.94.54-.21.03-.43.06-.64.08,0,0,0,0,0,0-.23-.16-.46-.32-.69-.48ZM16.67,13.95c.07-.2.2-.37.17-.5-.03-.11-.24-.24-.36-.24-.12,0-.25.15-.37.24.12.1.23.2.57.5Z"/><path class="cls-4" d="M19.09,12.98c-.14-.03-.28-.06-.42-.09-.2-.26-.34-.61-.6-.77-1.1-.69-2.96-.39-5.01.75-.15.01-.08-.02-.23,0,.14-.09,1.31-.85,1.46-.92.98-.41,2.34-.63,3.38-.46,0,.02,0,.04-.01.06,0,0,.01-.01.01-.02,0-.01,0-.02,0-.04-.07-.06-.13-.13-.21-.17-1.49-.57-2.91-.51-4.22.49-.09.07-.22.1-.33.15.08-.09.15-.19.24-.27,1-.89,2.21-1.06,3.48-.98.51.24,1.02.48,1.53.71.13.21.27.42.4.64.18.3.35.61.52.92Z"/><path class="cls-4" d="M16.95,12.66c-.15.06-.31.17-.46.16-1.35-.06-2.55.45-3.75.95-.07.03-.13.11-.19.17.05-.16.11-.32.16-.48.73-.21,1.47-.41,2.2-.62.68-.06,1.36-.12,2.03-.18Z"/><path class="cls-4" d="M11.78,15.66c.09-.18.18-.36.27-.54,0,0,.03,0,.03,0,.04-.02.08-.04.12-.06,0,0,0,0,0,0,.12.05.23.11.35.16-.14.18-.28.36-.42.54-.12-.03-.23-.06-.35-.09Z"/><path class="cls-4" d="M14.75,15.18c-.11,0-.22-.01-.33-.02-.31-.14-.63-.29-.94-.43.21-.03.43-.06.64-.08.21.06.42.11.63.17-.52.12,0,.25,0,.37Z"/><path class="cls-4" d="M12.8,14.25c.23.16.46.32.69.48-.23-.16-.46-.32-.69-.48Z"/><path class="cls-4" d="M12.55,13.94c.05.07.11.14.16.22-.05-.07-.11-.14-.16-.22Z"/><path class="cls-7" d="M6.52,18.48s.03.04.04.06c-.01-.02-.03-.04-.04-.06,0,0,0,0,0,0Z"/><path class="cls-7" d="M12.19,15.05s-.08.04-.12.06c.04-.02.08-.04.12-.06Z"/><path class="cls-2" d="M23.83,13.31c-.12-.08-.22-.15-.31-.21.1-.06.19-.17.29-.17.12,0,.23.11.34.16-.09.07-.19.13-.31.22Z"/><path class="cls-4" d="M11.61,15.96c.05-.1.11-.2.16-.3-.02.13-.05.27-.07.4l-.09-.1Z"/><polygon class="cls-4" points="11.69 17.15 11.72 17.13 11.7 17.15 11.69 17.15"/><path class="cls-2" d="M14.75,14.81c-.21-.06-.42-.11-.63-.17-.31-.18-.63-.35-.94-.54-.07-.04-.11-.14-.17-.21.07-.04.15-.08.22-.12.08-.04.17-.06.26-.09.25-.12.51-.21.61-.15.1.07.22.24.3.49.4.7,1.93.92,2.68.22.2-.19.34-.45.49-.7.09-.14.15-.45.2-.44.31.03.61.11.91.22.04.01.04.26-.01.36-.39.66-1.03.95-1.75,1.03-.71.08-1.44.07-2.16.1Z"/><path class="cls-2" d="M16.67,13.95c-.34-.3-.46-.4-.57-.5.12-.09.25-.24.37-.24.13,0,.34.13.36.24.03.13-.09.3-.17.5Z"/><path class="cls-4" d="M17.1,12.66c.41.05.82.11,1.22.16-.41-.05-.82-.11-1.22-.16Z"/><path class="cls-7" d="M17.67,11.49s0,.02,0,.04c0,0,0,.01-.01.02,0-.02,0-.04.01-.06,0,0,0,0,0,0Z"/><path class="cls-7" d="M13.49,12.63c-.1.07-.21.13-.31.2.1-.07.21-.13.31-.2Z"/></svg>