<svg height="32" viewBox="0 0 32 32" width="32" xmlns="http://www.w3.org/2000/svg"><defs><style>.cls-1{fill:#2c374b;}.cls-2{fill:#fff;}.cls-3{fill:#28a0f0;}.cls-4{fill:#2d374b;}.cls-5{fill:#96bedc;}</style></defs><circle class="cls-1" cx="16" cy="16" r="16"/><g id="Logos_and_symbols"><g id="SYMBOL_VER_1-1"><g id="Symbol_-_Original"><path class="cls-4" d="m18.69,15.11l1.75-2.97,4.73,7.36v1.41s-.01-9.72-.01-9.72c-.01-.24-.14-.45-.34-.58l-8.51-4.89c-.2-.1-.45-.1-.65,0-.03.01-.05.03-.08.04l-.03.02-8.26,4.78h-.03s-.08.06-.12.09c-.16.11-.26.28-.29.46,0,.03,0,.06-.01.09v7.92s4.41-6.82,4.41-6.82c.55-.9,1.76-1.2,2.88-1.18l1.32.03-7.75,12.43.91.53,7.84-12.94h3.47s-7.82,13.26-7.82,13.26l3.26,1.88.39.22c.16.07.36.07.53.01l8.63-5-1.65.96-4.56-7.38Zm.67,9.63l-3.29-5.17,2.01-3.41,4.32,6.82-3.04,1.76Z"/><polygon class="cls-3" points="16.07 19.58 19.36 24.75 22.4 22.98 18.08 16.17 16.07 19.58"/><path class="cls-3" d="m25.17,20.91v-1.41s-4.73-7.36-4.73-7.36l-1.75,2.97,4.56,7.38,1.65-.96c.16-.13.26-.32.27-.53v-.09Z"/><path class="cls-2" d="m5.37,22.24l2.33,1.34,7.75-12.43-1.32-.03c-1.12-.02-2.33.28-2.88,1.18l-4.4,6.82-1.48,2.27v.85Z"/><polygon class="cls-2" points="19.92 11.16 16.46 11.17 8.61 24.11 11.35 25.69 12.1 24.42 19.92 11.16"/><path class="cls-5" d="m26.63,11.14c-.03-.73-.42-1.39-1.04-1.78l-8.62-4.96c-.61-.31-1.37-.31-1.98,0-.07.04-8.38,4.86-8.38,4.86-.12.06-.23.12-.33.2-.55.39-.88,1-.92,1.68v10.26l1.48-2.27v-7.92s0-.06,0-.09c.03-.19.14-.35.29-.46.04-.03,8.49-4.92,8.52-4.93.2-.1.45-.1.65,0l8.51,4.89c.2.13.33.35.34.58v9.81c-.01.21-.09.4-.25.53l-1.65.96-.85.49-3.04,1.76-3.08,1.79c-.17.06-.36.06-.53-.01l-3.65-2.1-.75,1.26,3.28,1.89c.11.06.21.12.28.16.12.07.21.11.24.13.23.11.57.18.87.18.28,0,.55-.05.8-.15l8.96-5.19c.51-.4.82-1,.84-1.65v-9.92h0Z"/></g></g></g></svg>