<?xml version="1.0" encoding="UTF-8"?><svg id="uuid-49a4a54e-f8ef-4e9f-840c-dc8d5300a24c" xmlns="http://www.w3.org/2000/svg" viewBox="0 0 32 32"><defs><style>.uuid-53468555-00c5-43d8-aafd-39c2ebdf908f{fill:#fff;}.uuid-be61eb9b-d74a-456e-b2b7-28f2d71d9de5{fill:#fdfdfe;}.uuid-fd2a1211-477d-449b-8559-df45276eb7e5{fill:#efeff0;}.uuid-cace0bb9-a5d3-4897-b481-a75e36dcf3b3{fill:#2fd3c7;}.uuid-727124f3-dce1-4f31-b0cc-acc0e8594e0f{fill:#41cbc1;}.uuid-b6e2bef6-d560-4a42-a39f-3fbe40fa64b3{fill:#42e8e0;}</style></defs><path id="uuid-bae6dc24-444b-4736-998a-3eea30cd8f87" class="uuid-cace0bb9-a5d3-4897-b481-a75e36dcf3b3" d="m27.35,6.77l-11.35,6.56L4.65,6.77v13.11l6.87,3.97h0v7.94h0l4.48-2.59,4.48,2.59h0v-7.94h0l6.87-3.97V6.77Z"/><path id="uuid-ab49c985-bd0f-41af-9275-3a312407a004" class="uuid-b6e2bef6-d560-4a42-a39f-3fbe40fa64b3" d="m16,13.33L4.65,6.77,16,.21l11.35,6.56-11.35,6.56Z"/><path id="uuid-68b76da0-abe5-44b5-8499-53c379f67f8b" class="uuid-727124f3-dce1-4f31-b0cc-acc0e8594e0f" d="m16,13.33L4.65,6.77v13.11l6.87,3.97h0v7.94h0l4.48-2.59v-15.87h0Z"/><path id="uuid-1780bdc7-9742-4bd3-8d3b-408dd9a752ba" class="uuid-fd2a1211-477d-449b-8559-df45276eb7e5" d="m16,13.33l-6.87-3.97v7.93l6.87,3.97,6.87-3.97v-7.93l-6.87,3.97Z"/><path id="uuid-c9d7f968-0a76-42f2-ab25-dee2b2ab466d" class="uuid-be61eb9b-d74a-456e-b2b7-28f2d71d9de5" d="m22.87,17.3l-6.87,3.97v-7.94l6.87-3.97v7.94Z"/><path id="uuid-18c2f230-6007-464c-8682-9ef943a419b4" class="uuid-53468555-00c5-43d8-aafd-39c2ebdf908f" d="m16,13.33l-6.87-3.97,6.87-3.97,6.87,3.97-6.87,3.97Z"/></svg>