<?xml version="1.0" encoding="UTF-8"?><svg id="a" xmlns="http://www.w3.org/2000/svg" viewBox="0 0 32 32"><defs><style>.cls-1,.cls-2,.cls-3,.cls-4,.cls-5,.cls-6,.cls-7,.cls-8,.cls-9,.cls-10,.cls-11,.cls-12,.cls-13,.cls-14,.cls-15,.cls-16,.cls-17,.cls-18,.cls-19,.cls-20,.cls-21,.cls-22{stroke-width:0px;}.cls-1,.cls-13,.cls-21{fill-rule:evenodd;}.cls-1,.cls-20{fill:#fff;}.cls-2{fill:#bc1655;}.cls-3{fill:#ff2676;}.cls-4,.cls-13{fill:#000;}.cls-5{fill:#fcfcfc;}.cls-6{fill:#d81262;}.cls-7{fill:#2d132e;}.cls-8{fill:#4ce550;}.cls-9{fill:#d6bec8;}.cls-10{fill:#d9c0ca;}.cls-11{fill:#1a010b;}.cls-12{fill:#a6114b;}.cls-14{fill:#bb0e54;}.cls-15{fill:#1a182f;}.cls-16{fill:#2d0213;}.cls-17{fill:#d91d63;}.cls-18{fill:#47ac59;}.cls-19{fill:#001f30;}.cls-21{fill:#ce0661;}.cls-22{fill:#ba8fa1;}</style></defs><path class="cls-19" d="M30.63,16c0,8.08-6.55,14.63-14.63,14.63S1.37,24.08,1.37,16,7.92,1.37,16,1.37s14.63,6.55,14.63,14.63"/><path class="cls-19" d="M16,32c-4.27,0-8.29-1.66-11.31-4.69S0,20.27,0,16,1.66,7.71,4.69,4.68C7.71,1.66,11.73,0,16,0s8.29,1.66,11.31,4.69c3.02,3.02,4.69,7.04,4.69,11.31s-1.66,8.29-4.69,11.31c-3.02,3.02-7.04,4.69-11.31,4.69M16,.7c-4.09,0-7.93,1.59-10.82,4.48C2.29,8.07.7,11.91.7,16s1.59,7.93,4.48,10.82c2.89,2.89,6.73,4.48,10.82,4.48s7.93-1.59,10.82-4.48c2.89-2.89,4.48-6.73,4.48-10.82s-1.59-7.93-4.48-10.82C23.93,2.29,20.09.7,16,.7"/><path class="cls-5" d="M26.9,20.99c.29,0,.29.45,0,.45-.29,0-.29-.45,0-.45Z"/><path class="cls-5" d="M25.73,19.55c.61,0,.61.95,0,.94-.61,0-.61-.95,0-.94Z"/><path class="cls-5" d="M26.93,15.01c.29,0,.29.45,0,.45-.29,0-.29-.45,0-.45Z"/><path class="cls-20" d="M17.03,27.43c-.16,0-.36.2-.36.36,0-.16-.21-.36-.36-.36.16,0,.36-.2.36-.36,0,.16.2.36.36.36Z"/><path class="cls-20" d="M24.27,11.61c-.16,0-.36.2-.36.36,0-.16-.21-.36-.36-.36.16,0,.36-.2.36-.36,0,.16.2.36.36.36Z"/><path class="cls-20" d="M14.54,5.4c-.17,0-.39.22-.39.39,0-.17-.22-.39-.39-.39.17,0,.39-.22.39-.39,0,.17.22.39.39.39Z"/><path class="cls-20" d="M19.86,26.57c-.32,0-.75.42-.74.74,0-.33-.42-.75-.75-.74.33,0,.75-.42.74-.74,0,.33.42.75.74.74Z"/><path class="cls-20" d="M28.07,14.02c-.46-1.9.16.29-.83.25.02.03.26-.05.46.25.46,1.91-.16-.3.83-.25,0-.04-.26.05-.46-.25Z"/><path class="cls-20" d="M27.88,15.39h0s-.05-.07-.06-.21c-.01-.18-.03-.46-.14-.63-.14-.22-.3-.22-.39-.23-.04,0-.06,0-.08-.03v-.03s.05-.03.09-.03c.09,0,.24-.01.37-.22.11-.17.13-.45.14-.63,0-.15.01-.21.06-.21h0s.05.06.06.21c.01.18.03.46.15.63.14.21.3.22.39.22.04,0,.08,0,.08.04v.02s-.05.03-.09.03c-.08,0-.24.01-.38.22-.11.17-.13.45-.15.63,0,.15-.01.21-.06.21h0ZM27.44,14.27c.09.03.2.09.29.23.12.18.14.46.15.65.01-.19.03-.46.15-.65.1-.15.2-.21.29-.23-.09-.03-.2-.09-.29-.23h0c-.12-.18-.14-.46-.15-.65-.01.19-.03.46-.15.65-.1.15-.2.21-.29.23Z"/><path class="cls-20" d="M8.29,23.33c-.19-.28-.13-.82-.18-.83-.06,0,0,.55-.18.83-.2.3-.44.2-.46.25.02.03.26-.05.46.25.19.28.13.82.18.83.05,0,0-.55.18-.83.2-.3.44-.21.46-.25,0-.04-.26.05-.46-.25Z"/><path class="cls-20" d="M8.11,24.69c-.09-.39-.17-1.1-.67-1.13.57.04.55-.77.68-1.1.09.36.13,1.12.67,1.11-.53,0-.58.75-.68,1.12ZM7.66,23.58c.96.8-.07.8.89,0-.97-.8.07-.8-.89,0Z"/><path class="cls-20" d="M10.63,6.12c-.61-2.49.21.38-1.08.33.02.04.34-.07.61.33.6,2.51-.2-.39,1.08-.33,0-.05-.34.07-.61-.33Z"/><path class="cls-20" d="M10.39,7.91h0c-.06,0-.07-.09-.08-.28-.02-.24-.04-.6-.19-.83-.19-.28-.4-.29-.51-.3-.05,0-.09,0-.1-.04v-.04s.06-.04.12-.05c.12,0,.31-.02.49-.29.15-.23.17-.59.19-.83.01-.19.02-.27.08-.28h.01c.06,0,.07.08.08.28.02.24.04.61.19.83.18.28.39.29.51.29.05,0,.1,0,.11.05v.03s-.06.04-.11.04c-.11,0-.32.01-.5.29-.15.23-.17.59-.19.83-.01.2-.02.27-.08.28h0ZM9.8,6.44c.12.03.26.12.38.31.16.24.19.6.2.85.02-.25.05-.61.2-.85.13-.19.27-.27.38-.31-.12-.03-.26-.11-.38-.3h0c-.16-.24-.19-.6-.2-.85-.02.25-.05.61-.2.85-.13.19-.27.27-.38.3Z"/><path class="cls-20" d="M25.56,23.68c-.19-.28-.13-.82-.18-.83-.06,0,0,.55-.18.83-.2.3-.44.2-.46.25.02.03.26-.05.46.25.19.28.13.82.18.83.05,0,0-.55.18-.83.2-.3.44-.21.46-.25,0-.04-.26.05-.46-.25Z"/><path class="cls-20" d="M25.38,25.04c-.09-.39-.17-1.1-.67-1.13.57.04.55-.77.68-1.1.09.36.13,1.12.67,1.11-.53,0-.58.75-.68,1.12ZM24.93,23.93c.96.8-.07.8.89,0-.97-.8.07-.8-.89,0Z"/><path class="cls-20" d="M6.37,7.52c-.19,0-.44.25-.44.44,0-.19-.25-.44-.44-.44.19,0,.44-.25.44-.44,0,.19.25.44.44.44Z"/><path class="cls-20" d="M5.16,8.97c-.29,0-.67.38-.67.67,0-.29-.38-.67-.67-.67.3,0,.67-.38.67-.67,0,.3.38.67.67.67Z"/><path class="cls-5" d="M11.7,10.47c.07-.07.19-.07.27,0,.07.07.07.19,0,.27-.07.07-.19.07-.27,0-.07-.07-.07-.19,0-.27Z"/><path class="cls-8" d="M19.61,9.34s-.82.23-1.35.69l-.26-.37s.81-.3,1.25-.71c0,0,.42-1.65,1.59-2.98.88-1,1.43-.91,1.62-.62.17.26.56.26.76.03.04-.04.07-.09.11-.14.55-.7,1.34-1.5,1.82-1.2.16,1.58,2.12-.19,2.72.54.17.37-.92,1.32-1.48,1.77-.15.12-.15.35,0,.47.19.15.38.35.37.51-.03.29-.75.88-2.28.85,0,0-.55.15-.46.45s.33.32.24.63c-.1.35-2.67,1.47-4.65.1"/><path class="cls-18" d="M19.52,9.2s-.06.01-.08.03c.03-.01.06-.02.08-.03M27.57,5c-3.77.44.71,2.66-3.68,2.72-.69.08-.28.65-.22,1.07-.09.3-1.93,1.14-3.69.57,1.5.83,3.3.46,4.14-.18-.26-.47-.39-1.08.37-1.18,4.12-.43-.03-.79,3.08-3"/><path class="cls-4" d="M18.04,9.63c2.65-1.63,5.37-3.14,8.26-4.31.06-.02.1.07.04.09-2.12.94-4.15,2.09-6.12,3.31-.66.41-1.31.83-1.95,1.26-.24.15-.47-.19-.23-.35"/><path class="cls-4" d="M23.75,6.49c.58.13,1.14.33,1.69.56.02,0,0,.04-.01.03-.14-.04-.28-.09-.42-.13-.42-.12-.85-.24-1.28-.29-.12-.01-.09-.19.02-.17Z"/><path class="cls-4" d="M23.39,6.67c.38-.52.68-1.09.98-1.66.01-.03.06-.01.05.02-.09.31-.24.61-.39.9-.15.29-.32.57-.51.84-.07.09-.21,0-.14-.1Z"/><path class="cls-4" d="M20.99,8c.71.13,1.39.42,1.99.83.02.02,0,.06-.03.04-.47-.24-.96-.45-1.48-.58-.17-.05-.35-.09-.51-.12-.11-.02-.08-.18.03-.17Z"/><path class="cls-4" d="M21.13,7.83c.32-.44.62-.92.78-1.44,0-.02.05-.02.04,0-.06.42-.2.82-.37,1.21-.06.13-.12.26-.19.39-.04.08-.14.11-.22.07-.09-.04-.11-.16-.05-.24Z"/><path class="cls-4" d="M18.17,10.16c-.09-.14-.53-.52-.23-.65,1.42.1,2.07-4.37,4.19-4.51,1.2,1.18,2.01-1.79,3.11-1.1.29,1.43,1.98-.25,2.78.61.53.87-2.22,1.38-1.1,2.83.35.91-2.76.63-2.64,1.44.24,1.6-2.68,1.84-4.67.76-.27-.11-.98.57-1.44.63M18.24,9.73c.58-.13,1.27-.7,1.46-.52,1.34,1.02,4.91.83,4.16-.55-.1-.36.34-.6.62-.65,2.17-.22,2.41-.38,1.64-1.43.54-.87,2.02-2,1.61-1.93-.03-.58-2.62,1.17-2.65-.47-.46-.48-1.45,1.43-2.29,1.53-2.38-1.54-3.09,4.28-4.55,4.03"/><path class="cls-8" d="M17.95,8.19s-.17.84,0,1.52l-.45.07s.1-.85-.07-1.44c0,0-1.29-1.12-1.94-2.77-.49-1.24-.16-1.68.17-1.72.31-.04.48-.38.37-.67-.02-.05-.04-.11-.07-.16-.38-.8-.73-1.87-.25-2.17,1.48.57.51-.48,1.43-.68.41.01.61.17,1.19.62.15.12.25.29.42.21.22-.1.49-.19.62-.1.25.16.44,1.07-.27,2.42,0,0-.11.56.19.62s.44-.15.67.07c.27.25.11,3.05-2.01,4.19"/><path class="cls-18" d="M17.78,8.21s-.01.06-.01.09c0-.03.01-.06.01-.09M17.34.1c.01,2.65,3.03-.4,1.1,3.55-.24.65.45.55.86.68.23.21.15,2.24-1.16,3.55,1.42-.97,1.9-2.74,1.71-3.78-.54.02-1.14-.14-.89-.87,1.48-3.87.54-.94-1.51-3.18"/><path class="cls-4" d="M17.5,9.73c-.26-3.1-.38-6.21-.11-9.31,0-.06.11-.06.1,0-.12,2.32,0,4.64.19,6.95.07.77.15,1.54.24,2.31.03.28-.38.33-.42.05"/><path class="cls-4" d="M17.28,3.21c.38-.46.81-.86,1.26-1.25.01-.01.04,0,.02.02-.1.1-.21.21-.31.32-.3.32-.59.65-.84,1.01-.07.1-.21,0-.14-.1Z"/><path class="cls-4" d="M17.27,3.62c-.29-.57-.66-1.1-1.03-1.62-.02-.03.02-.06.04-.04.24.22.44.49.63.75.19.27.36.54.52.83.05.1-.1.18-.15.08Z"/><path class="cls-4" d="M17.38,6.36c.44-.58,1-1.06,1.64-1.4.03-.01.05.02.03.04-.43.31-.83.66-1.19,1.05-.12.13-.23.27-.34.41-.07.09-.2,0-.14-.1Z"/><path class="cls-4" d="M17.29,6.15c-.25-.48-.54-.96-.93-1.35-.02-.02,0-.05.03-.03.35.24.64.55.91.88.09.11.18.22.26.34.05.07.03.17-.04.22-.08.06-.2.03-.24-.06Z"/><path class="cls-4" d="M18.03,9.85c-.16.02-.7.24-.68-.09.73-1.23-2.97-3.82-2.14-5.78,1.59-.53-.69-2.6.42-3.28,1.4.38.39-.38,1.52-.7,1.02-.08.51,1.11,2.3.76.97.1-.68,2.75.1,3,1.53.51.43,3.23-1.43,4.52-.22.19.06,1.13-.09,1.57M17.68,9.59c.15-.57-.05-1.45.19-1.54,1.52-.74,2.95-4,1.39-3.96-.37-.08-.38-.57-.3-.85.79-2.04.75-2.32-.54-2.11-.53-.88-1.15-1.21-1.28-.81-.53-.23.14,1.37-1.34.65-.64.19.62,1.94.33,2.73-2.45,1.43,2.42,4.69,1.55,5.88"/><path class="cls-8" d="M19.18,8.69s-.57.64-.76,1.31l-.42-.16s.51-.69.66-1.28c0,0-.55-1.61-.29-3.37.2-1.32.7-1.54,1.01-1.41.29.12.61-.09.65-.4,0-.05.02-.11.02-.18.08-.88.3-1.98.87-2,.99,1.24,1.68-1.32,2.57-1.03.35.22-.05,1.6-.27,2.29-.06.18.07.38.26.4.24.02.51.08.59.22.14.26-.15,1.15-1.45,1.96,0,0-.37.43-.15.63s.45.09.55.39c.11.35-1.43,2.69-3.84,2.62"/><path class="cls-18" d="M19.03,8.63s-.04.04-.06.07c.02-.03.04-.05.06-.07M23.47.72c-2.92,2.43,2.05,1.84-1.6,4.29-.53.44.12.7.4,1.02.09.3-.99,2.01-2.78,2.5,1.71-.13,3.02-1.42,3.37-2.42-.48-.25-.91-.69-.33-1.2,3.22-2.61-.46-.65.94-4.2"/><path class="cls-4" d="M18.03,9.8c1.33-2.81,2.79-5.57,4.57-8.12.04-.05.12,0,.08.06-1.27,1.94-2.33,4.01-3.32,6.11-.33.7-.65,1.41-.94,2.12-.12.26-.5.09-.39-.17"/><path class="cls-4" d="M21.09,4.05c.56-.21,1.14-.34,1.72-.45.02,0,.03.03,0,.03-.14.04-.28.08-.42.12-.42.13-.84.27-1.23.45-.11.05-.18-.11-.07-.16Z"/><path class="cls-4" d="M20.89,4.4c.03-.64-.02-1.28-.08-1.92,0-.03.05-.04.05-.01.09.31.13.64.17.96.03.33.04.65.03.98,0,.11-.18.11-.17,0Z"/><path class="cls-4" d="M19.6,6.82c.67-.28,1.4-.41,2.12-.4.03,0,.03.05,0,.05-.53.06-1.05.15-1.56.32-.17.05-.34.12-.49.18-.1.04-.17-.11-.07-.16Z"/><path class="cls-4" d="M19.63,6.6c.03-.54.01-1.1-.13-1.63,0-.02.03-.04.04-.02.18.38.28.8.35,1.22.02.14.04.28.06.43,0,.09-.06.17-.14.17-.1.01-.18-.07-.17-.17Z"/><path class="cls-4" d="M18.42,10.17c-.15-.07-.72-.15-.55-.42,1.25-.7-.66-4.79,1.04-6.07,1.65.34.7-2.6,2.01-2.63,1.03,1.03,1.52-1.29,2.66-1.01.92.44-1.11,2.37.63,2.97.79.57-1.96,2.04-1.42,2.65,1.07,1.21-1.24,3.01-3.5,3.19-.28.06-.51,1.01-.87,1.31M18.25,9.77c.41-.42.68-1.28.94-1.24,1.69.12,4.56-1.99,3.19-2.74-.28-.25-.04-.69.17-.88,1.7-1.37,1.81-1.64.59-2.1-.02-1.02.6-2.78.29-2.5-.34-.47-1.56,2.41-2.48,1.05-.65-.16-.44,1.99-1.08,2.53-2.84.01-.25,5.27-1.61,5.86"/><path class="cls-3" d="M20.74,9.94c-7.39-5.94-16.2,6.15-8.28,11.37.07.88-.43,1.41-1.14,1.57-1.54.5.24.96.85.65-.08.89.73,1.18.35,1.95.17.89.63.17.93-.18.48-.28.04-.55-.21-.73-.45-1.02,1.1-.9,1.26-1.66.32-.75,1.25-.37,1.89-.4,6.53.23,9.54-8.78,4.36-12.56M9.58,15.46c0-3.47,2.6-6.33,5.95-6.75-5.25.85-7.53,8.06-3.72,11.79-1.37-1.25-2.23-3.04-2.23-5.04M16.39,22.27c-.2,0-.4,0-.6-.03,5.03.65,8.75-5.94,6.36-10.41,2.88,4.3-.52,10.59-5.76,10.44"/><path class="cls-4" d="M21.53,10.32C13.26,3.01,3.83,15.16,12.24,21.44c.6.45-.4,1.08-.99,1.22-.99.11-.95,1.21-.11,1.17.99-.22,1.27.89,1.15,1.67.29,1.44,1.49.08,1.6-.58-.11-.44-.88-.6-.3-.98,1.15-.72,1.55-1.61,3.1-1.22,6.13-.03,9.34-8.22,4.84-12.4M16.39,22.27c-1.66-.52-2.14.91-3.36,1.47-.47,1.24.85.96.02,1.63-.12.28-.26.47-.3.08-.04-.37.46-.29.16-.63-.3-.33-.76-1.14-.36-1.66-.3.23-2.88.44-.56-.3,2.23-2.03-2.67-2.96-2.33-7.41.5-6.69,9.18-9.3,12.49-3.63,2.88,4.3-.52,10.59-5.76,10.44"/><path class="cls-5" d="M23.19,15.46c0,3.76-3.05,6.81-6.81,6.81-.2,0-.4,0-.6-.03.03-.02.05-.05.07-.07,2.75.28,5.07-1.17,6.57-4.18,1.07-2.16.44-4.62-.27-6.15.66,1.05,1.05,2.3,1.05,3.63"/><path class="cls-5" d="M9.88,15.65c0,1.88.73,3.59,1.93,4.86-4.29-3.59-1.88-11.32,3.72-11.79-3.22.66-5.65,3.52-5.65,6.94Z"/><path class="cls-4" d="M15.85,22.17s-.04.05-.07.07c-.05.05-.11.09-.18.13-.05.03-.09.05-.13.07h0c-.24.11-.34.05-.37-.04-.04-.1,0-.25,0-.25,0,0,.04-.03.1-.09.16-.14.44-.45.45-.81.01-.51.16-.22.21-.07.04.12.29.61-.02,1"/><path class="cls-4" d="M15.39,21.46c-.04-.07-.14-.08-.19-.02-.11.12-.33.35-.64.51-.43.22-.71.29-.76.55-.05.26-.55.54-.76.72-.21.17-.25.19-.24.46.01.27.12-.27.5-.47.37-.2.46-.31.55-.47.09-.16.67-.43.89-.57.19-.12.76-.49.65-.7"/><path class="cls-15" d="M19.88,21.13c-.65.44-1.37.75-2.11.92-.05.01-.09.02-.14.04,0,0,0,0-.01,0h0s0,0,.01,0c-.09.02-.19.04-.28.06.91-.13,1.77-.47,2.54-1.02M22.15,11.83c.72,1.53.95,3.81.35,5.71-.15.46-.33.9-.55,1.3.16-.27.32-.55.47-.85,1.07-2.16.44-4.62-.27-6.15h0"/><path class="cls-17" d="M21.44,16.62s0,0,0,0c0,0,0,0,0,0h0M20.76,16.33h0c.33.16.6.29.67.29-.08,0-.34-.14-.67-.29M19.93,10.51c-.13.1-.2.27-.23.49h0c.03-.22.09-.39.23-.49M19.94,10.51s0,0,0,0c0,0,0,0,0,0M19.94,10.51s0,0,0,0c0,0,0,0,0,0M19.73,9.78h0c.34.19.66.41.95.68h0c1.6,1.52,2.34,4.02,1.72,6.55-.63,2.56-2.47,4.45-4.63,5.03.74-.17,1.46-.48,2.11-.92.78-.55,1.47-1.32,2.07-2.29.22-.4.4-.83.55-1.3.59-1.89.36-4.18-.35-5.71h0c-.31-.5-.69-.95-1.11-1.34-.72-.5-1.3-.71-1.3-.71"/><path class="cls-11" d="M21.03,10.48c.43.4.8.85,1.11,1.34h0c.66,1.05,1.05,2.3,1.05,3.63h0c0,3.76-3.05,6.81-6.81,6.81-.2,0-.4,0-.6-.03h0s-.05.05-.08.07c.05,0,.1.01.15.02.19.03.44.05.72.05.57,0,1.25-.07,1.68-.18.06,0,.13,0,.19,0,1.91,0,3.88-2.08,4.59-4.98.7-2.85-.04-5.54-1.66-6.48h0c-.12-.09-.23-.18-.35-.26"/><path class="cls-9" d="M22.15,11.83h0c2.55,4.1-1.06,11.05-6.35,10.4,5.37.73,9.42-5.88,6.35-10.4"/><path class="cls-11" d="M15.09,22.25c-.19.16-.39.38-.56.58.24-.22.37-.38.56-.47,0-.04,0-.08,0-.11"/><path class="cls-11" d="M15.27,22.12c-.06.03-.12.08-.18.13,0,.03,0,.07,0,.11.1-.05.21-.07.36-.07.07,0,.15,0,.25.02.03-.02.06-.05.08-.07h0s.02-.02.03-.03c-.18-.02-.36-.05-.55-.09"/><path class="cls-17" d="M19.57,17.19s0,0,0,0c0,0,0,0,0,0M20.86,16.14c-.33.27.9.67.53.37-.11-.12-.3-.25-.53-.37M17.51,15.98c-.35.64.85.54,1.25.85-.2-.56-.7-.69-1.25-.85M16.32,8.72c.05.18.65,1.29.68,1.83,1.4.47,2.35,1.39.22.32-.39.48.57,1,.59,1.51.37.98-.32,2.4-.13,3.37-.03-.02-.07-.05-.1-.07-.04.31.65.32.88.52-.63-1.58.89-3.54,1.23-4.23,0-.61.13-1.7-.04-2.22-.99-.51-2.26-.97-3.33-1.02"/><path class="cls-2" d="M20.76,16.33s0,0,0,0c.33.16.6.29.67.29h0s0,0,0,0c-.08,0-.35-.14-.68-.3M19.73,9.78l-.02,1.22c.03-.22.09-.39.23-.49,0,0,0,0,0,0,0,0,0,0,0,0,0,0,0,0,0,0,0,0,0,0,0,0,.09-.07.21-.1.36-.1.11,0,.23.02.38.05-.29-.27-.6-.49-.95-.68"/><path class="cls-17" d="M13.37,23.17c-.42.12-.88,1.22-.42.93-.09-.57.62-.37.42-.93M17.33,16.51c-.99,1.21.63,1.06.99,1.77-2.24-1.43-3.33,1.93-5.19,3.42-.4.97-.19.44-.82,1.09-.09.23.77-.32.75.14.36.82.25-1.67,2.12-1.51,1.73.14,6.83-4.48,2.14-4.91"/><path class="cls-11" d="M14.54,22.83s-.03.03-.05.05c-.5.45-1.01.83-1.01.83,0,0-.02-.08-.05-.2-.2.1-.37.18-.4.23-.03.05-.07.19-.08.36.05-.08.12-.19.25-.26.27-.14.88-.39,1.08-.68.05-.08.15-.2.26-.34"/><path class="cls-11" d="M15.73,20.96s-.07.07-.07.29c0,.04,0,.09-.01.13.09-.02.19-.04.28-.06-.02-.06-.04-.11-.05-.14-.03-.09-.09-.22-.14-.22"/><path class="cls-11" d="M13.36,22.98c-.12.09-.24.17-.32.23,0,0-.02.01-.02.02-.05.17-.12.35-.18.5.06-.06.19-.39.46-.54.02-.01.05-.03.07-.04,0-.06-.01-.13-.01-.18M15.29,21.41s-.04,0-.05.01c.03,0,.06,0,.1,0-.01,0-.03,0-.04,0"/><path class="cls-7" d="M17.62,22.08c-.39.08-.79.12-1.18.12-.19,0-.39,0-.58-.03.22.02.44.03.66.03.29,0,.56-.02.84-.06.1-.02.19-.04.28-.06,0,0,0,0-.01,0"/><path class="cls-2" d="M17.75,20.27c-.14.13-.88.78-1.83,1.04.07.21.16.56-.07.85-.01.01-.02.03-.03.04h0s.02-.03.03-.04h0c.19.02.39.03.58.03.4,0,.79-.04,1.18-.12-.34-.12-.49-.3-.49-.54,0-.32.26-.74.62-1.27"/><path class="cls-22" d="M17.35,22.14c-.27.04-.55.06-.84.06-.22,0-.44-.01-.66-.03h0s-.02.03-.03.04c.18.02.36.03.55.03.33,0,.66-.03.98-.09"/><path class="cls-2" d="M15.65,21.38c-.1.02-.21.03-.31.04.02,0,.04.03.06.05.11.21-.46.58-.65.7-.22.14-.81.41-.89.57-.08.15-.16.26-.48.43.01.12.03.24.05.34.34-.17.78-.39.84-.66.05-.2.24-.37.43-.49.21-.13.41-.21.41-.21h0s.04-.03.1-.09c.14-.13.37-.38.43-.69"/><path class="cls-16" d="M15.11,22.15s-.2.08-.41.21c-.19.12-.37.29-.43.49-.07.27-.51.49-.84.66.02.12.05.2.05.2,0,0,.51-.38,1.01-.83.02-.02.04-.03.05-.05.16-.2.37-.42.56-.58,0-.06.02-.1.02-.1"/><path class="cls-16" d="M15.93,21.31c-.09.02-.18.05-.28.06-.06.31-.29.56-.43.69-.06.06-.1.09-.1.09h0s-.01.04-.02.1c.06-.05.12-.1.18-.13.18.04.36.07.55.09.01-.01.02-.03.03-.04.24-.29.15-.65.07-.85"/><path class="cls-2" d="M15.24,21.42s-.03,0-.05,0c-1.4,0-1.62,1.03-1.77,1.27-.04.07-.05.17-.05.29.2-.15.41-.32.44-.48.05-.26.32-.33.76-.55.31-.16.54-.39.64-.51.01-.01.02-.02.04-.03"/><path class="cls-16" d="M15.34,21.41s-.06,0-.1,0c-.01,0-.03.02-.04.03-.11.12-.33.35-.64.51-.43.22-.71.29-.76.55-.03.16-.24.33-.44.48,0,.06,0,.12.01.18.31-.18.4-.28.48-.43.09-.16.67-.43.89-.57.19-.12.76-.49.65-.7-.01-.02-.03-.04-.06-.05"/><path class="cls-17" d="M17.25,8.85c.1.02.18.03.2.04-.07-.02-.14-.03-.2-.04"/><path class="cls-17" d="M19.56,17.23c-.47,1.23-1.26,2.25-1.8,3.04.01-.01.02-.02.02-.02h0c.54-.79,1.31-1.8,1.78-3.02,0,0,0,0,0,0M19.58,17.19s0,0,0,0c0,0,0,0,0,0,0,0,0,0,0,0,0,0,0,0,0,0M19.78,12.15s0,0,0,0c0,.05.01.11.02.16,0,0,0,0,0,0,0-.06-.01-.11-.02-.16M19.71,11c-.03.25,0,.56.03.92,0,0,0,0,0,0-.03-.23-.04-.44-.05-.63h0s0-.15,0-.15v-.14"/><path class="cls-7" d="M17.77,22.05s-.1.02-.15.03c0,0,0,0,.01,0,.05-.01.09-.02.14-.04"/><path class="cls-2" d="M20.3,10.41c-.78,0-.59.95-.55,1.51.41-.36,1.31.1,1.14.6-.18-.34-.71-.39-1.11-.36,0,.05.01.11.02.16,1.42-.34,1.67,1.94,1.33,3.04-.41.8-.01.81.31,1.26h0c-.05.07-.45-.3-.7-.24-.2.76-1.62.72-.73,1.03-9.3,10.11,8.64,1.63.68-6.95h0c-.14-.03-.27-.05-.38-.05"/><path class="cls-12" d="M19.94,10.51s0,0,0,0c0,0,0,0,0,0M19.94,10.51s0,0,0,0c0,0,0,0,0,0M20.3,10.41c-.15,0-.27.03-.36.1.09-.06.21-.1.36-.1.11,0,.23.02.38.05h0c-.14-.04-.27-.05-.38-.05"/><path class="cls-6" d="M11.1,15.16c3.04.29,6.16.84,8.9,2.25-2.85-1.15-5.89-1.68-8.9-2.25"/><path class="cls-6" d="M12.41,18.94c1.71.06,4.01.59,5.33,1.72-1.63-.95-3.5-1.33-5.33-1.72Z"/><path class="cls-6" d="M14.84,9.65c1.4-.16,3.32.08,4.43,1.01-1.36-.71-2.92-.87-4.43-1.01Z"/><path class="cls-6" d="M10.75,14.12c2.34.08,5.01.13,6.93,1.63-2.06-1.25-4.61-1.26-6.93-1.63"/><path class="cls-5" d="M10.63,11.98c.99-.38,2.12-.33,3.09.06-.13-.03-.26-.06-.38-.08-.44-.09-.9-.14-1.36-.14-.46,0-.91.07-1.36.16Z"/><path class="cls-5" d="M9.92,17.27s.03-.02.05-.03c.05-.04.11-.06.17-.07.24-.04.48.01.71.06.31.07.61.17.89.31-.31-.06-.61-.14-.92-.21-.15-.04-.3-.07-.46-.09-.15-.02-.31-.04-.45.03Z"/><path class="cls-2" d="M17.4,12.2c.18.77.33,1.63.3,2.5.01-.04.02-.09.03-.13.18-.73.24-1.58.08-2.2-.07,0-.21-.08-.41-.17"/><path class="cls-14" d="M15.56,15.85c.13.1.28.17.44.21.14.03.27.05.4.05.05,0,.11,0,.16-.01-.3-.08-.6-.16-.9-.23-.03,0-.07-.02-.1-.02"/><path class="cls-14" d="M14.98,14.55c0,.07,0,.14.02.2.65.14,1.29.31,1.9.56.16.07.31.14.46.22,0-.01.02-.03.03-.04-.14-.1-.29-.19-.44-.27-.62-.32-1.28-.53-1.96-.68"/><path class="cls-4" d="M21.25,14.68c-.09,1.18-.78,2.1-1.54,2.04-.64-.05-1.13-.77-1.22-1.71l.69-.25-.67-.5c.15-1.08.8-1.88,1.52-1.83.76.06,1.31,1.06,1.22,2.25"/><path class="cls-20" d="M20.2,13.55c0,.33-.24.6-.54.6s-.54-.27-.54-.6.24-.6.54-.6.54.27.54.6"/><path class="cls-4" d="M17.85,14.05c-.23,1.16-1.02,1.99-1.77,1.84-.63-.12-1.04-.9-1.01-1.84l.71-.16-.6-.58c.27-1.05,1.02-1.78,1.73-1.64.75.15,1.18,1.21.95,2.37Z"/><ellipse class="cls-20" cx="16.49" cy="12.75" rx=".54" ry=".6"/><path class="cls-17" d="M19.79,12.32s0,0,0,0c0,.04.01.08.02.12h0s-.01-.08-.02-.12"/><path class="cls-2" d="M19.79,12.32c-.29.08-.54.3-.75.61.22-.27.48-.44.76-.49,0-.04-.01-.08-.02-.12"/><path class="cls-2" d="M19.8,12.32s0,0,0,0c0,.04.01.08.02.12,0,0,0,0,0,0,0-.04-.01-.08-.02-.12"/><path class="cls-2" d="M20.64,16.27s0,0,0,0c.04.02.08.04.12.06h0s-.08-.04-.12-.06"/><path class="cls-2" d="M20.78,16.1c-.04.06-.09.12-.14.17.04.02.08.04.12.05.03-.06.07-.12.1-.19-.03-.01-.05-.03-.08-.04M18.51,14.26h0c-.16.67-.19,1.38-.04,1.94.08.04.17.08.25.12.18.1.38.2.56.3-.26-.1-.51-.2-.77-.3.06.19.15.37.26.5.27.11.54.23.81.36,0,0,0,0,0,0,.06-.15.11-.31.16-.47,0,0-.02,0-.02,0-.64-.05-1.13-.77-1.22-1.71l.69-.25-.67-.5h0"/><path class="cls-12" d="M20.64,16.27s0,0,0,0c.04.02.08.04.12.06,0,0,0,0,0,0-.04-.02-.08-.04-.12-.05"/><path class="cls-2" d="M18.96,17.02c.09.06.19.11.3.13.05.01.1.02.15.03-.15-.06-.3-.11-.45-.16"/><path class="cls-2" d="M19.73,16.72c-.05.16-.1.32-.16.47,0,0,0,0,0,0,.06-.15.11-.31.16-.47,0,0,0,0,0,0M20.78,16.09s0,0,0,0c.03.01.05.03.08.04,0,0,0,0,0,0-.03-.01-.05-.03-.08-.04M20.88,15.94s-.02.04-.03.06c.01,0,.03,0,.04,0,.03,0,.03-.02,0-.06"/><path class="cls-12" d="M20.64,16.27c-.25.28-.55.45-.87.45-.01,0-.02,0-.04,0-.05.16-.1.32-.16.47.48-.01.88-.33,1.18-.86-.04-.02-.08-.04-.12-.06"/><path class="cls-14" d="M18.76,16.83c.06.07.13.14.2.19.15.05.3.11.45.16.05,0,.09,0,.14,0,0,0,.01,0,.02,0-.26-.13-.53-.25-.81-.36"/><path class="cls-14" d="M18.46,16.2s.02.08.04.12c.26.1.52.19.77.3-.18-.1-.38-.21-.56-.3-.08-.04-.16-.08-.25-.12"/><path class="cls-11" d="M19.66,14.15c-.3,0-.54-.27-.54-.6s.24-.6.54-.6.54.27.54.6c0,.33-.24.6-.54.6M19.96,12.43s-.1,0-.15.01c0,0,0,0,0,0h0c-.28.05-.55.22-.76.49-.23.35-.41.81-.54,1.33h0l.67.5-.69.25c.08.94.57,1.66,1.22,1.71,0,0,.02,0,.02,0h0s0,0,0,0c.01,0,.02,0,.04,0,.32,0,.62-.17.87-.45h0s0,0,0,0c.05-.05.09-.11.14-.17h0s0,0,0,0c.02-.03.04-.06.06-.09.01-.02.02-.04.03-.06.1-.17.19-.37.25-.58,0,0,0,0,0,0,.09-.37.13-.76.12-1.14-.06-.97-.56-1.73-1.22-1.78-.02,0-.05,0-.07,0"/><path class="cls-10" d="M19.66,12.95c-.3,0-.54.27-.54.6s.24.6.54.6.54-.27.54-.6c0-.33-.24-.6-.54-.6"/><path class="cls-17" d="M13.12,15.57h0s0-.01,0-.01h0M13.01,15.52c-.03.1-.03.2,0,.3.03.03.05.04.07.04.09,0,.14-.22.18-.29-.08-.02-.16-.03-.25-.05M13.51,15.01c-.18.06-.34.2-.44.37.09.01.18.03.27.04.03-.04.06-.08.1-.12.08-.07.17-.11.27-.16.03-.01.06-.02.07-.05.02,0,.04.01.06.01.03,0,.05,0,.06-.03-.13-.02-.26-.05-.4-.07"/><path class="cls-14" d="M13.07,15.38s-.04.09-.06.14c.08.02.16.03.25.05,0,0,0,0,0,0,.02-.05.05-.1.08-.14-.09-.01-.18-.03-.27-.04"/><path class="cls-14" d="M13.9,15.04s0,0,0,0c0,0,0,0,0,0h0s0,0,0,0M13.75,14.97c-.06,0-.13.01-.17.02-.02,0-.05.01-.07.02.13.02.26.04.39.07,0,0,0-.02,0-.04-.02-.06-.09-.07-.15-.07"/><path class="cls-13" d="M20.04,18.41c-.08.61-.54,1.12-1.01,1.47-.24.2-.54.08-.81,0-.41-.16-.84-.32-1.19-.59-.15-.13-.31-.24-.48-.36-.25-.22-.53-.4-.86-.46-.47-.08-.96-.13-1.43-.07-.15,0-.32.14-.46.05-.19-.19-.27-.46-.37-.7-.2-.48-.16-1.03.07-1.49.07-.12.12-.25.18-.38.04-.08.18-.09.22,0,.14-.02.53.36.68.46.41.22.8.49,1.21.7.16.08.32.15.49.2.05.03.09.06.14.08.07.03.13.07.2.1.07.03.14.05.21.08.03.01.06.02.09.03h0c.13.05.27.1.4.14h.02c.14.05.28.08.43.12.07.02.14.03.21.05.07.02.14.03.22.04.07.01.14.02.22.03.07,0,.15.01.22.01.08,0,.16,0,.24-.01h0c.08.01.16.02.24.04.25.04.53-.01.77.09.1.09.11.25.12.38Z"/><path class="cls-21" d="M18.68,19.88c-.29,1.2-4.44-.4-4.84-1.33.13-.5,2.17-.38,2.53.13.65.55,1.75.37,2.31,1.2Z"/><path class="cls-1" d="M19.9,17.93c.16.68-2.89.22-3.3,0-.45-.03-3.24-1.98-2.52-2.2,1.31-.07,2.11,1.48,3.35,1.79.78.29,1.87-.33,2.46.41Z"/><path class="cls-1" d="M17.88,20.29c.01.08-.06.14-.14.14-.48.02-.97.01-1.43-.14-.09.02-.19-.04-.28-.06-.1-.03-.89-.35-1.08-.57l-.03-.02c-.17.01-.53-.43-.66-.56-.05-.06-.13-.09-.17-.16-.03-.12.11-.16.19-.11.34.11.67.21,1.01.32.03,0,.05.02.08.03.03-.03.07-.04.11-.02.03.02.05.03.08.04.33.15.67.27,1.01.41.32.12.62.29.93.45.1.08.35.14.38.26Z"/><path class="cls-13" d="M15.88,20.23c-.62-.22-1.18-.58-1.63-1.06-.34-.37-.66-.77-.84-1.25-.18-.47-.21-.98-.06-1.46.07-.2.15-.51.31-.65.39-.36.99-.18,1.38.1.76.44,1.36,1.11,2.17,1.46.27.1.54.17.83.18.66.03,1.7-.28,2.02.51.3.72-.37,1.33-.88,1.74-.91.74-2.22.85-3.29.42ZM16.45,20.28c.74.17,1.55.08,2.22-.28.47-.28.91-.64,1.21-1.1.21-.36.17-.87-.17-1.12-.82-.42-1.7.22-2.87-.47-.58-.33-1.06-.8-1.62-1.15-.28-.17-.55-.39-.88-.43-.26-.03-.56.03-.69.28-.58,1.08-.18,2.17.62,3,.57.65,1.35,1.07,2.19,1.27h0Z"/><path class="cls-13" d="M16.81,18.06c-.65-.22-1.25-.56-1.78-.99-.46-.35-.9-.75-1.21-1.24-.06-.03-.02-.13.04-.11.12.09.17.24.27.35.33.41.76.75,1.18,1.07.76.58,1.67.94,2.62,1.02.58.07,1.17.11,1.74-.04.08,0,.28-.12.32-.02,0,.03-.01.06-.04.07-.49.13-1.01.2-1.52.14-.54-.04-1.09-.1-1.61-.26Z"/><path class="cls-13" d="M17.91,20.36c-.44-.29-.91-.52-1.4-.73-.76-.34-1.55-.63-2.37-.77-.23,0-.15-.17-.05-.12.82.13,1.61.41,2.37.75.42.19.85.38,1.24.62.06.06.34.15.29.24-.02.03-.05.03-.08.02Z"/><path class="cls-13" d="M18.74,20.01h0s0,0,0,0h0c-.57-.77-1.56-1.05-2.47-.98-.05,0-.09,0-.14.02-.07.01-.09-.1-.02-.11.88-.11,1.85.1,2.49.74.08.11.23.2.25.34,0,.07-.11.07-.11,0Z"/><path class="cls-13" d="M13.72,18.44c-.06-.12.76-.25.86-.25.73-.03,1.66.04,2.09.72.06.09-.01.19-.09.1-.01-.04-.03-.07-.05-.1-.45-.57-1.25-.63-1.93-.6-.19.02-.38.06-.56.11-.08,0-.29.14-.33.04Z"/><path class="cls-13" d="M13.07,15.8c.13-.36.43-.69.81-.76.08.04.01.12-.05.13-.27.09-.48.3-.61.56-.03.04-.03.11-.07.14-.04.03-.1-.02-.08-.06Z"/><path class="cls-13" d="M20.5,19.01c-.08-.05.07-.22.08-.29.13-.38.06-.85-.2-1.16-.06-.04,0-.14.06-.1.33.33.4.89.24,1.32-.04.07-.07.27-.17.23Z"/><path class="cls-13" d="M20.57,18.99c.23-.47.22-.87-.02-1.32-.03-.05-.06-.11-.09-.15.05.03.08.07.12.12.38.41.4.96,0,1.36Z"/><path class="cls-13" d="M13.07,15.85c.01-.25.12-.57.35-.71.13-.07.29-.06.43-.07,0,0,.04,0,.02.01h0s0,0,0,0c-.05,0-.09.03-.13.04-.08.04-.17.08-.25.13-.12.1-.2.24-.29.37-.05.07-.1.15-.13.23Z"/><path class="cls-13" d="M17.14,17.47c-.21-.09-.41-.2-.61-.32-.1-.06-.19-.12-.28-.19-.22-.16-.41-.36-.62-.53-.22-.18-.47-.33-.71-.49-.1-.06-.19-.13-.3-.18-.06-.03-.12-.05-.18-.07h0s0,0,0,0h0s0,0,0,0h0c.07.02.14.02.21.04.17.04.32.12.47.2.2.12.4.24.58.38.22.17.42.36.64.52.16.11.32.21.49.3.39.24.72.3,1.16.35.31.04.62.02.93.02.27,0,.55.04.78.19-.05-.02-.1-.04-.16-.05-.41-.1-.83-.01-1.24,0-.17,0-.34-.02-.51-.03-.23-.03-.46-.07-.67-.16Z"/><path class="cls-13" d="M16.75,18.03c-.34-.11-.67-.26-.98-.44-.26-.15-.51-.31-.74-.49-.14-.11-.29-.22-.42-.34-.15-.14-.27-.3-.39-.46-.04-.05-.08-.1-.12-.15.28.26.57.52.88.74.28.2.56.4.87.57.33.2.69.35,1.06.46.47.13.95.19,1.43.24.19.02.38.05.57.06.1,0,.2,0,.3-.01.11,0,.21-.01.32-.02-.17.05-.35.08-.52.12-.17.03-.35,0-.52,0-.12,0-.23-.01-.35-.02-.47-.03-.94-.1-1.38-.24Z"/><path class="cls-13" d="M15.91,20.29c-.22-.08-.44-.18-.65-.28-.11-.05-.21-.11-.31-.17-.24-.17-.46-.37-.66-.59-.19-.22-.37-.45-.52-.7-.06-.09-.13-.19-.16-.29.06.12.17.21.26.32.34.39.68.78,1.1,1.09.18.13.39.23.59.32.12.06.25.11.38.15.26.09.53.14.81.19.55.08,1.14.06,1.66-.16.15-.07.31-.13.46-.21.11-.06.21-.13.31-.19-.08.08-.18.16-.27.23-.09.07-.18.12-.28.17-.2.11-.41.21-.64.27-.23.06-.46.08-.7.08-.47,0-.94-.1-1.39-.24Z"/><path class="cls-13" d="M15.2,17.2c-.05-.03-.1-.06-.15-.09-.06-.04-.13-.08-.16-.15-.09-.16-.06-.34.04-.48.05-.07.1-.13.17-.19h.02s0,0,0,0h0s0,0,0,0h0c-.04.06-.06.13-.09.2-.04.12-.06.24-.04.36.03.14.14.24.22.35Z"/><path class="cls-13" d="M15.55,17.38c-.29-.16-.25-.49-.08-.7h0c-.06.23-.05.5.08.7Z"/><path class="cls-17" d="M16.64,10.61c-.12,0-.23.03-.34.08-.2.12-.37.33-.42.56-.01.04,0,.09.05.09.08,0,.05-.11.08-.16,0,0,.01,0,.02,0,.06,0,.1-.08.16-.09.19-.07.39-.1.59-.12.02,0,.04,0,.07,0,.04,0,.08,0,.12,0,.04,0,.08,0,.12,0h0c-.01-.06-.03-.11-.04-.17.05.02.1.04.16.06-.02-.02-.04-.04-.06-.06-.14-.13-.33-.2-.52-.2"/><path class="cls-2" d="M17.06,10.81c.01.06.03.11.04.17.05,0,.09,0,.12-.03.02-.03.02-.06,0-.08-.05-.02-.11-.04-.16-.06"/><path class="cls-13" d="M17.2,10.96c-.03.08-.19-.02-.26-.02-.34-.05-.72.08-.94.35-.02.06-.11.03-.09-.03.23-.33.68-.47,1.07-.41.06.02.24.02.22.11Z"/><path class="cls-13" d="M17.17,10.91c-.43-.12-.76-.05-1.1.23-.04.03-.08.06-.11.1.02-.04.05-.08.08-.12.29-.38.74-.48,1.14-.21Z"/><path class="cls-17" d="M19.74,11.92h0c0,.08.02.15.03.23h0c0-.08-.02-.16-.03-.23"/><path class="cls-2" d="M19.74,11.92s-.05.04-.08.06c-.04.03-.11.09-.06.14.03.02.08.03.13.03.01,0,.03,0,.05,0,0-.08-.02-.16-.03-.23"/><path class="cls-2" d="M19.75,11.92s0,0,0,0c0,.07.02.15.03.23,0,0,0,0,0,0-.01-.08-.02-.16-.03-.24"/><path class="cls-12" d="M20.18,11.79c-.15,0-.31.05-.43.13,0,.08.02.16.03.24.02,0,.05,0,.07,0,.04,0,.08,0,.12,0,.02,0,.05,0,.07,0,.21.02.4.05.59.12.06.02.1.09.16.09,0,0,.01,0,.02,0,.03.05,0,.16.08.16.05,0,.06-.05.05-.09-.05-.23-.21-.44-.42-.56-.1-.06-.22-.08-.34-.08"/><path class="cls-13" d="M19.62,12.15c.03.08.19-.02.26-.02.34-.05.72.08.94.35.02.06.11.03.09-.03-.23-.33-.68-.47-1.07-.41-.06.02-.24.02-.22.11Z"/><path class="cls-13" d="M19.65,12.09c.43-.12.76-.05,1.1.23.04.03.08.06.11.1-.02-.04-.05-.08-.08-.12-.29-.38-.74-.48-1.14-.21Z"/></svg>