<?xml version="1.0" encoding="UTF-8"?><svg id="a" xmlns="http://www.w3.org/2000/svg" viewBox="0 0 32 32"><path d="M.63,18.19s.03,0,.04,0c.06.03.06.08.06.13,0,.19,0,.38,0,.57,0,.05,0,.1-.06.13-.01,0-.03,0-.04,0,0-.28,0-.56,0-.84Z" fill="#9be0ff"/><path d="M16.45,32h-.78s0-.03.01-.05c.25-.06.51-.06.76,0,.02.01.02.03.01.05Z" fill="#38466f"/><path d="M15.65,31.98s0,.02.01.02h-.36c-.11-.02-.22-.04-.34-.05.02-.03.06-.05.09-.05.18-.02.36.02.55.04.02,0,.04.02.05.04Z" fill="#9be0ff"/><path d="M31.4,18.19v.64s-.03,0-.05-.01c-.06-.21-.06-.41,0-.62.01-.02.03-.02.05-.01Z" fill="#38466f"/><path d="M17.21,31.94c-.1.02-.21.03-.31.05h-.28s0-.03.01-.05c.15-.06.31-.06.47-.06.04,0,.08.01.11.05Z" fill="#9be0ff"/><path d="M6.34.03s0,.01-.01.02c-.13.09-.44.09-.57,0,0,0,0-.02-.01-.02h.59Z" fill="#9be0ff"/><path d="M25.86.03h.39s0,.03,0,.04c-.12.05-.25.05-.37,0-.02-.01-.02-.03,0-.04Z" fill="#38466f"/><path d="M31.38,18.84h.01s0-.01,0-.01v.36s-.02,0-.02,0c-.08-.12-.08-.23,0-.35Z" fill="#9be0ff"/><path d="M31.38,17.83s.02,0,.02,0v.22s-.03,0-.04,0c-.04-.07-.05-.14.02-.21Z" fill="#9be0ff"/><path d="M26.26.05s0-.02-.01-.02h.2s-.01.02-.01.02c-.06.06-.12.06-.17,0Z" fill="#9be0ff"/><path d="M16.61,31.97s0,.01,0,.02h-.17s0-.02,0-.03c.05-.05.11-.05.16,0Z" fill="#3979a7"/><path d="M25.86.03s0,.01,0,.02c-.05.06-.1.05-.15,0,0,0,0-.02-.01-.02h.17Z" fill="#9be0ff"/><path d="M31.38,18.05s.01,0,.02,0v.14s-.01,0-.02,0c-.04-.04-.05-.09,0-.13Z" fill="#469bb8"/><path d="M31.38,18.05s0,.08,0,.13c0,.22,0,.44,0,.66,0,.12,0,.23,0,.35-.24,4.05-2.21,7.11-5.43,9.44-2.61,1.9-5.51,3.05-8.75,3.31-.2.01-.4.02-.59.03-.05,0-.11,0-.16,0-.27,0-.53,0-.8,0-.23-.01-.46-.02-.69-.03-4.69-.45-8.63-2.39-11.68-5.99-1.68-1.98-2.5-4.33-2.61-6.93,0-.28,0-.55,0-.83.07-1.93.57-3.72,1.59-5.37.34-.56.75-1.06,1.23-1.5.25-.22.18-.5.22-.76.21-1.31.63-2.54,1.3-3.69.09-.15.06-.19-.09-.26-2.21-.93-2.9-3.68-1.37-5.44C4.13.5,4.88.15,5.76.06c.19,0,.38,0,.57,0,1.24.11,2.13.77,2.83,1.74.08.11.13.13.26.06,4.43-2.29,8.86-2.37,13.28.03.18.1.19-.09.24-.15.62-.84,1.39-1.44,2.43-1.63.11-.02.21-.03.32-.05.05,0,.1,0,.15,0,.14,0,.27,0,.41,0,.06,0,.12,0,.17,0,1.46.21,2.6,1.28,2.84,2.68.27,1.57-.43,2.99-1.92,3.75-.34.18-.36.29-.18.61.7,1.23,1.1,2.55,1.26,3.96.01.1.05.18.12.24,1.81,1.8,2.66,4.02,2.83,6.53,0,.07,0,.15,0,.22Z" fill="#07184b"/><path d="M7.68,17.23c0,.06,0,.11,0,.17.04.23.09.45.15.73.12-1.06.39-2.02.94-2.89,0,0,.02-.02.02-.03.01-.02.02-.03.03-.05,0-.1.08-.16.13-.22.47-.56,1.11-.77,1.8-.84.41-.04.82-.05,1.23-.07.41-.02.81-.04,1.22-.02.65.04,1.3,0,1.96.02.05,0,.09,0,.16,0-.69-.34-1.38-.63-2.13-.71-.16-.06-.18-.1-.07-.2.55-.54,1.14-1.02,1.89-1.27.89-.29,1.76-.2,2.58.24.51.27.94.65,1.37,1.04.05.04.13.08.06.17-.08.04-.17.04-.26.04-.56.06-1.08.26-1.58.48-.14.06-.27.13-.41.19.06.03.11.02.16.02.91,0,1.83-.06,2.74-.02.68.03,1.37,0,2.05.14.52.1.97.33,1.34.7.06.06.13.12.14.22.63.91.97,1.93,1.03,3.09.13-.38.21-.72.21-1.07.07-.05.11.01.15.05.17.15.31.32.44.5.61.8,1.08,1.68,1.34,2.65.08.29.11.58.11.88,0,.04-.01.07.01.11.06,1.1-.07,2.15-.74,3.08-.94,1.32-2.73,1.65-4.24.78-1.11-.64-2.18-1.32-3.41-1.72-2.03-.65-3.92-.25-5.74.71-.61.33-1.2.7-1.82,1.01-2.23,1.15-4.34.12-4.82-2.34-.08-.44-.12-.88-.11-1.32.04-.2.03-.41.04-.61.04-.46.18-.89.35-1.32.3-.75.68-1.46,1.21-2.08.1-.12.22-.23.33-.34.04-.03.07-.08.13-.06,0,.01,0,.02,0,.04,0,.04,0,.07.01.11Z" fill="#9be0ff"/><path d="M23.88,5.05c.45.03.77.28,1.02.63.63.89,1.07,1.85.9,2.98-.04.33-.24.55-.45.78-.03.03-.06.06-.11.04-.06-.02-.06-.06-.07-.11,0-.05,0-.1,0-.15.02-.59-.13-1.13-.43-1.63-.04-.06-.07-.13-.11-.2-.14-.36-.41-.54-.77-.61-.06-.02-.12-.02-.18-.02-.03,0-.06,0-.08,0-.06,0-.12,0-.18.01-.01,0-.03,0-.04,0-.04,0-.08,0-.11.02-.05.01-.1.03-.16.05-.03.01-.07.01-.1.02,0,0-.01,0-.02,0-.01,0-.02,0-.03.01-.02,0-.03.01-.05.02-.02,0-.04.02-.06.03-.01,0-.02.01-.03.02-.36.21-.69.46-1,.74-.56.5-1.14.98-1.76,1.4-.4.28-.84.5-1.33.59-.04,0-.08,0-.12.02-.01,0-.03,0-.04,0-.05,0-.09,0-.14.02-.03,0-.05,0-.08,0-.05-.02-.09-.02-.14-.02-.21-.04-.33-.19-.35-.41-.03-.46.14-.85.4-1.21.06-.08.12-.16.2-.24-.42.18-.81.6-.97,1.06-.01.03-.02.06-.03.1-.06.28-.17.54-.29.8-.15.29-.39.47-.7.56-.21.06-.43.08-.65.06-.5-.06-.82-.35-1.01-.8-.05-.12-.1-.25-.14-.38-.17-.55-.45-1.02-.96-1.32.23.29.4.62.48.99.03.12.04.25.03.38-.02.2-.11.35-.32.42-.24.06-.48.02-.71-.04-.05-.01-.11-.03-.15-.08-.06-.13-.11-.27-.18-.39-.44-.77-1.1-1.2-1.99-1.27-.09,0-.19,0-.28.02-.11,0-.18-.06-.25-.13-.23-.21-.46-.42-.7-.61-.2-.15-.4-.29-.64-.36-.02,0-.05-.02-.07-.03-.01,0-.02,0-.03-.01-.03-.02-.07-.02-.1-.03-.01,0-.02,0-.04,0-.04-.01-.09,0-.13-.02-.28-.04-.55,0-.8.13-.25.13-.39.33-.44.61-.31.4-.43.88-.51,1.37-.02.14-.02.29-.03.43,0,.07.02.16-.07.19-.09.03-.14-.05-.19-.12-.14-.19-.26-.4-.35-.62-.08-.36-.09-.73-.03-1.1.01-.07.03-.13.08-.18.02-.03.03-.07.05-.11h0c.22-.57.67-.92,1.17-1.22.35-.21.75-.28,1.14-.34.11-.02.21,0,.31.03-.03-.11.06-.13.13-.16.28-.1.56-.18.85-.22.06,0,.13-.02.19-.06.03-.01.06-.01.09,0,.39.18.74.41,1.03.72,0,.01.02.02.02.03,0,0,0-.02-.02-.03,0,0,0-.01-.01-.02-.12-.18-.22-.37-.36-.53-.65-.74-1.4-.9-2.24-.59-.03,0-.05.02-.08.03-.08.02-.16.03-.25.03-.06,0-.12,0-.11-.1.21-.36.5-.67.82-.94.1-.03.17-.12.25-.17.41-.29.88-.44,1.36-.57.71-.2,1.43-.35,2.17-.44.61-.07,1.22-.07,1.83.02.32.05.62.15.89.32.17.11.31.26.44.41.07.08.12.08.18,0,.36-.48.87-.65,1.43-.73.93-.13,1.85-.03,2.76.16.5.1.99.24,1.47.39.39.12.75.31,1.09.53.4.3.73.67.99,1.1-.04.02-.08.02-.1.02.02,0,.06,0,.1-.02Z" fill="#5dc0eb"/><path d="M25.19,26.56c-2.21,2.29-4.93,3.37-8.01,3.55-3.87.23-7.41-.6-10.22-3.51.83.43,1.71.58,2.64.42.62-.11,1.18-.36,1.71-.7,1.09-.69,2.17-1.42,3.46-1.71,1.72-.39,3.26.06,4.73.94.81.49,1.56,1.09,2.5,1.36,1.05.31,2.07.23,3.04-.31.02-.01.05-.03.07-.04,0,0,.02,0,.07,0Z" fill="#9be0ff"/><path d="M4.77,25.33c-1.12-1.24-1.88-2.67-2.29-4.29-.08-.3-.12-.61-.17-.92,0,0,0-.01,0-.02,0,0,0-.01,0-.01,0-.05,0-.11,0-.16-.06-.34-.01-.68.04-1.01.08-.55.22-1.08.39-1.6.15-.47.27-.94.44-1.4.34-.92.79-1.78,1.37-2.57.24-.33.47-.67.77-.96.05-.05.09-.1.15-.12.13-.02.16.08.19.17.17.39.36.76.6,1.1.37.51.8.98,1.34,1.32.04.02.08.05.1.09-.97.84-1.88,1.73-2.47,2.88-1.22,2.41-1.41,4.9-.45,7.45,0,.02,0,.04.01.05,0,0,0,0-.01.01Z" fill="#5bbce8"/><path d="M29.75,20.2c-.27,1.97-1.16,3.64-2.46,5.11.25-.66.44-1.33.52-2.02.38-3.3-.69-6.02-3.24-8.15-.06-.05-.12-.11-.19-.17-.03-.08.03-.11.08-.14.06-.05.13-.08.19-.12.5-.29.9-.7,1.27-1.14.25-.29.44-.61.62-.94.04-.08.09-.15.19-.17.06,0,.1.05.13.09,1.17,1.32,1.94,2.84,2.39,4.53.1.37.24.73.32,1.1.11.51.2,1.01.2,1.53,0,.11,0,.21-.03.32,0,.04,0,.09,0,.13,0,.01,0,.02,0,.03Z" fill="#5bbce8"/><path d="M13.93,9.7c.3-.15.29-.42.24-.69-.09-.44-.29-.83-.63-1.21.61.31.96.77,1.15,1.36.15.45.27.92.76,1.15.75.35,1.62-.03,1.85-.83.04-.15.09-.29.14-.44.02-.03,0-.06.02-.09.08-.42.75-1.1,1.15-1.14-.34.33-.6.7-.68,1.16-.05.29-.13.62.29.75.03.02.07,0,.1.02.22.04.21.04.2.29-.01.44.07.87.24,1.28.28.65.72,1.17,1.33,1.52.47.27.98.41,1.52.42.08,0,.18-.04.23.08.01.02-.04.04,0,.05.34.07.63.25.94.4.05.02.1.05.15.08.36.23.7.48,1.04.73.05.04.12.07.11.16-.3.12-.6.23-.89.35-.66-.84-1.6-.97-2.58-.98-1.28-.02-2.56,0-3.84-.01-.05,0-.1,0-.22,0,.83-.41,1.6-.78,2.48-.81.04-.04.09-.04.15-.04.33,0,.65-.02.99.03-.64-.49-1.25-.99-1.91-1.43-.72-.46-1.5-.73-2.36-.7-.64.02-1.23.22-1.79.53-.15.09-.32.16-.46.27-.04.03-.09.06-.14.01-.04-.07-.01-.14.02-.2.31-.59.4-1.22.31-1.88-.01-.09-.02-.17.1-.18Z" fill="#1c2c5a"/><path d="M22.89,3.95c-.2-.02-.34-.18-.52-.25-1.36-.55-2.77-.87-4.25-.83-.61.02-1.28.05-1.72.53-.33.37-.46.29-.75-.02-.41-.43-.99-.5-1.55-.52-1.59-.05-3.11.25-4.57.88-.18.08-.34.19-.52.28,1.1-.98,2.38-1.6,3.79-1.94,2.95-.72,5.82-.59,8.57.82.54.28,1.05.63,1.51,1.03Z" fill="#3979a7"/><path d="M24.07,14.74c-.39-.29-.77-.58-1.16-.86.02-.07.08-.1.13-.14.54-.4,1.03-.85,1.37-1.43.22-.37.38-.77.45-1.2.03-.18.1-.33.23-.45.11-.1.19-.22.27-.34.05-.06.1-.12.17-.16.29-.46.5-.95.57-1.5.28.3.49,1.54.49,2.88-.02.04,0,.08-.02.12,0,.05,0,.09,0,.14-.03.03-.06.04-.1.03-.14-.02-.28-.04-.42-.08-.02,0-.04-.02-.04-.03.21.2.42.42.63.63.03.03.09.06.08.12-.43.75-.93,1.43-1.6,1.99-.23.19-.54.28-.73.52,0,0-.02-.01-.02-.02,0,0-.02-.01-.03-.02-.09-.07-.18-.13-.28-.2Z" fill="#5dc0eb"/><path d="M7.69,14.94c-.69-.39-1.21-.96-1.62-1.62-.19-.3-.33-.63-.5-.95-.02-.04-.07-.06-.11-.09,0-.07.05-.11.09-.15.12-.13.26-.23.39-.37-.12,0-.23.05-.34.06-.05,0-.1,0-.14-.04,0-.04,0-.07,0-.11,0-.03,0-.06-.02-.09,0-.36,0-.72,0-1.09.01-.02.01-.04.01-.06,0-.03,0-.06,0-.09,0-.01,0-.02,0-.03v-.11c0-.33.09-.65.18-.97.05-.17.1-.33.17-.49.02-.04.04-.09.1-.09.05,0,.07.06.07.11.03.3.14.57.29.82.06.1.09.2.12.31.03.09.07.16.13.23.17.23.33.45.52.66.06.06.08.15.1.23.18.96.69,1.72,1.4,2.37.13.12.27.22.42.32.07.04.14.08.18.15.01.06-.03.09-.06.11-.36.23-.7.47-1.03.73-.03.02-.05.04-.09.03,0,0-.02.01-.02.02-.01,0-.02.01-.02.02-.08.06-.15.11-.23.17Z" fill="#5dc0eb"/><path d="M25.54,10.17c-.11.14-.2.31-.34.42-.35.29-.31.73-.45,1.1-.36.95-1.02,1.64-1.85,2.19-.37-.16-.71-.38-1.11-.48-.07-.02.02-.03.03-.05.05-.05.11-.07.17-.08.59-.15,1.06-.49,1.46-.93.61-.67.89-1.48.97-2.36.02-.23.01-.46,0-.69,0-.02,0-.04-.01-.06,0-.05-.01-.11,0-.17,0-.04,0-.08,0-.11,0-.02-.01-.04-.02-.05,0-.02-.01-.04-.01-.05,0-.03-.01-.06-.02-.09,0-.02,0-.04-.01-.05,0-.02,0-.05-.01-.07,0-.03-.02-.06-.03-.09-.04-.12-.08-.23-.13-.35-.03-.07-.04-.13.02-.19.22-.12.41-.26.43-.54,0-.03.01-.06.05-.06.4.61.6,1.27.55,2.01,0,.03.02.06.03.09.03-.02.06-.03.07-.05.2-.22.39-.46.48-.75-.04.46-.09.91-.23,1.35-.02.05-.02.1-.02.15Z" fill="#469bb8"/><path d="M23.8,3.56s.01-.03.02-.04c.47-.79,1.13-1.29,2.06-1.37.49-.04.96.01,1.38.3.46.32.71.75.66,1.32,0,.04,0,.07,0,.11,0,.01,0,.02,0,.03-.25.85-.84,1.35-1.68,1.54-.21.05-.28-.29-.44-.43-.04-.04.13-.08.2-.12.24-.12.45-.27.61-.48.02-.03.03-.06.04-.1-.03,0-.06-.01-.09-.02,0,0,0,0-.01,0-.25-.02-.53.09-.73-.06-.09-.07.62-.82.84-.87.05-.01.1-.04.15-.05-.03-.05-.06-.09-.09-.14-.06-.08-.13-.15-.27-.32.22.13.34.18.45.26.11.08.2.19.31.29.01-.55-.72-1.04-1.35-.92-.8.15-1.22.75-1.54,1.42-.1.22-.16.22-.28.03-.08-.13-.26-.19-.23-.38,0-.01.02-.02.01-.04Z" fill="#5bbce8"/><path d="M26.73,12.47c-.24-.25-.49-.51-.73-.76.19.03.39.06.59.09,1.31.6,2,1.75,2.57,2.98.59,1.29.82,2.67.76,4.08-.02.39-.02.8-.15,1.18,0-1.52-.48-2.94-1-4.33-.46-1.21-1.13-2.3-2.03-3.24Z" fill="#1e6389"/><path d="M8.24,3.57c.04.11-.25.59-.36.58-.03,0-.06-.07-.08-.11-.3-.69-.71-1.27-1.47-1.48-.65-.18-1.31.18-1.47.79,0,.04,0,.08,0,.11.03-.02.07-.04.08-.07.1-.16.2-.32.4-.36.04,0,.08,0,.12,0-.02.03-.03.08-.06.1-.18.17-.23.28.09.3.18.01.69.66.71.85,0,.08-.06.04-.09.04-.2,0-.39,0-.59,0-.05,0-.1.01-.14.02.02.04.04.08.06.12.17.26.4.44.7.52.1.03.08.06.05.14-.19.4-.46.39-.8.21-.59-.31-1.06-.71-1.22-1.39,0,0-.01-.02-.01-.03,0-.02,0-.04,0-.05-.08-.97.49-1.45,1.17-1.63.79-.21,1.52-.03,2.18.46.16.12.3.26.43.4.13.14.24.31.3.5Z" fill="#5bbce8"/><path d="M7.96,14.73c.4-.29.8-.57,1.19-.86,0-.01,0-.03.02-.04.31-.18.62-.36.97-.43.54.09,1.07.05,1.59-.11.03,0,.06,0,.09,0,.04,0,.07,0,.11-.01.02,0,.04,0,.06,0,.04,0,.09-.01.13-.03.35-.04.69-.05,1.04.02.69.08,1.72.43,2.33.81-.08,0-.13,0-.17,0-1.52.01-3.04-.08-4.56.06-.79.07-1.45.37-1.94,1.02-.29-.15-.58-.29-.87-.44Z" fill="#1c2c5a"/><path d="M5.64,11.78c.13-.03.27-.06.35-.08-.16.18-.34.38-.52.58-.92.96-1.64,2.06-2.11,3.3-.53,1.41-1.03,2.83-1.06,4.36-.13-.35-.14-.72-.15-1.08-.04-2.42.59-4.61,2.31-6.39.28-.29.62-.49.98-.66.06-.01.13,0,.19-.02Z" fill="#1e6389"/><path d="M8.24,3.57c-.27-.42-.59-.78-1.02-1.04-.78-.48-1.83-.47-2.52.05-.36.27-.47.66-.51,1.09,0,.06-.02.12-.02.18-.33-.65.14-1.77.91-2.18,1.23-.65,2.71.11,3.11,1.58.03.11.04.22.06.33Z" fill="#3979a7"/><path d="M27.92,3.76c-.05-.49-.2-.94-.62-1.24-.93-.66-2.5-.35-3.19.64-.09.12-.19.23-.29.35-.02-1.01,1.27-2.17,2.31-2.1,1.18.08,2,1.09,1.82,2.26,0,.03-.02.06-.03.08Z" fill="#3979a7"/><path d="M8.21,4.98c.12.13.25,0,.38.01.52-.02.99.15,1.46.33.05.02.1.04.1.1-.18.19-.45.09-.67.2-.12.06-.26.08-.4.13-.04.01-.07.04-.1.06.04.02.07.04.12.06-1.23-.05-2.15.47-2.77,1.52.19-.75.54-1.42,1.06-2,.16-.18.39-.26.62-.32.07-.02.13-.06.19-.1Z" fill="#5bbce8"/><path d="M7.66,17.09c-.75.65-1.21,1.49-1.6,2.39-.28.64-.41,1.32-.47,2.01,0-1.75.39-3.36,1.72-4.62.12-.11.26-.19.39-.29-.01.17-.02.34-.04.5Z" fill="#1e6389"/><path d="M26.47,21.29c-.11-1.29-.64-2.42-1.38-3.46-.2-.27-.39-.55-.68-.74,0-.03,0-.07,0-.1-.01-.14-.02-.28-.04-.42.12.09.24.18.35.28,1.12,1.01,1.59,2.33,1.73,3.79.02.21.02.43.03.64Z" fill="#1e6389"/><path d="M6.51,10.18c-.24-.49-.53-.95-.58-1.55-.25.53-.35,1.06-.45,1.58-.08-.27,0-.54.04-.8.1-.62.32-1.21.63-1.76.04-.07.1-.13.16-.19.01,0,.02,0,.01.02,0,0,0,.01,0,.01-.12.44-.1.88-.03,1.32.08.42.12.84.25,1.25.01.04.01.09-.03.13Z" fill="#1c2c5a"/><path d="M5.64,11.78c-.06,0-.13.02-.19.02,0,0,.01-.02.02-.03.06,0,.11,0,.17,0Z" fill="#38466f"/><path d="M27.19,25.45c.05-.08.06-.1.07-.12,0,.02.01.03,0,.05,0,0-.02.02-.08.07Z" fill="#5bbce8"/><path d="M7.68,17.23s0-.07-.01-.11c0,.04,0,.07.01.11Z" fill="#1e6389"/><path d="M26.59,11.66s.01-.08.02-.12c0,.04-.01.08-.02.12Z" fill="#38466f"/><path d="M5.45,11.57s.01.06.02.09c0-.03-.01-.06-.02-.09Z" fill="#38466f"/><path d="M6.32,7.48s0-.02,0-.03c.01-.02.02-.04.03-.06,0,.03-.02.06-.02.08Z" fill="#5bbce8"/><path d="M5.46,10.43s0,.04-.01.06c0-.02,0-.04.01-.06Z" fill="#1c2c5a"/><path d="M5.47,10.31s0,.02,0,.03c0,0,0-.01,0-.02,0,0,0,0,0,0Z" fill="#1c2c5a"/><path d="M7.91,14.77s.02-.01.02-.02c0,0-.02.01-.02.02Z" fill="#1c2c5a"/><path d="M8.8,15.22s-.01.02-.02.03c0,0,.01-.02.02-.03Z" fill="#1c2c5a"/><path d="M4.17,3.9s0,.02.01.03c0,0-.01-.01-.02-.02,0,0,0,0,0-.01Z" fill="#3979a7"/><path d="M2.3,20.09s0,.02,0,.03c0,0,0-.01-.01-.02,0,0,0,0,0,0Z" fill="#1e6389"/><path d="M29.75,20.2s0-.02,0-.03c0,0,0,.01,0,.02,0,0,0,0,0,0Z" fill="#1e6389"/><path d="M23.8,3.56s0,.02-.01.04c0-.01,0-.02.01-.04Z" fill="#3979a7"/><path d="M4.78,25.32s0,.02.01.03c0,0-.01-.01-.02-.02,0,0,0,0,.01-.01Z" fill="#5bbce8"/><path d="M24.34,14.94s.02.01.03.02c0,0-.02-.01-.03-.02Z" fill="#5bbce8"/><path d="M27.91,3.9s0-.02,0-.03c0,.01,0,.02,0,.03Z" fill="#3979a7"/><path d="M9.53,15.59c.73-.6,1.92-.5,2.78.26.55.49.98,1.05.91,1.85-.14.38-.81.6-1.16.26-.14-.13-.25-.29-.36-.45-.19-.26-.45-.43-.72-.59-.02-.01-.04-.03-.07-.01-.03.02-.02.05-.01.08.05.21.12.41.23.6.02.04.07.09.03.14-.03.05-.09.03-.14.03-.27-.03-.55-.04-.8-.16-.77-.36-.93-1.28-.33-1.89.02-.02.05-.04.06-.08-.09-.02-.18,0-.26,0-.06,0-.12.03-.15-.05Z" fill="#07184b"/><path d="M18.87,17.68c-.09-.75.34-1.27.82-1.75.83-.82,2.02-.94,2.88-.31-.02.08-.09.06-.14.05-.11-.01-.22-.03-.34-.04.05.07.1.12.15.17.34.35.43,1.06.04,1.49-.21.23-.48.36-.78.43-.15.03-.29.05-.44.07-.05,0-.11.01-.14-.04-.04-.05,0-.11.02-.16.1-.17.18-.34.22-.53,0-.03.03-.08,0-.1-.03-.03-.07.01-.1.03-.31.15-.58.36-.76.66-.07.11-.13.22-.23.3-.24.21-.64.25-.92.11-.16-.08-.26-.19-.28-.37Z" fill="#07184b"/><path d="M9.53,15.59h.56c-.45.36-.64.83-.48,1.28.25.73.88.82,1.54.86-.16-.25-.26-.51-.31-.8,0-.03,0-.06,0-.09.03,0,.07.01.1.03.33.18.63.39.86.7.51.69.76.71,1.43.15.02.46-.21.78-.59,1.01-.89.55-2.37.42-3.11-.26-.84-.78-.84-2.05,0-2.87Z" fill="#3979a7"/><path d="M18.87,17.68c.36.56.99.57,1.35,0,.23-.36.54-.61.92-.78.03-.01.07-.02.1-.03,0,.03,0,.06,0,.09-.04.24-.14.46-.27.67-.03.04-.09.12.04.11.27-.03.55-.06.8-.17.79-.35.94-1.24.31-1.84-.05-.05-.1-.09-.17-.16.22.02.42.03.62.05,1.09,1.07.65,2.77-.86,3.27-.8.26-1.58.25-2.32-.18-.38-.22-.59-.56-.53-1.03Z" fill="#3979a7"/><path d="M12,13.32s-.04,0-.05,0c-.03.01-.06,0-.09.02-.02,0-.05,0-.07,0-.05-.07.01-.1.05-.13.53-.37,1-.8,1.53-1.16.05-.03.09-.07.15-.07.73-.51,1.52-.85,2.42-.88,1.15-.03,2.1.48,2.98,1.15.45.34.9.69,1.34,1.02-.4,0-.81,0-1.22,0-1.05-1.03-2.18-1.82-3.76-1.45-.87.21-1.52.76-2.14,1.36-.1.1.04.06.05.09-.36.01-.72.02-1.08.03-.03.02-.06.02-.09,0Z" fill="#469bb8"/><path d="M13.51,11.98c-.54.41-1.08.82-1.62,1.23-.04.03-.08.08-.12.12-.54.2-1.1.22-1.66.11-.02-.06-.07-.07-.12-.09-.85-.24-1.44-.81-1.89-1.54-.46-.76-.63-1.59-.58-2.47,0-.07.01-.13.05-.19.07-.05.1-.11.14-.19.31-.67.8-1.18,1.44-1.55.17-.09.34-.17.52-.23.31.25.61.51.92.76.05,0,.08.03.11.06.46.39.93.77,1.42,1.12.24.17.51.29.79.38.06.02.12.02.15.09.28.1.57.15.87.09-.11.05-.06.14-.05.21.08.66-.01,1.29-.33,1.89-.03.05-.03.12-.04.18Z" fill="#38466f"/><path d="M24.21,7.99c-.04.2.12.35.14.53.02.02,0,.06.02.09,0,.03,0,.05.01.08,0,.01.01.02.02.03,0,.04,0,.07,0,.11,0,.01.01.02.02.03,0,.02,0,.04,0,.05.03.03,0,.08.02.11,0,.06,0,.13.01.19,0,.01,0,.02.02.03.05.95-.11,1.86-.65,2.67-.49.72-1.11,1.27-2.01,1.42-.23-.12-.49-.07-.74-.1-1.33-.2-2.54-1.51-2.6-2.85,0-.18-.03-.35,0-.53.03-.17-.14-.06-.19-.13.02-.02.04-.02.06,0,.03,0,.06,0,.09,0,.04-.03.09,0,.14-.02.01,0,.02,0,.03,0,.03-.03.08,0,.11-.02.92-.2,1.62-.78,2.33-1.35.59-.47,1.11-1.05,1.79-1.4.06.06.14.09.21.13.41.19.77.44,1.08.78.04.05.11.08.09.16Z" fill="#38466f"/><path d="M7.6,9.16c-.35,1.76.87,3.75,2.62,4.22-.04.03-.07.05-.1.07-.32.14-.64.28-.97.42-.7-.4-1.21-.97-1.61-1.66-.23-.39-.32-.82-.47-1.24-.1-.3-.37-.53-.56-.8-.09-.46-.25-.9-.22-1.38.12.2.25.41.37.6.02.04.08.06.12.09.01-.05.04-.09.04-.14.01-.67.13-1.3.55-1.85.12.22.29.4.51.54.01.03.01.06,0,.09-.1.27-.17.56-.22.85,0,.03-.01.06-.02.08,0,.04-.02.07-.04.1Z" fill="#469bb8"/><path d="M7.6,9.16s0-.07,0-.11c0-.02,0-.04.02-.06.03-.3.1-.59.23-.87.01-.03.02-.06,0-.09-.25-.1-.43-.26-.48-.53.06-.53.64-.87,1.29-.75.04.04.1,0,.14.03h0s.08,0,.11.03c0,0,.02,0,.03,0,.02.01.04,0,.06.02.26.06.47.21.67.36-.3.21-.65.32-.94.56-.43.36-.78.78-1.01,1.3-.03.06-.04.12-.12.1Z" fill="#1c2c5a"/><path d="M13.06,9.6c-.81-.2-1.4-.75-2.02-1.25-.16-.12-.3-.26-.45-.39.23-.14.47-.05.69,0,.83.2,1.42.7,1.75,1.5.02.04.02.09.03.14Z" fill="#9be0ff"/><path d="M24.21,7.99c-.34-.42-.77-.73-1.27-.94-.06-.03-.11-.05-.1-.13,0,0,0,0,0,0,.02-.03.06,0,.08-.03,0,0,.02-.01.03-.02.01,0,.02,0,.03,0h0s.08,0,.11-.03c.06-.02.11-.04.17-.05.03-.03.08,0,.11-.02,0,0,.02,0,.03,0,.06-.03.13,0,.2-.02.03,0,.06,0,.08,0,.06.03.13,0,.19.02.37.07.66.25.8.62,0,.31-.15.53-.46.62Z" fill="#1c2c5a"/><path d="M23.53,5.02c-1.05.06-1.97.43-2.75,1.16.13-.99,1.87-1.72,2.75-1.16h0Z" fill="#1e6389"/><path d="M10.15,5.43c-.49-.26-1.03-.34-1.56-.44,1.12-.42,2.42.15,2.68,1.17h0c-.36-.27-.7-.55-1.12-.74Z" fill="#1e6389"/><path d="M23.87,6.75c-.06,0-.13-.02-.19-.02.06,0,.13.02.19.02Z" fill="#469bb8"/><path d="M23.59,6.73c-.07,0-.13.02-.2.02.07,0,.13-.02.2-.02Z" fill="#469bb8"/><path d="M23.88,5.05s-.1.02-.14.03c0-.01,0-.02,0-.03.05,0,.1,0,.15,0,0,0,0,0,0,0Z" fill="#5bbce8"/><path d="M18.57,9.7s-.09.02-.14.02c.05,0,.09-.02.14-.02Z" fill="#469bb8"/><path d="M18.35,9.72s-.04,0-.06,0c-.03,0-.05-.02-.08-.03.05,0,.09.01.14.02Z" fill="#469bb8"/><path d="M8.81,6.78s-.09-.02-.14-.03c.05,0,.09.02.14.03Z" fill="#38466f"/><path d="M23.08,6.84s-.07.02-.11.03c.04-.01.07-.02.11-.03Z" fill="#38466f"/><path d="M18.71,9.67s-.07.02-.11.02c.04,0,.07-.02.11-.02Z" fill="#469bb8"/><path d="M8.92,6.81s-.08-.02-.11-.03c.04,0,.08.02.11.03Z" fill="#38466f"/><path d="M23.36,6.76s-.07.02-.11.02c.04,0,.07-.02.11-.02Z" fill="#469bb8"/><path d="M23.53,5.02s.05,0,0,0c.05.02.03,0,0,0,0,0,0,0,0,0Z" fill="#5bbce8"/><path d="M22.92,6.89s-.06.02-.08.03c.03-.01.06-.02.08-.03Z" fill="#38466f"/><path d="M17.46,8.94s-.02.06-.02.09c0-.03.02-.06.02-.09Z" fill="#469bb8"/><path d="M11.27,6.17s.01.01.02.02c0,0,0,0-.01,0,0,0,0-.02,0-.03,0,0,0,0,0,0Z" fill="#469bb8"/><path d="M9,6.84s-.04-.02-.06-.02c.02,0,.04.02.06.02Z" fill="#38466f"/><path d="M22.97,6.87s-.02,0-.03,0c0,0,.02,0,.03,0Z" fill="#38466f"/><path d="M24.45,9.03s-.02-.08-.02-.11c0,.04.02.08.02.11Z" fill="#3979a7"/><path d="M24.37,8.61s-.02-.06-.02-.09c0,.03.02.06.02.09Z" fill="#3979a7"/><path d="M24.48,9.25s-.01-.02-.02-.03c0,.01.01.02.02.03Z" fill="#3979a7"/><path d="M24.4,8.72s-.01-.02-.02-.03c0,.01.01.02.02.03Z" fill="#3979a7"/><path d="M24.43,8.86s-.01-.02-.02-.03c0,.01.01.02.02.03Z" fill="#3979a7"/><path d="M12,13.32s.06,0,.09,0c-.03,0-.06,0-.09,0Z" fill="#38466f"/><path d="M11.85,13.34s.06-.01.09-.02c-.03,0-.06.01-.09.02Z" fill="#38466f"/><path d="M10.84,11.83c-1.39,0-2.31-1.4-1.86-2.73.02-.07.04-.14.06-.21.16-.43.21-.45.57-.17.89.68,1.81,1.3,2.78,1.85.1.06.12.11.06.21-.35.68-.91,1.04-1.62,1.06Z" fill="#fffefe"/><path d="M22.19,8.86c.07-.04.14-.08.2-.13.33-.34.47-.16.62.19.52,1.27-.09,2.6-1.34,2.87-.84.18-1.75-.3-2.04-1.11-.07-.18.16-.17.25-.25.14-.12.31-.2.47-.29.03-.05.08-.09.13-.12.52-.34,1.02-.7,1.52-1.06.06-.04.13-.07.2-.1Z" fill="#fffefe"/><path d="M22.19,8.86c-.62.43-1.23.85-1.85,1.28,0-.92.78-1.52,1.67-1.31.06.01.12.02.18.03Z" fill="#3979a7"/><path d="M7.85,8.05s.03.06,0,.09c0-.03,0-.06,0-.09Z" fill="#3979a7"/><path d="M7.63,9s-.01.04-.02.06c0-.02.01-.04.02-.06Z" fill="#38466f"/></svg>