<svg id="a" xmlns="http://www.w3.org/2000/svg" viewBox="0 0 32 32"><circle cx="16" cy="16" r="16" fill="#ede527" stroke-width="0"/><path d="M10.16,14.1c-.25-.05-.63.07-.67-.3-.05-.45.45-.46.69-.68.42,0,.43-.58.17-.76-.29-.2-1.73.13-2.1.16.49-.57,1.85.12,2.13-.62.2-.53-2.95-.12-3.32-.09,0-.06-.01-.12-.02-.18.03-.02.07-.03.11-.03.09-.03.17-.05.26-.08.98-.07,1.96-.15,2.93-.22.06,0,.13.01.19.02,0,.04.02.08.03.12.04.28.07.56.37.72-.05.27-.1.54-.15.81-.02,0-.04,0-.07,0-.07.13-.07.22.11.22.71-.03,1.42-.06,2.13-.08.28,0,.56,0,.84,0,.09-.01.17-.03.26-.04.08-.03.17-.06.25-.09.08-.04.16-.09.23-.13.7.41,1.43.03,2.15.1.06-.01.13-.03.19-.04-.02-.04-.04-.09-.06-.13-.68-.76-1.57-.48-2.39-.49-.22-.2,0-.24.11-.31,1.14,0,2.28,0,3.42,0,.01.06.03.13.04.19-.15.24-.3.48-.46.71.55.22.5-.38.9-.43.2.88.75-.04.53-.55-.37-.88-.38.27-.54.54-.08-.08-.17-.16-.25-.25.01-.09.03-.18.04-.26.03-.08.06-.16.08-.24-.06-.09-.11-.19-.17-.28-.24-.56-.7-.88-1.25-1.09-.04,0-.08,0-.12,0-.2,0-.4,0-.6.01.04-.25.09-.49.13-.74.08.02.15.04.23.05h.13c.88,0,1.75,0,2.63,0,.04,0,.09,0,.13,0,.14-.03.29-.06.43-.09.42.11.43.43.41.77-.57.27-.93.69-.97,1.34,0,.1-.01.2-.02.31.02.26.04.52.06.78,0,.04,0,.09,0,.13.02-.03.04-.07.06-.1.66-.04,1.31-.07,1.97-.11.19-.01.37-.02.56-.03.37,0,.75.11,1.08-.16.07,0,.14,0,.21,0,.57.3.94.5.4,1.31-.19.29-.91.68-.6,1.32-.05.05-.09.09-.14.14-.86.08-1.57-.07-2.26-.76-.34-.35-1.43-1.47-1.75.31-.12.68-1.51.78-2.08.47-.71-.38-1.38-.98-2.28-.95-.25.03-.09-.44-.4-.34-.19.04-.39.07-.58.11-.25-.3-.54-.24-.83-.07-.08,0-.17.02-.25.02-.04,0-.08,0-.12,0-.28.02-.56.04-.84.06-.19-.2-.35-.2-.49.05-.15.01-.31.02-.46.03-.03.04-.07.09-.1.13,0,0,0,.01,0,.01-.1-.08-.2-.16-.3-.23ZM18.68,11.16c.37-.09,1.28-.73.97-1.18-.21-.3-2.19.17-2.25.11.42.36.85.71,1.28,1.07Z" fill="#100a07" stroke-width="0"/><path d="M7.34,20.78c.55-1.14,1.1-2.28,1.37-3.53,0,0,0-.02,0-.02.12-.31.78-.26.56-.81-.02-.11-.04-.21-.06-.32.09-.28.18-.57.27-.85,0,0,0,0,0,0,.03-.04.06-.08.09-.13.18-.35.62-.56.6-1.03.1.08.2.16.3.23-.27.43-.54.86-.82,1.29.54.23.43.61.24,1.01-.23.19-.47.36-.69.56-.21.2-.55.6-.35.7.82.41.2.75-.03,1-.51.57-.97,1.14-1.21,1.88-.09,0-.18,0-.27,0Z" fill="#583206" stroke-width="0"/><path d="M8.04,25.92c.04-.09.08-.18.12-.27.43-.22.16-.61.24-.92,0,0,0,0,0,0,.08-.04.16-.09.24-.13.11.05.22.11.33.16.09.55,1.05,2.08,1.82,1.75.75-.33.13-1.77,1.12-.33.19.42.6.29.34.89-.38-.31-.6-.56-.85-.98-.29,1.71-1.93.18-2.66-.59.07.35-.05.58-.33.69-.12-.09-.23-.17-.35-.26Z" fill="#583206" stroke-width="0"/><path d="M6.72,12.48c-.3-.18-.08-.48-.16-.71.02-.02.03-.05.04-.09.15-.02.29-.04.44-.06,0,.06.01.12.02.18-.07.06-.15.12-.22.17-.04.17-.08.34-.11.51Z" fill="#583206" stroke-width="0"/><path d="M9.56,15.13s-.06.08-.09.13c.03-.04.06-.08.09-.13Z" fill="#d4cc46" stroke-width="0"/><path d="M10.55,11.44s-.02-.08-.03-.12c.07-1.43-.35-3.17.89-4.23,1.36-1.17,3.81-1.46,5.52-1.66.03-.01.06-.03.07-.06.09-.01.18-.02.28-.03.11.11.17.06.22-.06,2.62-.31,3.87.75,4.49,3.83.06.31.11.94-.02.88-.54-.27-1.48.32-1.66-.63-.28-1.39-1.12-1.95-2.44-1.73-1.17.19-1.96.84-1.92,2.17,0,.12-.05.29-.14.34-1.27.74-2.33,1.94-4.04,1.69-.45-.06-.92.13-1.21-.39Z" fill="#d13636" stroke-width="0"/><path d="M16.93,5.42c-1.7.21-4.16.5-5.52,1.66-1.24,1.06-.81,2.8-.89,4.23-.06,0-.13-.01-.19-.02-.09-1.76-.43-3.58,1.24-4.7,1.59-1.06,4.01-1.37,5.87-1.64,1.58-.23,3.07.24,4.03,1.59,1.06,1.49.59,3.54,1.73,4.94-.02.02-.05.05-.07.07-.08.02-.16.03-.24.05-.53-1.12-1.4-1.55-2.61-1.28.02-.34.02-.67-.41-.77.05-.87-.29-1.5-1.2-1.59-1.42-.15-2.3.5-2.34,1.62-.04.25-.09.49-.13.74-.68.42-1.67.53-1.65,1.65-.12.07-.34.11-.11.31.04.19.07.38.11.57-.08.04-.16.09-.23.13-.05-.87-.52-1.09-1.34-.95-.67.12-1.36.09-2.04.13-.29-.15-.33-.43-.37-.72.29.51.76.32,1.21.39,1.72.24,2.77-.96,4.04-1.69.09-.05.15-.23.14-.34-.04-1.33.75-1.98,1.92-2.17,1.32-.22,2.17.34,2.44,1.73.19.95,1.12.36,1.66.63.13.06.08-.57.02-.88-.63-3.08-1.88-4.14-4.49-3.83-.07.02-.15.04-.22.06-.09.01-.18.02-.28.03-.04,0-.07.02-.07.06Z" fill="#583206" stroke-width="0"/><path d="M14.53,14.32c.9-.03,1.56.57,2.28.95.58.31,1.97.21,2.08-.47.31-1.78,1.4-.66,1.75-.31.69.7,1.4.84,2.26.76.43.58,1.01,1.05,1.21,1.79-.35-.34-.58-.45-1-.63-.48-.2-.33.25-.71.03-.2-.12-.4-.62-.62-.81-.26-.22-.59-.34-.86-.53-.53-.36-.87-.95-1.51-.7-.49.2-1.02,1.14-1.57,1.45.65.38,2.08.5,2.42,1.22-1.29-.39-2.58-.74-3.85-1.17-.27-.09-2.14-1.73-1.9-.41-.04.27-.25-.08-.33-.13-.24-.14.03,1.17.25,1.37.42.38,1.09.5,1.6.72,1.19.5,2.57,1.08,3.37,2.13-.95-.44-1.71-1.32-2.86-1.33-.36-.9-1.6-.72-2.24-1.31-.72-.66-.79-2.15.23-2.63ZM22.42,15.66c-.09.44-.12.24.31.75.15-.29-.12-.49-.31-.75Z" fill="#c28e2e" stroke-width="0"/><path d="M11.89,26.17c-.98-1.44-.36,0-1.12.33-.77.34-1.73-1.19-1.82-1.75.02-.01.03-.03.05-.04.89.39.78,1.73,1.82.94.18-.14.2-.59.5-.64.34-.06.38.67.74.61.47-.08,1.13-1.6,1.27-1.96.45-1.15.14-2.23-.03-3.4-.15-1.06-.45-1.95-.74-2.98-.13-.47-.25-.93-.26-1.42,0-.03.14-.89.09-1-.25-.56-1.15-.66-1.65-.21-.6.55,0,1.69-.8,2.05-.02-.02-.04-.05-.07-.07.19-.4.3-.78-.24-1.01.27-.43.54-.86.82-1.29,0,0,0-.01,0-.01.03-.04.07-.09.1-.13.15-.01.31-.02.46-.03.16-.02.32-.04.49-.05.28-.02.56-.04.84-.06.04,0,.08,0,.12,0,.08,0,.17-.02.25-.02-.02.02-.03.04-.02.06,0,.11,0,.22,0,.34.03,1.03-.12,2.11.13,3.08.3,1.17.95,2.26,1.08,3.51-.31-.08-.56-.13-.36.35.12.27.17.56.25.85.18.92,0,1.76-.59,2.5-.31.38-.69.71-.76,1.24-.09.33-.36.19-.57.23Z" fill="#cdac2b" stroke-width="0"/><path d="M13.92,21.01c-.12-1.25-.77-2.33-1.08-3.51-.25-.97-.1-2.05-.13-3.08.6.03.49.11.56-.3-.19-.01-.37-.02-.56-.03-.01-.03,0-.05.02-.06.29-.17.58-.23.83.07.03.19.06.38.1.57.16-.23.32-.45.48-.68.31-.09.14.37.4.34-1.02.48-.95,1.97-.23,2.63.64.59,1.89.41,2.24,1.31,0,0,0,0,0,0-1.1-.3-2.06-.73-3.21-.75.07.53.57,1,.66,1.6.1.64-.02,1.31.24,1.92-.11,0-.21-.01-.32-.02ZM13.33,15.07c-.4.38-.21,2.5.41,2.05.12-.09-.34-1.8-.41-2.05Z" fill="#583206" stroke-width="0"/><path d="M16.32,9.59c.04-1.12.92-1.77,2.34-1.62.9.09,1.25.72,1.2,1.59-.14.03-.29.06-.43.09-.04,0-.09,0-.13,0-.88,0-1.75,0-2.63,0-.04,0-.08,0-.13,0-.08-.02-.15-.04-.23-.05Z" fill="#c28e2e" stroke-width="0"/><path d="M14.53,11.97c-.02-1.12.97-1.23,1.65-1.65.2,0,.4,0,.6-.01,0,0,.06.01.06.01h.06c.55.2,1.01.52,1.25,1.08.06.09.11.19.17.28-.03.08-.06.16-.08.24-.09.01-.18.03-.28.04-1.14,0-2.28,0-3.42,0Z" fill="#a85f3d" stroke-width="0"/><path d="M20.26,10.33c1.21-.28,2.08.16,2.61,1.28-.67.02-1.35.04-2.02.05-.52,0-1.04,0-1.56.01.04-.65.4-1.07.97-1.34Z" fill="#a85f3d" stroke-width="0"/><path d="M6.84,11.97c.07-.06.15-.12.22-.17.37-.03,3.52-.44,3.32.09-.28.74-1.63.05-2.13.62-.06,0-.12-.01-.19-.02-.36-.28-1.06.23-1.23-.52Z" fill="#30346b" stroke-width="0"/><path d="M18.68,11.16c-.43-.35-.86-.71-1.28-1.07.07.06,2.04-.41,2.25-.11.31.45-.6,1.09-.97,1.18Z" fill="#30346b" stroke-width="0"/><path d="M24.1,17.05c-.2-.74-.79-1.21-1.21-1.79.05-.05.09-.09.14-.14,1.04.78,1.56,1.88,1.86,3.09.14.57.22,1.22-.57,1.47,0-.08,0-.15-.01-.23.62-.86.19-1.63-.21-2.41h0Z" fill="#583206" stroke-width="0"/><path d="M14.53,12.84c-.04-.19-.07-.38-.11-.57.83.01,1.72-.27,2.39.49-.05.06-.09.12-.14.17-.71-.07-1.45.31-2.15-.1Z" fill="#e7e6e3" stroke-width="0"/><path d="M10.92,12.15c.68-.04,1.37,0,2.04-.13.82-.14,1.29.08,1.34.95-.08.03-.17.06-.25.09-.09.01-.17.03-.26.04-.28,0-.56,0-.84,0,0-.05,0-.1,0-.15,2.68-.8-1.81-1.18-1.67.01-.17,0-.34,0-.51,0,.05-.27.1-.54.15-.81Z" fill="#cdac2b" stroke-width="0"/><path d="M21.37,12.68c-.66.04-1.31.07-1.97.11,0,0-.02-.04-.02-.04h-.05c-.02-.25-.04-.51-.06-.77.51-.02,1.03-.03,1.54-.05.1.29.32.46.6.56-.02.06-.03.13-.05.19Z" fill="#e7e6e3" stroke-width="0"/><path d="M23.02,12.49c-.33.27-.71.15-1.08.16-.01-.04-.03-.09-.05-.13.45-.06.54-.97,1.21-.52-.03.16-.06.32-.08.49Z" fill="#e7e6e3" stroke-width="0"/><path d="M18.44,12.43c.16-.27.16-1.42.54-.54.22.51-.33,1.43-.53.55,0,0,0-.01,0-.01Z" fill="#a85f3d" stroke-width="0"/><path d="M18.44,12.43s0,.01,0,.01c-.4.05-.35.65-.9.43.15-.24.3-.48.46-.71.06,0,.13.02.19.03.08.08.17.16.25.25Z" fill="#e7e6e3" stroke-width="0"/><path d="M20.82,11.93c-.51.02-1.03.03-1.54.05,0-.1.01-.2.02-.31.52,0,1.04,0,1.56-.01-.01.09-.02.18-.04.27Z" fill="#583206" stroke-width="0"/><path d="M12.95,12.96c0,.05,0,.1,0,.15-.71.03-1.42.06-2.13.08-.04-.07-.08-.15-.11-.22.02,0,.04,0,.07,0,.17,0,.34,0,.51,0,.56,0,1.11,0,1.67-.01Z" fill="#d4cc46" stroke-width="0"/><path d="M14.13,13.98c-.16.23-.32.45-.48.68-.03-.19-.06-.38-.1-.57.19-.04.39-.07.58-.11Z" fill="#a85f3d" stroke-width="0"/><path d="M23.02,12.49c.03-.16.06-.32.08-.49,0-.15.01-.3.02-.45.02-.03.05-.05.07-.07.2.33.24.66.04,1-.07,0-.14,0-.21,0Z" fill="#583206" stroke-width="0"/><path d="M21.89,12.52s.03.09.05.13c-.19.01-.37.02-.56.03.02-.06.03-.13.05-.19.16,0,.31.02.47.03Z" fill="#a85f3d" stroke-width="0"/><path d="M11.51,14.11c-.16.02-.32.04-.49.05.14-.26.3-.26.49-.05Z" fill="#583206" stroke-width="0"/><path d="M18.31,11.68c-.06-.09-.11-.19-.17-.28.06.09.11.19.17.28Z" fill="#583206" stroke-width="0"/><path d="M18.19,12.19c-.06,0-.13-.02-.19-.03-.01-.06-.03-.13-.04-.19.09-.01.18-.03.28-.04-.01.09-.03.18-.04.26Z" fill="#583206" stroke-width="0"/><path d="M13.79,13.11c.09-.01.17-.03.26-.04-.09.01-.17.03-.26.04Z" fill="#583206" stroke-width="0"/><path d="M16.68,12.94c.05-.06.09-.12.14-.17.02.04.04.09.06.13-.06.01-.13.03-.19.04Z" fill="#583206" stroke-width="0"/><path d="M7.14,11.59c.09-.03.17-.05.26-.08-.09.03-.17.05-.26.08Z" fill="#583206" stroke-width="0"/><path d="M10.7,12.97c.04.07.08.15.11.22-.18,0-.18-.09-.11-.22Z" fill="#583206" stroke-width="0"/><path d="M19.34,12.76h.05s.02.03.02.03c-.02.03-.04.07-.06.1,0-.04,0-.09,0-.13Z" fill="#a85f3d" stroke-width="0"/><path d="M19.29,9.64s.09,0,.13,0c-.04,0-.09,0-.13,0Z" fill="#583206" stroke-width="0"/><path d="M16.9,10.32h-.06s-.06,0-.06,0c.04,0,.08,0,.12,0Z" fill="#583206" stroke-width="0"/><path d="M12.47,14.04s-.08,0-.12,0c.04,0,.08,0,.12,0Z" fill="#583206" stroke-width="0"/><path d="M16.54,9.64s.08,0,.13,0c-.04,0-.08,0-.13,0Z" fill="#583206" stroke-width="0"/><path d="M10.56,14.19s-.07.09-.1.13c.03-.04.07-.09.1-.13Z" fill="#583206" stroke-width="0"/><path d="M16.54,18.26c1.16.01,1.91.89,2.86,1.33,0,0,0,0,0,0,.78.57,1.46,1.28,2.42,1.57.82.25,1.32-.08,1.57-.87.07,0,.14,0,.2,0-.04.69-.67,1.36-.05,2.07-.06.12-.11.25-.17.37-.18-.42-.24-1.08-.76-1.1-1.15-.03-1.95-.66-2.81-1.28-.68-.5-1.45-1.59-2.1.06-.08-.01-.17-.02-.25-.04.06-.24.92-1.59-.06-1.41-.31.06-.55.7-.69.97-.47.9-.51,1.18-1.2.14.31-.14,1.26-.06,1.17-.68-.08-.58-.59-.02-.79-.44,0-.03,0-.06,0-.09.02-.03.04-.05.06-.08.23-.03.46-.05.69-.08.28-.22-.15-.3-.1-.47h0Z" fill="#583206" stroke-width="0"/><path d="M20.6,27.7c-1.05-.6-2.39-.87-2.56-2.43-.04-.34-.4.02-.61-.03-.22-.05-.54.09-.61-.22-.05-.27.19-.4.45-.43.02.12.05.23.07.35.17-.07.34-.15.51-.22.62-.07.74,1.71,1.47,2.1,1.14.61,1.09-.22,1.23-1.1.06,0,.12.01.18.02.49.56.67,1.38,1.29.91.63-.48.5-1.64.44-2.31.11-.06.22-.12.33-.17.16.14.32.29.47.43.01.08.02.17.03.25-.63-.29-.64,1.65-1.2,2.13-.85.72-.64.04-1.3-.45-.21.45-.19.69-.2,1.18Z" fill="#583206" stroke-width="0"/><path d="M23.6,20.28c-.07,0-.14,0-.2,0,0-.08-.02-.15-.03-.23.12-.4.08-.68-.44-.62-.06-.11-.12-.22-.17-.33.01-.1.03-.2.04-.3.52.17.91.67,1.52.65,0,.08,0,.15.01.23-.2.25-.8.01-.73.6Z" fill="#100a07" stroke-width="0"/><path d="M23.29,24.84c-.01-.08-.02-.17-.03-.25.04-.62.08-1.24.13-1.86.06-.12.11-.25.17-.37.03.75.07,1.5.09,2.25,0,.23-.05.42-.35.24Z" fill="#a85f3d" stroke-width="0"/><path d="M17.39,24.25c.35-.8-.65-1.61.02-2.41.07,0,.15.01.22.02.01-.07-.13.55-.13.55.09.2.58-.25.6-.26-.15.71-.32,1.41-.49,2.12-.08,0-.15-.01-.23-.02Z" fill="#583206" stroke-width="0"/><path d="M12.46,25.94c.07-.53.45-.86.76-1.24.59-.74.77-1.58.59-2.5.11-.07.22-.15.33-.22.27,1.67-.42,2.94-1.68,3.96Z" fill="#583206" stroke-width="0"/><path d="M17.14,21.74c-.9.63-1.81.73-2.75.09.05-.08.1-.17.14-.25.88.5,1.74.28,2.58-.11,0,.09.02.18.03.27Z" fill="#583206" stroke-width="0"/><path d="M17.14,21.74c0-.09-.02-.18-.03-.27.37-.28-.27-.89.35-1.09.08.01.17.02.25.04.04.28.07.56.11.83-.02.09-.04.18-.07.27-.04.11-.09.23-.13.34-.07,0-.15-.01-.22-.02-.09-.03-.18-.07-.27-.1Z" fill="#100a07" stroke-width="0"/><path d="M14.53,21.58c-.05.08-.1.17-.14.25-.08.05-.17.1-.25.15-.11.07-.22.15-.33.22-.08-.28-.13-.58-.25-.85-.21-.48.05-.42.36-.35.11,0,.21.01.32.02.1.18.2.37.3.55Z" fill="#100a07" stroke-width="0"/><path d="M17.39,24.25c.08,0,.15.01.23.02.08.15.15.3.23.45-.17.07-.34.15-.51.22-.02-.12-.05-.23-.07-.35.04-.11.08-.22.12-.34Z" fill="#c28e2e" stroke-width="0"/><path d="M8.03,25c-.34-.74,1.23-1.33.65-1.99-.16-.18-.45.3-.62.04-.29-.47-.19-.8.02-1.32.03-.23.29-.43.11-.68-.02-.02-.17.06-.26.09-.04-.04-.07-.09-.11-.13.05-.06.86-.93,1.02-.75.38.42-.9,1.6-.51,2.23.28.46.8.14.79.86,0,.33-.39.69-.5.99-.07.13-.14.26-.22.39,0,0,0,0,0,0-.12.09-.24.18-.36.27Z" fill="#583206" stroke-width="0"/><path d="M7.82,21.01s.07.09.11.13c-.06.12-.12.24-.19.36-.03,0-.05.03-.06.07,0,0,0,0,0,0-.73,0-.2-.54-.34-.78.09,0,.18,0,.27,0,.06.09-.04.31.21.23Z" fill="#100a07" stroke-width="0"/><path d="M8.03,25c.12-.09.24-.18.36-.27-.07.31.19.7-.24.92-.04-.22-.08-.43-.12-.65Z" fill="#c28e2e" stroke-width="0"/><path d="M7.75,21.49c.06-.12.12-.24.19-.36.09-.03.24-.11.26-.09.19.26-.07.45-.11.68-.11-.08-.22-.16-.34-.24Z" fill="#c28e2e" stroke-width="0"/><polygon points="7.68 21.56 7.69 21.56 7.71 21.6 7.68 21.56" fill="#c28e2e" stroke-width="0"/><path d="M7.82,21.01c-.24.08-.15-.15-.21-.23.23-.74.7-1.31,1.21-1.88.23-.25.85-.59.03-1-.2-.1.14-.51.35-.7.22-.2.46-.38.69-.56.02.02.04.04.07.07.02.36-.55.44-.39.86.24.61-.09,1.07-.46,1.48-.33.36-.83.63-.03,1.03.27.13.2.46.07.7-.35.66-.86,1.26.08,1.92.31.22.14.73,0,1.12-.1.29-.14.6-.21.91-.02.01-.03.03-.05.04-.11-.05-.22-.11-.33-.16,0-.09-.02-.17-.02-.26.11-.3.5-.66.5-.99.01-.72-.5-.4-.79-.86-.39-.63.9-1.81.51-2.23-.16-.17-.97.69-1.02.75Z" fill="#cdac2b" stroke-width="0"/><path d="M8.61,24.34c0,.09.02.17.02.26-.08.04-.16.09-.24.13.07-.13.14-.26.22-.39Z" fill="#c28e2e" stroke-width="0"/><path d="M6.84,11.97c.17.74.86.24,1.23.52-.45.16-.9.31-1.34,0,.04-.17.08-.34.11-.51Z" fill="#100a07" stroke-width="0"/><path d="M17.28,5.32c.07-.02.15-.04.22-.06-.05.12-.11.17-.22.06Z" fill="#a85f3d" stroke-width="0"/><path d="M16.93,5.42s.03-.06.07-.06c-.02.03-.04.05-.07.06Z" fill="#a85f3d" stroke-width="0"/><path d="M21.89,12.52c-.16,0-.31-.02-.47-.03-.28-.1-.5-.27-.6-.56.01-.09.02-.18.04-.27.67-.02,1.35-.04,2.02-.05.08-.02.16-.03.24-.05,0,.15-.01.3-.02.45-.67-.46-.76.45-1.21.52Z" fill="#100a07" stroke-width="0"/><path d="M20.26,17.07c-.34-.72-1.77-.84-2.42-1.22.55-.3,1.08-1.25,1.57-1.45.64-.25.98.33,1.51.7.28.19.61.31.86.53.22.19.42.69.62.81.37.23.23-.23.71-.03.42.18.65.29,1,.63,0,0,0,0,0,0,.07,1,.73,2.4-.79,1.68-.95-.45-1.68-1.53-2.83-1.53-.08-.04-.15-.08-.23-.13Z" fill="#e5a112" stroke-width="0"/><path d="M20.26,17.07c.08.04.15.08.23.13.67.68,1.74.78,2.31,1.61-.01.1-.03.2-.04.3-.79-.48-1.58-.97-2.37-1.45h0c-.14-.21-.33-.33-.59-.32-.32-.06-.65-.12-.97-.18-.34-.38-1.58-.91-2.08-.7.47.57,1.55.85,2.21,1.16.16.13.33.26.49.4.16.15.32.3.47.44l.02.03c.06.04.13.08.19.12.05.04.1.09.15.13.03.03.06.05.09.08.06.05.11.1.17.15.35.43.67.92,1.27,1.04.04.02.08.03.12.05.86.63.9-.02.99-.62.52-.06.56.23.44.62-.53.65-1.11.89-1.84.28-.9-.74-1.81-1.47-2.71-2.2-.02-.01-.04-.02-.07-.02-.05-.04-.1-.08-.15-.12h0s-.08-.08-.13-.12h0s-.09-.07-.14-.1c-.03,0-.06-.01-.08-.02-.08-.05-.17-.09-.25-.14h.01c-.4-.51-1.05-.56-1.58-.82h0c-.32-.2-.64-.4-.97-.6-.04-.04-.08-.07-.12-.11-.24-.17-.05-.77-.61-.62-.08,0-.15.01-.23.02-.24-1.31,1.63.32,1.9.41,1.27.42,2.57.78,3.85,1.17Z" fill="#583206" stroke-width="0"/><path d="M18.25,17.77s.06,0,.08.02c.05.04.09.07.14.11,0,0,0,0,0,0,.04.04.08.08.13.12,0,0,0,0,0,0,.05.04.1.08.15.12.02,0,.05,0,.07.02.01.49,1.05,1.23,1.37,1.57-.26-.04-.52-.08-.77-.12,0,0,0,0,0,0-.8-1.06-2.18-1.64-3.37-2.13-.51-.21-1.18-.33-1.6-.72-.22-.2-.5-1.52-.25-1.37.08.04.29.39.33.13.08,0,.15-.01.23-.02.08.33.28.54.61.62.04.04.08.07.12.11.15.48.56.54.97.61,0,0,0,0,0,0,.39.53.97.71,1.58.82,0,0-.01,0-.01,0,.08.05.17.09.25.14Z" fill="#e5a112" stroke-width="0"/><path d="M22.42,15.66c.18.25.46.45.31.75-.42-.51-.4-.31-.31-.75Z" fill="#583206" stroke-width="0"/><path d="M9.01,24.71c.07-.3.11-.62.21-.91.14-.39.31-.91,0-1.12-.94-.66-.43-1.26-.08-1.92.13-.24.2-.57-.07-.7-.8-.4-.3-.67.03-1.03.37-.4.7-.87.46-1.48-.17-.42.41-.51.39-.86.8-.36.2-1.5.8-2.05.5-.46,1.4-.35,1.65.21.05.11-.09.97-.09,1,.01.49.13.96.26,1.42.29,1.02.59,1.92.74,2.98.17,1.17.47,2.25.03,3.4-.14.37-.8,1.88-1.27,1.96-.37.06-.4-.67-.74-.61-.3.05-.32.5-.5.64-1.03.79-.93-.55-1.82-.94Z" fill="#e5be08" stroke-width="0"/><path d="M12.71,14.08c.19.01.37.02.56.03-.06.41.04.33-.56.3,0-.11,0-.22,0-.34Z" fill="#c28e2e" stroke-width="0"/><path d="M14.53,21.58c-.1-.18-.2-.37-.3-.55-.26-.61-.14-1.28-.24-1.92-.1-.6-.6-1.07-.66-1.6,1.15.02,2.12.45,3.21.75-.05.17.38.25.1.47-.24-.07-.49-.23-.69.08-.02.03-.04.05-.06.08-.03.03-.02.06,0,.09.2.41.71-.14.79.44.09.62-.86.54-1.17.68.69,1.03.74.75,1.2-.14.14-.27.37-.91.69-.97.98-.18.12,1.17.06,1.41-.62.2.01.81-.35,1.09-.84.39-1.7.61-2.58.11Z" fill="#c28e2e" stroke-width="0"/><path d="M13.33,15.07c.07.25.53,1.97.41,2.05-.62.44-.81-1.67-.41-2.05Z" fill="#a85f3d" stroke-width="0"/><path d="M22.79,18.81c-.57-.83-1.64-.93-2.31-1.61,1.15,0,1.87,1.08,2.83,1.53,1.52.72.86-.68.79-1.68.4.77.83,1.54.21,2.41-.61.02-1-.47-1.52-.65Z" fill="#c28e2e" stroke-width="0"/><path d="M12.95,12.96c-.56,0-1.11,0-1.67.01-.14-1.19,4.35-.81,1.67-.01Z" fill="#e5be08" stroke-width="0"/><path d="M17.86,24.71c-.08-.15-.15-.3-.23-.45.17-.71.34-1.41.49-2.12-.03.02-.52.46-.6.26,0,0,.14-.63.13-.55.04-.11.09-.23.13-.34.02-.09.04-.18.07-.27-.04-.28-.07-.56-.11-.83.64-1.66,1.41-.56,2.1-.06.85.62,1.66,1.25,2.81,1.28.52.01.58.67.76,1.1-.04.62-.08,1.24-.13,1.86-.16-.14-.32-.29-.47-.43,0-.05-.01-.09-.02-.14h.01c.55,0,.42-1.07.28-1.4-.24-.55-.54-.62-1.06-.78-.75-.23-1.19-.34-1.83-.81-.33-.24-1.1-1.07-1.57-.9-.65.23-.38,3.79-.22,4.48.11.48.44,1.48.97,1.66.5.17.79-.41,1.21-.55-.14.87-.09,1.71-1.23,1.1-.73-.39-.85-2.17-1.47-2.1Z" fill="#cdac2b" stroke-width="0"/><path d="M19.41,19.58c.26.04.52.08.77.12-.32-.34-1.36-1.08-1.37-1.57.9.73,1.82,1.46,2.71,2.2.73.61,1.31.37,1.84-.28,0,.08.02.15.03.23-.25.79-.75,1.12-1.57.87-.95-.29-1.64-1-2.42-1.57Z" fill="#c28e2e" stroke-width="0"/><path d="M15.95,18.8c.2-.31.45-.15.69-.08-.23.03-.46.05-.69.08Z" fill="#a85f3d" stroke-width="0"/><path d="M15.9,18.96s-.04-.06,0-.09c.01.03.02.06,0,.09Z" fill="#a85f3d" stroke-width="0"/><path d="M20.55,25.71c-.42.14-.71.72-1.21.55-.53-.18-.86-1.18-.97-1.66-.16-.69-.44-4.25.22-4.48.47-.17,1.24.66,1.57.9.64.48,1.08.58,1.83.81.52.16.83.23,1.06.78.14.33.27,1.41-.28,1.39-.84-.55-.45,1.87-.81,2.06-.54.29-.87-.76-1.24-.33-.06,0-.12-.01-.18-.02Z" fill="#e5be08" stroke-width="0"/><path d="M20.73,25.73c.37-.43.7.62,1.24.33.36-.19-.03-2.61.81-2.06,0,0-.01.01-.01.01-.18.02-.35.07-.31.31.06.67.2,1.83-.44,2.31-.62.48-.81-.34-1.29-.91Z" fill="#cdac2b" stroke-width="0"/><path d="M22.46,24.33c-.04-.25.13-.29.31-.31,0,.05.01.09.02.14-.11.06-.22.11-.33.17Z" fill="#c28e2e" stroke-width="0"/><path d="M20.38,17.66c.79.48,1.58.97,2.37,1.45.06.11.12.22.17.33-.08.6-.13,1.25-.99.62,1.96-.31-1.25-1.8-1.56-2.4Z" fill="#a85f3d" stroke-width="0"/><path d="M17.83,21.25c-.02.09-.04.18-.07.27.02-.09.04-.18.07-.27Z" fill="#583206" stroke-width="0"/><path d="M20.38,17.66c.31.59,3.51,2.09,1.56,2.4-.04-.02-.08-.03-.12-.05-.33-.47-.67-.91-1.27-1.04-.06-.05-.11-.1-.17-.15-.03-.03-.06-.05-.09-.08-.05-.04-.1-.09-.15-.13-.06-.04-.13-.08-.19-.12,0,0-.02-.03-.02-.03-.01-.3-.16-.46-.47-.44-.16-.13-.33-.26-.49-.39-.04-.15-.09-.3-.13-.45.32.06.65.12.97.18.07.34.34.31.59.31h0Z" fill="#d13636" stroke-width="0"/><path d="M18.81,17.16c.04.15.09.3.13.45-.66-.31-1.74-.58-2.21-1.16.5-.21,1.73.32,2.08.7Z" fill="#a85f3d" stroke-width="0"/><path d="M20.54,18.97c.6.14.95.58,1.27,1.04-.61-.13-.92-.61-1.27-1.04Z" fill="#a85f3d" stroke-width="0"/><path d="M18,17.63c-.61-.11-1.19-.29-1.58-.82.53.26,1.18.31,1.58.82Z" fill="#c28e2e" stroke-width="0"/><path d="M15.35,16.1c-.33-.08-.53-.29-.61-.62.56-.15.38.45.61.62Z" fill="#c28e2e" stroke-width="0"/><path d="M16.43,16.81c-.41-.07-.82-.13-.97-.61.32.2.64.4.97.61Z" fill="#c28e2e" stroke-width="0"/><path d="M19.44,18.01c.31-.02.46.14.47.44-.16-.15-.32-.3-.47-.44Z" fill="#a85f3d" stroke-width="0"/><path d="M20.37,17.66c-.25,0-.52.03-.59-.31.26-.01.44.11.59.31Z" fill="#a85f3d" stroke-width="0"/><path d="M18.25,17.77c-.08-.04-.17-.09-.25-.14.08.04.17.09.25.14Z" fill="#c28e2e" stroke-width="0"/><path d="M19.94,18.48c.06.04.13.08.19.12-.06-.04-.13-.08-.19-.12Z" fill="#a85f3d" stroke-width="0"/><path d="M20.29,18.73s.06.05.09.08c-.03-.03-.06-.05-.09-.08Z" fill="#a85f3d" stroke-width="0"/><path d="M18.74,18.12c-.05-.04-.1-.08-.15-.12.05.04.1.08.15.12Z" fill="#c28e2e" stroke-width="0"/><path d="M18.59,18.01s-.08-.08-.13-.12c.04.04.08.08.13.12Z" fill="#c28e2e" stroke-width="0"/><path d="M18.47,17.89s-.09-.07-.14-.11c.05.04.09.07.14.11Z" fill="#c28e2e" stroke-width="0"/></svg>