<svg width="32" height="32" viewBox="0 0 32 32" xmlns="http://www.w3.org/2000/svg"><defs><style>.cls-1{fill:url(#Dégradé_sans_nom_26);}.cls-1,.cls-2,.cls-3{stroke-width:0px;}.cls-2{fill:#fff;}.cls-3{fill:url(#Dégradé_sans_nom_2);}</style><linearGradient id="Dégradé_sans_nom_26" x1="16" y1="32" x2="16" y2="0" gradientUnits="userSpaceOnUse"><stop offset="0" stop-color="#0162ba"/><stop offset=".25" stop-color="#001258"/><stop offset=".5" stop-color="#000726"/><stop offset=".75" stop-color="#001258"/><stop offset="1" stop-color="#0162ba"/></linearGradient><linearGradient id="Dégradé_sans_nom_2" x1="17.71" y1="14.25" x2="21.62" y2="17.24" gradientTransform="translate(0 34) scale(1 -1)" gradientUnits="userSpaceOnUse"><stop offset="0" stop-color="#007bff"/><stop offset=".49" stop-color="#ff79f4"/><stop offset="1" stop-color="#00fff6"/></linearGradient></defs><circle class="cls-1" cx="16" cy="16" r="16"/><g id="Layer_1-2"><path class="cls-2" d="m12.14,16.94l1.64.84c-.61.97-1.93,1.72-3.71,1.72-2.48,0-4.14-1.28-4.14-3.5s1.67-3.5,4.22-3.5c1.7,0,3.01.77,3.6,1.71l-1.65.84c-.43-.68-1.1-.99-1.98-.99-1.35,0-2.25.68-2.25,1.94s.9,1.94,2.25,1.94c.88,0,1.56-.3,2.02-1Z"/><path class="cls-2" d="m23.32,19.28v-6.56h1.91v6.56h-1.91Z"/><polygon class="cls-3" points="17.94 19.28 22.6 19.28 20.17 14.6 17.94 19.28"/><polygon class="cls-2" points="19.21 12.73 19.2 12.72 17.11 12.72 13.72 19.28 16.08 19.28 19.21 12.73"/></g></svg>