<svg width="32" height="32" viewBox="0 0 32 32" xmlns="http://www.w3.org/2000/svg"><defs><style>.cls-1{fill:url(#Dégradé_sans_nom_3);}.cls-1,.cls-2,.cls-3,.cls-4,.cls-5,.cls-6{stroke-width:0px;}.cls-2{fill:url(#Dégradé_sans_nom_4);}.cls-3{fill:url(#Dégradé_sans_nom_2);}.cls-4{fill:url(#Dégradé_sans_nom_5);}.cls-5{fill:url(#Dégradé_sans_nom);}.cls-6{fill:url(#Dégradé_sans_nom_6);}</style><linearGradient id="Dégradé_sans_nom" x1="8.73" y1="1036.02" x2="22.88" y2="1086.6" gradientTransform="translate(0 -1046)" gradientUnits="userSpaceOnUse"><stop offset=".14" stop-color="#ff79f4"/><stop offset=".3" stop-color="#c19af4"/><stop offset=".49" stop-color="#7dbdf5"/><stop offset=".66" stop-color="#47daf5"/><stop offset=".81" stop-color="#20eef6"/><stop offset=".93" stop-color="#09faf6"/><stop offset="1" stop-color="#00fff6"/></linearGradient><linearGradient id="Dégradé_sans_nom_2" x1="28.28" y1="1051.7" x2="28.28" y2="1072.26" gradientTransform="translate(0 -1046)" gradientUnits="userSpaceOnUse"><stop offset="0" stop-color="#8773eb"/><stop offset="1" stop-color="#00c4f0"/></linearGradient><linearGradient id="Dégradé_sans_nom_3" x1="3.71" y1="1051.81" x2="3.71" y2="1071.38" gradientTransform="translate(0 -1046)" gradientUnits="userSpaceOnUse"><stop offset="0" stop-color="#8773eb"/><stop offset="1" stop-color="#00c4f0"/></linearGradient><linearGradient id="Dégradé_sans_nom_4" x1="25.83" y1="1049.71" x2="10.08" y2="1049.71" gradientTransform="translate(0 -1046)" gradientUnits="userSpaceOnUse"><stop offset="0" stop-color="#008dee"/><stop offset="1" stop-color="#a26dea"/></linearGradient><linearGradient id="Dégradé_sans_nom_5" x1="5.77" y1="1074.3" x2="26.22" y2="1074.3" gradientTransform="translate(0 -1046)" gradientUnits="userSpaceOnUse"><stop offset="0" stop-color="#009bee"/><stop offset="1" stop-color="#00caf0"/></linearGradient><linearGradient id="Dégradé_sans_nom_6" x1="16" y1="1070.84" x2="16" y2="1059.5" gradientTransform="translate(0 -1046)" gradientUnits="userSpaceOnUse"><stop offset="0" stop-color="#ff79f4"/><stop offset="1" stop-color="#00fff6"/></linearGradient></defs><g id="Layer_2"><g id="Layer_1-2"><path class="cls-5" d="m16,0C7.16,0,0,7.16,0,16s7.16,16,16,16,16-7.16,16-16S24.84,0,16,0Zm0,24.58c-4.74,0-8.58-3.84-8.58-8.58s3.84-8.58,8.58-8.58,8.58,3.84,8.58,8.58-3.84,8.58-8.58,8.58h0Z"/><path class="cls-3" d="m31.98,16c0-.08,0-.15.01-.22-.05-3.67-1.35-7.21-3.71-10.02-4.95,5.93-4.95,14.56,0,20.49,2.35-2.81,3.66-6.35,3.71-10.02,0-.08-.01-.15-.01-.22h0Z"/><path class="cls-1" d="m3.71,5.75C1.36,8.57.05,12.11,0,15.78c0,.08,0,.15,0,.22s0,.15,0,.22c.05,3.67,1.35,7.21,3.71,10.02,2.4-2.87,3.72-6.5,3.71-10.25,0-3.75-1.31-7.37-3.71-10.25h0Z"/><path class="cls-2" d="m26.25,3.71C23.43,1.36,19.89.05,16.22,0c-.08,0-.15,0-.22,0s-.15,0-.22,0c-3.67.05-7.21,1.35-10.02,3.71,2.87,2.4,6.5,3.72,10.25,3.71,3.75,0,7.37-1.31,10.25-3.71h0Z"/><path class="cls-4" d="m5.77,28.3c5.93,4.93,14.53,4.93,20.45,0-5.93-4.93-14.53-4.93-20.45,0Z"/><circle class="cls-6" cx="16" cy="16" r="4"/></g></g></svg>