<?xml version="1.0" encoding="UTF-8"?><svg id="a" xmlns="http://www.w3.org/2000/svg" viewBox="0 0 32 32"><defs><style>.cls-1{fill:#fefdfd;}.cls-1,.cls-2,.cls-3,.cls-4,.cls-5{stroke-width:0px;}.cls-2{fill:#e65151;}.cls-3{fill:#c4354f;}.cls-4{fill:#fdd166;}.cls-5{fill:#f7ea90;}</style></defs><path class="cls-3" d="M31.99,15.12v1.6c-.08.13-.09.26-.05.4,0,.16,0,.33,0,.49-.84,7.75-6.83,13.63-14.57,14.33-.1,0-.2,0-.31,0-.14-.04-.28-.04-.41.04h-1.68c-.1-.02-.2-.04-.29-.06-.09,0-.19,0-.28,0-2.54-.26-4.92-1.06-7.04-2.47C2.92,26.51.51,22.36.05,17.07c0-.11,0-.23,0-.34,0-.48,0-.97,0-1.45,0-.1-.01-.19-.02-.29.05-.45.08-.9.15-1.35C1.4,6.18,7.12.8,14.65.05c.13,0,.25,0,.38,0l2.31.03c.09,0,.19,0,.28,0,7.74.85,13.6,6.81,14.33,14.58.02.16.03.32.05.48ZM1.12,20c.83,3.17,2.54,5.78,5.03,7.88,1.29,1.08,2.71,1.97,4.32,2.51,8.88,3.94,19.71-2.81,20.81-12.24.25-1.36.22-2.73.05-4.09,0-.04,0-.08-.01-.11-.01-.07-.03-.14-.04-.22v-.02s0-.02,0-.02C29.89,3.01,17.17-2.88,8.07,2.77,2.19,6.05-.71,13.6,1.12,20Z"/><path class="cls-2" d="M17.33.08c-.77,0-1.54-.02-2.31-.03,0-.02,0-.03.01-.04h2.32s-.02.04-.03.07Z"/><path class="cls-2" d="M.06,15.27c0,.48,0,.97,0,1.45,0,0-.03.02-.03.02l-.02-.03v-1.44l.02-.03.03.02Z"/><path class="cls-5" d="M31.99,17.68s-.04-.04-.06-.06c0-.17,0-.33,0-.49,0,0,.03.02.03.02l.03-.02v.56Z"/><path class="cls-4" d="M31.94,14.64s.03-.06.05-.08v.56c-.02-.16-.03-.32-.05-.48Z"/><path class="cls-4" d="M15.04,0s-.02.02-.01.04c-.13,0-.26,0-.38,0-.03-.01-.06-.03-.08-.04.16,0,.32,0,.48,0Z"/><path class="cls-5" d="M0,16.72l.02.03s.03-.02.03-.02c0,.11,0,.23,0,.34,0,.03-.02.05-.05.05v-.4Z"/><path class="cls-2" d="M31.99,17.12l-.03.02s-.03-.02-.03-.02c-.04-.14-.03-.28.05-.4v.4Z"/><path class="cls-2" d="M16.64,31.99c.13-.08.27-.08.41-.04,0,.02,0,.03-.01.04h-.4Z"/><path class="cls-4" d="M17.04,31.99s.02-.02.01-.04c.1,0,.2,0,.31,0,.03.01.05.03.08.04h-.4Z"/><path class="cls-5" d="M17.33.08s.01-.05.03-.07c.11,0,.21,0,.32,0-.02.02-.04.04-.06.06-.1,0-.19,0-.28,0Z"/><path class="cls-5" d="M.06,15.27l-.03-.02-.02.03v-.32h.03s0,.03,0,.03c0,.09.01.19.02.29Z"/><path class="cls-5" d="M14.32,31.99s.04-.04.06-.06c.09,0,.19,0,.28,0,0,.02-.02.04-.03.06h-.32Z"/><path class="cls-2" d="M14.64,31.99s.02-.04.03-.06c.1.02.2.04.29.06h-.32Z"/><path class="cls-5" d="M8.07,2.77c9.1-5.65,21.82.24,23.21,10.92,0,0,0,.03,0,.03.01.07.03.14.04.22,0,.04,0,.08.01.11.17,1.37.2,2.73-.05,4.09-.28.14-.55.27-.83.41.7-5.76-1.31-11.3-6.19-14.65-4.95-3.39-11.18-3.26-16.25-.2l.07-.94Z"/><path class="cls-4" d="M30.45,18.56c.28-.14.55-.27.83-.41-1.1,9.43-11.93,16.17-20.81,12.24.08-.24.17-.47.25-.71,4.06,1.29,8.19,1.32,12.04-.69,4.06-2.12,6.75-6,7.69-10.44Z"/><path class="cls-4" d="M8.07,2.77c-.02.31-.04.63-.07.94-2.34,1.87-4.36,3.84-5.52,6.67-1.31,3.2-1.35,6.62-.49,9.93-.35.05-.47-.56-.89-.31C-.71,13.6,2.19,6.05,8.07,2.77Z"/><path class="cls-5" d="M1.12,20c.42-.25.54.37.89.31.31.87.63,1.72,1.07,2.54,1.73,3.2,4.3,5.45,7.64,6.83-.08.24-.17.47-.25.71-1.61-.54-3.03-1.43-4.32-2.51-2.5-2.1-4.2-4.71-5.03-7.88Z"/><path class="cls-4" d="M31.33,14.06s0-.08-.01-.11c0,.04,0,.08.01.11Z"/><polygon class="cls-4" points="31.28 13.73 31.28 13.7 31.29 13.71 31.28 13.73"/><path class="cls-2" d="M10.72,29.68c-3.35-1.38-5.92-3.63-7.64-6.83-.44-.81-.76-1.67-1.07-2.54-.86-3.31-.82-6.73.49-9.93,1.16-2.83,3.18-4.8,5.52-6.67,5.07-3.07,11.31-3.19,16.25.2,4.89,3.35,6.9,8.89,6.19,14.65-.95,4.44-3.63,8.32-7.69,10.44-3.85,2.01-7.98,1.97-12.04.69ZM12.24,3.77c.35.26.77.52,1.21.37.19-.07.8-.93.77-.94.61.21.85.98,1.68.59.53-.25.41-.63.25-1.14-.44-1.31-1.55-.89-2.03.11-.9-1.28-2.32-.39-1.88,1.02-.17-.06-.34-.11-.52-.13-.14.06-.27.12-.41.19-.46-.24.29-.3.35-.37.47-.7-.39-.96-.93-.59-1.65,1.12,1.34,2.94,1.51.91ZM9.28,26.95h0c-.69.95-.03,1.95,1.07,1.78.68-.11.3-.3.77.36.23.31.51.53.89.61.85.19,1.13-.63.99-1.37-.08-.4-.44-.77-.84-.85-.32-.06-.78.3-.99.2-.24-.11-.29-.7-.59-.88-.31-.19-.78.05-1.02-.11-.21-.13-.2-.56-.4-.75-.28-.27-.75-.35-1.12-.21-.87.34-.86,1.65.02,1.98,1,.38.46-.84,1.23-.76ZM14.02,4.9s-.09.04-.14.06c-1.31.18-2.49.69-3.61,1.36-2.75,1.49-4.77,4.47-5.32,7.52-1.04,5.79,2.44,11.57,8.18,13.11,5.91,1.59,12.69-2.26,13.85-8.4.52-2.07.39-4.11-.27-6.12-.02-.05-.04-.09-.06-.14,0-.03-.01-.07-.02-.1-.02-.04-.04-.09-.06-.13-.05-.14-.09-.28-.15-.41-2.1-4.91-6.97-7.56-12.39-6.74ZM22.1,26.73c-.57-.08-1.36.53-1.91.7-.32.1-1.45.33-.99.91.15.18.38.02.52.13.21.16.13.31.27.52.19.31.69.89.91.18.11-.36-.59-1.09.08-1.23.42-.09.4.83.79.95.16.05,1.04-.36,1.16-.48.43-.43-.31-.67-.1-1.01.66.44,1.35.64,1.76-.23.09-.18-.03-.4.12-.54.15-.14.69.07.95-.13.25-.2.44-.62.33-.94-.07-.19-.47-.36-.5-.47-.26-.93.87.12,1.16.12,1.17-.02-.21-1.11-.28-1.31-.07-.19.2-.38.06-.6-.26-.41-.51-.13-.75.05-.58.43-.94,1.22-1.48,1.72-.26.24-.82.47-.93.81-.04.13.25.5.13.59-.06.04-.49-.41-.76-.27-.24.12-.19.68-.55.53ZM14.54,28.07c-.98.07-.22,1.88.38,2.08.25.08.84.09,1.06-.06.13-.09.4-1.03.58-1,.15.02.11.56.16.68.16.39.22.39.66.42.3.02.91-.04,1.05-.36.12-.25-.22-.64-.24-.9-.04-.36.25-.62-.11-.87-.27-.19-.91.06-1.19.11-.51.09-1.96.35-2.36-.09ZM7.43,24.69c-.06-.41-.4-.24-.6-.47-.15-.17-.08-.36-.19-.54-.08-.14-.34-.36-.43-.47-.22-.24-.05-.4-.46-.42-.31-.02-1.31.7-1.39.98-.22.82.6.44.92.38-.12.51-.48.44-.09.94.08.1.29.13.39.24.11.12.14.39.28.47.43.28,1.6-.65,1.57-1.13ZM21,4.81c.56,0,1.13-.66,1.11-1.23-.01-.27-.03-.59-.45-.53-.35.05-.28.49-.54.54.12-.82-.39-1.29-.81-.4-.32.67-.25,1.62.7,1.62ZM20.24,2.66c-.22-.62-.94-.1-1.26-.54-.1-.13-.43-.02-.49.19-.14.44-.33.91-.29,1.35.08.76.96.02,1.27.56.07.12.39-.04.45-.26.12-.42.21-.85.32-1.3ZM17.21,3.12c-.01.37.11,1.06.65.67.23-.16.23-.82.25-1.09.03-.34.02-1.02-.57-.75-.35.16-.3.84-.34,1.16Z"/><path class="cls-4" d="M26.97,18.54c-1.15,6.14-7.94,9.99-13.85,8.4-5.74-1.54-9.22-7.32-8.18-13.11.55-3.05,2.57-6.03,5.32-7.52,0,.16.13.22.24.3,1.59,1.2,3.1,2.52,4.78,3.56,1.29.8,1.73,1.74,1.54,3.17-.06.48-.13.66-.65.66-2.62-.02-5.25-.01-7.87,0-1.41,0-2.17,1.13-1.64,2.42.48,1.17,1.35,1.92,2.54,2.32.18.06.36.08.4.32.31,1.86,1.49,2.9,3.21,3.44.34.11.48.18.2.55-.46.61-.31,1.44.27,1.94.59.5,1.38.46,1.95-.12.25-.26.48-.54.69-.82.17-.22.31-.21.48-.01.2.25.39.51.6.75.51.58,1.42.68,1.99.24.63-.49.83-1.34.34-1.95-.44-.55-.19-.65.3-.86,1.63-.68,2.85-1.77,3.2-3.59.15-.79,0-1.59-.09-2.38-.02-.13-.05-.27.1-.36.11-.06.25-.06.34.03.82.78,1.83,1.3,2.68,2.05.31.27.58.69,1.11.58Z"/><path class="cls-5" d="M26.97,18.54c-.53.11-.8-.31-1.11-.58-.85-.75-1.87-1.26-2.68-2.05-.09-.09-.22-.09-.34-.03-.15.08-.11.23-.1.36.09.79.24,1.59.09,2.38-.35,1.83-1.57,2.91-3.2,3.59-.49.21-.75.31-.3.86.49.61.29,1.45-.34,1.95-.57.45-1.47.34-1.99-.24-.21-.24-.4-.5-.6-.75-.16-.2-.31-.21-.48.01-.22.28-.44.57-.69.82-.56.58-1.36.62-1.95.12-.59-.49-.73-1.32-.27-1.94.27-.36.14-.44-.2-.55-1.72-.54-2.91-1.58-3.21-3.44-.04-.24-.23-.26-.4-.32-1.19-.4-2.06-1.15-2.54-2.32-.54-1.29.22-2.42,1.64-2.42,2.62,0,5.25-.02,7.87,0,.52,0,.59-.18.65-.66.19-1.43-.25-2.37-1.54-3.17-1.69-1.04-3.19-2.36-4.78-3.56-.11-.08-.23-.14-.24-.3,1.12-.67,2.31-1.18,3.61-1.36.05-.02.09-.04.14-.06,5.43-.82,10.29,1.82,12.39,6.74.06.13.1.27.15.41.02.04.04.09.06.13,0,.03.01.07.02.1.02.05.04.09.06.14.65,2.02.79,4.06.27,6.12ZM17.66,12.63c0,.42,0,.75,0,1.09,0,.87-.27,1.14-1.15,1.14-2.74,0-5.49,0-8.23,0-.83,0-1.19.54-.84,1.3.49,1.08,1.33,1.71,2.49,1.91.32.05.47.19.47.52.04,1.39.75,2.32,1.98,2.89.65.3,1.33.46,2.04.53.36.04.38.14.15.39-.28.32-.54.66-.8,1-.26.33-.29.68.05.95.34.27.67.17.94-.16.4-.5.81-.99,1.19-1.5.17-.23.28-.21.44,0,.39.51.79,1.01,1.19,1.5.27.33.61.41.94.13.32-.27.3-.6.05-.92-.28-.37-.57-.74-.87-1.09-.2-.23-.19-.33.14-.39,1.12-.21,2.15-.63,3-1.4.86-.78,1.31-1.73,1.19-2.91-.14-1.48-.28-2.97-.44-4.45-.03-.32.05-.5.36-.65.29-.14.78-.17.8-.56.02-.44-.49-.48-.79-.61-.49-.21-.66-.54-.69-1.04-.02-.48-.09-.95-.18-1.43-.08-.46-.35-.79-.84-.84-.44-.04-.8.16-.95.58-.1.27-.2.33-.48.3-.29-.03-.56.2-.49.45.16.6-.19.95-.46,1.38-.39.62-.17,1.33-.23,1.91Z"/><path class="cls-3" d="M22.1,26.73c.36.15.31-.41.55-.53.27-.14.71.31.76.27.12-.08-.17-.45-.13-.59.11-.34.67-.57.93-.81.54-.5.9-1.29,1.48-1.72.24-.18.49-.46.75-.05.14.22-.13.4-.06.6.07.2,1.45,1.28.28,1.31-.29,0-1.42-1.05-1.16-.12.03.11.44.28.5.47.11.32-.08.74-.33.94-.26.2-.8,0-.95.13-.16.15-.04.36-.12.54-.41.87-1.1.67-1.76.23-.21.33.52.57.1,1.01-.12.12-.99.53-1.16.48-.39-.12-.37-1.04-.79-.95-.67.14.03.87-.08,1.23-.22.7-.71.13-.91-.18-.14-.22-.06-.36-.27-.52-.14-.11-.38.06-.52-.13-.46-.58.67-.81.99-.91.55-.17,1.34-.77,1.91-.7ZM21.92,26.96c-.6.34-.85.29-.47,1.08.1.22.27.7.57.64.18-.04.07-.33.07-.33-.07-.09-.05-.17.05-.23.13-.07.24-.05.32.04.16-.04.3.32.46-.04.01-.03-.34-.57-.35-.58-.22-.33-.13-.6-.65-.59ZM24.41,26.76c-.03-.37-.86-1.48-.85-.65,0,.26.51.49.46.8-.12.67-.63-.01-.78-.15-.68-.63-.65-.04-.17.45.54.56,1.35.42,1.35-.45ZM24.74,25.93c.09-.03.71-.36.62-.03-.06.22-.43.06-.47.3-.1.6,1.71-.31.61-.84-.17-.08-.77.25-.84.08-.08-.19.38-.2.37-.42-.03-.62-1.6.87-.29.9ZM26.27,23.52c-.28-.51-1.16.74-1.11.9.14.51.33-.1.49-.1.26,0,.33.17.54.31.39.27.88.49.48-.13-.25-.39-.94-.39-.4-.98ZM20.5,29.27c.34-.07-.11-1.04-.05-1.34.02-.1.45-.05.36-.28-.11-.28-.56,0-.74.07-.16.05-.63.11-.71.28-.14.3.27.17.31.2.14.11.22.03.39.21.13.15.11.91.45.86ZM23.81,26.77c.26.12-.33-.17-.24-.02.06.14.14.15.24.02ZM24.65,26.31s-.07-.08-.11-.11c-.03.01-.05.03-.07.06.03.14.09.15.17.06Z"/><path class="cls-3" d="M9.28,26.95c-.77-.08-.23,1.14-1.23.76-.88-.33-.89-1.64-.02-1.98.37-.14.84-.06,1.12.21.2.2.19.62.4.75.24.15.71-.08,1.02.11.3.18.35.77.59.88.21.1.68-.27.99-.2.4.08.77.44.84.85.14.74-.14,1.56-.99,1.37-.38-.08-.66-.3-.89-.61-.47-.66-.1-.47-.77-.36-1.1.18-1.76-.83-1.07-1.78,0,0,0,0,0,0ZM11.14,28.54c0,.49.52.93.99.95.56.02.56-.25.58-.74.05-1.2-1.56-1.41-1.58-.21ZM10.85,27.71c0-1.07-1.62-1.02-1.63.01-.01,1.08,1.64,1.04,1.63-.01ZM8.37,25.9c-.7.03-1.01.93-.52,1.42.12.12.44.31.63.24.48-.2-.25-.43-.28-.47-.15-.25-.36-.62.1-.76.42-.13.28.26.55.27.77.03.04-.67-.49-.69ZM8.66,26.8c-.1-.36-.36-.07-.36-.07.01,0,.39.43.36.07Z"/><path class="cls-3" d="M14.54,28.07c.4.44,1.84.18,2.36.09.28-.05.92-.3,1.19-.11.37.26.08.51.11.87.03.26.36.64.24.9-.14.31-.76.38-1.05.36-.44-.03-.49-.03-.66-.42-.05-.11-.01-.65-.16-.68-.18-.03-.45.91-.58,1-.22.16-.82.14-1.06.06-.6-.2-1.36-2.01-.38-2.08ZM15.7,29.99c.22-.02.78-1.18.71-1.39-.23-.65-.51.41-.66.48-.32-.89-.46-.77-.85-.04-.03-.07-.17-.66-.27-.69-.49-.15-.25.43-.19.64.27,1.09.35,1.05.89.25.1.21.12.67.38.75ZM17.53,28.9c-.87-.23,1.07-.11.38-.65-.1-.08-.91.07-.99.14-.16.14-.12,1.21.03,1.42.18.23,1.02.24,1.21,0,.34-.43-.58-.25-.65-.28-.49-.24.18-.13.22-.25.09-.24.25-.38-.21-.38Z"/><path class="cls-3" d="M7.43,24.68c.03.48-1.14,1.41-1.57,1.13-.14-.09-.17-.36-.28-.47-.1-.11-.31-.14-.39-.24-.39-.5-.03-.43.09-.94-.31.06-1.13.44-.92-.38.07-.28,1.08-1,1.39-.98.4.02.23.18.46.42.09.1.35.33.43.47.11.18.05.37.19.54.2.22.54.05.6.47ZM6.43,24.9s-.04-.04-.07-.06c.17-.92.18-1.38-.67-.63-.13.12-.71.46-.44.68.24.2.52-.23.71-.34.03.29-.29.97.03,1.12.31.15.58-.35.76-.52.12-.12.7-.4.27-.59-.22-.1-.4.23-.61.34ZM5.99,23.24c-.23-.49-1.34.27-1.42.64-.15.61,1.34-.55,1.42-.64Z"/><path class="cls-3" d="M12.24,3.76c-.44-1.4.98-2.29,1.88-1.02.49-.99,1.6-1.42,2.03-.11.17.51.28.89-.25,1.14-.83.4-1.07-.37-1.68-.59.03.01-.58.88-.77.94-.44.15-.87-.11-1.21-.37h0ZM13.92,3.15c0-1.05-1.58-1.08-1.59-.03,0,1.05,1.59,1.09,1.59.03ZM14.41,2.77c.06.64,1.39,1.3,1.68.57-.02.06-.2-.85-.2-.84-.11-.24-.29-.39-.54-.45-.5-.12-.87.24-.94.71Z"/><path class="cls-3" d="M21,4.81c-.94,0-1.01-.95-.7-1.62.43-.89.93-.42.81.4.25-.05.18-.49.54-.54.42-.06.44.26.45.53.02.57-.55,1.23-1.11,1.23ZM21.01,4.6c.39-.01,1.3-1.12.72-1.32-.41-.15-.31,1.34-.91.84-.29-.24.51-1.31-.13-1.19-.56.11-.51,1.69.32,1.67Z"/><path class="cls-3" d="M20.24,2.66c-.11.45-.2.88-.32,1.3-.06.22-.38.38-.45.26-.31-.54-1.19.2-1.27-.56-.05-.44.15-.91.29-1.35.06-.21.39-.33.49-.19.32.44,1.04-.08,1.26.54ZM19.97,2.84c.17-.91-.62.38-.55.34-.32-.63-.53-1.23-.85-.3-.05.14-.34.89-.03.93.36.05.22-.47.41-.63.1.2.33.91.6.88.29-.03.37-.99.42-1.2Z"/><path class="cls-3" d="M12.24,3.77c-.17,2.03-3.16.22-1.51-.91.54-.37,1.39-.11.93.59-.05.08-.8.13-.35.37.13-.07.27-.13.41-.19.18.03.35.07.52.13,0,0,0,0,0,0ZM11.14,4.47c.43.02,1.24-.48.52-.57-.18-.02-.33.31-.6.12-.46-.32.06-.55.22-.72.05-.05.58-.08.24-.35-.12-.1-.45,0-.55.05-.64.29-.62,1.42.17,1.48Z"/><path class="cls-3" d="M17.21,3.12c.04-.32-.02-1.01.34-1.16.59-.27.6.41.57.75-.02.26-.02.92-.25,1.09-.55.39-.66-.31-.65-.67ZM17.91,2.45c.02-.48-.25-.26-.38-.04-.04.06-.14.88-.11.94.32.88.46-.6.5-.9Z"/><path class="cls-4" d="M26.62,12.18s-.04-.09-.06-.13c.02.04.04.09.06.13Z"/><path class="cls-4" d="M14.02,4.9s-.09.04-.14.06c.05-.02.09-.04.14-.06Z"/><path class="cls-4" d="M26.7,12.42s-.04-.09-.06-.14c.02.05.04.09.06.14Z"/><path class="cls-2" d="M17.66,12.63c.05-.58-.16-1.29.23-1.91.27-.43.63-.78.46-1.38-.07-.25.21-.48.49-.45.27.03.38-.03.48-.3.15-.42.51-.62.95-.58.49.05.75.38.84.84.08.47.15.95.18,1.43.02.5.2.83.69,1.04.3.13.81.18.79.61-.01.4-.5.42-.8.56-.31.15-.39.33-.36.65.16,1.48.3,2.97.44,4.45.12,1.18-.33,2.14-1.19,2.91-.86.77-1.89,1.19-3,1.4-.33.06-.34.16-.14.39.3.35.59.72.87,1.09.25.32.26.66-.05.92-.34.28-.67.2-.94-.13-.41-.49-.81-.99-1.19-1.5-.16-.22-.27-.23-.44,0-.39.51-.79,1-1.19,1.5-.27.33-.6.43-.94.16-.34-.28-.31-.62-.05-.95.26-.34.52-.68.8-1,.22-.26.2-.36-.15-.39-.71-.07-1.39-.24-2.04-.53-1.24-.57-1.94-1.5-1.98-2.89,0-.33-.16-.46-.47-.52-1.16-.2-2-.83-2.49-1.91-.35-.76,0-1.3.84-1.3,2.74,0,5.49,0,8.23,0,.88,0,1.15-.27,1.15-1.14,0-.33,0-.67,0-1.09Z"/><path class="cls-1" d="M21.92,26.96c.53-.01.43.25.65.59.01.02.36.55.35.58-.16.36-.29,0-.46.04-.08-.1-.19-.11-.32-.04-.1.06-.12.14-.05.23,0,0,.11.29-.07.33-.29.07-.46-.42-.57-.64-.37-.79-.12-.74.47-1.08ZM22.17,27.54c-.06-.44-.4.01-.47.02.04,0,.35.5.47-.02Z"/><path class="cls-1" d="M24.41,26.76c0,.87-.8,1.01-1.35.45-.48-.49-.51-1.08.17-.45.15.14.66.82.78.15.06-.31-.45-.54-.46-.8-.02-.83.82.28.85.65Z"/><path class="cls-1" d="M24.74,25.93c-1.31-.03.26-1.52.29-.9.01.22-.45.23-.37.42.07.17.67-.17.84-.08,1.1.53-.72,1.44-.61.84.04-.24.41-.08.47-.3.09-.33-.53,0-.62.03Z"/><path class="cls-1" d="M26.27,23.52c-.55.59.15.59.4.98.39.62-.1.4-.48.13-.21-.15-.28-.31-.54-.31-.16,0-.35.61-.49.1-.05-.16.83-1.41,1.11-.9Z"/><path class="cls-1" d="M20.5,29.27c-.34.05-.31-.71-.45-.86-.17-.19-.25-.11-.39-.21-.03-.03-.44.11-.31-.2.08-.17.55-.23.71-.28.19-.06.63-.35.74-.07.09.23-.34.18-.36.28-.05.31.39,1.27.05,1.34Z"/><path class="cls-2" d="M23.81,26.77c-.11.13-.19.12-.24-.02-.08-.15.5.14.24.02Z"/><path class="cls-2" d="M24.65,26.31c-.08.1-.14.08-.17-.06.02-.03.04-.05.07-.06.04.04.07.08.11.11Z"/><path class="cls-1" d="M11.14,28.54c.02-1.2,1.63-.99,1.58.21-.02.49-.03.76-.58.74-.47-.02-1-.46-.99-.95ZM12.36,28.55c.02-.55-.75-.59-.8-.06-.06.56.7.6.8.06Z"/><path class="cls-1" d="M10.85,27.71c0,1.05-1.64,1.1-1.63.01.01-1.03,1.63-1.08,1.63-.01ZM10.05,27.3c-.51.05-.59.83-.05.85.52.02.57-.79.05-.85Z"/><path class="cls-1" d="M8.37,25.9c.53.03,1.26.73.49.69-.27-.01-.13-.4-.55-.27-.46.14-.25.51-.1.76.02.04.76.27.28.47-.18.08-.51-.12-.63-.24-.49-.48-.18-1.39.52-1.42Z"/><path class="cls-2" d="M8.66,26.8c.03.36-.35-.07-.36-.07,0,0,.26-.29.36.07Z"/><path class="cls-2" d="M9.28,26.95s0,0,0,0c0,0,0,0,0,0Z"/><path class="cls-1" d="M15.7,29.99c-.26-.08-.28-.54-.38-.75-.54.8-.62.84-.89-.25-.05-.21-.3-.79.19-.64.1.03.24.62.27.69.4-.73.53-.84.85.04.15-.07.44-1.13.66-.48.07.2-.48,1.36-.71,1.39Z"/><path class="cls-1" d="M17.53,28.9c.47,0,.3.14.21.38-.05.12-.71,0-.22.25.07.03.99-.14.65.28-.19.24-1.03.22-1.21,0-.16-.2-.19-1.28-.03-1.42.08-.07.89-.22.99-.14.68.55-1.26.42-.38.65Z"/><path class="cls-1" d="M6.43,24.9c.21-.11.38-.44.61-.34.43.19-.15.48-.27.59-.18.17-.45.66-.76.52-.32-.16,0-.83-.03-1.12-.2.11-.48.54-.71.34-.27-.22.31-.56.44-.68.85-.75.83-.28.67.63,0,.03,0,.07-.01.1.03-.01.05-.03.08-.04Z"/><path class="cls-1" d="M5.99,23.24c-.09.09-1.57,1.25-1.42.64.09-.37,1.2-1.13,1.42-.64Z"/><path class="cls-1" d="M13.92,3.15c0,1.06-1.59,1.02-1.59-.03,0-1.05,1.59-1.02,1.59.03ZM13.13,3.55c.52-.03.49-.83-.02-.83-.53,0-.48.78.02.83Z"/><path class="cls-1" d="M14.41,2.77c.07-.47.44-.84.94-.71.26.06.43.21.54.45,0-.01.17.89.2.84-.28.73-1.62.06-1.68-.57ZM15.17,2.4c-.47.08-.47.82.02.8.5-.02.44-.75-.02-.8Z"/><path class="cls-1" d="M21.01,4.6c-.82.02-.88-1.56-.32-1.67.64-.12-.17.94.13,1.19.6.5.5-.98.91-.84.58.2-.33,1.31-.72,1.32Z"/><path class="cls-1" d="M19.97,2.84c-.05.21-.13,1.17-.42,1.2-.27.03-.5-.68-.6-.88-.19.16-.05.68-.41.63-.31-.04-.02-.79.03-.93.32-.93.53-.32.85.3-.07.04.72-1.24.55-.34Z"/><path class="cls-1" d="M11.14,4.47c-.79-.06-.81-1.2-.17-1.48.1-.05.43-.15.55-.05.34.28-.19.3-.24.35-.17.18-.69.4-.22.72.27.19.42-.14.6-.12.71.09-.1.59-.52.57Z"/><path class="cls-1" d="M17.91,2.45c-.04.3-.18,1.78-.5.9-.02-.07.08-.88.11-.94.14-.22.41-.44.39.04Z"/><path class="cls-3" d="M22.17,27.54c-.12.52-.43.02-.47.02.07,0,.4-.47.47-.02Z"/><path class="cls-3" d="M12.36,28.55c-.11.53-.86.5-.8-.06.05-.53.82-.49.8.06ZM11.98,28.68c.11-.07.15-.15.11-.27-.11-.15-.48.23-.11.27Z"/><path class="cls-3" d="M10.05,27.3c.53.06.47.87-.05.85-.55-.02-.47-.8.05-.85Z"/><path class="cls-3" d="M6.43,24.9s-.05.03-.08.04c0-.03,0-.07.01-.1.02.02.04.04.07.06Z"/><path class="cls-3" d="M13.13,3.55c-.5-.04-.54-.82-.02-.83.51,0,.54.79.02.83ZM13.28,3.13c-.08-.12-.17-.15-.27-.08-.16.23.2.15.27.08Z"/><path class="cls-3" d="M15.17,2.4c.47.05.52.78.02.8-.5.02-.5-.73-.02-.8Z"/><path class="cls-2" d="M11.98,28.68c-.37-.04,0-.42.11-.27.04.11,0,.2-.11.27Z"/><path class="cls-2" d="M13.28,3.13c-.08.07-.43.15-.27-.08.1-.07.19-.05.27.08Z"/></svg>