<svg id="a" xmlns="http://www.w3.org/2000/svg" viewBox="0 0 32 32"><path d="M16,31c-8.27,0-15-6.73-15-15S7.73,1,16,1s15,6.73,15,15-6.73,15-15,15Z" fill="#f9d977" stroke-width="0"/><path d="M16,2c7.72,0,14,6.28,14,14s-6.28,14-14,14S2,23.72,2,16,8.28,2,16,2M16,0C7.16,0,0,7.16,0,16s7.16,16,16,16,16-7.16,16-16S24.84,0,16,0h0Z" fill="#d14947" stroke-width="0"/><path d="M24.68,13.19s-.06.07-.06.12c-.04.05-.08.1-.12.15,0,.75-.16,1.45-.44,2.14-.35.89-.85,1.61-1.76,1.99-1.19.19-2.25.68-3.32,1.22-1.86.95-3.78.98-5.65.02-1.15-.59-2.32-1.07-3.59-1.31-.24-.17-.47-.34-.71-.5-.11-.12-.22-.24-.32-.35-.27-.63-.54-1.27-.82-1.9-.17-.38-.14-.74.06-1.13-.3-.35-.52-.78-.72-1.21-.01-.14-.03-.28-.04-.42,0-.25,0-.49,0-.74.23-1.27.83-2.21,2.19-2.5.11-.02.22-.1.3-.18,1.12-1.02,2.37-1.07,3.7-.48.79.35,1.56.76,2.46.82,1.07.08,2-.31,2.92-.76.89-.44,1.81-.64,2.73-.24.89.39,1.74.89,2.57,1.39.45.27.62.79.88,1.23,0,.14-.01.27.11.37l-.02.04s.03.03.03.03c.06.77,0,1.51-.39,2.2ZM9,13.91c-.15.01-.33-.07-.43.13-.25.4.01.45.31.46.48.02.96-.01,1.45.07,1.36.24,2.72.45,4.08.65,3.16.47,6.18-.71,9.27-.77.22-.65-.27-.61-.59-.7-1.15-.34-1.66-1.04-1.7-2.22-.03-.81.34-1.51.48-2.26.28-.37,0-.51-.27-.65-.84-.43-1.68-.37-2.51.05-1.07.54-2.17.96-3.41.85-1.01-.09-1.9-.54-2.8-.96-.73-.34-1.46-.3-2.18.02-.26.12-.56.25-.39.65.13.39.28.77.38,1.16.45,1.71.13,2.53-1.28,3.33-.14.09-.35,0-.45.19h.02ZM9.04,15.63c.16.75.61,1.31,1.35,1.46,1.21.25,2.28.79,3.38,1.31,1.55.74,3.14.76,4.71,0,.98-.47,1.93-1.03,3.03-1.21.97-.16,1.55-.74,1.8-1.67.05-.13.18-.24.03-.46-2.39.02-4.72.83-7.15.84-2.46,0-4.82-.79-7.24-.84-.16.27-.04.43.09.58ZM8.62,9.86c.8,1.15.71,1.99-.34,3.13.13.16.21.36.51.32.68-.09,1.32-.7,1.38-1.38.08-.91-.19-1.75-.58-2.54-.44,0-.73.18-.96.48ZM22.66,9.37c-.31.64-.5,1.3-.56,2-.09,1.01.3,1.57,1.21,1.87.39.13.57.04.67-.33-1-.88-1.11-1.78-.36-3.1-.24-.25-.5-.43-.95-.44Z" fill="#116a2d" stroke-width="0"/><path d="M21.1,20.65c.07-.05.14-.12.22-.16.1-.05.19-.16.34-.09.4.48.81.97,1.32,1.58v-1.52c.43-.2.61-.11.61.34,0,.63.02,1.26.03,1.88-.02.03-.03.07-.02.11-.11.05-.22.11-.32.16-.6-.26-.74-.96-1.26-1.3-.05-.12-.1-.24-.28-.25v1.42s-.04.07-.03.12c-.19,0-.38,0-.56,0,0-.05,0-.09-.04-.12,0-.73,0-1.45,0-2.18Z" fill="#333234" stroke-width="0"/><path d="M15.87,22.39c-.24-.63-.26-1.24.27-1.73.53-.49,1.14-.39,1.75-.16.06.05.11.1.17.15,0,0,0-.01,0-.01.05.05.11.11.16.16,0,0-.01-.02-.01-.02.05.08.1.16.16.24,0,0,.03.04.03.04.09.4.11.7-.03,1.18-.03.05-.06.1-.1.14-.17.29-.34.44-.64.58,0,0,.01,0,.01,0-.34,0-.68.02-1.02.02l-.03-.03s-.04,0-.04,0c-.07-.04-.14-.08-.22-.12,0,0-.01,0-.01,0-.09-.07-.17-.13-.26-.2,0,0,.03.03.03.03-.06-.09-.13-.18-.19-.28h0ZM17.76,21.63c-.06-.43-.23-.8-.7-.79-.51.01-.69.42-.68.86,0,.42.22.79.68.78.51-.01.63-.44.69-.86Z" fill="#333234" stroke-width="0"/><path d="M8.41,22.69v-2.29h1.81c.03.45.03.44-.44.48-.29.02-.74-.16-.65.45.38.27.83-.01,1.2.2.02.32-.21.28-.42.3-.26.03-.55-.14-.76.14-.08.26-.06.47.29.47.28,0,.56-.01.84-.02.01.18.02.36.04.54-.14.01-.29.02-.43.03-.15,0-.29,0-.44,0-.34-.03-.68-.06-1.01-.09,0-.07,0-.14-.01-.21Z" fill="#333234" stroke-width="0"/><path d="M13.96,20.43c-.07.33-.09.66.04,1.09.34-.42.64-.79.96-1.18.14.06.29.13.45.2-.12.45-.57.67-.73,1.16.28.32.58.65.89.99-.16.09-.32.19-.51.3-.35-.39-.7-.77-1.11-1.24-.02.45-.04.77-.06,1.08-.2.2-.43.09-.63.12-.01-.14-.03-.27-.04-.41.15-.73-.17-1.5.18-2.22.12-.08.4-.21.57.11Z" fill="#333234" stroke-width="0"/><path d="M5.98,20.78c.4-.23.8-.39,1.26-.43.38-.04.55.1.44.53-.56.1-1.31,0-1.39.83-.05.54.4.71.92.79.02-.26.04-.52.06-.75.18-.13.34-.11.55-.04.06.41.06.84,0,1.27,0,0,0,0,0,0-.35,0-.69-.01-1.04-.02-.34-.17-.69-.31-.97-.57-.05-.06-.09-.13-.14-.19,0,0-.06-.12-.07-.22-.06-.41-.02-.57.16-.97,0,0,.02-.04.02-.04.05-.06.11-.11.16-.17,0,0,.03-.02.03-.02Z" fill="#333234" stroke-width="0"/><path d="M11.54,22.81c-.48-.36-.95-.75-.74-1.43.22-.72.87-.92,1.53-1.03.39-.07.53.12.4.51-.5.16-1.25.02-1.23.82.02.74.7.66,1.21.75.17.16.07.35.07.54-.27,0-.53,0-.8,0-.14-.04-.17-.02-.34-.11-.02-.03-.05-.05-.09-.04Z" fill="#333234" stroke-width="0"/><path d="M20.39,20.36c0,.87,0,1.73,0,2.6,0,0,.01,0,.01,0-.19,0-.38,0-.57,0,0-.05,0-.09-.04-.12,0-.77,0-1.55,0-2.32.06-.06.12-.12.18-.17.14.01.28.02.43.03Z" fill="#333234" stroke-width="0"/><path d="M9.43,13.72c1.41-.8,1.73-1.62,1.28-3.33-.1-.39-.25-.78-.38-1.16,1.06-.56,2.09-.44,3.13.11.87.46,1.79.69,2.8.68,1.1-.01,2.04-.42,2.98-.88.92-.45,1.78-.35,2.64.14-.15.76-.51,1.46-.48,2.26.04,1.18.55,1.88,1.7,2.22.31.09.81.05.59.7-3.1.06-6.11,1.24-9.27.77-1.36-.2-2.73-.41-4.08-.65-.49-.09-.97-.05-1.45-.07-.3-.01-.57-.07-.31-.46.14-.04.29-.08.43-.13,0,0-.02,0-.02,0,.17-.02.34-.04.45-.19ZM15.41,14.64c.15-.21.41-.41.1-.68-.21-.18-.46-.17-.68-.02-.31.22-.13.46.02.69.18.21.37.21.56,0ZM17.3,14.66c.14-.2.42-.4.11-.67-.22-.19-.5-.2-.73-.01-.31.25-.06.46.08.67.17.18.35.19.53,0Z" fill="#8bc53e" stroke-width="0"/><path d="M23.3,15.52c-.25.93-.84,1.51-1.8,1.67-1.1.18-2.04.74-3.03,1.21-1.57.75-3.15.74-4.71,0-1.1-.52-2.17-1.06-3.38-1.31-.74-.15-1.19-.71-1.35-1.46.66-.05,1.3.01,1.95.13,2.03.36,4.06.8,6.13.6,2.07-.21,4.13-.55,6.19-.84Z" fill="#8bc53e" stroke-width="0"/><path d="M23.3,15.52c-2.06.28-4.12.63-6.19.84-2.07.21-4.1-.23-6.13-.6-.64-.11-1.29-.18-1.95-.13-.13-.15-.25-.3-.09-.58,2.42.05,4.78.85,7.24.84,2.43,0,4.76-.81,7.15-.84.15.22.01.33-.03.46Z" fill="#e6ec1a" stroke-width="0"/><path d="M21.88,9.27c-.86-.49-1.72-.59-2.64-.14-.94.46-1.88.87-2.98.88-1.01,0-1.93-.22-2.8-.68-1.04-.55-2.07-.66-3.13-.11-.17-.39.12-.53.39-.65.72-.32,1.45-.36,2.18-.02.9.42,1.79.87,2.8.96,1.24.11,2.34-.3,3.41-.85.83-.42,1.67-.48,2.51-.05.26.13.55.28.27.65Z" fill="#e6ec1a" stroke-width="0"/><path d="M8.62,9.86c.23-.3.52-.48.96-.48.39.8.65,1.63.58,2.54-.06.69-.69,1.29-1.38,1.38-.29.04-.38-.15-.51-.32,1.05-1.14,1.14-1.98.34-3.13Z" fill="#fdfcfc" stroke-width="0"/><path d="M22.66,9.37c.45,0,.71.19.95.44-.75,1.32-.64,2.22.36,3.1-.09.37-.28.45-.67.33-.91-.29-1.3-.86-1.21-1.87.06-.7.25-1.36.56-2Z" fill="#fdfcfc" stroke-width="0"/><path d="M9.43,13.72c-.11.16-.28.18-.45.19.09-.19.31-.1.45-.19Z" fill="#e6ec1a" stroke-width="0"/><path d="M9,13.91c-.14.04-.29.08-.43.13.1-.19.28-.11.43-.13Z" fill="#f9d068" stroke-width="0"/><path d="M17.76,21.63c-.06.42-.18.85-.69.86-.46,0-.68-.37-.68-.78-.01-.44.16-.85.68-.86.47-.01.64.36.7.79Z" fill="#d14947" stroke-width="0"/><path d="M16.77,14.65c-.14-.21-.39-.42-.08-.67.23-.19.5-.18.73.01.31.26.03.46-.11.67-.18,0-.35,0-.53,0Z" fill="#116a2d" stroke-width="0"/><path d="M14.86,14.64c-.15-.23-.33-.47-.02-.69.22-.15.47-.16.68.02.31.26.05.47-.1.68-.19,0-.37,0-.56,0Z" fill="#116a2d" stroke-width="0"/><path d="M16.77,14.65c.18,0,.35,0,.53,0-.18.18-.35.17-.53,0Z" fill="#f9d068" stroke-width="0"/><path d="M14.86,14.64c.19,0,.37,0,.56,0-.19.21-.37.21-.56,0Z" fill="#e6ec1a" stroke-width="0"/><path d="M24.29,22.24v-1.69c.17-.23.38-.14.58-.11.14.2.07.42.08.63.01.28,0,.57,0,.85,0,.38.2.59.56.56.31-.02.49-.23.47-.58-.02-.47,0-.94,0-1.39.21-.15.39-.13.64-.02-.18.81.38,1.78-.57,2.45,0,0-.05,0-.05,0l-.03.04c-.29,0-.57.02-.86.03-.07-.02-.15-.03-.22-.05-.25-.2-.49-.41-.63-.71h0Z" fill="#333234" stroke-width="0"/></svg>