<svg width="32" height="32" viewBox="0 0 32 32" xmlns="http://www.w3.org/2000/svg"><defs><style>.cls-1{fill:#b8b2b5;}.cls-1,.cls-2,.cls-3,.cls-4,.cls-5,.cls-6,.cls-7,.cls-8,.cls-9,.cls-10,.cls-11,.cls-12,.cls-13,.cls-14,.cls-15,.cls-16,.cls-17,.cls-18,.cls-19,.cls-20,.cls-21,.cls-22,.cls-23,.cls-24,.cls-25,.cls-26,.cls-27,.cls-28,.cls-29,.cls-30,.cls-31,.cls-32,.cls-33,.cls-34,.cls-35{stroke-width:0px;}.cls-2{fill:#a99fa4;}.cls-3{fill:#eedad5;}.cls-4{fill:#a59c9f;}.cls-5{fill:#e83c31;}.cls-6{fill:#e63022;}.cls-7{fill:#583333;}.cls-8{fill:#95460e;}.cls-9{fill:#e8dfdd;}.cls-10{fill:#8473fe;}.cls-11{fill:#190037;}.cls-12{fill:#ded2d2;}.cls-13{fill:#a46a56;}.cls-14{fill:#a30102;}.cls-15{fill:#d09575;}.cls-16{fill:#b5afb1;}.cls-17{fill:#ad5406;}.cls-18{fill:#8473fd;}.cls-19{fill:#fff;}.cls-20{fill:#c2bfc1;}.cls-21{fill:#aba2a6;}.cls-22{fill:#fa8572;}.cls-23{fill:#896868;}.cls-24{fill:#f45f58;}.cls-25{fill:#ddd1d2;}.cls-26{fill:#c1babb;}.cls-27{fill:#210a37;}.cls-28{fill:#a39a9b;}.cls-29{fill:#f1e5e5;}.cls-30{fill:#a4745e;}.cls-31{fill:#e3d9d7;}.cls-32{fill:#d09475;}.cls-33{fill:#dda88b;}.cls-34{fill:#462d2c;}.cls-35{fill:#aaa2a4;}</style></defs><path class="cls-10" d="m5.55,22.32c.29-.04.59-.16.85.09"/><path class="cls-10" d="m3.93,18.88c.14.17-.28.55-.25.75"/><path class="cls-10" d="m10.86,28.23c1.31.02,2.62-.07,3.93.06"/><path class="cls-18" d="m23.95,1.09S22.84,0,21.83,0C18.29,0,9.79,0,9.79,0c-1.83,0-3.24,1.46-3.64,2.99-1.6,0-3.07,1.41-3.07,3.26-1.81,0-3.08,1.52-3.08,2.71v14.08c.13.28.25.58.4.85.6,1.09,1.56,1.62,2.76,1.74,0,0,.19,1.42.53,1.76.46.46,2.7,1.44,2.7,1.44.05.53.17,1.03.42,1.51.47.89,1.29,1.29,2.15,1.66h0,14.02s1.04.1,2.07-.8c1.19-1.04.77-2.66.77-2.66,1.29-.09,2.82-1.36,2.99-2.94l2.65-1.07s.26-.05.46-.53c.08-.19.07-.49.07-.5v-14.23c0-2.4-2.69-2.62-2.69-2.62,0,0,.18-3.22-3.33-3.22"/><polygon class="cls-11" points="9.93 3.59 9.93 6.76 6.72 6.76 6.72 9.93 3.61 9.93 3.61 20.63 9.89 20.63 9.89 28.41 24.61 28.41 24.61 21.42 28.46 21.42 28.46 9.96 25.25 9.96 25.25 6.68 22.01 6.68 22.01 3.59 9.93 3.59"/><path class="cls-19" d="m12.09,5.84l-2.96,1.76s-2.76,5.99-3.86,7.95c-.52.93-2.64,3.6-2.64,3.6l2.23-1.2s-1.75,2.14-2.4,2.74c-.54.5-2.32,1.65-2.32,1.65,0,0,1.93.32,3.76-.18,1.69-.47,3.13-1.84,3.13-1.84,0,0,.07,1.56-1.86,3.98s-3.76,3.91-3.76,3.91c0,0,5.03,2.32,11.25-2.35.58-.43,2.93,2.21,3.8,2.78,3.76,2.45,10.03,3.35,10.03,3.35,0,0,.14-7.33-1.88-10.68-.4-.66-.55-.27.52.77,3.59,3.49,6.86,2.73,6.86,2.73,0,0-4.16-3.29-5.11-5.45-.23-.52-.15-.45-.15-.45h.9l1.8-.36s-3.14-1.05-4.31-1.97c-3.4-2.67-1.99-4.83-3.51-5.23-1.76-.45-1.83,1.34-2.57,1.67-1.33.58-2.6-2.83-5.05-2.93-2.01-.08-2.56,2.37-3.19,1.8-1.26-1.14-.74-2.89.41-3.45.57-.28.89-2.61.89-2.61Z"/><path class="cls-6" d="m26.75,0c.8.61.95,1.14.67,2.24-.11.44-.34.82-.51,1.23-.29.28-.44.69-.81.89-.16-.3.08-.48.22-.67.35-.47.53-1.01.62-1.59.08-.51-.05-.96-.39-1.31-.45-.16-.75.05-1.04.27-.79.61-1.55,1.25-2.24,1.97-.71.67-1.4,1.37-2.13,2.02-.55.5-1.14.7-1.85.67-.06-.03-.11-.07-.14-.13-.04-.31.21-.35.41-.44.46-.07.81-.31,1.13-.65.64-.67,1.31-1.32,1.91-2.03.6-.71,1.32-1.31,2.06-1.87.04-.04.09-.07.14-.11.04-.04.09-.07.14-.11.29-.27.69-.27,1.04-.39h.77Z"/><path class="cls-1" d="m21.63,31.37c-.78-.23-1.58-.41-2.33-.77.15-.27.18-.54.09-.85-.06-.21-.17-.57.32-.44.17.09.34.18.51.27l.38.25c1.85,1.03,3.86,1.63,5.89,2.18h-1.41c-1.22-.1-1.83-.18-2.42-.32"/><path class="cls-15" d="m14.71,10.38c-1.48-.21-2.65.25-3.33,1.64-.67.1-1.04-.23-1.25-.78-.43-1.13,0-2.34,1.04-2.98.11-.07.2-.15.33-.26-.07-.66.04-1.3.5-1.83.01-.01-.06-.1-.09-.15-.03-.03-.04-.06-.04-.09,0-.03.01-.05.02-.05.07-.06.14-.07.23-.07.1,0,.21.01.31-.02.05-.02.11-.03.16-.05.08-.03.17-.07.25-.1.06-.03.13-.05.19-.06,1.4-.32,2.81-.36,4.22-.1.05.06.06.12.02.19-.73.3-1.5.11-2.26.14-.73.03-1.32.25-1.71.91-.02.04-.03.08-.03.23,1.16-.48,2.35-.29,3.53-.38.77.31.85,1.01.9,1.68.05.68.13,1.35.29,2.01.09.35.2.7.42.99.49.64.28,1.22-.05,1.8-.27.09-.5.09-.72.02-.59-.15-.94-.61-1.31-1.04-.29-.33-.55-.68-.82-1.03.08-.3.08-.61.09-.91-.4-.12-.59.26-.9.29h0Z"/><path class="cls-20" d="m19.71,29.31c-.47.12-.17.39-.09.58.14.35.15.63-.31.71-1.44-.44-2.75-1.18-4.02-1.97-.12-.08-.25-.14-.38-.22-1-.38-1.7-1.16-2.45-1.88-.48-.4-.52-.93-.45-1.5.1-.84.32-1.66.37-2.51.02-.35-.2-.71.04-1.05.57.74,1,1.56,1.54,2.32,1.48,2.08,3.29,3.81,5.41,5.22.12.08.22.19.33.29h0Z"/><path class="cls-16" d="m12.43,21.48c.38,1.19-.07,2.34-.22,3.5-.08.6-.09,1.14.46,1.53-.68.4-1.36.82-2.08,1.15-.2.09-.32.1-.58.18-.23.07-.46.1-.66.17-.32-.2-.28-.53-.31-.84-.02-.23,0-.46-.08-.68,1.55-1.55,2.55-3.43,3.11-5.57.26.16.3.37.37.56h0Z"/><path class="cls-33" d="m17.64,13.07c.19-.02.37-.03.59-.05.15-.4.35-.77.32-1.24-.82-.98-.95-2.19-1.02-3.42-.04-.66-.11-1.32-.77-1.7-.08-.45.25-.71.49-1,0-.02.01-.04.02-.06.64-.23,1.28-.26,1.91.03h.02c.14.12.33.19.36.4h0c.06.06.06.15.11.21.04.06.08.12.13.19-.15.21-.44.28-.53.58-.11.24.49.17.26.5-.63.15-.78.6-.83,1.18-.08,1,.24,1.88.74,2.71.19.32.29.65.24,1.03-.03.37-.37.49-.58.75-.49.01-.99.15-1.48-.09h0Z"/><path class="cls-21" d="m25.41,23.73c-.46-1.22-.32-1.16-.8-2.41,1.76,2.17,4.51,3.34,7.39,3.51-.57.38-2.2.72-3.19.76-1.05.19-2.32-.16-3.04-1.04-.06-.07-.33-.74-.36-.82Z"/><path class="cls-22" d="m9.13,7.6c.01-.28.02-.56.03-.84.22-.68.48-1.33.82-1.96.13-.56.45-.97.97-1.23.84-.62,1.68-1.25,2.79-1.28,0,.18-.13.26-.25.33-1.03.54-1.31,1.49-1.4,2.54-.02.25.02.51-.17.72,0,.04,0,.08,0,.13-.93.53-1.85,1.06-2.78,1.58Z"/><path class="cls-13" d="m19.69,12.41c-.4-1.27-1.42-2.35-1.15-3.84.07-.4.09-.79.45-1.11.18-.02.39-.04.6-.06.22-.08.38.09.55.17.12-.12.08-.3.22-.37.27.69-.03,1.42.21,2.22.44.39.93.91.74,1.72.11.08.21.16.3.23-.78-.15-1.4.06-1.78.8-.08.06-.05.18-.14.24h0s0,0,0,0Z"/><path class="cls-32" d="m7.58,11.5c-.04-.5-.14-1.01-.13-1.51.03-1.03.43-1.85,1.51-2.17.16.06.31.11.48.17.26,1.56-.32,2.87-1.13,4.1-.42-.03-.32-.62-.74-.59h0Z"/><path class="cls-35" d="m8.96,26.48s.31.25.34.45c.06.36.08.33.04,1.07-.96.37-1.93.7-2.95.83-1.39.21-2.77.17-4.12-.35,1.22.03,2.13.07,2.86-.03,1.27-.17,2.03-.64,3.18-1.45l.64-.52Z"/><path class="cls-28" d="m6.4,22.41c-1.24.19-2.49.33-3.74.24-.59-.04-1.18-.05-1.75-.23,2.27-.12,4.27-1.05,6.3-2.25-.19.87-.43,1.58-.8,2.24Z"/><path class="cls-4" d="m3.5,19.22c-.28.02-.57.07-.87-.07,1.31-.65,2.19-1.79,3.22-2.78-.3,1.04-.99,1.85-1.64,2.68-.35.11-.23.13-.72.16Z"/><path class="cls-2" d="m29.44,18.56c-.25.31-.43.42-.86.62-.72.33-1.11.37-1.62.4-.33-.43-.6-.87-.92-1.3,1.11.55,2.25.47,3.4.28h0Z"/><path class="cls-30" d="m14.71,10.38c.24-.4.6-.55,1.14-.57-.2.41.11.89-.34,1.2-.22-.18-.44-.36-.66-.53-.05-.03-.09-.06-.14-.09h0s0,0,0,0Z"/><path class="cls-23" d="m18.58,15.06c-2.59.34-3.43-.55-3.83-.96-.76-.94-.58-.9-.99-1.13.51-.53.74-.56,1.39-.16-.22.07-.45-.08-.61.17-.1.35.15.64.33.94.86,1.46,3.72,1.14,3.72,1.14Z"/><path class="cls-15" d="m14.71,10.37s.09.06.14.09c-.05-.03-.09-.06-.14-.09Z"/><path class="cls-24" d="m24.33.74c.16-.04.32-.08.48-.12-1.56,1.22-2.76,2.8-4.17,4.16-.3.29-.61.52-1.06.48-.76.25-1.53.2-2.31.14-1.01-.07-2.02.02-3.03-.05-.07-.02-.13-.07-.18-.13-.03-.12.03-.21.1-.29,1.08-.56,2.16-1.14,3.39-1.33,2.26-.95,4.52-1.91,6.78-2.86h0Z"/><path class="cls-14" d="m12.41,5.94c-.08.01-.16.01-.24,0-.09-.02-.18-.03-.26-.05-.03-.85.03-1.68.45-2.45.31-.56.83-.87,1.38-1.15,1.54-.34,2.85-.03,3.82,1.3h0s-3.35,1.42-3.35,1.42c-.05.03-.09.06-.13.1h0c-.37.33-.13.14-.52.42l-.71.22-.43.19Z"/><path class="cls-27" d="m9.94,3.6c.35-.11.68-.08,1.01-.03h0c-.32.41-.65.82-.97,1.23"/><path class="cls-17" d="m23.16,2.94c.69-.84,1.55-1.51,2.42-2.14.77-.55,1.22-.35,1.48.58.21.78-.09,1.45-.42,2.12-.15.3-.46.5-.54.85-.61.71-1.47.69-2.29.77-.4-.25-.53-.63-.55-1.07-.01-.38-.06-.75-.1-1.12h0Z"/><path class="cls-3" d="m13.5,8.12c1.05-.4,1.19,1,.03.47-.34-.16-.3-.29-.03-.47Z"/><path class="cls-12" d="m19.84,9.48c.06-.1.18-.18.12-.33-.13-.19-.37.06-.51-.15-.03-.29.42-.26.41-.55.59-.11.5.33.49.65,0,.33-.77.65-1.19.43l.68-.05Z"/><path class="cls-8" d="m23.16,2.94c.19.09.29.25.26.46-.08.63.09,1.19.39,1.73-.56.26-1.21.16-1.76.47-.83.11-1.66.2-2.48.41-.16-.09-.28-.23-.36-.39,1.11.05,1.81-.66,2.53-1.34.48-.45.94-.9,1.42-1.35h0Z"/><path class="cls-5" d="m12.79,5.76c.34-.38.76-.6,1.28-.64.19.21.44.13.66.13,1.62,0,3.23,0,4.85,0-.09.16-.4.1-.39.37-.64,0-1.27-.02-1.91-.03-1.51-.18-3-.14-4.49.16Z"/><path class="cls-24" d="m24.81.62s.1-.06.15-.09c-.05.03-.1.06-.15.09Z"/><path class="cls-31" d="m20.36,7.19c-.01.22-.02.44-.03.71-.28-.19-.51-.35-.74-.51-.14-.17-.36-.05-.57-.17.08-.45.27-.79.8-.82.31.17.49.43.54.78Z"/><path class="cls-9" d="m17.26,5.66c-.02.4-.37.65-.49,1-.27.17-.58.15-.87.13-1-.07-1.99,0-2.91.56,0-.95.73-1.65,1.72-1.69.85-.04,1.7,0,2.56,0h0Z"/><path class="cls-29" d="m15.05,7.82c.52-.12,1.08-.08,1.52.27.15.55.06,1.01-.44,1.37-.26-.04-1.54-.25-1.74-.62-.02-.15,1.05.14,1.07.01-.06-.18-.28-.21-.32-.39-.04-.12-.03-.24.03-.36.02-.02-.32-.24-.22-.25l.11-.03Z"/><path class="cls-7" d="m15.23,8.44c.08.1.29.2.44.3,0,.24-.17.36-.31.51-.61,0-1.08-.37-1.58-.54-.11-.27-.12-.47.06-.72.32-.06.69-.12,1.06-.18.18-.03.32-.04.56-.05,0,0-.31.12-.3.49,0,.05.05.15.08.19Z"/><path class="cls-34" d="m19.84,9.48c-.25.13-.51.19-.77.04-.16-.71.05-.99.8-1.07.12.21-.16.48.13.69.11.08.01.27-.15.34h0Z"/><path class="cls-5" d="m14.08,5.11s.09-.07.13-.1c-.04.03-.09.07-.13.1Z"/><path class="cls-25" d="m14.83,8.21c.15.13.17.29.12.47-.18.08-.35.06-.41-.15-.05-.22.09-.31.29-.32Z"/><path class="cls-26" d="m19.88,8.64c.15.13.08.23.03.41-.18.08-.28.1-.33-.12-.05-.22.1-.28.3-.3Z"/></svg>