<svg xmlns="http://www.w3.org/2000/svg" viewBox="0 0 32 32"><defs><style>.cls-1{fill:#af7e2b;}.cls-1,.cls-2,.cls-3,.cls-4,.cls-5,.cls-6,.cls-7,.cls-8,.cls-9,.cls-10,.cls-11,.cls-12,.cls-13,.cls-14,.cls-15,.cls-16,.cls-17,.cls-18,.cls-19,.cls-20,.cls-21,.cls-22,.cls-23,.cls-24,.cls-25,.cls-26,.cls-27,.cls-28,.cls-29,.cls-30,.cls-31,.cls-32,.cls-33,.cls-34,.cls-35,.cls-36,.cls-37,.cls-38,.cls-39,.cls-40,.cls-41,.cls-42,.cls-43,.cls-44,.cls-45,.cls-46,.cls-47,.cls-48,.cls-49,.cls-50,.cls-51{stroke-width:0px;}.cls-2{fill:#d7b14d;}.cls-3{fill:#3f2a28;}.cls-4{fill:#c99b30;}.cls-5{fill:#957648;}.cls-6{fill:#dcb03e;}.cls-7{fill:#d9b753;}.cls-8{fill:#d8c5ba;}.cls-9{fill:#e4a851;}.cls-10{fill:#ccb089;}.cls-11{fill:#dac16b;}.cls-12{fill:#efcd84;}.cls-13{fill:#48240d;}.cls-14{fill:#cea971;}.cls-15{fill:#28160f;}.cls-16{fill:#c67522;}.cls-17{fill:#f5cf66;}.cls-18{fill:#9a7658;}.cls-19{fill:#eae0cb;}.cls-20{fill:#f2dfbb;}.cls-21{fill:#8c673a;}.cls-22{fill:#dbb85a;}.cls-23{fill:#45220c;}.cls-24{fill:#fcdd6e;}.cls-25{fill:#ecdcc3;}.cls-26{fill:#e7c465;}.cls-27{fill:#f6f1ec;}.cls-28{fill:#ba8933;}.cls-29{fill:#e8cc9f;}.cls-30{fill:#c4993b;}.cls-31{fill:#cea340;}.cls-32{fill:#cda13d;}.cls-33{fill:#532310;}.cls-34{fill:#594929;}.cls-35{fill:#e5bf58;}.cls-36{fill:#caa242;}.cls-37{fill:#f9ce82;}.cls-38{fill:#33190d;}.cls-39{fill:#f7f2ee;}.cls-40{fill:#522e0e;}.cls-41{fill:#bc6f2a;}.cls-42{fill:#976742;}.cls-43{fill:#cab491;}.cls-44{fill:#7f583e;}.cls-45{fill:#745240;}.cls-46{fill:#f0c26f;}.cls-47{fill:#c27733;}.cls-48{fill:#fdec93;}.cls-49{fill:#765025;}.cls-50{fill:#ba691e;}.cls-51{fill:#d1a84c;}</style></defs><path class="cls-31" d="M32,14.6v3.7c-.5.8-.3,2.1-1.3,2.6-.5,1.1-1,2.2-1.8,3.1-.2.1-.3.2-.5.3-1.7.6-3.4,1.8-5.2.2,0-.3.1-.6.3-.8,1.1-.9,2-1.9,2.5-3.3,1.1-2.2,1.4-4.7,1.7-7.1,0-1,1.2-.9,1.6-1.7.3-.7.8,0,1.1.4.5.8.6,1.7.6,2.6,0-.7.1-1,.8-.6.1.1.2.6.2.6Z"/><path class="cls-49" d="M29,24.9c-7.1,9.1-20,7.7-26.6-1-.1-.2-.1-.4-.2-.6-.2-.4,0-.6.3-.7.8.1,1.2.7,1.7,1.2.9.9,1.7,1.9,2.8,2.5,2.2,1.2,4.5,2.2,7,2.6,1.5.3,3,.3,4.4,0,3.8-.6,7-2.6,10.1-4.9h.1c.7.1.7.4.4.9Z"/><path class="cls-28" d="M3.9,24.1c-.4-.4-.8-.9-1.3-1.3-.9-.3-.9-1.5-1.7-1.9C.6,20.1.3,19.3,0,18.4v-4.5c.4,0,1.4,1.2,1.7.8,1,.1.6,1.2,1.9.8.1,0,.2,1.4.4,1.5,1,1.3.8,3.2,1.9,4.5-.4,1-.5,2.4-2,2.6Z"/><path class="cls-5" d="M29,24.9c0-.3,0-.7-.4-.8.7-1.1,1.5-2.1,2.2-3.2-.1,1.6-1,2.8-1.8,4Z"/><path class="cls-21" d="M.9,20.9c.1-.1.1-.7.5-.3.5.7.9,1.4,1.3,2.1-.2.2-.3.3-.5.5-.7-.6-.9-1.5-1.3-2.3Z"/><path class="cls-1" d="M.4,10.6C2,6.3,4.6,3.1,9.1,1.7c.9,0,.5.5.4,1,0,.2-.7.4-.1.5,2.2.5.7,1.2,0,1.5-1.5.9-1.9,2.7-3.2,3.7-1.6,1.8-1.7,4-2.1,6.2-.1.8.1,1.7-.6,2.4h0c-1-.3-1.9-.6-2-1.8-.3-1.6-1.7-2.9-1.1-4.6Z"/><path class="cls-22" d="M11.7.3c7.6-1.6,15.8,2.7,18.6,8.9-1.2,1.2-2.3.6-3.5-.1-2.6-2.7-5.5-4.9-9.3-5.6-.4-.1-1-.2-1.1-.5-.8-1.6-2.2-1.5-3.7-1.5-.7,0-1.5,0-1-1.2Z"/><path class="cls-32" d="M6.1,7.9c1.3-1.3,1.8-3.6,4-3.9-.5-.8-1,.1-1.4-.2-.5-.8,1-1.2.4-2.1.4-.8,1.1-.9,1.8-.9.4.1.6.8.9.8,1.4,0,1.3,1.1,1.4,2-.2,1-1,1-1.7,1.4-.7.3-1.5.3-1.7,1.2-.1.9-.1,1.9-.5,2.7-.1.2-.1.3-.2.4-.5.7-.6,2.1-1.8,1.6-1.3-.5-1.9-1.6-1.2-3Z"/><path class="cls-7" d="M27.2,8.8c.9.8,2,.7,3.1.4,1.2,1.4,1,3.3,1.6,4.9-1.2.5.4,1.8-.9,2.3-.6-1.4-.1-3.2-1.4-4.7,0,1.1-1.1.8-1.5,1.4-1.7-.6-1.6-2.2-2-3.5.1-.6.8-.5,1.1-.8Z"/><path class="cls-2" d="M13,3.5h-.4c.3-1.5-2-1.3-1.8-2.7.3-.2.6-.3.9-.5.2,1.4,1.2.4,1.8.6,1.1.4,3-.9,3,1.6,0,.2.8.4,1.3.6-1.1,1.3-2.7,1.4-4.8.4Z"/><path class="cls-6" d="M.4,10.6c.3,1.2.1,2.5,1.5,3.2.6.3.4,1.1-.1,1.6-.2.3-.6.2-.9.4,0,.7-.5.7-1,.5v-4.4c.3-.4.1-1,.5-1.3Z"/><path class="cls-24" d="M26.3,9.2c.6,1.3.8,2.8,1.8,3.9.1,2.8-.4,5.4-1.7,7.9-1.6.6-2.3-.9-3.5-1.5-.7-.6-1.5-1.1-1.2-2.2.6-1.3,1.4-2.5,1-4.1-.7-1.7.2-3.5-.3-5.2.5-1.9.9-2.1,2.2-.9.7.6,1.5,1.1,1.7,2.1Z"/><path class="cls-30" d="M28.5,24c-2.5,3.3-6,4.7-9.8,5.3h-.3c-1.1-.1-2.1.1-3.2-.1-.8-.6-1.8-.5-2.6-1.1,0-1.1.5-1.8,1.6-2,2.6-.2,5.4.4,7.6-1.7.4-.4,1.1-.4,1.6,0,1.8,1,3.4-.2,5.1-.4Z"/><path class="cls-35" d="M23.4,24.5c-1.5-.2-2.1,1.5-3.4,1.8-2,.6-4.1.2-6.1.3-1-.6-2.7.6-3-1.4,1.1-.7,2.2-.1,3.2.1.8.2,1.5.2,2.3.3,1.1.1,2,0,2-1.5.1-.4.2-.8.5-1.1.7-.7,1.5-1.4,2.4-1.8,1.1.7,2.3,1.2,2.5,2.7-.2.3-.3.4-.4.6Z"/><path class="cls-17" d="M23.8,24c-.7-1-2-1.4-2.5-2.6-.2-.1-.3-.2-.3-.4.1-.5.5-.8.8-1.2.3-.3.5-.9,1.1-.6,1.4.2,2.1,1.6,3.4,1.7-.4,1.4-1.3,2.4-2.5,3.1Z"/><path class="cls-51" d="M10.9,25.4c.8.9,2.2.5,3,1.3-.9-.1-.6,1.1-1.3,1.3-1.4.5-2.6.2-3.9-.5-.7-.4-1.3-.9-2.1-.8-1.1-.6-1.9-1.5-2.7-2.5.6-.9,1.6-1.5,1.8-2.7,2.3.4,3.5,2.5,5.2,3.9Z"/><path class="cls-11" d="M6.6,26.6c.1-.1.3-.3.3-.2,1.8,1,3.7,1.3,5.7,1.6.9.1,2-.3,2.6.8-.2.5-.7.5-1.1.6-.1,0-.2,0-.3.1-2.6-.4-5-1.5-7.2-2.9Z"/><path class="cls-4" d="M10.9,25.4c-2.2-.7-3.3-2.8-5.2-3.9-.8-.8-1.8-1.5-1.4-2.9.1-.5-.2-1.1-.7-1.4-.1-2.4.2-4.7.9-7,.3-.9.8-1.7,1.6-2.2.1.4.1.9.2,1.3.2.6.5,1.4,1.2,1.5,1,.1.6-.9.9-1.4.1-.4.4-.5.7-.6.8.7.9,1.7.9,2.7-.1.5-.1,1.3-.8,1.3-.4,0-.5-.5-.5.3.1,1.7,1.1,2.9,1.5,4.5,0,.6-.1,1.1.1,1.7.1.3.1.6.1.8,1.2,2.8,3.4,3.9,6.2,4.3.4.5.8,1.1.2,1.8-2,.4-3.9-.9-5.9-.8Z"/><path class="cls-26" d="M26.3,9.2c-.7-.7-1.4-1.3-2.1-2-1.1-1-1.2-.2-1.3.7-1.1,0-.9-1.1-1.5-1.6-1.7-1.8-4-1.8-6.2-1.7-1,0-.9.6-.7,1.4.4,1,1.3,2,.7,3.2-1.2.8-1.7-.8-2.7-.8-.6-.2-1-.6-1.5-1-.5-.6-1.3-.9-1.5-1.6-.4-.8.3-.8.7-.9,1-.4,2.1-.5,2.8-1.3,1.6-.2,3.2.5,4.7-.4,3,.5,5.6,1.8,7.7,4.1.5.6,1.1,1.1,1.7,1.6.1.8-.3.5-.8.3Z"/><path class="cls-40" d="M9.6,5.8c.7.3,1.3.6,1.7,1.2-.1.3-.2.6-.3.8.1.2-.8.3,0,.5.3.1.6-.2,1-.1.4,1.5-.2,2.6-2.4,3.6-.2-1-.4-2-.5-3,.2-1-.3-2.1.5-3Z"/><path class="cls-13" d="M21.6,6.1c1.3,0,.7,1.3,1.3,1.8.9,1.7-.6,3.6.4,5.3-1,1.6-1.6-.1-2.4-.3-.7-.2-1.1-.7-1.4-1.3-.2-.8-.9-1-1.5-1.3-.3-.3-.5-.6-.5-1,1.3-1.2,2.2-2.9,4.1-3.2Z"/><path class="cls-38" d="M21.1,12.8c.8-.3,1.2,1.4,2.2.4.6,1.7-.3,3-1.2,4.3-.1.2-.3.2-.5.1-.4-.2-.6-.5-.8-.8-.3-.7-1-1.4.3-1.8.2-.1.4.1.6-.1-.2-.1-.3-.3-.4-.5-.2-.5-.5-1-.2-1.6Z"/><path class="cls-12" d="M21.6,17.5h.4c-.4.9.9,1,.9,1.8-.3.3-.5.6-.8.9-1.8.4-1.7-1-1.9-2.1.3-.6.8-.8,1.4-.6Z"/><path class="cls-48" d="M18.9,29.3c-1.5.2-2.3.5-5.6,0,.3-.4,1.3-.3,1.7-.4,1.1.3,2.9-.3,3.9.4Z"/><path class="cls-34" d="M16.5,24.6c-3.1.6-6.1-2.3-6.5-4.6,1.3-.1,1.8,1.2,2.7,1.6.7.9,1.6,1.5,2.8,1.5.9.2,1.8-.1,2.7-.3.3,0,2.8-2.6,3-2.3,0,.3.1,2-.2,2.1-.6.7-3.7,2.4-4.5,2Z"/><path class="cls-25" d="M19,23.3c-.3,0-.7,0-1,.1-1.3,0-.8-.8-.4-1.2.8-.8,1.6-1.5,2.6-2.1.7-.1.8.4.9.9,0,.2.1.3.1.5-.5.8-1.4,1.3-2.2,1.8Z"/><path class="cls-36" d="M16.5,24.6c.7-.2,1.5-.4,2.2-.5,1,2-.3,2.2-1.8,2.1-.1-.5-.2-1.1-.4-1.6Z"/><path class="cls-27" d="M21.2,20.9c-.3-.3-.6-.5-.8-.8-1.3.5-2.2-.3-3.1-.9-.3-.4-.3-.8-.3-1.2-.4-1-.4-1.8,1-1.8.5,0,.9.2,1.4.4.2.1.3.2.5.3.3.3.5.6.5,1,.6.7.5,2,1.8,2.2-.4.3-.7.6-1,.8Z"/><path class="cls-23" d="M9.6,11.8c.5-1.3,2.5-1.7,2.2-3.5-.5-.1-.8-.4-.9-.9.1-.1.3-.3.5-.4.4.3.8.7,1.2,1,1.1,1.5,0,3,0,4.5-.6.6-1.1,1.2-1.2,2.1-.1.8.8.5,1,1,.4,1.2-.6,1.7-1.2,2.4-.4.2-.7.5-1.1,0-1.8-1.7-2-4-1.7-6.4.4-.6.3,2.4,1.2.2Z"/><path class="cls-37" d="M10.1,17.8c.3-.1.6-.2.8-.3.4-.5,1-.5,1.5-.3.9,1.1-.1,1.8-.5,2.7-1,.7-1.4-.4-2-.7-.4-.5-.4-.9.2-1.4Z"/><path class="cls-19" d="M10,19.2c.9-.4,1.1.9,1.8.9.2-.1.3-.1.5,0,.3.4.5.8.5,1.3,0,.2-.1.4-.3.5-1.3,0-1.5-1.6-2.6-1.9.1-.2.1-.5.1-.8Z"/><path class="cls-24" d="M21.6,6.1c-1.3,1-2.6,2.1-3.9,3.1-.6.6-1.2.8-2,.7-.3-.1-.5-.4-.5-.7,0-1.4-.9-2.4-1.4-3.6-.2-.6-.6-1.4.4-1.5,2.6-.3,5.1.1,7.4,1.3.1,0,0,.5,0,.7Z"/><path class="cls-44" d="M15.2,9.1c.2.1.3.3.5.4.4.8-.9.9-.6,1.7,1.2.5,2.2-.4,3.3-.4.6,0,1.1.1,1.5.5.4.5.8.9,1.2,1.4.1.6.3,1.1.4,1.7-1.3.2-1.4-1.6-2.6-1.5-.6.2-.9.9-1.7.7-.7-.4-1.3-.4-2,0-.2.1-.4.1-.5.1-.5-.2-1-.8-1.7-.6-.4.1-.7.2-1.1-.1-.1-.3-.1-.6.1-.8-.1-1.4.7-2.8.4-4.3,1.5-.6,1.6,1.5,2.8,1.2Z"/><path class="cls-50" d="M10.9,7.4c.3.3.6.6.9.9-.3.7-1.2.3-1.5,1.2-.5-1.1-.3-1.7.6-2.1Z"/><path class="cls-18" d="M18.2,11.4c-.8.3-1.6.6-2.4.7-.6.1-1.5,0-1.7-.6-.3-.6.3-1.2.9-1.4.2-.1.4-.3.7-.5.7-.1,1.4-.2,2.1-.4.2.3.3.5.5.8-1.2.4.2.9-.1,1.4Z"/><path class="cls-14" d="M18.2,11.4c-.4-.8-1.2,0-1.6-.4.3-.9,1-.9,1.7-.9.8.2,1.8,0,1.7,1.4-.7-.1-1.2-.1-1.8-.1Z"/><path class="cls-16" d="M21.9,8.9c-.2.4-.6.3-.9.2-.4-.1-.7-.2-.5-.7.2-.3.5-.5.9-.4.3.2.5.5.5.9Z"/><path class="cls-33" d="M21.2,15.3c-1.4.4.4,1-.1,1.5s-1,.7-1.7.3h0c-.3-.4-.7-.7-1.1-1-1.1-1.2-.8-1.9,1-2.3.8.4,1.8.4,1.9,1.5Z"/><path class="cls-29" d="M21.2,15.3c-.6-.4-1.2-.9-1.7-1.3-.6-.4-1.8-.6-.7-1.7,1.6-.2,1.7,1.6,2.8,2.2,0,.4.5.9-.4.8Z"/><path class="cls-9" d="M19.4,17.1c.6-.1,1.1-.2,1.7-.3.2.2.3.5.5.7-.4.2-.9.3-1.3.5-.4-.2-.8-.4-.9-.9Z"/><path class="cls-47" d="M12.6,21.4c-.3-.3-.6-.7-.4-1.2.8-1.1,1.9-1.4,3.2-1.6.6,0,1.1.4,1.7.4,1.1.4,2.1.7,3.2,1.1-.4,1-1.3,1.5-2.1,2-.4.3-1.2.6-.2,1.2-.8.3-1.5.7-2.3.2-1.4-.2-2.2-1.2-3.1-2.1Z"/><path class="cls-20" d="M12.6,21.4c1.4.1,1.8,1.7,3,2.2-1.4.1-2.5-.2-3.1-1.6.1-.2.1-.4.1-.6Z"/><path class="cls-42" d="M18.8,12.3c-.5.9.3,1.2.7,1.7-.6,0-1.2-.1-1.3.8-.1.6.2,1,.8,1,1,.1.5.7.5,1.3-.5.1-.9-.2-1.3-.4-1.3-.6-2.4.5-3.7.3-.3,0-.6-.1-.9-.4-.3-.5-.3-1.1-.3-1.7.1-.8.5-1.3,1.3-1.4h.3c.8,1.1,1.6,1.1,2.3,0,.8-.1.9-1,1.6-1.2Z"/><path class="cls-3" d="M17.1,19c-.4.2-.1,1-.6,1-.8,0-.3-.9-.8-1.1-1.3-.2-.9-.9-.4-1.5.9-.4,1.6.3,2.4.6-.2.3-.4.7-.6,1Z"/><path class="cls-43" d="M17.7,18c-.7-.1-1.5.2-2-.4-.3-.3-.8-.4-.9-1,1.2-.2,2.4-.7,3.5.1-1.6-.1-1.2.5-.6,1.3Z"/><path class="cls-41" d="M13.8,14.7c0,.6.1,1.3.1,1.9,0,.9-.6,1-1.3.9h-1.7c.2-.8,1.6-1,1.2-2.2.1-.6.6-.8,1.1-.9.3.2.4.2.6.3Z"/><path class="cls-10" d="M13.4,14.8c-.4.2-.9.4-1.3.6-.5.1-1,.7-1.5.2-.3-.3.1-.8.3-1.1.5-.4.7-1,1.3-1.3.3-.2.6-.3.8-.5.6.6.9,1.3.4,2.1Z"/><path class="cls-45" d="M12.2,13.2c-.1.8-.5,1.3-1.3,1.3.1-.9.5-1.7,1.3-2.2v.9Z"/><path class="cls-39" d="M12.6,17.6c.3-.4,1.1-.3,1.3-.9.3,0,.5-.1.8-.1.5.2,1,.3.9,1-.8.5-.4,1,.1,1.4-1.2.4-2.3.8-3.5,1.3-.2,0-.3,0-.5-.1-.3-1.1.8-1.7.9-2.6Z"/><path class="cls-15" d="M17.4,13.6c-.2.7.1,1.8-1.3,1.7-1.3-.1-.8-1.1-1-1.7.8-1.3,1.5-1.3,2.3,0Z"/><path class="cls-46" d="M13.4,14.8c-.1-.7-.3-1.3-.4-2,1.1-1,1.4.1,1.7.8-.2.4-.9.5-.9,1.2h-.4Z"/><path class="cls-8" d="M18.1,20.7c-1.3,1.1-2.1.9-3.2,0,1.1-.3,2-.3,3.2,0Z"/></svg>