<svg xmlns="http://www.w3.org/2000/svg" viewBox="0 0 32 32"><path d="m15.93,0c3.36,0,4.81.67,5.95,1.17,1.76,2.01,6.05,7.47,6.22,15.22.05,2.37.23,10.25-4.95,13.67-2.8,1.85-6.38,1.9-7.15,1.89-2.87-.03-4.05-.56-5.18-1.01-.43-.25-8.98-5.37-9.07-14.96-.06-5.86,4.19-11.78,9.23-14.28C13.8.32,12.49,0,15.93,0Z" style="fill:#fff; fill-rule:evenodd;"/><path d="m18.85.21v4.19s2.48.84,3.76,3.13c0,0,.51.92.66,1.22l-3.64,2.35-.72-1.24s-.79-1.47-2.36-1.47-2.07.89-2.15,1c-.08.11-.33.55-.33,1.21s.63,1.28,1.86,1.86c1.23.59,3.62,1.53,4.79,2.38,1.18.86,2.96,2.22,2.96,5.5s-2.18,6.02-4.81,6.99h-.02v4.35c7.58-1.38,13.14-8.04,13.14-15.74,0-7.71-5.56-14.37-13.15-15.75Z" style="fill:#745ddf;"/><path d="m0,15.96c0,1.36.16,6.38,4.06,10.72,3.87,4.3,8.78,5.01,10,5.16v-4.21c-3.89-.97-5.03-4.37-5.23-4.9-.2-.53-.52-2.15-.52-2.15l4.43-1.26c.25,2.2.46,2.31.9,3.02.44.7,1.94,1.65,3.64.92,1.7-.73,1.92-2.15,1.92-2.67s-.05-1.07-.68-1.77c-.63-.7-2.85-1.6-3.63-1.95-.78-.34-1.88-.75-3.43-2.07-1.56-1.32-1.86-3.15-1.86-4.15s.06-2.73,1.56-4.36,3.03-1.89,3.03-1.89V.06c-1.23.14-6.16.86-10.06,5.19C.16,9.65,0,14.73,0,15.96Z" style="fill:#2eb6ea;"/></svg>