<svg width="32" height="32" viewBox="0 0 32 32" xmlns="http://www.w3.org/2000/svg"><defs><style>.cls-1{fill:#000;}.cls-1,.cls-2{stroke-width:0px;}.cls-2{fill:#fff;}</style></defs><path class="cls-1" d="M16,31.5C7.45,31.5.5,24.55.5,16S7.45.5,16,.5s15.5,6.95,15.5,15.5-6.95,15.5-15.5,15.5Z"/><path class="cls-2" d="M16,1c8.27,0,15,6.73,15,15s-6.73,15-15,15S1,24.27,1,16,7.73,1,16,1M16,0C7.16,0,0,7.16,0,16s7.16,16,16,16,16-7.16,16-16S24.84,0,16,0h0Z"/><path class="cls-2" d="M15.26,13.09c-.38.35-.75.69-1.11,1.03-.64.59-1.28,1.19-1.91,1.78-.13.12-.28.18-.46.18-.15,0-.29,0-.45,0,.16-.37.31-.72.61-1,1.17-1.08,2.34-2.16,3.51-3.25.08-.07.15-.14.23-.21.15-.13.21-.3.21-.5,0-.99,0-1.97,0-2.96,0-1.11,0-2.23,0-3.34,0-.04,0-.08.04-.1.04-.02.08-.03.12-.01.04.01.02.06.02.09,0,2.12,0,4.25,0,6.37,0,.18.06.32.19.44,1.18,1.08,2.35,2.17,3.51,3.28.21.2.44.38.59.63.11.18.21.37.33.57-.15,0-.29,0-.43,0-.46,0-.32.05-.65-.25-.94-.87-1.88-1.75-2.82-2.62-.02-.02-.04-.04-.07-.06-.03.06-.02.12-.02.17,0,2.9,0,5.79,0,8.69,0,1.04-.01,2.08,0,3.12.01.81-.26,1.51-.69,2.17,0,0,0,0-.02.02-.12-.15-.22-.31-.31-.48-.27-.49-.4-1.01-.4-1.57,0-4.02,0-8.04,0-12.05,0-.03,0-.06,0-.11Z"/><path class="cls-2" d="M17.3,8.68c.14.08.23.19.34.28,1.08,1.01,2.16,2.01,3.25,3.02.42.39.84.78,1.27,1.16.27.24.46.54.62.86.04.08.08.17.12.25.02.04.02.05-.03.05-.2,0-.4,0-.6,0-.05,0-.09-.03-.12-.06-.64-.59-1.27-1.18-1.91-1.77-.87-.8-1.73-1.59-2.6-2.39-.05-.04-.09-.09-.14-.13-.15-.13-.21-.3-.2-.5.02-.26,0-.51,0-.78Z"/><path class="cls-2" d="M14.64,8.69c0,.34,0,.67,0,1,0,.07-.05.12-.1.17-.16.15-.33.31-.49.46-.57.53-1.13,1.06-1.7,1.59-.69.64-1.38,1.28-2.07,1.93-.12.11-.24.23-.36.34-.08.08-.18.11-.29.12-.18.01-.35,0-.54,0,.16-.35.28-.71.58-.98,1.04-.96,2.08-1.93,3.11-2.89.57-.53,1.13-1.06,1.7-1.59.05-.05.1-.09.17-.13Z"/></svg>