<svg id="a" xmlns="http://www.w3.org/2000/svg" viewBox="0 0 32 32.07"><circle cx="16" cy="16.07" r="16" fill="#fff" stroke-width="0"/><path d="M24.85,12.84c-3.19-2.17-2.19.92-2.93,2.17-.89,1.51,1.52,3.77-1.47,4.79-3.45,1.18-6.8,1-9.79-.63-.94-.51-.84-3.14-.99-4.81-.09-.96-.25-1.86-1.09-2.18-1.2-.46-.87,1.37-1.82,1.47-.28-.22-.49-.5-.61-.83-.22-1.33.16-2.87,1.39-2.99,1.86-.17,1.19-1.85,2.06-2.49.33-.15.66-.16,1-.04,2.13,1.67,4.2,3.37,2.28,6.47-1.05,2.14-.37,3.91,1.76,4.48,2.3.62,4.2-.29,4.61-3.02-.69-2.56-3.67-4.78-1.15-7.81.34-.15.64-.09.9.17,0,.12-.06.27-.02.36.58,1.2,1.17,2.39,1.76,3.58l.29-4.05c.28-.22.59-.29.93-.18.65,1.35,1.73,2.23,3.09,2.8.48.58.58,1.24.43,1.96-.13.34-.35.6-.66.79Z" fill="#13060c" stroke-width="0"/><path d="M25.92,21.84c.46-.51.92-1.03,1.39-1.54.81-.34,1.05.31,1.39.8.75,4.64-5.2,5.81-5.23,10.06,0,.12-.33.24-.5.36-.13-.32-.37-.63-.39-.96-.08-1.69-.94-1.08-1.72-.59-4.62,2.9-3.66-.74-3.65-3.15,0-.8.31-1.6.48-2.4,1.09.31.32,1.28.66,1.83.12.2.63.43.67.38.24-.25.51-.58.54-.91.11-1.25.13-2.52.18-3.77,2.56.83,1.03,2.87,1.3,4.38.08-1.99.47-3.73,2.89-4.1.66-.1,1.16-1.06,1.99-.4Z" fill="#120c14" stroke-width="0"/><path d="M8.36,27.7c0-1.41-.03-2.18,0-2.93.04-.85-.21-2.12.89-2.2,1.42-.1,1.26,1.23,1.29,2.23.03.98-.26,2.51.94,2.54,1.68.05.85-1.65,1.09-2.61.17-.68.37-1.35.56-2.03.88.45.6,1.31.54,1.96-.16,1.51.67,2.54,1.32,3.75.41.77.44,2.25-.04,2.89-.91,1.2-1.21-.35-1.82-.77-1.61-1.11-.38,1.73-2.09,1.45-3.4-.56-3.1-2.6-2.69-4.28Z" fill="#14121b" stroke-width="0"/><path d="M2.97,21.69C-.25,14.31,4.06,5.35,11.63,3.42c1.33-.34,1.16.15,1.06.97-1.07,1.8-3.61,1.84-4.53,3.82-1.39,1.18-2.03,2.82-2.78,4.41-1.43,2.06-1.46,4.38-1.41,6.77.01.75.96,2.27-1,2.3Z" fill="#e30f0d" stroke-width="0"/><path d="M7.55,7.32c1.29-1.72,3.07-2.58,5.15-2.92,2.06.18,1.58-1.31,1.54-2.42-.02-.68-1.11-1.35-.3-1.94.27-.19,1.34.5,1.89.97,2.01,1.71,4.28,3.34,3.2,6.57,0,0-.16-.15-.16-.15-1.36-.4-1.49-2-2.58-2.64-1.58,1.57-2.65,4.22-5.67,2.67-.21,0-.41-.02-.62-.03-.81-.07-1.69,1.14-2.45-.11Z" fill="#19080d" stroke-width="0"/><path d="M20.44,4.4c-.11-.32-.21-.65-.32-.97,4.01.68,6.68,3.24,8.53,6.59,1.82,3.31,3.1,6.83.37,10.39-1.82-2-.21-4.65-1.3-6.78-.91-2.98-2.5-5.45-5.22-7.08-.89-.54-1.55-1.26-2.06-2.14Z" fill="#ec0c0b" stroke-width="0"/><path d="M2.97,21.69c1.72-1.86-.59-3.65-.07-5.54.44-1.63-.22-3.77,2.32-4.21.63-.06,1.04.32,1.46.7.03.34.07.68.1,1.01-1.64,3.03-2.81,6.17-2.33,9.71.38.32.37.61-.05.88-1.04-.53-1.39-1.45-1.43-2.54Z" fill="#23070d" stroke-width="0"/><path d="M28.64,12.8c1.21,2.48.07,5.08.37,7.6-.11.23-.21.46-.32.69-.46-.27-.93-.53-1.39-.8.68-1.17.38-1.99-.78-2.69-.3-.18-3.62-.48-.2-1.38-.49-1.13-.98-2.26-1.47-3.4,0,0,.13-.14.13-.14,1.25-1.13,2.45-.44,3.65.1Z" fill="#2b060b" stroke-width="0"/><path d="M25.92,21.84c-1.85,1.4-5.15,1.62-4.24,5.3.09.36-.71,1.35-.99,1.31-1.38-.2-.07-1.02-.22-1.58-.41-1.61.72-3.45-.73-4.92,2.04-1.01,4.07-2.37,6.17-.11Z" fill="#729ccf" stroke-width="0"/><path d="M28.64,12.8c-1.22-.03-2.44-.07-3.65-.1,0-.69-.01-1.37-.02-2.06-.39-1.69-1.89-2.32-3.11-3.22-.26.01-.53.03-.79.04-1.1-.84-.54-2.02-.63-3.07,4.07,1.5,6.74,4.36,8.21,8.4Z" fill="#4f060a" stroke-width="0"/><path d="M4.4,24.23c.02-.29.03-.59.05-.88,1.24.99,1.31.24,1.44-.85.11-.88-.68-2.02.59-2.65.09.96.19,1.93.27,2.89.03.38.02.76,0,1.14-.05,1.24-.11,2.47-.17,3.7-.73-1.12-1.46-2.24-2.19-3.36Z" fill="#191219" stroke-width="0"/><path d="M20.28,15.05c.4,2.28-.87,3.76-2.74,4.33-1.75.54-3.75.6-5.1-1.31-1.16-1.65-1.99-3.24-.26-5.01.64.23,1.32-.05,1.96.16.28.16.49.39.63.67,1,1.37,1.05-.54,1.67-.5,1.69-.39,2.47,1.33,3.85,1.66Z" fill="#d00c0c" stroke-width="0"/><path d="M14.35,13.53c-.75-.04-1.8,1.3-2.17-.47.73-1.1.71-2.31.51-3.54-.42.51-1.02,1.54-1.24,1.46-2.02-.68-.47-2.34-.83-3.52,2.67-.39,4.73-1.25,4.71-4.6,0-.56.4.82.98.81,2.6,3.93-.49,6.73-1.95,9.85Z" fill="#f7eeeb" stroke-width="0"/><path d="M14.35,13.53c-.85-3.58,3.53-6.13,1.95-9.85,2.34.23,1.47,2.67,2.57,3.75-3.13,3.21,1.68,4.95,1.41,7.62-2.61,2.74-1.98-1.84-3.51-1.55-.83.14-1.66.65-2.48-.02l.06.05Z" fill="#de0e07" stroke-width="0"/><path d="M6.68,12.63c-.63.06-1.25.12-1.46-.7-.45-2.16,1.63-3.04,2.33-4.61.82.04,1.63.07,2.45.11,1.44,3.36-3.54,2.62-3.32,5.2Z" fill="#d50706" stroke-width="0"/><path d="M21.86,7.43c2.59-.43,3.62.65,3.11,3.22-2.57.41-3.52-.74-3.11-3.22Z" fill="#ed0908" stroke-width="0"/><path d="M14.29,13.48c.83.02,1.67-1.84,2.48.02-.43,1.49-.86,3.75-2.57,3.3-2.04-.53.83-2.13.1-3.32Z" fill="#f4e1e1" stroke-width="0"/></svg>