<svg width="32" height="32" viewBox="0 0 32 32" xmlns="http://www.w3.org/2000/svg"><circle cx="16" cy="16" r="16" fill="#4c9541" stroke-width="0"/><path d="M21.8,30.91c-.58.18-.47.39-1.73-.67-.12-.1-.28-.21-.31-.35-.25-1.16-1.3-1.72-1.89-2.62-.17-.26-.37-.39-.64-.24-.32.16-.23.43-.09.67.17.29.41.53.61.81.44.6.75,1.23.69,2.01-.04.54.59.49,1.07.83.18.13-.1.24-.45.36-.1,0-.33.06-.51.09-.1.01-.23.02-.26.01-.7-.06-.92-.06-1.78.17-.26,0-.72,0-.98,0,2.84-1.18,3.06-1.34,1.12-3.92-.28-.38-.43-.8-.19-1.23.23-.41.68-.69,1.12-.5.95.41,1.44-.25,2.05-.71.68-.51,1.37-.99,2.06-1.49.52-.1,1.04-.18,1.53.15.23.15.5.08.74.13.03.02.06.04.09.07-.53.68-.25,1.04.44,1.39,1.04.54,1.81.75,2.27,1.94-.98-1.48-2.57-1.57-3.66-2.93-.38-.48-.9-.55-1.47-.3-.83.36-1.61.84-2.02,1.61-.14.27.93.92-.14,1.42-.04-.35.57-.66,0-.97-.26-.14-.51-.2-.7.02-.15.18-.33.47-.28.65.13.46.58.42.97.44.86.04,1.32-.65,1.94-1.04.57-.36,1.12-.25,1.7,0,.52.23-.07.52.07.79.35-.25.69-.49,1.02-.73-.58.9-1.46,1.38-2.32,1.91-.81.5-1.46,1.18-.37,2.05" fill="#021101" stroke-width="0"/><path d="M0,15.26c.42-.77.9-1.52,1.24-2.32,1.32-3.13,3.75-5.5,5.58-8.29.12-.18.35-.29.53-.43.07,0,.12.05.14.11-2.12,2.77-4.49,5.38-5.96,8.61-.46,1.01-1.02,1.96-1.54,2.94,0-.21,0-.42,0-.62Z" fill="#081f07" stroke-width="0"/><path d="M7.49,4.34s-.09-.08-.14-.11c2.12-1.25,4.74-1.01,6.59.58.1.09.27.1.41.15.07.04.13.09.17.16.14.25.21.53.31.79.37.93,1.01,1.27,1.97,1.02,1.61-.43,3.18-.35,4.7.37.13.09.23.21.34.32.47.78,1.6.91,1.88,1.88-2.13-1.97-4.51-2.94-7.51-1.8,1.36,1.18,1.55,2.95,2.39,4.39.16.27.42.79-.21,1.01-.22-.72-.42-1.43-1.02-1.95-.5-.44-.98-.91-1.55-.83.87.79,2.06,1.45,2.58,2.78.06.31.12.62.17.93-.05.02-.1.03-.15.05-.16-.33-.32-.65-.48-.98-.75-.47-1.25-1.22-1.99-1.71-1-.66-2.03-1.11-3.25-1.1-.7,0-1.4.08-2.09.1-.9.03-1.63.46-2.23,1.13,1.06-1.11,2.47-1.13,3.85-1.23,2.07-.15,3.57.99,5.03,2.22.29.25.25.59.36.9.08.44.23.84.58,1.15.26.22.31.55.05.75-1.62,1.29-3.06,2.89-5.26,3.24-.11.02-.22-.04-.49-.1,1.51-.69,3.18-.79,4.07-2.29-2.43-.43-5.22.31-7.04-2.21.13,0,.28-.05.33,0,1.82,2.1,4.33,1.6,6.65,1.8.2.02.43.01.61-.07.37-.16,1.01-.34.88-.72-.19-.52-.71-.05-1.05.05-2.25.67-4.25-.08-6.11-1.18-.9-.54-1.81-.98-2.81-1.17-.7-.13-.72-.58-.47-.93.72-.99,1.57-1.89,2.95-1.9,1.79-.01,3.59,0,5.38-.03.61-.01,1.11.16,1.54.67-.18-1.72-2.32-3.62-3.95-3.79-1.96-.2-3.81-.13-5.61,1.79.92-1.63,2.71-2.38,4.29-2.17.23.03.46.07.7.07.49,0,.97-.03,1.46-.05-.12-.71-.4-1.38-1.01-1.76-1.89-1.17-3.86-1.12-5.84-.19Z" fill="#020c01" stroke-width="0"/><path d="M25.77,17.6c.98,1.08.19,1.78-.53,2.5-.1.02-.16-.02-.18-.11-.05-.56.57-.8.63-1.42-.2.24-.28.45-.39.64-.55.93-1.34,1.47-2.43,1.63-2.27.33-4.52.02-6.76-.22-2.56-.28-5.08-.81-7.55-1.58-.35-.11-.84-.4-1.04.04-.2.42.32.67.63.85,1.61.95,3.28,1.82,5.02,2.5.87.34,1.84.36,2.76.47,2.3.29,4.62.07,6.92.03.51,0,.94-.28,1.29-.65.21-.22.41-.49.76-.5.03.02.07.05.1.07-.78.71.09,2.02-.94,2.64,0,0-.04-.03-.04-.03-.27-.29-.03-.59-.04-.92-.23-.13-.49.11-.72-.03-3.29,0-6.61.42-9.83-.46-2.28-.62-4.34-1.8-6.28-3.16-.42-.3-.5-.78-.26-1.26.26-.52.72-.46,1.15-.32,4.35,1.35,8.81,2,13.36,2.12,1.98.05,3.37-.65,3.9-2.66.11-.2.24-.32.46-.16Z" fill="#0d0701" stroke-width="0"/><path d="M23.73,14.93c-1.26.34-2.52.11-3.78.01-.37-.03-.84-.03-1.01-.42-.19-.42.05-.81.33-1.13.43-.48.87-.94,1.31-1.42.11-.06.24-.1.37-.11.74.18,1.55-.22,2.26.25.13.11.18.26.19.43.13.52.31,1.04.19,1.6-.04.2.1.34.2.48.05.11.02.21-.06.3Z" fill="#020401" stroke-width="0"/><path d="M23.11,12.62c.05-.1.1-.2.15-.31.45-.34.75.15,1.12.17-.41-.62-1.01-.82-2.02-.7-.47.05-.92.29-1.41.21-.12,0-.24-.01-.36-.02,1.47-1.16,3.35-1.04,4.44.29.33-1.38-2.56-2.04-4.4-.98-.35.2-.65.47-1.03.62.5-.82,1.26-1.27,2.21-1.3.98-.04,1.97-.12,2.93.21.38.13-.01-.17.08-.23.7.21.85.53.68,1.34-.26,1.22.15,2.55-.87,3.68-.16.18.74,1.31,1.14,2.01-.15.05-.31.1-.46.16.02-2.28-1.56-1.14-2.85-1.01.58-.57,1.24-.2,1.49-.8-.32-.04-.63-.08-.94-.12,1.09-.13,1.88-.55,2.13-1.72-.49.29-.95.55-1.41.82,0-.09,0-.18,0-.27.02-.51,1.03-.61.62-1.18-.26-.37-.83-.55-1.24-.85Z" fill="#031103" stroke-width="0"/><path d="M17.64,13.39c-1.57-2.84-6.95-4.21-9.32-1.38-.1.12-.29.17-.44.25.01-.19-.04-.43.06-.56.72-.94,1.59-1.49,2.85-1.62,2.96-.28,5.42.45,7.17,2.99-.11.1-.22.21-.32.31Z" fill="#509147" stroke-width="0"/><path d="M23.26,23.51c.34-.17.68-.33,1.16-.57-.15.58-.27,1.05-.4,1.52-.88.74-1.46-.83-2.32-.31.52-.21,1.04-.43,1.56-.64Z" fill="#4c9541" stroke-width="0"/><path d="M21.81,17.87c-.68-.85-1.39-1.75-2.44-2.32.91.16,1.77.47,2.84.37-2.74.51.32,1.31-.4,1.95Z" fill="#041103" stroke-width="0"/><path d="M23.73,9.48c.37.37.74.73,1.1,1.1-1.42-.55-2.85-.43-4.54.05,1.05-.87,2.05-.68,2.99-.68.4,0,.58-.05.45-.47Z" fill="#020c01" stroke-width="0"/><path d="M8.99,17.86c-1.23.08-2.2.02-2.82,1.14.1-1.15,1.31-1.64,2.82-1.14Z" fill="#041603" stroke-width="0"/><path d="M6.66,17.17c.61-.61,1.06-.69,1.89-.52-.73.2-1.16.32-1.89.52Z" fill="#0b2309" stroke-width="0"/><path d="M25.1,20.1s.09,0,.14,0c-.3.55.51,1.26-.24,1.75,0,0-.04-.06-.04-.06-.19-.35-.4-.49-.78-.2-.4.3-.88.46-1.39.47-2.29.05-4.58.13-6.84-.35-.74-.16-1.48-.24-2.24-.26-1.78-.04-3.38-.77-5.01-1.38-.12-.05-.23-.13-.32-.22-.18-.18-.45-.37-.26-.65.16-.23.43-.12.64-.03.43.19.86.37,1.3.53,1.55.56,3.11.99,4.79.95.8-.02,1.58.31,2.38.42,1.74.23,3.48.14,5.22.17.67,0,1.19-.28,1.69-.68.27-.22.53-.52.95-.46Z" fill="#1f0101" stroke-width="0"/><path d="M14.36,5.12c0-.06,0-.11,0-.17,3.05-3.03,6.49-.41,7.49,2.67-.1-.05-.21-.11-.31-.16-.55-.43-.83-1.06-1.21-1.62-1.23-1.83-3.44-2.23-5.2-.95-.23.17-.45.37-.77.22Z" fill="#071d05" stroke-width="0"/><path d="M22.2,26.97c-.65.65-1.3,1.3-1.97,1.93-.08.07-.25.04-.38.05,0-.28-.13-.72,0-.81.69-.5,1.44-.92,2.17-1.37.06.07.12.13.18.2Z" fill="#4f8f45" stroke-width="0"/><path d="M22.95,27.25c-.29.32-.56.76-.95,1.02-.54.35-.94.78-1.29,1.31-.06.09-.03.47-.33.22-.15-.12-.37-.27-.15-.51.77-.8,1.53-1.6,2.33-2.37.19-.19.3.04.39.33Z" fill="#4f8a47" stroke-width="0"/><path d="M14.36,5.12c1.53-1.4,3.21-1.68,5.01-.6,1.12.67,1.61,1.84,2.17,2.94-1.72-.56-3.41-.6-5.22-.21-1.31.28-1.76-.98-1.96-2.12Z" fill="#4c9541" stroke-width="0"/><path d="M15.64,11.99c-2.33.11-4.51-.16-6.64.44-.1.03-.25-.1-.38-.16.14-.21.25-.46.43-.62,1.05-.94,4.2-1.18,5.39-.43.35.22.69.44,1.19.77Z" fill="#4d9443" stroke-width="0"/><path d="M15.09,12.35c2.14-.18,2.27,1.1,2.43,1.95.06.33-1.17.64-1.9.64-.29,0-.89-.16-.81-.23.84-.63-.53-2.12.28-2.36Z" fill="#fbfcfb" stroke-width="0"/><path d="M18.42,13.08c-.98-1.09-1.97-2.16-3.25-2.89,1.81-.35,3.28.96,3.24,2.9,0,0,0,0,0,0Z" fill="#4e9244" stroke-width="0"/><path d="M9.34,12.6c.72-.07,1.35-.14,2.01-.21q-.52,1.07-2.01.21Z" fill="#f2f4f1" stroke-width="0"/><path d="M14.38,13.37c-.05.43-.29.52-.6.53-.27,0-.48-.13-.46-.4.03-.37.36-.51.66-.51.19,0,.46.13.4.38Z" fill="#eaebea" stroke-width="0"/><path d="M25.1,20.1c-1.84,2.22-4.39,1.51-6.61,1.32-2.9-.25-5.89-.34-8.66-1.51-.53-.22-1.05-.46-1.62-.6,1.44,1.08,3.14,1.65,4.86,1.82,3.16.31,6.3,1,9.51.69.6-.06,1.18-.12,1.66-.55.21-.19.44-.6.75-.4.36.23.03.61-.02.93-1.46,2.26-3.81,1.33-5.78,1.49-4.23.36-8.06-1-11.53-3.39-.37-.26-.77-.55-.5-1.07.27-.52.72-.25,1.1-.14,4.7,1.37,9.47,2.21,14.39,1.92,1.75-.1,2.45-1.31,2.97-2.77,1.02,1.09-.27,1.55-.52,2.27Z" fill="#9b2c15" stroke-width="0"/><path d="M20.94,11.99c1.89-.92,3.14-.63,4.23,1.11-.71-.29-1.31-.54-1.91-.78-.77-.11-1.55-.22-2.32-.32Z" fill="#4d8f44" stroke-width="0"/><path d="M23.11,12.62c.56.23,1.41.31,1.63.72.42.79-.59.92-1.01,1.31-.34,0-.71.07-.39-.52.29-.52-.06-1.02-.23-1.52Z" fill="#f8faf8" stroke-width="0"/><path d="M20.05,13.03c-.15.61-.27,1.09-.39,1.56-.15-.07-.43-.14-.43-.22-.05-.56.32-.9.82-1.34Z" fill="#f2f2f1" stroke-width="0"/><path d="M22.33,13.22c.37.05.48.19.46.43-.02.24-.14.37-.39.37-.28,0-.43-.19-.37-.44.04-.15.22-.27.29-.36Z" fill="#f5f7f5" stroke-width="0"/></svg>