<svg width="32" height="32" viewBox="0 0 32 32" xmlns="http://www.w3.org/2000/svg"><defs><style>.cls-1{fill:#0e0f10;}.cls-1,.cls-2{stroke-width:0px;}.cls-2{fill:#ca2929;}</style></defs><circle class="cls-1" cx="16" cy="16" r="16"/><path class="cls-2" d="m15,7.55l.22-.37.1-.18h1.1l.1.18.22.37-.19,5.08.45.58-.6,7.77h-.16v.02h-.89s-.6-7.78-.6-7.78l.45-.58-.19-5.08h-.01Z"/><path class="cls-2" d="m12.57,10.36l.85,3.34h0l-1.01,1.08h0l.95,6.21h1.06l-.86-12.14h0l-.97,1.5h-.02Z"/><path class="cls-2" d="m12.63,20.99l-1.71-8.03h0l-.65.99h0l.68,2.11h0l-.75,1.04h0l1.13,3.87h1.3v.02Z"/><path class="cls-2" d="m8.61,18.37l-.54-.94v-.02l.59-.9h0l1.64,4.48h-1.34l-.92-1.49v-.03c.02-.06.14-.26.26-.47.14-.23.29-.48.31-.55,0-.03,0-.08,0-.08Z"/><path class="cls-2" d="m7.3,20l.45.99h-1.74l.88-.68h0l.4-.31h0Z"/><path class="cls-2" d="m18.35,13.7l.85-3.34h0l-.97-1.5h0l-.86,12.14h1.06l.95-6.21h0l-1.01-1.08h-.02Z"/><path class="cls-2" d="m19.15,20.99l1.71-8.03h0l.65.99h0l-.68,2.11h0l.75,1.04h0l-1.13,3.87h-1.3v.02Z"/><path class="cls-2" d="m23.17,18.37l.54-.94v-.02l-.59-.9h0l-1.64,4.48h1.34l.92-1.49v-.03c-.02-.06-.14-.26-.26-.47-.14-.23-.29-.48-.31-.55,0-.03,0-.08,0-.08Z"/><path class="cls-2" d="m24.7,20l-.45.99h1.74l-.88-.68h0l-.4-.31h-.01Z"/></svg>