<svg xmlns="http://www.w3.org/2000/svg" viewBox="0 0 32 32" xmlns:v="https://vecta.io/nano"><style><![CDATA[.B{fill:#a76c2e}.C{fill:#c28d4f}.D{fill:#d8a563}.E{fill:#321d00}.F{fill:#080604}.G{fill:#84521d}.H{fill:#dda25f}.I{fill:#bb803b}.J{fill:#f0d3b4}]]></style><ellipse cx="15.92" cy="16.03" rx="15.57" ry="15.68" class="D"/><ellipse cx="16.01" cy="16.01" rx="12.66" ry="12.22" class="I"/><path d="M2.68 25.69c.13-1.4-.96-2.31-1.44-3.47C-3.37 11.07 5.46-1.02 17.47.07c9.34.84 15.94 9.55 14.28 18.8-.36 2.02-1.11 3.89-2.17 5.63-.09.15-.25.25.03.43.24.15-.03.23-.16.29-.52.08-.73.51-1 .88-2.7 3.2-6.08 5.24-10.25 5.75-5.95.73-10.85-1.28-14.7-5.88-.07-.09-.15-.17-.23-.25-.02.13-.05.26-.04.38s.05.23-.1.28c-.28-.15-.28-.47-.44-.7zm15.92-6.98l-.1.32c.21.05.24-.14.34-.24.93-.95 1.04-2.22 1.34-3.41.04-.15.17-.32.02-.49-.06.15-.12.3-.19.45-.09.18 0 .55-.22.52-.16-.02.04-.35.08-.53.06-.28-.07-.8.25-.8.48.01.31-.28.39-.47.15-.34-.02-.6-.19-.87-.05-.07-.13-.23.05-.27.07-.02.22-.06.2.13 0 .08.04.16.05.24.04-.08.09-.16.11-.25.03-.12.05-.25.07-.37l1.13-6.9c.01-.06-.01-.13-.02-.19-.04.06-.11.11-.12.17l-.49 2.99c-.02.09.03.26-.15.24-.17-.03-.2-.14-.16-.32.2-.84.38-1.69.56-2.53-.02-.56.2-1.07.33-1.59.03-.11-.02-.26.15-.31v.33.25c.05-.07.12-.12.14-.2l.4-1.55c.03-.11.02-.2-.11-.16-.29.08-.61.14-.76.45-.12.24-.11.23-.28.06-.04-.04-.18 0-.26.04-.93.41-.83 1.35-1.07 2.12-.1.31-.19.63-.3.94-.02.06-.08.1-.12.15-.03-.06-.08-.13-.08-.19l.13-1.11c.05-.18.11-.37.14-.55.03-.15.13-.49-.17-.32-.37.22-.84.23-1.13.59-.36.14-.31.49-.4.77-.04.11-.13.31-.15.3-.18-.05.05-.16-.02-.24-.04-.05-.1-.14-.13-.13-.06.02-.13.08-.16.14l-.65 1.43c-.03.06-.07.11-.1.17 0-.07-.02-.14-.01-.2.12-.82.66-1.52.71-2.37.28-.91-.16-1.88.22-2.79.07-.18.06-.4.07-.61 0-.05-.05-.15-.08-.15-.16 0 .02.41-.42.22-.45-.2-.82.47-1.32.66-1.08.42-1.15 1.58-1.34 2.59l-.33 2.07c0 .05-.02.09-.04.14-.01-.04-.02-.09-.03-.13-.2-.68 0-1.41-.31-2.07-.23-.39-.62-.84-.97-.8-.29.03-.12.67-.18 1.04 0 .01 0 .02.01.03.04.85-.31 1.63-.39 2.46 0 .06-.03.11-.05.17-.01-.05-.03-.1-.04-.16-.14-.71-.1-1.47-.48-2.13-.11-.51-.79-.57-.87-1.1-.04-.04-.07-.08-.11-.12-.03.09-.07.17-.07.26.04 2.75.3 5.48.48 8.22.09 1.37.26 2.73.64 4.06.08.85.56 1.52.97 2.21.05.09.12.24.08.3-.31.51-.57 1.05-1.04 1.46-1.27 1.09-2.78 1.57-4.38 1.84-.01 0-1.43-.6-.34.53.66.67.9.29 1.31 0 .3-.21.59-.42.96-.49.07-.01.2 0 .21.04.03.07.01.17-.02.25-.06.12-.14.22-.21.33.15-.02.31-.02.46-.05.21-.04.45-.06.62-.18.27-.18 1.01.04.68-.73-.02-.04.14-.2.23-.24 1.02-.42 1.75-1.07 1.81-2.26 0-.16.07-.08.14-.03.38.29.42.48.26.77-.28.5-.47 1.04-.51 1.62-.05.64-.1 1.27-.67 1.71-.46.36-1.02.35-1.55.48-.12.03-.38-.05-.34.12.04.14.18.37.43.37 1.39.01 2.54-.42 3.29-1.68.19-.32.29-.7.62-.92-.01.45-.18.84-.4 1.22l-.43.69c.38-.1.47-.46.62-.75.49-.88.27-1.93.61-2.85.02-.05-.15-.16.03-.16.21 0 .43.06.64.09-.05.07-.11.14-.16.22-.06.08-.16.16-.16.24.05.65.33 1.23.67 1.77.3.48.71.9.63 1.53-.6-.8-1.4-1.49-1.43-2.61 0-.05-.07-.09-.1-.13-.01.07-.04.15-.04.22.08 1.1.81 1.84 1.46 2.62.02.03.06.04.09.06v-.17c.06.03.17.09.18.08.07-.12.09-.41.28-.26.23.18.37.47.53.73.02.03-.02.14-.06.16-.03.02-.11-.01-.17-.02.06.06.12.18.18.18.29 0 .48.7.9.13.05-.06.62.27.95.41-.03.02-.07.08-.09.07-.12-.03-.24-.13-.36-.01.15.04.3.13.44.11 1.05-.1 1.76.36 2.19 1.29.03.06.06.11.08.17.02-.07.05-.14.05-.21-.08-.98-.75-1.68-1.84-1.79-.95-.09-1.56-.67-2.16-1.3-.87-.91-.94-2.09-1.07-3.24-.01-.09-.39-.34.06-.41.28-.04.4-.21.52.3.27 1.1 1.3 1.65 2.17 2.24.19.13.52.1.75.33.13.13.4.25.57.06.12-.14.09-.2.26-.05.72.6 1.5.73 2.42.49.84-.21 1.75-.38 2.3.65.11.2.3.37.49.51.15.11.35.15.53.22.07-.26-.22-.25-.31-.39a6.3 6.3 0 0 0-.37-.53c-.41-.59-.94-1.11-1.68-.95-1.27.28-2.32-.14-3.45-.62-1.42-.61-2.58-1.42-3.26-2.84-.27-.56.24-.93.37-1.39.02.04.04.07.06.11 0 .07 0 .14-.01.21zM5.93 23.82c-.45.17-.39.88-.96.93-.07 0-.13-.02-.2-.03.02-.06.04-.12.08-.18.06-.1.13-.2.2-.3-.12.02-.25.03-.37.05-.5.06-.44.63-.76.85-.1.07-.31.1-.22.28.05.1.21.14.32.2l.12.15.35.41c1.45 1.66 3.17 2.96 5.2 3.83l.62.27c1.62.68 3.3 1.02 5.05 1.08h1.31c2.17-.08 4.23-.6 6.16-1.6.04-.02.09-.04.13-.06l.06-.03a12.13 12.13 0 0 0 2.26-1.43c.81-.6 1.55-1.27 2.19-2.05.37-.36.42-.47.26-.49-.83-.12-1.44-.55-1.91-1.23l-.2-.13c-.14-.06-.28-.16-.43-.18-.18-.02-.44-.04-.55.06-.15.14.16.18.19.31.02.06.02.17 0 .18-.09.03-.2.07-.28.04-.26-.1-.57-.39-.75-.32-1.09.44-1.99-.2-2.96-.44-1.01-.25-2.02-.54-2.8-1.31-.05-.05-.13-.07-.2-.1 0 .09 0 .18.03.26.28.67.85 1.11 1.33 1.62.43.41.9.66 1.51.42.53-.07 1.06-.12 1.47.33.03.37-.21.26-.4.23h-.13c0 .03 0 .07.02.07.38.17.58.67 1.09.59.04-.02.09-.04.13-.06.12-.06.23-.13.35-.19.28-.03.56-.06.81.13.12.17.34.3.29.54a.28.28 0 0 1-.25.06c-.43-.45-.77 0-1.16.06-.7.1-.4.45-.31.78.08.32.57 0 .61.39-.24.16-.49 0-.73.02-.19.06-.04.41-.28.37-.08-.01-.12-.25-.19-.39-.03-.16-.06-.32-.08-.48-.13-.36-.23-.75-.76-.54-.07-.14-.13-.29-.22-.42a.67.67 0 0 0-.94-.17c-.42.36-.49.41-.97-.08-.14-.14-.32-.26-.49-.36-.23-.12-.61-.35-.68-.29-.2.2.19.38.17.63l-.22.06c-.25-.1-.4-.29-.53-.51l-.02-.1c.03-.21.04-.43-.1-.59l-1.5-1.67c-.17-.19-.34-.18-.43.08-.39 1.17-1.54 1.62-2.32 2.41-.12.12-.38.13-.58.16-.11.01-.28-.09-.16-.2.53-.53-.2-.13-.19-.27l-1.09.06c-.22.02-.29.15-.24.36l-.24.53c-.18.27-.3.6-.62.76-.61.02-1.42-.19-1.03.94.02.06-.04.15-.07.22-.12.03-.32.21-.33-.05-.01-.36-.22-.61-.35-.9-.12-.37.08-.72.08-1.08l1.01-.3c.61-.06.27-.52.33-.81.04-.14.09-.28.13-.41.22-.39.58-.57 1-.64.22-.04.29-.12.23-.32.23-.14.72.31.71-.13-.01-.62.38-.51.7-.61.23-.07.55.06.67-.26.03-.07.03-.21 0-.22-.27-.08-.47.11-.67.22-1.24.69-2.72.59-3.96 1.27-.1.05-.33.03-.38-.04-.35-.5-.68-.29-1.02-.01-.16 0-.36.18-.45-.04-.14-.33-.12-.34-.5-.19zm-3.17-.04l.5.82c.03.05.09.09.14.13.04-.05.12-.11.11-.16-.07-.87.52-1.17 1.19-1.42.12-.09.24-.18.36-.26l.16-.13a4.23 4.23 0 0 1 2.24-.43c.07 0 .14-.03.22-.04-.06-.04-.12-.07-.18-.11-.49-.28-.99-.39-1.55-.21-.15.05-.37-.01-.4-.18-.04-.23.19-.11.29-.15.03-.01.15.03.06-.08-.16-.2-.95-.04-1.06.22-.18-.11-.33-.03-.42.11-.15.26-.3.5-.61.58h-.14c.16-.34.21-.6-.31-.39-.26.11-.51.23-.77.35-.24-.15 0-.24.05-.34.36-.61 1.22-.45 1.59-1.04.11-.07.22-.15.33-.22.08-.14.76.09.26-.43-.02-.03 0-.15 0-.15.12 0 .28-.05.34.01.33.3.8.25 1.15.44s.73-.33 1.01.12c.54.34 1.11.5 1.74.31.49-.06.99-.14 1.48-.17.98-.07 1.77-.63 2.06-1.51.09-.12.13-.26.04-.38-.77-1.03-1-2.25-1.26-3.46l-.03-.27-.03-.14c-.01-.18-.03-.36-.04-.54 0-.05-.02-.1-.03-.14l-.08-.75c0-.09 0-.18-.01-.28l-.17-1.65-.02-.2-.09-1.44c-.01-.12-.03-.23-.04-.35 0-.23-.02-.45-.03-.68-.01-.09-.03-.19-.04-.28L10.7 7.8v-.14l-.06-1.16v-.48l-.07-1.58c0-.36.03-.8.53-.54.38.19.32.03.35-.22.07-.54.52-.68.94-.81.27-.08.56-.19.78.11.11.16.18.35.27.52.06-.22.11-.44.17-.67.02-.08.04-.15.05-.23.02-.04.05-.09.07-.13.33-.45.79-.71 1.32-.86.16-.05.35-.05.38.11.14.59.41.24.65.12.22-.11.43-.26.67-.34.47-.17.97-.74 1.42-.4.4.3.03.93.02 1.42 0 .09.04.18.07.27.06-.02.15-.02.18-.05.51-.92 1.49-.93 2.33-1.19.05-.02.11-.04.16-.06a.64.64 0 0 0-.14-.08C16.49.08 12.35.44 8.4 2.66c-.19.11-.37.23-.56.34-.99.59-1.89 1.3-2.68 2.14-.13.14-.26.27-.4.41l-.82.95c-.07.09-.14.18-.21.28-.52.63-.92 1.34-1.3 2.06-.04.07-.07.14-.11.21l-.63 1.42c-.04.1-.08.2-.11.29l-.46 1.5-.06.26c-.17.68-.3 1.37-.32 2.07l-.04.34c-.06.91-.07 1.83.06 2.74.02.11.03.23.05.34.07.78.22 1.55.48 2.29l.21.66c.28.96.69 1.86 1.22 2.7.02.04.04.07.06.11zM25.07 3.64c-.66-.52-1.38-.95-2.13-1.33-.05-.03-.11-.04-.16-.06 0 .03-.03.08-.03.08.51.32.1.73.1 1.1-.03.12-.07.23-.1.35l-.26 1.27-.29 1.47-.09.68-.16.89c0 .05-.02.09-.03.14l-.18 1.06c-.02.1-.03.2-.05.3l-.24 1.3c0 .07-.02.14-.02.21l-.15.89c-.04.16-.07.32-.11.48l-.42 1.98-.09.4-.44 1.85-.15.62-.14.41c-.32.6-.61 1.21-1.22 1.58-.23.14-.26.28-.09.47l.29.54c.22.43.54.69 1.04.74.82.09 1.65.35 2.44-.12.09 0 .17.02.26.03.48.49 1.02.47 1.59.18.11-.06.23-.1.33-.17.89-.69 1.84-1.11 2.99-.7.15.02.29.04.44.05.28-.1.56-.25.85-.29.14-.02.53-.16.44.28-.23.01-.57-.03-.58.25 0 .24.32.03.48.1.07.03.15.02.22.02.22 0 .53-.13.6.12.05.19-.32.11-.45.25-.71.45-1.44.21-2.18.09-.29-.39-.67-.21-1.02-.13-.1.02-.27.17-.26.2.07.17.23.14.38.1.17-.05.37-.14.49.03.02.03-.19.27-.32.37-.45.34-1.03-.01-1.45.19-.93.45-1.87.69-2.9.53-.05 0-.12.04-.17.07.04.04.07.09.11.11.34.14.69.27 1.04.41h.03.03.35c.07-.01.15-.02.22-.04l.12-.02c.65-.1 1.29-.18 1.91.13l.46.29s.04.09.06.13c.16.23.32.45.49.68.24.52.73.7 1.21.78.39.06.46-.4.65-.65l.46-.76c.6-1.03 1.09-2.12 1.38-3.28l.18-.6c.23-.86.37-1.73.42-2.62 0-.21 0-.41.01-.62.07-.73.02-1.46-.07-2.19-.02-.16-.04-.32-.07-.48l-.37-1.87-.17-.53-.43-1.23-.18-.41-.61-1.24-.19-.34-.65-1.02c-.08-.12-.17-.23-.25-.35l-.72-.91c-.15-.16-.29-.32-.44-.47l-1.22-1.16-.84-.67zM9.93 26.52s.05-.04.07-.05c.33-.44.19-1.1.69-1.48.11-.09-.04-.25-.14-.34a.3.3 0 0 0-.38-.02c-.22.14-.41.35-.38.61.1.74-.27 1.06-.94 1.17-.11.02-.21.09-.3.15-.05.04-.13.14-.12.16.08.13.15-.02.22-.03.07.02.13.05.2.07.36-.09.75-.02 1.07-.24zM20.77 3.17c.35-.2.22-.59.32-.88.08-.24.06-.4-.31-.37-1.17.12-1.31.23-1.59 1.64-.04.21-.06.43-.09.65.33-.07.8-.03.96-.24.26-.33.61-.67.59-1.19-.01-.23-.01-.52.22-.71l-.07.69c-.01.14-.02.27-.04.41 0 .01 0 .02-.01.03 0 0 .01-.02.02-.03zm.01 18.38v-.03h-.34-.36a6.1 6.1 0 0 1 .32.22c1 .76 2.16.46 3.26.5.95.03 1.43-.84 2.19-1.21.69-.33 1.32-.44 2.01-.08.2.1.41.26.66.19.01 0 .02-.05.02-.05-.17-.08-.35-.15-.51-.25-.85-.56-1.74-.62-2.6-.09-.94.57-1.81 1.34-3.03.67-.1-.06-.27 0-.4.01l-1.22.12zm-12.38.59c.79-.11 1.52-.41 2.26-.72.09-.04.16-.11.24-.16-.1-.01-.19-.05-.29-.03-1.35.19-2.69.31-4.02-.21a2.28 2.28 0 0 0-2.53.5c-.14.13-.36.18-.55.27.32.06.57-.09.83-.24.74-.43 1.98-.36 2.59.05a3.39 3.39 0 0 0 1.47.54zM6.51 23c.01-.18-.34-.38-.53-.25-.83.59-2.18.6-2.3 2-.01.14-.3.21-.16.29.17.09.32-.13.38-.3.1-.29.22-.57.54-.66.72-.21 1.34-.7 2.13-.66.04 0 .08-.03.12-.04-.01-.02-.02-.05-.04-.06-.12-.07-.54 0-.14-.31zm7.71-19.66c-.13.33.12.62.13.95 0 .06.04.12.07.18.04-.06.09-.11.11-.18.19-.63.46-1.24.37-1.92 0-.06.03-.12.05-.18.03.06.06.12.08.19.01.04-.01.1 0 .13.03.05-.07.27.1.13.17-.13.15-.39.08-.58-.07-.2-.23-.05-.34-.02-.65.19-.97.64-.99 1.3 0 .22-.23.58.07.61.25.03.07-.37.12-.57.05-.18.07-.37.11-.56.02.16.03.33.05.51zm-1.51.21c.08-.48-.2-.4-.59-.21s-.34.56-.37.88c-.02.2.09.39.27.52.01-.17.03-.34.03-.51 0-.11-.04-.22-.04-.34s-.06-.31.09-.32c.17 0 .1.19.11.3.01.27 0 .55 0 .82 0 .15.06.25.22.24.15 0 .18-.11.19-.24l.08-1.14zm5.53.66c0 .23 0 .37.17.38.21 0 .38-.08.44-.3l.41-1.65c.02-.08.01-.17.02-.26-.09.04-.23.06-.26.12l-.78 1.71zm3.13-1.61c.05.1-.06.3.08.26.38-.11.71-.36.72-.77 0-.33-.55-.41-.6-.37-.28.22-.05.61-.19.88zM8.28 23.92c.54-.19.94-.56 1.3-.97.02-.02 0-.06 0-.09-.05 0-.12 0-.15.02-.41.3-.81.61-1.21.92-.02.02-.03.05-.05.08.04.01.08.03.11.04zm10.15-4.78l-.02-.02c-.02.03-.03.04 0 .07 0-.01.02-.03.02-.05z" class="F"/><path d="M28.44 26.1c.27-.37.48-.8 1-.88.24.95-.73.51-1 .88zm-25.76-.41c.16.22.16.55.44.7 0 .15.2.36-.03.44-.21.07-.24-.2-.3-.33-.11-.25-.34-.5-.11-.8z" class="J"/><path d="M18.61 18.5l-.06-.11c-.13.46-.64.82-.37 1.39.68 1.41 1.84 2.23 3.26 2.84 1.13.49 2.18.91 3.45.62.75-.17 1.28.35 1.68.95l.37.53c.09.14.37.13.31.39-.18-.07-.38-.11-.53-.22-.19-.14-.38-.31-.49-.51-.55-1.02-1.46-.86-2.3-.65-.92.23-1.7.1-2.42-.49-.17-.14-.14-.08-.26.05-.17.19-.44.06-.57-.06-.23-.23-.57-.2-.75-.33-.87-.59-1.9-1.15-2.17-2.24-.12-.51-.24-.34-.52-.3-.45.07-.07.32-.06.41.13 1.15.2 2.33 1.07 3.24.6.63 1.21 1.2 2.16 1.3 1.09.11 1.76.81 1.84 1.79 0 .07-.03.14-.05.21-.03-.06-.06-.11-.08-.17-.43-.93-1.14-1.39-2.19-1.29-.14.01-.3-.07-.44-.11.13-.12.24-.02.36.01.02 0 .06-.05.09-.07-.33-.15-.9-.48-.95-.41-.43.57-.61-.12-.9-.13-.06 0-.12-.12-.18-.18.06.01.13.05.17.02s.08-.13.06-.16c-.17-.25-.3-.55-.53-.73-.19-.15-.21.14-.28.26l-.18-.08h0c.07-.62-.34-1.05-.63-1.53-.34-.54-.62-1.12-.67-1.77 0-.08.1-.16.16-.24l.16-.22-.64-.09c-.18 0-.01.11-.03.16-.34.92-.12 1.97-.61 2.85-.16.28-.24.65-.62.75l.43-.69c.22-.38.39-.77.4-1.22-.33.22-.43.6-.62.92-.75 1.26-1.9 1.69-3.29 1.68-.25 0-.39-.23-.43-.37-.05-.17.22-.09.34-.12.53-.13 1.08-.12 1.55-.48.57-.44.62-1.07.67-1.71.05-.57.23-1.12.51-1.62.16-.29.13-.47-.26-.77-.07-.06-.13-.13-.14.03-.06 1.19-.79 1.83-1.81 2.26-.1.04-.25.2-.23.24.33.77-.41.54-.68.73-.17.11-.41.13-.62.18-.15.03-.31.04-.46.05.07-.11.16-.21.21-.33.03-.07.05-.18.02-.25-.01-.04-.14-.05-.21-.04-.37.07-.66.28-.96.49-.41.29-.65.67-1.31 0-1.1-1.12.32-.52.34-.53 1.61-.27 3.12-.74 4.38-1.84.47-.41.73-.95 1.04-1.46.04-.06-.03-.21-.08-.3-.42-.7-.89-1.37-.97-2.21l-.03-.65c-.46-3.45-.69-6.92-.84-10.4l.8-.27c.38.66.33 1.42.48 2.13.01.05.03.11.04.16.02-.06.04-.11.05-.17.08-.83.43-1.62.39-2.46.39-.02.78-.06 1.13-.27.31.66.11 1.39.31 2.07.01.04.02.09.03.13.01-.05.03-.09.04-.14l.33-2.07c.96-.09 1.92-.08 2.88.07-.06.84-.59 1.54-.71 2.37 0 .07 0 .14.01.2.03-.06.07-.11.1-.17l.65-1.43c.03-.06.1-.12.16-.14.03 0 .09.08.13.13.06.08-.16.19.02.24.02 0 .11-.19.15-.3.09-.28.03-.63.4-.77l1.16.28c-.05.37-.1.74-.13 1.11 0 .06.05.12.08.19.04-.05.1-.09.12-.15l.3-.94 1.47.56-.56 2.53c-.04.18-.02.29.16.32s.13-.14.15-.24l.49-2.99c.01-.06.08-.12.12-.17 0 .06.03.13.02.19l-1.13 6.9c-.02.12-.04.25-.07.37-.02.09-.07.17-.11.25-.02-.08-.06-.16-.05-.24.01-.19-.13-.15-.2-.13-.18.05-.09.2-.05.27.18.27.34.53.19.87-.08.19.09.49-.39.47-.32 0-.19.51-.25.8-.04.19-.24.51-.08.53.22.03.13-.34.22-.52.07-.15.13-.3.19-.45.15.17.02.34-.02.49-.3 1.19-.41 2.47-1.34 3.41-.02-.03-.04-.06-.05-.08v-.14c.01-.02.02-.03.01-.05l.68-1.23c.04-.09.03-.2.04-.3-.1.06-.26.1-.3.19-.16.43-.45.82-.46 1.3-.02 0-.03.02-.04.04h-.1zm-3.15-6.45h0c-.42.01-.84.03-1.26 0-.58-.03-.7.26-.57.75.23.87 1.03 1.42 1.99 1.38.8-.03 1.59-.74 1.73-1.55.07-.37-.08-.58-.46-.58h-1.43zm1.67-1.24c.04.7.37 1.11 1.06 1.1.67 0 1.03-.44 1.02-1.08s-.38-1.12-1.04-1.12c-.67 0-.98.47-1.04 1.09zm-3.26.04c-.06-.63-.35-1.11-1.04-1.1-.67 0-1.01.46-1.02 1.1 0 .62.3 1.07.97 1.08.69.01 1.03-.39 1.09-1.08zm-.67 3.74c-.16.04-.36.06-.37.3 0 .26.18.31.39.32.21 0 .36-.08.36-.31 0-.24-.18-.28-.38-.32zm4.99-5.99c-.11.03-.31.05-.24.17.18.31.57.21.85.35.08.04.22-.01.18-.12-.14-.37-.51-.3-.79-.4zm-5.4-.02c-.24.09-.59.07-.72.41 0 .02.12.14.15.12.28-.13.65-.08.83-.37.07-.1-.1-.17-.26-.17zm5.31 8.69c-.03-.17-.03-.4-.24-.4-.23 0-.23.26-.22.43.02.16-.02.44.22.43s.19-.29.24-.45zm1.79-1.21s-.07-.06-.1 0c-.03.05 0 .06.04.09.02-.02.03-.05.06-.08zm-.29.8s-.02-.03-.03-.05c-.04.05-.03.05 0 .1 0-.02.02-.03.03-.05zm.19-.55s-.01-.02-.02-.02l-.02.02.03.03v-.03z" class="H"/><path d="M21.66 27.41c-3.21 1.62-6.53 1.77-9.91.64-.66-.22-1.28-.57-1.92-.86.32-.16.43-.49.62-.76-.04.41.31.44.55.54 1.89.8 3.85 1.16 5.91.98l.24-.01c-.07-.04-.14-.1-.22-.12-1.41-.34-2.79-.8-4.16-1.28-.67-.24-1.29-.74-2.07-.64-.05-.21.02-.34.24-.36l1.09-.06c-.01.13.72-.27.19.27-.11.11.05.22.16.2.2-.03.45-.03.58-.16.78-.79 1.93-1.24 2.32-2.41.09-.26.26-.27.43-.08l1.5 1.67c.14.16.13.38.1.59l-1.25-1.42c-.35-.43-.59-1.03-.98 0-.25.65-.76 1.17-1.44 1.49-.17.08-.37.27-.39.43-.03.21.26.19.42.25.56.21 1.12.47 1.71.59 1.41.28 2.75 1.15 4.28.58l1.35-.48c.02.48.61.02.68.42z" class="B"/><path d="M3.88 13.71c-.26.64-.38 1.31-.48 1.99l-.06.35v.2h-.07l.06-1.78c0-.11.02-.23.03-.34l.46-1.99.07-.21.57-1.44.11-.21.98-1.64c.02-.04.05-.08.07-.12a14.85 14.85 0 0 1 3.82-3.51l.46-.27.68-.28.07 1.58c-.4.08-.72.29-1.03.54-.75.33-1.37.85-1.98 1.37l-.14.2c-.71.53-1.29 1.18-1.78 1.92l-.07.13c-.44.49-.76 1.05-1.02 1.65l-.13.27c-.24.43-.45.88-.55 1.37-.02.07-.05.14-.07.2zm18.33-7.19l.29-1.47.58.3.48.41c.55.7 1.13 1.37 1.95 1.78l.52.55.21.27.75 1.26c-.1.24-.53-.03-.5.25.03.26.41.03.55.16.26.25.22.62.28.94.03.18-.08.3-.26.33-.04-.05-.09-.09-.13-.14l-.83-1.23-.27-.35-1.02-1.1-.27-.27-1.1-.89c-.36-.33-.76-.62-1.22-.81z" class="G"/><path d="M17.68,4.94c-.96-.16-1.91-.16-2.88-.07.19-1.01.26-2.17,1.34-2.59.5-.19.87-.86,1.32-.66.44.19.27-.23.42-.22.03,0,.08.1.08.15-.01.2,0,.42-.07.61-.37.91.06,1.88-.22,2.79Z" class="D"/><path d="M22.59 27.41c.75-.55 1.52-.15 2.27 0 .4.08.31.52.42.81-.7.56-1.45 1.04-2.26 1.43l-.06.03-.13.06c-.08-.12-.17-.06-.27-.03l-3.41.91c-.83.23-1.69.35-2.48.73h-1.31c.8-.51 1.73-.63 2.6-.93 1.75-.59 3.6-.87 5.28-1.7.21-.1.51-.19.45-.52-.04-.24-.23-.39-.49-.4-.05-.38-.53-.07-.61-.39z" class="C"/><path d="M28.7 17.07c-.1.92-.26 1.84-.54 2.73l-.15.56-.44-.05c.39-.43.48-.99.62-1.52.05-.2-.24-.19-.37-.2-2.52-.24-4.99-.73-7.47-1.23-.09-.02-.18-.01-.27-.01l.15-.62 5.92.92c.62.1 1.25.23 1.88.23.83 0 .36-.76.57-1.14.07-.13.02-.34.02-.51h.05l.03.13-.02.7zm-3.08 7.26c-.42.65-1.09 1.07-1.59 1.65-.24-.19-.53-.16-.81-.13.47-.48.07-.49-.28-.52l-.77-.1c-.42-.45-.94-.4-1.47-.33-.48-.24-.98-.36-1.51-.42-.48-.51-1.05-.95-1.33-1.62-.03-.08-.02-.17-.03-.26.07.03.15.05.2.1.78.76 1.79 1.06 2.8 1.31.96.24 1.87.89 2.96.44.18-.07.49.22.75.32.08.03.19 0 .28-.04.02 0 .02-.12 0-.18-.03-.13-.34-.17-.19-.31.11-.1.36-.08.55-.06.15.02.29.12.43.18zM8.13 26.32l-.7-.63c-.02-.02-.04-.05-.06-.07-.09-.49-.61-.64-.81-1.03.37-.02.55-.16.33-.54.34-.28.68-.49 1.02.01.05.07.28.09.38.04 1.24-.68 2.72-.58 3.96-1.27.2-.11.41-.3.67-.22.02 0 .02.15 0 .22-.13.32-.44.19-.67.26-.33.1-.71 0-.7.61 0 .44-.48 0-.71.13-.67.28-1.45.11-2.09.52-.07.04-.12.1-.18.15.04.03.07.08.12.09l.92.2-.13.41-1.76-.49c-.07-.02-.15-.02-.22-.03.05.07.09.15.16.2L9.15 26l-1.01.3zM3.34 16.04l.06-.35c2.67-.28 5.34-.24 8.01-.07.26 1.21.49 2.43 1.26 3.46.09.12.05.26-.04.38L8.3 18.7c-.06 0-.12-.04-.19-.06.25-.13.5-.07.76-.03l3.41.44s.02 0 .03.01c0 0-.02 0-.03-.01-.49-.83-.69-1.74-.83-2.68-.04-.3-.23-.39-.49-.4l-2.78-.14c-1.62-.06-3.24.09-4.85.21z" class="B"/><path d="M20.78 21.55l1.22-.12c.14-.01.3-.07.4-.01 1.21.67 2.08-.1 3.03-.67.86-.53 1.75-.47 2.6.09.16.1.34.17.51.25 0 0 0 .05-.02.05-.26.07-.46-.09-.66-.19-.69-.36-1.32-.25-2.01.08-.76.36-1.24 1.24-2.19 1.21-1.11-.03-2.27.26-3.26-.5-.1-.08-.21-.15-.32-.22h.36.34v.03z" class="H"/><path d="M21.57 6.12l-1.47-.56c.24-.76.14-1.7 1.07-2.12.08-.04.22-.08.26-.04.16.16.16.17.28-.06.16-.32.47-.37.76-.45.13-.04.14.05.11.16l-.4 1.55c-.02.07-.09.13-.14.2v-.25-.33c-.17.04-.12.2-.15.31-.13.53-.35 1.03-.33 1.59z" class="D"/><path d="M21.3 11.99l6.18.7c.07 0 .14-.03.21-.04l.25.64-5.88-.72-.87-.1.11-.48zm6.23 9.51l-1.11 1.95-.46-.29c.01-.27 1.15-.78-.19-.76-.68.01-1.2.27-1.72.62-.04 0-.08.01-.12.02-.09-.11-.17-.14-.22.04h-.35-.06l-1.04-.41c-.05-.02-.08-.07-.11-.11.06-.02.12-.08.17-.07 1.03.17 1.97-.08 2.9-.53.42-.2 1 .14 1.45-.19.13-.1.35-.34.32-.37-.12-.17-.32-.08-.49-.03-.15.04-.31.07-.38-.1-.01-.03.16-.18.26-.2.35-.08.72-.26 1.02.13-.11.17.12.2.13.32z" class="B"/><path d="M8.4 22.14a3.27 3.27 0 0 1-1.47-.54c-.61-.41-1.85-.48-2.59-.05-.25.15-.51.3-.83.24.18-.09.4-.14.55-.27.75-.69 1.61-.85 2.53-.5 1.33.51 2.67.39 4.02.21.09-.01.19.02.29.03-.08.05-.15.12-.24.16-.73.31-1.47.61-2.26.72z" class="J"/><path d="M20.77 14.46l4.75.55 2.97.28.07.41c-2.45-.14-4.87-.5-7.3-.79l-.57-.05.09-.4z" class="B"/><path d="M20.76 3.16l.04-.41.07-.69c-.23.19-.23.48-.22.71.03.52-.33.86-.59 1.19-.16.21-.63.17-.96.24l.09-.65c.27-1.4.41-1.52 1.59-1.64.38-.04.39.12.31.37-.1.3.04.68-.32.88h0z" class="E"/><path d="M11.21 5.76c.15 3.48.38 6.95.84 10.4.03.21.02.43.03.65-.38-1.33-.55-2.69-.64-4.06-.19-2.74-.45-5.47-.48-8.22 0-.09.05-.17.07-.26.04.04.07.08.11.12l.07 1.37z" class="J"/><path d="M22.56,29.72c.1-.03.19-.09.27.03-1.93,1-3.99,1.52-6.16,1.6.79-.38,1.65-.5,2.48-.73" class="D"/><path d="M3.88 20.14c-.85.14-1.59.57-2.4.83l-.21-.66c.75-.42 1.56-.7 2.4-.85l.21.68z" class="C"/><path d="M6.51,23.01c-.4.32.02.24.14.31.02,0,.03.04.04.06-.04.02-.08.05-.12.04-.79-.04-1.42.45-2.13.66-.31.09-.43.38-.54.66-.06.17-.22.39-.38.3-.14-.08.15-.15.16-.29.13-1.4,1.47-1.41,2.3-2,.19-.13.54.07.53.25Z" class="D"/><path d="M27.21 11.65l-5.76-.54c0-.07.02-.14.02-.21l5.06.34c.13 0 .26-.04.39-.07.04.05.09.09.13.14l.15.33z" class="B"/><path d="M28.72 16.37l2.57.15-.01.62-2.57-.07.02-.7z" class="C"/><path d="M5.22 22.76c-.24-.2-.36-.48-.46-.76l.07-.22c.11-.26.9-.42 1.06-.22.08.11-.03.07-.06.08-.11.05-.34-.07-.29.15.03.16.25.22.4.18.56-.18 1.06-.07 1.55.21a1.74 1.74 0 0 1 .18.11c-.07.01-.15.04-.22.04-.78-.06-1.53.08-2.24.43z" class="B"/><path d="M27.57 5.95l-3.93-.16c-.02 0-.05-.02-.07-.03l-.48-.41 3.83.19c.07 0 .14-.04.21-.06l.44.47z" class="C"/><path d="M14.22 3.34l-.05-.51-.11.56c-.06.2.12.6-.12.57-.31-.03-.08-.4-.07-.61.03-.66.34-1.12.99-1.3.11-.03.27-.18.34.02.07.19.09.44-.08.58-.16.13-.07-.08-.1-.13-.02-.03 0-.09 0-.13-.02-.07-.05-.13-.08-.19-.02.06-.06.12-.05.18.09.68-.18 1.29-.37 1.92-.02.07-.07.12-.11.18-.02-.06-.07-.12-.07-.18 0-.33-.25-.62-.13-.95z" class="E"/><path d="M3.88 20.14l-.21-.68-.35-1.98-.06-.28v-.96h.07c-.01.77.16 1.5.34 2.24.03.14.07.2.25.18 1.24-.15 2.48-.2 3.73-.16.12 0 .29-.07.34.14-1.31-.11-2.61.01-3.91.26-.23.04-.29.11-.2.32l.69 1.62-.33.22-.36-.91z" class="B"/><path d="M5.15 5.14l4.43-.43c.11-.01.22-.08.31.03l-.46.27-4.67.54.4-.41z" class="C"/><path d="M3.95 13.5c2.41-.18 4.82-.07 7.23 0l.01.28a59.6 59.6 0 0 0-7.32-.07c.02-.07.05-.14.07-.2zm17.03 13.43c-.19-.33-.62-.41-.79-.26-.96.88-1.24-.45-1.89-.53l-.27-.04c.03-.25-.37-.43-.17-.63.07-.07.45.17.68.29.18.1.35.21.49.36.48.49.55.44.97.08a.67.67 0 0 1 .94.17c.08.13.15.28.22.42 0 .13-.1.14-.19.13zm-2.05-6.58l3.28.49c.07.01.13.09.2.13-.79.48-1.62.21-2.44.12-.49-.05-.82-.31-1.04-.74z" class="B"/><path d="M13.67 2.62l-5.49.46c-.11.01-.23-.05-.34-.07l.56-.34 5.35-.17-.07.13zm12.81 20.96l2.81.05-.46.76c-.61-.22-1.24-.11-1.86-.13l-.49-.68z" class="C"/><path d="M4.63 11.86l6.37-.21c0 .07.02.13.02.2-2.18-.02-4.35.13-6.52.28l.13-.27z" class="B"/><path d="M8.66 26.7c-.08 0-.14.16-.22.03-.01-.02.06-.12.12-.16.09-.06.2-.13.3-.15.67-.11 1.04-.43.94-1.17-.03-.26.15-.47.38-.61a.3.3 0 0 1 .38.02c.11.09.25.25.14.34-.5.38-.36 1.04-.69 1.48 0-.06-.01-.11-.02-.17-.04.02-.11.04-.11.04.01.06.04.12.06.18-.33.22-.72.15-1.07.24 0-.03.01-.07.02-.1l.45-.12-.52.04c-.05.04-.1.07-.14.11zm.91-.17s.06-.07.02-.11c-.01.03-.03.06-.04.08l-.02.04s.03-.01.04-.02z" class="H"/><path d="M9.69 30c.56-.47 1.23-.85 1.4-1.66.18.05.37.08.54.16.21.09.05.25 0 .34-.29.61-.8 1.03-1.32 1.43L9.69 30zm18.12-18.83l2.81.28.17.53-2.77-.26-.21-.55zM4.14 25.77c.73-.09 1.45-.33 2.2-.28.34.02.69.09 1.03.13.02.02.04.05.06.07.03.34-.19.27-.4.25-.86-.08-1.72-.08-2.55.24l-.35-.41zM22.86 3.43l1.86.26c.11.01.23-.03.35-.05l.84.67-3.15-.53.1-.35zm5.15 16.92l.15-.56 2.69-.04-.18.6h-1.38c.09-.45-.3-.3-.44-.28-.29.04-.57.19-.85.29zm2.17-10.13l-2.9-.13-.23-.42 2.94.14.18.41zm-1.64 3.49l2.6.13.07.48-2.6-.21-.07-.4zm-1.01 7.79c0-.12-.24-.15-.13-.32.73.11 1.47.36 2.18-.09.1.15.41.04.38.25-.01.1-.29.16-.44.23-.67.31-1.34.48-1.98-.07z" class="C"/><path d="M12.71 3.55l-.08 1.14c0 .13-.04.23-.19.24-.16 0-.22-.09-.22-.24v-.82c0-.11.06-.31-.11-.3-.15 0-.09.21-.09.32s.04.22.04.34c0 .17-.02.34-.03.51-.19-.12-.29-.32-.27-.52.03-.32-.02-.69.37-.88s.67-.27.59.21zm5.53.66l.78-1.71c.03-.07.17-.08.26-.12 0 .09 0 .18-.02.26l-.41 1.65c-.06.22-.23.31-.44.3-.17 0-.17-.15-.17-.38z" class="E"/><path d="M27.47,26.18c-.59-.25-1.19-.46-1.55-1.08-.14-.24-.27-.39-.09-.64.47.67,1.08,1.11,1.91,1.23.15.02.11.13-.26.49Z" class="C"/><path d="M21.75 9.29c.44.32.95.15 1.42.19.88.09 1.77.08 2.65.11l.27.35-4.38-.35.05-.3z" class="B"/><path d="M26.03 8.09l3.16.13.19.34-3.14-.2-.21-.27zm-1.25-1.36l3.51.13.25.35-3.57-.27c-.06-.07-.13-.13-.19-.2zM.73 14.6l2.62-.47c0 .11-.02.23-.03.34l-2.64.48.04-.34z" class="C"/><path d="M14.1,4.88c-.35.21-.74.25-1.13.27,0-.01-.01-.02-.01-.03.05-.37-.12-1.01.18-1.04.35-.04.73.41.97.8Z" class="D"/><path d="M3.26 17.2l.06.28c-.87.04-1.68.38-2.53.54l-.05-.34 2.52-.48z" class="C"/><path d="M19.74 5.36l-1.16-.28c.28-.37.76-.38 1.13-.59.3-.17.2.17.17.32-.03.19-.09.37-.14.55z" class="D"/><path d="M10.84 9.19l-3.39.13c-.04 0-.09-.01-.13-.02.04-.02.08-.04.12-.04l3.37-.35.04.28z" class="B"/><path d="M1.11 12.27l2.77-.34-.07.21-2.76.39.06-.26z" class="C"/><path d="M5.72 10.08l4.79-.07c.12 0 .24-.09.36-.14l.04.35c-1.56-.17-3.12-.12-4.68-.04-.19 0-.38.02-.57.03l.07-.13zm14.23 7.67c.1.52-.71 1.79-1.31 2.05-.17-.2-.14-.33.09-.47.6-.37.9-.99 1.22-1.58z" class="B"/><g class="C"><path d="M3.68 22.47l-.86.35c-.11.04-.28.17-.32-.08-.01-.1.06-.21.1-.32l.77-.35c.52-.21.47.05.31.39zm2.54 1.77c-.35.01-.61.12-.71.5-.03.11-.12.22-.21.31-.14.15-.38.26-.51.13-.17-.17.22-.24.18-.43.57-.05.5-.76.96-.93l.29.42zM4.45 10.49l-2.88.28.11-.29c.57.18 1.12-.08 1.68-.08.4 0 .8-.07 1.2-.11l-.11.21z"/><path d="M4.78 24.72a1.01 1.01 0 0 0-.76.9c-.11-.07-.27-.11-.32-.2-.09-.18.12-.21.22-.28.33-.22.26-.79.76-.85l.37-.05-.2.3-.08.18z"/></g><path d="M11.21 5.76l-.07-1.37c.08.53.76.59.87 1.1l-.8.27z" class="D"/><path d="M17.14 24.26v.17c-.03-.02-.07-.03-.09-.06-.65-.78-1.38-1.52-1.46-2.62a.85.85 0 0 1 .04-.22c.03.04.1.09.1.13.03 1.11.83 1.81 1.43 2.61zm5.34 3.57c-.11.16 1.85.54-.06.51-.16 0-.08.5-.33.27a.68.68 0 0 1-.08-.8c.06.14.11.38.19.39.24.04.09-.31.28-.37z" class="C"/><path d="M6.22 24.24l-.29-.42c.38-.15.36-.14.5.19.1.22.3.05.45.04.22.38.04.52-.33.54l-.33-.35z" class="G"/><path d="M21.96 8.09l2.57.14.27.27-2.87-.27c0-.05.02-.09.03-.14z" class="B"/><path d="M5.54 8.64l-3.23.41.11-.21 3.19-.32c-.02.04-.05.08-.07.12z" class="C"/><path d="M22.67,21c.55-.1,1.07-.01,1.59.18-.57.29-1.11.31-1.59-.18Z" class="B"/><path d="M4.69 23.16c-.69.06-1.3.39-1.93.63l-.06-.11c.72-.47 1.52-.67 2.36-.78l-.36.26zM3.94 6.51l2.58-.02.67-.03v.04l-.64.08-2.83.2.21-.28zm.9 15.27l-.07.22-.56.66c-.13.15-.31.37-.5.26-.2-.12.21-.25.11-.44.31-.09.46-.33.61-.58.08-.14.24-.23.42-.11zm3.89 6.57c0 .21.08.49-.21.53-.34.05-.15-.27-.21-.42-.13-.34-.47-.64-.26-1.06.13.29.34.54.35.9 0 .26.21.08.33.05z" class="C"/><path d="M7.34,20.84c.6,0,1.19.05,1.74.31-.63.19-1.2.04-1.74-.31Z" class="B"/><path d="M20.98 26.93c.1 0 .19 0 .19-.13.53-.21.63.18.76.54l-.27.08c-.07-.4-.66.06-.68-.42v-.07z" class="G"/><path d="M7.64 7.95c.78.11 1.53-.13 2.3-.17.26-.01.51-.07.77-.11v.14l-3.22.34.14-.2z" class="B"/><path d="M20.7,24.88c-.61.24-1.08,0-1.51-.42" fill="#b37533"/><path d="M8.28 23.92s-.07-.03-.11-.04c.02-.03.02-.06.05-.08l1.21-.92c.04-.03.1-.02.15-.02 0 .03.01.07 0 .09-.36.41-.75.78-1.3.97z" class="E"/><path d="M17.83 26.16c-.05.18.29.24.13.43-.03.04-.16.02-.24 0a.54.54 0 0 1-.43-.5c-.02-.14 0-.29 0-.44.13.22.29.41.53.51z" class="B"/><path d="M18.83 18.79c-.1.1-.13.29-.34.24l.1-.32h.18l.05.08z" class="H"/><path d="M18.78 18.71h-.18l.01-.21h.1c.02.02.04.04.07.06v.14zm-8.85 7.81c-.02-.06-.05-.12-.06-.18 0 0 .07-.03.11-.04 0 .06.01.11.02.17-.02.02-.05.04-.07.05z" class="C"/><path d="M23.71 23.08c.05-.17.13-.15.22-.04l-.22.04z" class="I"/><path d="M8.88 26.66s-.01.07-.02.1c-.07-.02-.13-.05-.2-.07.05-.04.1-.07.14-.11l.08.08z" class="G"/><path d="M11.31 14.67c-.1-.03-.13-.07-.03-.14 0 .05.02.1.03.14zm.07.68c-.1-.03-.15-.07-.03-.14l.03.14zm11.37 10.74l.13-.06-.13.06z" class="B"/><path d="M20.77 3.17s-.01.02-.02.03c0-.01 0-.02.01-.03z" class="E"/><path d="M18.43 19.14s-.02.03-.02.05c-.03-.03-.02-.04 0-.07l.02.02z" class="C"/><path d="M22.96 29.69l.06-.03-.06.03z" class="D"/><path d="M23.3 23.08h.06-.03-.03z" class="I"/><path d="M15.46 12.05h1.43c.38 0 .53.21.46.58-.15.81-.93 1.51-1.73 1.55-.96.04-1.76-.51-1.99-1.38-.13-.49-.01-.78.57-.75h1.26 0zm.1 1.82c.15-.04.38-.07.58-.16.27-.13.67-.32.61-.6-.07-.29-.5-.18-.78-.19-.18 0-.37.01-.54.06-.34.09-.87.14-.84.53.03.35.55.32.97.38zm1.57-3.06c.06-.62.36-1.1 1.04-1.09.67 0 1.03.48 1.04 1.12s-.36 1.07-1.02 1.08c-.68 0-1.02-.41-1.06-1.1zm.96-.04c.21-.04.4-.15.4-.41 0-.24-.18-.34-.39-.34-.24 0-.43.12-.44.37-.01.26.18.34.43.37zm-4.22.08c-.06.69-.4 1.09-1.09 1.08-.67-.01-.98-.46-.97-1.08 0-.64.35-1.09 1.02-1.1.7 0 .98.47 1.04 1.1zm-1.26-.06c.36 0 .54-.14.55-.4 0-.23-.15-.35-.38-.34-.27 0-.47.13-.47.42 0 .24.18.31.3.32zm6.14 7.67c.01-.48.3-.87.46-1.3.03-.09.19-.13.3-.19-.01.1 0 .22-.04.3l-.68 1.23c-.01-.02-.03-.03-.04-.05z" class="F"/><path d="M13.2,14.59c.2.04.39.08.38.32,0,.23-.15.31-.36.31-.2,0-.39-.06-.39-.32,0-.24.2-.26.37-.3Z" class="B"/><path d="M18.19 8.6c.28.09.65.03.79.4.04.11-.1.17-.18.12-.28-.15-.67-.04-.85-.35-.07-.12.12-.14.24-.17zm-5.4-.02c.16 0 .33.07.26.17-.18.29-.56.24-.83.37-.03.01-.15-.1-.15-.12.13-.34.48-.32.72-.41z" class="F"/><path d="M18.1 17.27c-.05.17 0 .44-.24.45s-.2-.27-.22-.43-.01-.42.22-.43c.21 0 .21.23.24.4z" class="B"/><path d="M19.89 16.06s-.04.06-.06.08c-.04-.03-.08-.04-.04-.09s.06-.02.1 0z" class="C"/><path d="M19.6 16.86l-.03.05c-.04-.05-.04-.05 0-.1 0 .02.02.03.03.05z" class="F"/><path d="M19.79 16.31v.03l-.03-.03.02-.02s.01.02.02.02z" class="C"/><path d="M18.78,18.56s-.04-.04-.07-.06c.01-.02.02-.03.04-.04.01.02.03.03.04.05,0,.02,0,.04-.01.05Z" class="F"/><path d="M28.54 13.71l.07.4.1 1.58v.27c0 .09-.01.18-.02.27h-.05l-.09-.53-.07-.41c-.11-.68-.28-1.35-.54-1.98l-.25-.64-.48-1.01-.15-.33c.19-.03.3-.15.26-.33-.06-.32-.01-.7-.28-.94-.14-.13-.52.1-.55-.16-.03-.28.4-.01.5-.25.02.01.05.02.07.04l.23.42.52 1.09.21.55.53 1.99z" class="E"/><path d="M6.74 9.41l-.12-.05c.04-.01.08-.03.12-.03s.09.01.13.02l-.13.06z" class="B"/><path d="M24.78 6.73c.06.07.13.13.19.2l.54.61c-.82-.41-1.4-1.08-1.95-1.78.02 0 .05.02.07.03l1.14.94z" class="E"/><path d="M28.71 15.97v-.27.27z" class="C"/><path d="M12.29 19.05s.02 0 .03.01c0 0-.02 0-.03-.01z" fill="#b37533"/><path d="M8.88 26.66l-.08-.08c.17-.03.35-.03.52-.04l-.45.12z" class="E"/><g class="C"><path d="M9.54 26.5l.04-.08c.03.04 0 .06-.02.11l-.02-.02z"/><path d="M9.57 26.53s-.03.01-.04.02c0-.01.01-.03.02-.04l.02.02z"/></g><path d="M15.56,13.87c-.42-.06-.94-.03-.97-.38-.03-.39.5-.44.84-.53.17-.04.36-.07.54-.06.28.01.72-.1.78.19.06.28-.33.47-.61.6-.2.09-.43.12-.58.16Z" class="G"/><path d="M18.09 10.77c-.25-.03-.44-.11-.43-.37s.2-.38.44-.37c.21 0 .39.09.39.34 0 .26-.19.36-.4.41zm-5.48.02c-.12 0-.3-.08-.3-.32 0-.29.2-.41.47-.42.23 0 .39.11.38.34-.01.26-.19.39-.55.4z" fill="#fefefe"/></svg>