<svg width="64" height="64" viewBox="0 0 64 64" fill="none" xmlns="http://www.w3.org/2000/svg">
  <g clip-path="url(#clip0_21437_36164)">
    <circle cx="32" cy="32" r="32" fill="#141416" />
    <path
      d="M37.5302 38.7914L37.5369 38.7869C37.5369 38.7869 37.5302 38.7914 37.5257 38.7937C37.5279 38.7937 37.5302 38.7937 37.5324 38.7937L37.5302 38.7914Z"
      fill="#F5F5F5"
    />
    <path
      d="M37.5257 38.7937C27.0017 41.9686 18.2987 46.6001 12.8467 52.0242L12.6062 52.2658C14.0563 53.6433 15.6458 54.8762 17.3634 55.924L17.7322 55.4701C19.2205 53.6433 20.8167 51.8797 22.4782 50.2177C26.9364 45.7556 32.0355 41.8941 37.5257 38.7937Z"
      fill="#F5F5F5"
    />
    <path
      d="M38.7419 34.0877H4C4.42042 39.7489 6.51352 44.9404 9.79819 49.1631L9.94882 49.0118C13.3234 45.6675 17.7165 42.628 23.0156 39.9792C27.6604 37.6556 32.9932 35.6616 38.7419 34.0877Z"
      fill="#F5F5F5"
    />
    <path
      d="M25.4234 10.8196C34.8413 20.2452 46.694 26.4777 59.6955 28.842C58.1285 14.8685 46.287 4 31.8984 4C28.0988 4 24.4769 4.761 21.1698 6.13396C22.512 7.75757 23.9464 9.33828 25.4234 10.8219V10.8196Z"
      fill="#F5F5F5"
    />
    <path
      d="M12.8468 11.9735C18.2988 17.4067 27.0062 22.0314 37.5324 25.2131C32.0377 22.1059 26.9342 18.2467 22.4737 13.7823C20.8168 12.1248 19.2228 10.3612 17.7277 8.52986L17.359 8.07597C15.6414 9.12376 14.0519 10.3545 12.6085 11.7319L12.8491 11.9735H12.8468Z"
      fill="#F5F5F5"
    />
    <path
      d="M25.4234 53.1781C23.9396 54.6617 22.5075 56.2424 21.1698 57.866C24.4724 59.239 28.0988 60 31.8984 60C46.287 60 58.1285 49.1292 59.7 35.1513C46.7007 37.5155 34.848 43.7481 25.4279 53.1736L25.4234 53.1781Z"
      fill="#F5F5F5"
    />
    <path
      d="M23.0088 24.0118V24.0163C17.7142 21.3675 13.3234 18.3257 9.94882 14.9859L9.79819 14.8346C6.51352 19.0574 4.42042 24.2489 4 29.9101H38.7352C32.9887 28.3361 27.6604 26.3422 23.0088 24.0118Z"
      fill="#F5F5F5"
    />
  </g>
  <defs>
    <clipPath id="clip0_21437_36164">
      <rect width="64" height="64" rx="32" fill="white" />
    </clipPath>
  </defs>
</svg>
