<?xml version="1.0" standalone="no"?>
<!DOCTYPE svg PUBLIC "-//W3C//DTD SVG 20010904//EN"
 "http://www.w3.org/TR/2001/REC-SVG-20010904/DTD/svg10.dtd">
<svg version="1.0" xmlns="http://www.w3.org/2000/svg"
 width="512.000000pt" height="512.000000pt" viewBox="0 0 512.000000 512.000000"
 preserveAspectRatio="xMidYMid meet">
 <circle cx="256" cy="256" r="232" fill="#44f1a6"></circle>
<g transform="translate(0.000000,512.000000) scale(0.100000,-0.100000)"
fill="#212c27" stroke="none">
<path d="M2385 5064 c-565 -58 -1001 -231 -1410 -559 -118 -95 -322 -306 -411
-425 -267 -356 -433 -762 -495 -1210 -20 -144 -17 -507 5 -655 81 -536 313
-1013 676 -1389 649 -673 1582 -929 2481 -682 405 111 769 320 1072 616 224
217 371 420 507 695 266 538 328 1136 180 1725 -212 845 -868 1529 -1710 1783
-118 36 -266 68 -400 87 -79 11 -427 21 -495 14z m1786 -1523 c17 -17 29 -40
29 -55 0 -28 -70 -161 -125 -238 -19 -26 -35 -51 -35 -54 0 -6 -51 -86 -146
-229 -29 -45 -56 -90 -60 -100 -4 -11 -19 -36 -34 -55 -15 -19 -38 -55 -50
-80 -12 -25 -39 -67 -58 -94 -20 -27 -47 -70 -61 -95 -15 -26 -44 -75 -66
-109 -22 -34 -58 -91 -80 -127 -22 -36 -67 -108 -100 -160 -69 -107 -94 -148
-114 -184 -8 -15 -44 -72 -80 -128 -113 -175 -155 -243 -178 -285 -12 -22 -28
-47 -36 -56 -8 -9 -24 -33 -35 -52 -11 -19 -38 -64 -61 -100 -22 -36 -55 -87
-71 -115 -172 -281 -280 -447 -313 -479 -25 -24 -36 -27 -69 -23 -51 7 -58 14
-120 116 -66 109 -71 154 -20 224 17 25 32 50 32 55 0 5 16 33 35 61 19 28 35
53 35 56 0 10 111 197 146 248 19 26 34 50 34 54 0 3 6 14 14 22 8 9 22 32 33
51 10 19 30 53 44 75 59 92 237 378 276 443 12 20 26 43 32 49 7 7 36 54 67
105 31 51 73 120 95 153 21 33 51 80 66 105 97 162 210 339 230 361 12 14 23
30 23 36 0 6 16 34 35 63 19 29 35 54 35 56 0 2 14 23 30 46 17 22 30 46 30
53 0 7 9 20 20 30 11 10 20 22 20 27 0 4 -477 8 -1061 8 -583 0 -1059 -3
-1057 -7 4 -10 47 -80 115 -186 28 -45 67 -107 86 -137 19 -30 59 -93 89 -140
30 -47 79 -125 108 -175 29 -49 57 -91 62 -93 4 -2 8 -8 8 -14 0 -6 14 -31 32
-57 17 -25 42 -64 54 -85 l22 -39 21 34 c66 109 195 313 218 344 19 27 27 30
75 30 43 0 62 -5 89 -26 19 -14 52 -35 74 -46 52 -27 75 -53 81 -94 5 -34 -9
-60 -175 -326 -14 -22 -44 -71 -66 -108 -22 -37 -45 -72 -50 -78 -15 -18 -42
-60 -71 -114 -30 -55 -93 -151 -111 -171 -7 -7 -13 -17 -13 -21 0 -12 -48 -31
-81 -31 -18 0 -38 9 -51 23 -19 21 -137 201 -169 258 -20 35 -45 76 -114 185
-33 52 -78 123 -100 159 -22 36 -58 93 -80 126 -22 34 -53 85 -68 113 -16 28
-41 67 -56 86 -16 20 -38 55 -51 79 -12 24 -37 66 -56 92 -19 27 -34 52 -34
56 0 5 -26 47 -58 95 -31 47 -64 99 -74 115 -9 15 -46 75 -84 133 -103 162
-154 255 -154 285 0 16 11 38 29 56 l29 29 1582 0 1582 0 29 -29z"/>
</g>
</svg>
