<?xml version="1.0" encoding="UTF-8"?>
<svg version="1.1" xmlns="http://www.w3.org/2000/svg" width="256" height="256">
<circle cx="128" cy="128" r="128" fill="#1D2229"></circle>
<path d="M0 0 C4.62 0 9.24 0 14 0 C14 3.63 14 7.26 14 11 C15.7325 11.061875 17.465 11.12375 19.25 11.1875 C27.59726865 11.90777259 35.89732648 14.09801411 41.625 20.5625 C42.9140625 22.25390625 42.9140625 22.25390625 44 24 C44.55494141 24.87205078 44.55494141 24.87205078 45.12109375 25.76171875 C47.36534618 31.47708161 47.13392581 39.85593299 45.0546875 45.62109375 C42.69283845 49.55008164 39.7979573 52.39568642 36 55 C36.65226562 55.27972656 37.30453125 55.55945313 37.9765625 55.84765625 C44.88476772 59.01646425 49.71013947 62.36462262 53.125 69.27734375 C55.67963792 77.22637336 54.94785009 86.07375314 51.4375 93.5625 C46.25083055 102.49842474 40.4967452 105.81909201 30.734375 109.09765625 C25.10979447 110.45673376 19.7431922 110.42930839 14 110 C14 113.63 14 117.26 14 121 C9.38 121 4.76 121 0 121 C0 117.7 0 114.4 0 111 C-3.3 111 -6.6 111 -10 111 C-10 113.97 -10 116.94 -10 120 C-14.29 120 -18.58 120 -23 120 C-23 116.7 -23 113.4 -23 110 C-29.93 110 -36.86 110 -44 110 C-44 106.37 -44 102.74 -44 99 C-40.37 99 -36.74 99 -33 99 C-33 73.59 -33 48.18 -33 22 C-36.63 22 -40.26 22 -44 22 C-44 18.37 -44 14.74 -44 11 C-37.07 11 -30.14 11 -23 11 C-23 7.7 -23 4.4 -23 1 C-18.71 1 -14.42 1 -10 1 C-10 3.97 -10 6.94 -10 10 C-6.7 10 -3.4 10 0 10 C0 6.7 0 3.4 0 0 Z " fill="#FCFCFC" transform="translate(158,66)"/>
<path d="M0 0 C7.26 0 14.52 0 22 0 C22 7.26 22 14.52 22 22 C28.93 22 35.86 22 43 22 C43 28.93 43 35.86 43 43 C36.07 43 29.14 43 22 43 C22 50.26 22 57.52 22 65 C14.74 65 7.48 65 0 65 C0 57.74 0 50.48 0 43 C-6.93 43 -13.86 43 -21 43 C-21 36.07 -21 29.14 -21 22 C-14.07 22 -7.14 22 0 22 C0 14.74 0 7.48 0 0 Z " fill="#E7E8E8" transform="translate(61,94)"/>
<path d="M0 0 C24.91231676 -0.42224266 24.91231676 -0.42224266 34 6 C36.72870253 8.93618452 37.43135459 10.94912582 37.4375 14.9375 C37.30941363 18.168123 37.03818351 19.92016176 35.625 22.875 C27.5301147 29.42800239 17.5970997 30.18089927 7.5625 30.0625 C5.066875 30.041875 2.57125 30.02125 0 30 C0 20.1 0 10.2 0 0 Z " fill="#21262D" transform="translate(148,131)"/>
<path d="M0 0 C13.86 0 27.72 0 42 0 C42 6.93 42 13.86 42 21 C28.14 21 14.28 21 0 21 C0 14.07 0 7.14 0 0 Z " fill="#1E232A" transform="translate(40,116)"/>
<path d="M0 0 C11.13437739 -0.21412264 19.53842104 -0.24464211 29 6 C31.7033737 10.05506055 31.75668644 13.24019821 31 18 C28.56391489 22.3849532 26.37283785 24.16836766 21.6875 25.875 C14.56803433 27.72238791 7.29236209 27.18539904 0 27 C0 18.09 0 9.18 0 0 Z " fill="#22272E" transform="translate(148,91)"/>
<path d="M0 0 C6.93 0 13.86 0 21 0 C21 6.93 21 13.86 21 21 C14.07 21 7.14 21 0 21 C0 14.07 0 7.14 0 0 Z " fill="#FEFEFE" transform="translate(83,116)"/>
<path d="M0 0 C6.93 0 13.86 0 21 0 C21 6.93 21 13.86 21 21 C14.07 21 7.14 21 0 21 C0 14.07 0 7.14 0 0 Z " fill="#FEFEFE" transform="translate(40,116)"/>
<path d="M0 0 C6.93 0 13.86 0 21 0 C21 6.6 21 13.2 21 20 C14.07 20 7.14 20 0 20 C0 13.4 0 6.8 0 0 Z " fill="#FDFDFD" transform="translate(61,95)"/>
</svg>
