<?xml version="1.0" encoding="UTF-8"?><svg id="a" xmlns="http://www.w3.org/2000/svg" xmlns:xlink="http://www.w3.org/1999/xlink" viewBox="0 0 32 32"><defs><style>.cls-1{fill:#826db2;}.cls-1,.cls-2,.cls-3,.cls-4,.cls-5,.cls-6,.cls-7,.cls-8,.cls-9,.cls-10,.cls-11,.cls-12,.cls-13,.cls-14,.cls-15{stroke-width:0px;}.cls-2{fill:#905c69;}.cls-3{fill:#6060ad;}.cls-4{fill:#a48e7e;}.cls-5{fill:#917764;}.cls-6{fill:#8268ce;}.cls-7{fill:#cbb3a4;}.cls-8{fill:none;}.cls-9{fill:#b8cacb;}.cls-10{fill:#57423a;}.cls-11{fill:#af5053;}.cls-12{fill:#2d1e16;}.cls-16{clip-path:url(#clippath);}.cls-13{fill:#7c604d;}.cls-14{fill:#0c0708;}.cls-15{fill:#ac5f93;}</style><clipPath id="clippath"><circle class="cls-8" cx="16" cy="16" r="16"/></clipPath></defs><g class="cls-16"><path class="cls-11" d="M-.23,28.83V12.5c1.78.05,3.57.1,5.35.14.18.57.35,1.15.53,1.72l-.82,1.82c-.07.35-.14.71-.21,1.06-.05.06-.11.12-.16.18-.16.08-.32.16-.48.24.41.59.99.98,1.75,1.18,1.09.65,2.13.43,2.95-.41.47-.48.85-.61,1.42-.34.08.08.17.16.25.24,0,.02.02.04.03.06,0,2.55,0,5.1,0,7.65v.25c-.63,1.16-2.09.98-2.93,1.78-1.32-.33-2.42.35-3.59.76-.12-.13-.25-.26-.37-.39-.04-.21-.07-.41-.11-.62.33-.9.58-1.8.05-2.69-.01-.02-.56.27-.86.41-.67.92-.21,2.05-.59,3.02-.02.03-.03.07-.05.11-.07.01-.13.03-.2.04-.06.06-.12.12-.18.19,0,0,0,.02,0,.02-.42.32-.85.63-1.27.95-.09-.38.2-.96-.52-1.03ZM2.46,22.74l-.04-.02s.02.04.02.04c.04.04.09.09.13.13.04.04.09.08.13.12.05.08.09.17.14.25h0c-.04-.09-.08-.17-.13-.26-.04-.04-.08-.08-.12-.13-.05-.04-.09-.09-.14-.13ZM2.13,22.46s-.06-.04-.08-.06c-.04.12-.02.16.08.06Z"/><path class="cls-6" d="M32.51.35v15.82c-.55,0-1.09.01-1.64.02-3.43.58-.21-3.3-.7-4.07,0-.15,0-.31-.01-.46.25-1.8-1.49-5.28-2.93-5.85-.29-.26-.57-.53-.86-.79-.12-.4-.42-.56-.81-.61-.07-.04-.15-.09-.22-.13-.18-.13-.35-.25-.53-.38-1.55-.65-3.21-.72-4.86-.79-.28-.12-.55-.2-.75.13-.05.05-.11.1-.16.14-.08.03-.15.07-.23.1,0,0-.03.01-.03.01-.07,0-.14-.01-.21-.02-.25-.36-.5-.73-.75-1.09-4.56.4,8.37-1.73,8.66-2.04.09,0,.18,0,.27,0,.55.29,1.09.42,1.65.02,1.37,0,2.73,0,4.1-.01Z"/><path class="cls-15" d="M5.13,12.64c-1.78-.05-3.57-.1-5.35-.14,0-1.52,0-3.04,0-4.56,4.96.09,5.67-1.44,10.61-2.05.04.1.07.2.11.29-.02,3.49-.05,6.98-.07,10.47-.3.28-.64.39-1.04.24-.1-.24-.19-.48-.29-.72-.1-.31-2.79-1.89-3.4-2.8.02-.16.05-.32.07-.48.24-.23.2-.4-.11-.51,0,0,0,0,0,0-.19-.31-.39-.62-.58-.93-.05-.08-.11-.16-.16-.23-.04-.04-.08-.09-.12-.13-.04-.04-.08-.09-.13-.13-.03,0-.06,0-.09,0,.01.02.02.03.04.05.04.05.08.09.12.14.04.04.08.09.12.13l.14.23c.03.12.06.23.08.35-.37.29.03.53.05.79ZM6.73,12.03c-.16-.21-.3-.39-.44-.58-.33.28-.25.57.23.86.06-.08.12-.16.21-.28ZM6.78,12.64c-.18.11-.18.23,0,.36.16-.09.16-.21,0-.36Z"/><path class="cls-3" d="M-.23,6.3C-.23-3.1,1.88-.16,10.64-.16c0,1.18,0,2.37.01,3.55C7.71,1.94,3.03,7.12-.23,6.3Z"/><path class="cls-1" d="M26.5.34c-.29.31-13.22,2.44-8.66,2.04.25.36.5.73.75,1.09-.65.29-1.29.58-1.94.87-.18.14-.36.29-.54.43-.41.17-.72.41-.71.9-.1.09-.19.17-.29.26-.11,0-.23.02-.34.03l-3.68.07C10.96-.75,17.57,1.92,22.28-.16c.17,0,.34,0,.51,0,.09.21.17.21.26,0,.17,0,.34,0,.51,0,.98.17,1.96.33,2.94.5Z"/><path class="cls-12" d="M15.89,32.24h-.26c0-.33,0-.66-.01-1,.84.23,1.85-4.62,1.79-4.44.24.2.47.4.71.6-.45-.8-.73-1.65-.82-2.56.5.46.96.31,1.4-.08.17.39.34.77.5,1.16-.37.03-.54.15-.52.59.12,2.45,1.2.47,1.86.41.38.19.68-.59,1.05-.11.67.87,1.3,1.77,1.95,2.66,0,.07.02.14.03.21-1.66.88.23,1.26.28,1.89l.5.15s-.03.08-.03.12c-.16,0-.33.01-.49.02-2.46-.04-4.92-.08-7.38-.12-.35,0-.49.19-.55.5ZM19.31,31.24c2.72,0,1.79-4.47-.16-2.91,3.03,1.26-3.6,1.41.16,2.91Z"/><path class="cls-1" d="M-.23,6.3c3.25.82,7.94-4.36,10.88-2.9,0,.12,0,.24,0,.36-.61.65-.09,1.44-.27,2.14-4.94.61-5.65,2.14-10.61,2.05,0-.55,0-1.1,0-1.65Z"/><path class="cls-14" d="M15.62,31.25c0,.33,0,.66.01,1h-1.66c-.5-.15-.99-.31-1.49-.46-.02.15-.03.31-.05.46h-1.66c.19-.69-.17-.89-.77-.74-.86.21-1.71.49-2.56.74h-2.17c-.01-.38-.02-.77-.03-1.15.34-.58.82-.5,1.33-.29,1.24.63,2.02-.49,3.02-.77.35-.16.71-.31,1.06-.47.09,0,.18.02.27.03.16,0,.32,0,.48.01.85.72,1.68,1.48,2.95,1.18.08-.02.16-.04.24-.06.13.01.26.03.39.04.17.03.34.06.51.09.04.13.08.26.12.4Z"/><path class="cls-1" d="M30.18,12.12c.48.78-2.74,4.66.7,4.07.38.63,1.1.39,1.64.61v4.94c-.51,0-1.03,0-1.54.01-.17-.47-.33-.94-.5-1.41-.59-1.43-.62-3.09-1.8-4.27-.05-.22-.11-.43-.16-.65-.14-.8-.38-1.62.53-2.16.05-.05.1-.09.15-.14.33-.33.66-.67.99-1Z"/><path class="cls-3" d="M22.28-.16c-4.71,2.07-11.32-.59-11.19,6.21.02,1.86.04,3.72.06,5.57-.08,0-.16,0-.25,0-.03-1.88-.05-3.77-.08-5.65-.02-2.04-.04-4.08-.05-6.12,3.84,0,7.67,0,11.51,0Z"/><path class="cls-2" d="M30.97,21.75c.51,0,1.03,0,1.54-.01v5.06c-.38-.22-.77-.43-1.15-.65.71-1.54-1.13-2.86-.39-4.4Z"/><path class="cls-10" d="M5.24,31.09c.01.38.02.77.03,1.15-1.32,0-2.65-.11-3.96.03-1.32.14-1.82-.26-1.54-1.55.29-.04.59-.09.88-.13,0,1.16.6,1.43,1.62,1.03,1.07.5,1.59-.12,2.01-.96.14.53.56.47.96.43Z"/><path class="cls-3" d="M26.5.34c-.98-.17-1.96-.33-2.94-.5,2.81,0,5.63.01,8.44-.01.44,0,.61.09.51.52-1.37,0-2.73,0-4.1.01-.55,0-1.1-.01-1.65-.02-.09,0-.18,0-.27,0Z"/><path class="cls-14" d="M32.51,29.97c-.34.72.67,1.74-.51,2.28-.34-.36-.68-.39-1.02,0h-.38c-.01-.6-.6-1.37.49-1.64.09,0,.18,0,.28,0,.09-.03.17-.06.26-.09.3-.18.59-.36.89-.54Z"/><path class="cls-10" d="M15.89,32.24c.05-.3.2-.5.55-.5,2.46.04,4.92.08,7.38.12,0,.13,0,.25,0,.38h-7.93Z"/><path class="cls-12" d="M31.09,30.6c-1.09.27-.5,1.04-.49,1.64h-.9c-.13-.16-.26-.32-.39-.48.44-.32.53-.69.2-1.14.18-.07.37-.15.55-.22.33.11.77-.28,1.03.2Z"/><path class="cls-10" d="M7.45,32.24c.85-.25,1.7-.53,2.56-.74.59-.15.95.05.77.74h-3.32Z"/><path class="cls-13" d="M32.51,27.81v1.39c-.09.08-.17.16-.26.23-.09.09-.17.17-.26.26.37-1.07-.58-1.91-.51-2.93.34.35.68.7,1.03,1.04Z"/><path class="cls-9" d="M32.51,27.81c-.34-.35-.68-.7-1.02-1.04-.09-.04-.18-.07-.26-.11-.5-.24-.74.12-1.01.42-.02-.08-.03-.17-.05-.25.06-.26.12-.52.18-.78.34.04.68.07,1.01.11.38.22.77.43,1.15.65v1.01Z"/><path class="cls-4" d="M29.06,32.24h-4.35c0-.11,0-.23,0-.34.21,0,.42,0,.63,0,1.23.25,2.52-.2,3.72.34Z"/><path class="cls-9" d="M10.77-.16c.02,2.04.04,4.08.05,6.12-.05,0-.09.02-.14.03,0-.75-.02-1.49-.03-2.24,0-.12,0-.24,0-.36,0-1.18,0-2.37-.01-3.55h.13Z"/><path class="cls-13" d="M29.06,32.24c-1.2-.54-2.49-.09-3.72-.34.01-.05.02-.11.03-.16.93,0,1.87,0,2.8,0,.12-.03.25-.06.37-.09.1-.02.19-.03.29-.05.16.05.31.1.47.15.13.16.26.32.39.48h-.64Z"/><path class="cls-13" d="M.66,30.59c-.29.04-.59.09-.88.13,0-.17,0-.34,0-.51.17-.12.35-.24.52-.36.42-.32.85-.63,1.27-.95-.13.3-.26.59-.38.89-.18.27-.35.53-.53.8Z"/><path class="cls-9" d="M32,29.7c.09-.09.17-.17.26-.26.09,0,.17.01.26.02v.51c-.3.18-.59.36-.89.54-.09.03-.17.06-.26.09-.09,0-.18,0-.28,0-.26-.48-.69-.09-1.02-.2.05-.2.09-.39.14-.59.26.12.53.25.79.37.34-.16.67-.32,1.01-.48Z"/><path class="cls-10" d="M32.51,16.8c-.54-.22-1.26.02-1.64-.61.55,0,1.09-.01,1.64-.02v.63Z"/><path class="cls-4" d="M.29,29.85c-.17.12-.35.24-.52.36,0-.46,0-.93,0-1.39.72.07.43.64.52,1.03Z"/><path class="cls-10" d="M12.44,32.24c.02-.15.03-.31.05-.46.5.15.99.31,1.49.46h-1.53Z"/><path class="cls-13" d="M24.72,31.9c0,.11,0,.23,0,.34h-.9c0-.13,0-.25,0-.38.16,0,.33-.01.49-.02.14.02.27.04.41.06Z"/><path class="cls-10" d="M30.98,32.24c.34-.39.68-.36,1.02,0h-1.02Z"/><path class="cls-13" d="M5.24,31.09c-.4.04-.82.09-.96-.43.02-.18.04-.35.06-.53-.07-.14-.15-.29-.22-.43-.11-.29-.23-.58-.34-.87.03,0,.06,0,.09,0,1.16-.4,2.26-1.09,3.59-.76.36.79.92.2,1.34.13,1.07-.16,1.83-.66,1.59-1.92,0-.08,0-.17,0-.25,0,0,.05,0,.05,0h.05c-.42,1.15,1,2.75-.88,3.56-1.01.4-2.03.81-3.04,1.21-.51-.21-1-.3-1.33.29Z"/><path class="cls-10" d="M10.11,18.09c-.57-.26-.95-.14-1.42.34-.82.84-1.86,1.06-2.95.41.14-.15.29-.31.43-.46.37-.06.75-.13,1.12-.19-.33-.06-.67-.12-1-.18-.25-.17-.5-.35-.75-.52.26-.02.52-.04.78-.06,1.16.53,2.29-.33,3.44-.07l1.25.23c-.3.16-.61.33-.91.49Z"/><path class="cls-12" d="M9.09,16.17c.1.24.19.48.29.72-1.06.1-2.12.2-3.18.3-.53.02-1.05.03-1.58.05.07-.35.14-.71.21-1.06,1.42,0,2.84,0,4.25,0Z"/><path class="cls-2" d="M9.09,16.17c-1.42,0-2.84,0-4.25,0,.27-.61.54-1.21.82-1.82.01-.33.02-.66.03-.99.62.92,3.31,2.5,3.4,2.8Z"/><path class="cls-2" d="M10.38,26.29c.24,1.26-.52,1.76-1.59,1.92-.42.06-.98.65-1.34-.13.85-.8,2.3-.62,2.93-1.78Z"/><path class="cls-2" d="M2.58,25.53c.3-.14.85-.43.86-.41.53.89.29,1.8-.05,2.69-.05-.12-.1-.24-.15-.36-.09.04-.18.08-.27.11-.13-.47-.26-.93-.39-1.4,0-.21,0-.43,0-.64Z"/><path class="cls-10" d="M9.62,29.59c1.88-.8.46-2.4.88-3.56-.03-2.55-.07-5.1-.1-7.65-.01-.02-.02-.04-.03-.06.09,0,.19,0,.28,0,.03.63.07,1.25.1,1.88,0,1-.02,2-.02,3,0,.78-.02,1.56-.02,2.34-.02,1.34-.03,2.67-.05,4.01-.35.16-.71.31-1.06.47,0-.15.01-.29.02-.44Z"/><path class="cls-12" d="M6.17,18.38c-.14.15-.29.31-.43.46-.76-.2-1.34-.59-1.75-1.18.16-.08.32-.16.48-.24.36.02.72.05,1.08.07.25.17.5.35.75.52-.17.03-.33.06-.5.09.12.09.25.19.37.28Z"/><path class="cls-4" d="M1.18,29.8c.13-.3.26-.59.38-.89,0,0,0-.02,0-.02.06-.06.12-.12.18-.19.07-.01.13-.03.19-.04.11.06.22.11.33.17.06.36.12.73.18,1.09-.08.03-.16.06-.24.09-.34-.07-.68-.14-1.02-.21Z"/><path class="cls-2" d="M10.4,18.39c.03,2.55.07,5.1.1,7.65,0,0-.05,0-.05,0,0,0-.05,0-.05,0,0-2.55,0-5.1,0-7.65Z"/><path class="cls-13" d="M5.69,13.37c-.01.33-.02.66-.03.99-.18-.57-.35-1.15-.53-1.72-.02-.26-.42-.5-.05-.79.19.18.38.35.57.53,0,0,0,0,0,0,.04.17.07.34.11.51-.02.16-.05.32-.07.48Z"/><path class="cls-12" d="M10.65,18.34c-.09,0-.19,0-.28,0-.09-.08-.17-.16-.26-.24.3-.16.61-.33.91-.49,0,0,0-.04,0-.04.22,0,.43.02.65.03-.06.11-.11.22-.17.33-.03.06-.06.12-.09.17-.04.06-.09.12-.13.19-.04.02-.08.03-.13.05l-.27.02c-.08,0-.16,0-.24,0Z"/><path class="cls-10" d="M2.58,25.53c0,.21,0,.43,0,.64-.08.76-.16,1.51-.24,2.27-.12.04-.24.08-.36.12.38-.97-.08-2.1.59-3.02Z"/><path class="cls-1" d="M5.55,17.49c-.36-.02-.72-.05-1.08-.07.05-.06.11-.12.16-.18.53-.02,1.05-.03,1.58-.05.04.08.08.16.12.24-.26.02-.52.04-.78.06Z"/><path class="cls-7" d="M1.99,28.55c.12-.04.24-.08.36-.12.12,0,.25.02.37.02.13.02.25.03.38.05,0,0,.03.06.03.06,0,.07-.02.14-.02.21-.28.01-.55.03-.83.04-.11-.06-.22-.11-.33-.17.02-.04.03-.07.05-.11Z"/><path class="cls-10" d="M3.24,27.46c.05.12.1.24.15.36.04.21.07.41.11.62-.05.02-.1.04-.15.07-.08.02-.15.04-.23.07,0,0-.03-.06-.03-.06.05-.35.1-.7.15-1.05Z"/><path class="cls-5" d="M3.35,28.5c.05-.02.1-.04.15-.07.12.13.25.26.37.39-.03,0-.06,0-.09,0-.14-.11-.29-.22-.43-.33Z"/><path class="cls-15" d="M2.13,22.46c-.1.09-.12.05-.08-.07.03.02.06.04.08.07Z"/><path class="cls-15" d="M2.84,23.26c-.05-.08-.09-.17-.14-.25,0,0,.01-.01.01-.01.04.09.08.17.13.26,0,0,0,0,0,0Z"/><path class="cls-15" d="M2.85,23.26s0,0,0,0c0,0,0,0,0,0Z"/><path class="cls-15" d="M2.58,22.89s-.09-.09-.13-.13c0,0,.02-.02.02-.02.05.04.09.09.14.13,0,0-.02.02-.02.02Z"/><polygon class="cls-15" points="2.45 22.76 2.43 22.72 2.46 22.74 2.45 22.76"/><path class="cls-13" d="M1.74,28.7c-.06.06-.12.12-.18.19.06-.06.12-.12.18-.19Z"/><path class="cls-15" d="M2.6,22.87s.08.08.12.13c0,0-.01.01-.01.01-.04-.04-.09-.08-.13-.12,0,0,.02-.02.02-.02Z"/><path class="cls-7" d="M19.96,3.11c1.65.07,3.3.14,4.86.79.18.13.35.25.53.38.07.04.15.09.22.13.27.2.54.41.81.61.29.26.57.53.86.79.32.42.63.85.95,1.27-1.3.04-1.44-1.73-3.04-1.69-1.12.03-1.35.29-1.6,1.08-.08,0-.16,0-.24,0-.52-.68-1.45-.56-2.04-.94-1-.64-1.46-.6-1.68.58-.34-.02-.68-.04-1.02-.06-.02-.04-.04-.07-.06-.11-.35-.31.77-1.01-.21-1.02-.44,0-.69.02-.89-.36l1.39-1.06s.03-.01.03-.01c.08-.03.15-.07.23-.1.05-.05.11-.1.16-.14.09,0,.19.02.28.03.06.01.11.03.17.04-.03-.02-.06-.04-.1-.05.13-.05.26-.1.4-.14Z"/><path class="cls-1" d="M28.19,7.08c-.32-.42-.63-.85-.95-1.27,1.44.57,3.18,4.04,2.93,5.85-.16-.22-.32-.45-.48-.67-.01-.25-.02-.49-.03-.74-.45-.93-.89-1.86-1.34-2.8-.04-.12-.09-.24-.13-.37Z"/><path class="cls-2" d="M29.69,10.98c.16.22.32.45.48.67,0,.15,0,.31.01.46-.33.33-.66.67-.99,1,.17-.71.33-1.43.5-2.14Z"/><path class="cls-9" d="M18.8,3.49c-.46.35-.93.71-1.39,1.06-.2.08-.4.15-.6.23-.05-.14-.11-.29-.16-.43.65-.29,1.29-.58,1.94-.87.07,0,.14.01.21.02Z"/><path class="cls-1" d="M26.76.34c.55,0,1.1.01,1.65.02-.55.4-1.1.27-1.65-.02Z"/><path class="cls-1" d="M26.38,5.02c-.27-.2-.54-.41-.81-.61.39.05.69.21.81.61Z"/><path class="cls-1" d="M19.96,3.11c-.13.05-.26.1-.39.14-.03,0-.05,0-.08.02-.09,0-.19-.02-.28-.03.2-.33.47-.25.75-.13Z"/><path class="cls-1" d="M25.35,4.27c-.18-.13-.35-.25-.53-.38.18.13.35.25.53.38Z"/><path class="cls-9" d="M19.05,3.38c-.08.03-.15.07-.23.1.08-.03.15-.07.23-.1Z"/><path class="cls-9" d="M6.32,17.43c-.04-.08-.08-.16-.12-.24,1.06-.1,2.12-.2,3.18-.3.4.16.74.05,1.04-.24.11-.03.23-.07.34-.1,0,0,.05.03.05.03,0,0,.06,0,.06,0,.1.06.2.12.3.18.25.01.51.03.76.04,0,.04,0,.07-.02.11-.3.17-.59.34-.89.51-.42-.02-.84-.03-1.26-.05-1.15-.26-2.28.59-3.44.07Z"/><path class="cls-10" d="M10.76,16.56c-.11.03-.23.07-.34.1.02-3.49.05-6.98.07-10.47.04,0,.09,0,.13.01.03,2.74.07,5.48.1,8.22,0,.11,0,.22,0,.33.01.6.02,1.2.03,1.81Z"/><path class="cls-3" d="M10.62,6.2s-.09,0-.13-.01c-.04-.1-.07-.19-.11-.29.18-.7-.34-1.49.27-2.14,0,.75.02,1.49.03,2.24-.02.07-.04.14-.06.21Z"/><path class="cls-2" d="M6.73,12.03c-.09.13-.15.2-.21.28-.48-.29-.56-.58-.23-.86.14.18.28.37.44.58Z"/><path class="cls-7" d="M5.65,12.38c-.19-.18-.38-.35-.57-.53-.03-.12-.06-.23-.08-.35.02-.02.05-.04.07-.06.19.31.39.62.58.93Z"/><path class="cls-2" d="M6.78,12.64c.15.15.15.27,0,.36-.17-.13-.17-.25,0-.36Z"/><path class="cls-7" d="M5.76,12.89c-.04-.17-.07-.34-.11-.51.31.11.35.28.11.51Z"/><path class="cls-7" d="M4.99,11.5l-.14-.23s.04-.04.05-.06c.05.08.11.16.16.23-.02.02-.05.04-.07.06Z"/><path class="cls-7" d="M4.85,11.27s-.08-.09-.12-.13c.02-.02.04-.04.06-.06.04.04.08.09.12.13-.02.02-.04.04-.05.06Z"/><path class="cls-7" d="M4.66,10.95s.08.09.13.13c-.02.02-.04.04-.06.06-.04-.05-.08-.09-.12-.14.02-.02.04-.03.05-.05Z"/><path class="cls-7" d="M4.61,11s-.02-.03-.04-.05c.03,0,.06,0,.09,0-.02.02-.03.03-.05.05Z"/><path class="cls-15" d="M11.93,16.81c-.25-.01-.51-.03-.76-.04-.02-1.29-.03-2.59-.05-3.88.01-.42.02-.84.03-1.27-.02-1.86-.04-3.72-.06-5.57,1.23-.02,2.45-.05,3.68-.07-.04.14-.09.28-.13.42-.11.11-.22.21-.33.32-1.34.9-.12,6.02.29,6.72.09-.02.18-.04.27-.05-.18,1.55,1.39,3.78-1.68,4.2-.39-.29-.6-.89-1.26-.77Z"/><path class="cls-7" d="M14.3,6.71c.11-.11.22-.21.33-.32.16-.15.31-.3.47-.44.1-.09.19-.17.29-.26.26-.14.53-.28.79-.42,0,.12,0,.23,0,.35-.15.44-.29.87-.44,1.31-.58.61-1.02.2-1.45-.21Z"/><path class="cls-4" d="M16.18,5.27c-.26.14-.53.28-.79.42-.01-.49.3-.73.71-.9.03.16.05.32.08.48,0,0,0,0,0,0Z"/><path class="cls-7" d="M16.18,5.27c-.03-.16-.05-.32-.08-.48.18-.14.36-.29.54-.43.05.14.11.29.16.43-.05.08-.1.15-.16.23-.12.07-.25.13-.37.2-.03.02-.06.04-.09.06Z"/><path class="cls-4" d="M15.11,5.95c-.16.15-.31.3-.47.44.04-.14.09-.28.13-.42.11,0,.23-.02.34-.03Z"/><path class="cls-13" d="M18.69,24.76c-.45.39-.91.54-1.4.08-.2-.16-.39-.32-.59-.48-.69,1.2-1.04,2.53-1.04,3.98-.07-.55-.27-1.11-.18-1.63.35-2.2,1.14-4.35.51-6.62,0-.08,0-.17,0-.25,0-.17,0-.34,0-.51,0-.08,0-.17.01-.25.3-.15.16-1.08.43-.68.51.77.49.06.69-.08.4.31.79.63,1.19.94-.09.36-.7.55-.42,1,.09.14.51.07.78.09-.06.34-1.91,1.81-2.17,2.78.68-.04,1.32.07,1.93.33-.29.5.19.86.23,1.3Z"/><path class="cls-10" d="M15.67,28.34c0-1.45.34-2.78,1.04-3.98.2.16.39.32.59.48.09.91.37,1.77.82,2.56-.24-.2-.47-.4-.71-.6.07-.18-.94,4.66-1.79,4.44-.04-.13-.08-.26-.12-.4.05-.76.09-1.52.14-2.28.01-.08.02-.15.03-.23Z"/><path class="cls-9" d="M18.69,24.76c-.04-.44-.52-.81-.23-1.3.47-.21.93-.41,1.4-.62.29.03.58.05.87.08.04.08.08.15.11.23.22.12.44.25.66.37-.79.56,0,1.18-.07,1.77-.02.08-.04.15-.05.23-.38.14-.77.28-1.15.42.13-.3.16-1.49-.2.17-.26.02-.53.04-.79.06l-.04-.25c-.17-.39-.34-.77-.5-1.16ZM19.67,23.71l-.29-.24c.06.11.13.22.19.32.3.56,1.24,1.73.1-.08Z"/><path class="cls-10" d="M20.22,25.94c.38-.14.77-.28,1.15-.42,1.6,1.01,1.94,1.02,2.31.09.13.41.26.82.38,1.23,0,.06-.01.12-.02.18-.15.41-.29.81-.44,1.22-.02.41-.05.82-.07,1.24-.65-.89-1.28-1.79-1.95-2.66-.37-.48-.67.29-1.05.11-.16-.13-.31-.35-.49-.38-.82-.16-.83-.14-.81-.37.26-.02.53-.04.79-.06.07-.06.13-.12.2-.17Z"/><path class="cls-14" d="M19.31,31.24c-3.76-1.5,2.87-1.66-.16-2.91,1.95-1.55,2.88,2.91.16,2.91Z"/><path class="cls-14" d="M19.24,26.17c-.02.23-.01.21.81.37.18.03.33.25.49.38-.66.06-1.74,2.04-1.86-.41-.02-.44.15-.56.52-.59.01.08.03.17.04.25Z"/><path class="cls-10" d="M23.85,31.57c-.05-.64-1.94-1.01-.28-1.89.04-.02.09-.04.13-.06,0,.37,0,.74,0,1.11.05.28.09.56.14.84Z"/><path class="cls-5" d="M23.85,31.57c-.05-.28-.09-.56-.14-.84.09.01.18.02.27.03.41.31.82.63,1.24.94-.29,0-.58.02-.86.02l-.5-.15Z"/><path class="cls-13" d="M23.7,29.62s-.09.04-.13.06c0-.07-.02-.14-.03-.21.02-.41.05-.82.07-1.24.97.4-.09.93.08,1.38Z"/><path class="cls-10" d="M24.34,31.73c.29,0,.58-.02.86-.02.06.01.11.02.17.04-.01.05-.02.11-.03.16-.21,0-.42,0-.63,0-.14-.02-.27-.04-.41-.06,0-.04.02-.08.03-.12Z"/><path class="cls-5" d="M15.67,28.34c-.01.08-.02.15-.03.23-.21.73-.43,1.46-.64,2.18-.13-.01-.26-.03-.39-.04.13-.97.26-1.94.4-2.91-.31.12-.62.25-.92.37,0-.76,0-1.52.01-2.28,0-.33,0-.67,0-1,0-.63,0-1.26,0-1.9.26-.12.67-.03.7-.48-.15.03-.29.05-.44.08-.45-1.03.17-2.01.13-3.02.29.81.25,2.58,1.51.5.63,2.27-.16,4.42-.51,6.62-.08.52.11,1.09.18,1.63Z"/><path class="cls-4" d="M14.09,28.18l.92-.37c-.14.97-.27,1.94-.4,2.91-.08.02-.16.04-.24.06-.56-.23-1.12-.46-1.68-.7.35-.72,1.6-.79,1.41-1.9Z"/><path class="cls-10" d="M10.89,18.34c.09,0,.18-.01.27-.02,0,.05,0,.1,0,.16,0,.06,0,.12,0,.19,0,2.08,0,4.16,0,6.25,0,.73-.1,1.48.02,2.2.13.8-.51,1.68.26,2.4,0,.03-.01.06-.02.09-.16,0-.32,0-.48-.01-.02-1.35-.04-2.7-.06-4.05,0-.77,0-1.53,0-2.3,0-1.01,0-2.02,0-3.03,0-.62.01-1.24.02-1.86Z"/><path class="cls-12" d="M9.62,29.59c0,.15-.01.29-.02.44-1,.28-1.78,1.4-3.02.77,1.01-.4,2.03-.81,3.04-1.21Z"/><path class="cls-12" d="M11.41,29.6s.02-.06.02-.09c.64-.28.77.51,1.24.58.56.23,1.12.46,1.68.7-1.27.3-2.1-.47-2.95-1.18Z"/><path class="cls-5" d="M10.87,25.54c.02,1.35.04,2.7.06,4.05-.09,0-.18-.02-.27-.03.02-1.34.03-2.67.05-4.01.05,0,.11,0,.16-.01Z"/><path class="cls-13" d="M14.99,30.76c.21-.73.43-1.46.64-2.18-.05.76-.09,1.52-.14,2.28-.17-.03-.34-.06-.51-.09Z"/><path class="cls-13" d="M29.69,10.98c-.17.71-.33,1.43-.5,2.14-.05.05-.1.09-.15.14-.2.04-.4.08-.61.12.62-2.13-2.09-.74-2.57-1.38-.09-.13-.18-.27-.27-.4-.04-.69-.09-1.39-.13-2.08.03-.5.06-1,.09-1.49.06,0,.13.02.19.02,1.05,2.15.23,3.96,1.91.79h0c.95.08,1.54.65,2,1.41l.03.74ZM28.19,11.11c.18-.25.29-.4.4-.55-.8-.48-1.04-.15-.4.55Z"/><path class="cls-5" d="M31.36,26.15c-.34-.04-.68-.07-1.01-.11-.1-.22-.19-.44-.29-.66.07-.21.14-.42.21-.63,1.04-1.33-.63-2.68.02-4.02-.52.15-1.04.21-1.56.16.48-1.56-2.05-2.19-1.21-3.86.04-.09.09-.17.13-.26.08-.08.17-.16.25-.25.14-.38.27-.75.41-1.13.07,0,.14,0,.21,0,.05.22.11.43.16.65-.15,1.74.79,3.02,1.8,4.27.17.47.33.94.5,1.41-.74,1.54,1.1,2.86.39,4.4Z"/><path class="cls-4" d="M30.48,20.34c-1.01-1.25-1.96-2.54-1.8-4.27,1.19,1.18,1.21,2.84,1.8,4.27Z"/><path class="cls-2" d="M28.51,15.42c-.07,0-.14,0-.21,0-.1-.33-.19-.66-.29-.99.14-.35.28-.7.42-1.05.2-.04.4-.08.61-.12-.91.54-.67,1.36-.53,2.16Z"/><path class="cls-1" d="M10.62,6.2c.02-.07.04-.14.06-.21.05,0,.09-.02.14-.03.03,1.88.05,3.77.08,5.65.02.45.04.91.07,1.36,0,.2,0,.4,0,.59,0,.43,0,.86-.01,1.28-.03.58-.06,1.16-.08,1.74h-.06s-.05-.03-.05-.03c-.01-.6-.02-1.2-.03-1.81,0-.11,0-.22,0-.33-.03-2.74-.07-5.48-.1-8.22Z"/><path class="cls-13" d="M10.97,12.97c-.02-.45-.04-.91-.07-1.36.08,0,.16,0,.25,0-.01.42-.02.84-.03,1.27-.05.03-.1.06-.15.08Z"/><path class="cls-12" d="M1.18,29.8c.34.07.68.14,1.02.21-.1.54,1.09,1.03.06,1.61-1.02.4-1.61.14-1.62-1.03.18-.27.35-.53.53-.8Z"/><path class="cls-14" d="M2.27,31.62c1.02-.58-.16-1.07-.06-1.61.08-.03.16-.06.24-.09.21-.01.42-.02.63-.03.3-.01.61-.02.91-.03.04.04.09.08.13.13.04.03.08.07.12.1.03.02.06.04.09.05-.02.18-.04.35-.06.53-.42.84-.94,1.46-2.01.96Z"/><path class="cls-12" d="M31.36,30.59c.09-.03.17-.06.26-.09-.09.03-.17.06-.26.09Z"/><path class="cls-1" d="M30.2,29.81c-.05.2-.09.39-.14.59-.18.07-.37.15-.55.22,0,0,0-.02,0-.02-.27,0-.54,0-.82-.01.07.07.13.15.2.22-1.17,0-2.34.01-3.52.02.09-.08.18-.15.28-.23.82-.13,1.73.56,2.48-.26.43-.07.74-.7,1.28-.26.15-.21.29-.42.44-.63.12.07.23.13.35.2,0,.05,0,.11.01.16Z"/><path class="cls-4" d="M29.5,30.6s0,.02,0,.02c.33.45.24.82-.2,1.14-.16-.05-.31-.1-.47-.15.13-.25.26-.5.39-.75.09-.08.18-.17.27-.25Z"/><path class="cls-5" d="M32,29.7c-.34.16-.67.32-1.01.48.08-1.17.16-2.35.24-3.52.09.04.18.07.26.11-.07,1.02.88,1.86.51,2.93Z"/><path class="cls-4" d="M31.22,26.66c-.08,1.17-.16,2.35-.24,3.52-.26-.12-.53-.25-.79-.37,0-.05,0-.11-.01-.16,0-.81,0-1.62,0-2.44.01-.05.02-.09.03-.14.27-.3.51-.66,1.01-.42Z"/><path class="cls-1" d="M30.06,25.39c.1.22.19.44.29.66-.06.26-.12.52-.18.78-.12,0-.24,0-.36-.01-.03-.08-.06-.17-.09-.25.06-.24.12-.48.18-.72-.21.19-.42.37-.63.56-.16.22-.31.43-.47.65-1.33-1.08.02-1.29,1.26-1.66Z"/><path class="cls-5" d="M29.81,26.82c.12,0,.24,0,.36.01.02.08.03.17.05.25-.01.05-.02.09-.03.14-.07.41-.15.83-.22,1.24-.1-.02-.2-.03-.29-.05.05-.53.09-1.06.14-1.6Z"/><path class="cls-9" d="M29.23,30.86c-.13.25-.26.5-.39.75-.1.02-.19.03-.29.05-.12.03-.25.06-.37.09-.93,0-1.87,0-2.8,0-.06-.01-.11-.02-.17-.04-.41-.31-.82-.63-1.24-.94.46.02.93.05,1.39.07,1.17,0,2.34-.01,3.52-.02.12.02.23.03.35.05Z"/><path class="cls-4" d="M28.18,31.75c.12-.03.25-.06.37-.09-.12.03-.25.06-.37.09Z"/><path class="cls-4" d="M3.99,29.85c-.3.01-.61.02-.91.03,0-.37,0-.74.01-1.11,0-.07.02-.14.02-.21.08-.02.15-.04.23-.07.14.11.29.22.43.33.11.29.23.58.34.87-.04.05-.08.1-.12.15Z"/><path class="cls-10" d="M3.99,29.85c.04-.05.08-.1.12-.15.07.14.15.29.22.43-.03-.01-.06-.03-.09-.05-.04-.03-.08-.07-.12-.1-.04-.04-.09-.08-.13-.13Z"/><path class="cls-14" d="M6.17,18.38c-.12-.09-.25-.19-.37-.28.17-.03.33-.06.5-.09.33.06.67.12,1,.18-.37.06-.75.13-1.12.19Z"/><path class="cls-4" d="M9.77,17.37c.42.02.84.03,1.26.05,0,.05,0,.09,0,.14,0,0,0,.04,0,.04-.42-.08-.84-.15-1.25-.23Z"/><path class="cls-13" d="M2.71,28.46c-.12,0-.25-.02-.37-.02.08-.76.16-1.51.24-2.27.13.47.26.93.39,1.4-.09.3-.17.59-.26.89Z"/><path class="cls-5" d="M2.71,28.46c.09-.3.17-.59.26-.89.09-.04.18-.08.27-.11-.05.35-.1.7-.15,1.05-.13-.02-.25-.03-.38-.05Z"/><path class="cls-13" d="M10.87,25.54c-.05,0-.11,0-.16.01,0-.78.02-1.56.02-2.34.04,0,.09.02.13.03,0,.77,0,1.53,0,2.3Z"/><path class="cls-2" d="M10.89,18.34c0,.62-.01,1.24-.02,1.86-.04.01-.08.01-.12,0-.03-.63-.07-1.25-.1-1.88.08,0,.16,0,.24,0Z"/><path class="cls-1" d="M10.75,20.21s.08,0,.12,0c0,1.01,0,2.02,0,3.03-.04,0-.09-.02-.13-.03,0-1,.02-2,.02-3Z"/><path class="cls-9" d="M3.1,28.78c0,.37,0,.74-.01,1.11-.21.01-.42.02-.63.03-.06-.36-.12-.73-.18-1.09.28-.01.55-.03.83-.04Z"/><path class="cls-11" d="M11.16,18.67c0-.06,0-.12,0-.19.04-.07.08-.14.13-.21.04-.06.09-.12.13-.19.02,0,.04-.01.06-.02.19-.05.38-.1.57-.15.32-.46.91.58,1.17-.21.49.28.06,1.19.87,1.24.13.13.26.26.39.38,0,.09,0,.17,0,.26.04,1.01-.58,2-.13,3.02-.09.13-.17.26-.26.39,0,.63,0,1.26,0,1.9-.96.06-1.74,1.09-2.81.5,0-.17,0-.33,0-.5-.04-2.08-.08-4.16-.13-6.24Z"/><path class="cls-10" d="M13.22,17.7c-.26.79-.85-.25-1.17.21-.17.01-.34.03-.5.04,0,0-.04-.04-.04-.04.06-.11.11-.22.17-.33.77.02.23-.42.24-.67.02-.03.02-.07.02-.11.65-.11.86.48,1.26.77.01.04.03.08.04.12Z"/><path class="cls-1" d="M11.91,16.91c0,.25.54.68-.24.67-.22,0-.43-.02-.65-.03,0-.05,0-.09,0-.14.3-.17.59-.34.89-.51Z"/><path class="cls-2" d="M11.28,18.27c-.04.07-.08.14-.13.21,0-.05,0-.1,0-.16.04-.02.08-.03.13-.05Z"/><path class="cls-10" d="M11.48,18.06s-.04.02-.06.02c.03-.06.06-.12.09-.17,0,0,.04.04.04.04-.02.04-.05.07-.07.11Z"/><path class="cls-4" d="M28.19,7.08c.04.12.09.24.13.36-1.1,1.09-1.67.99-1.63-.68,0-.31-.13-.81-.71-.54-.12,0-.24,0-.35-.01-.31-.34-.68-.61-1.14-.49-.41.11-.64.44-.66.89-.09-.05-.18-.09-.26-.14.25-.79.47-1.05,1.6-1.08,1.6-.04,1.74,1.72,3.04,1.69Z"/><path class="cls-4" d="M19.59,6.1c.22-1.18.68-1.21,1.68-.58.59.38,1.51.26,2.04.94-1.26.06-2.52.16-3.72-.37Z"/><path class="cls-5" d="M15.75,6.92c.15-.44.29-.87.44-1.31.37.05.73.11,1.1.16.1.03.19.06.29.09-.05.18-.1.37-.15.55l.87-.39c.07-.03.14-.07.21-.1.02.04.04.07.06.11.38.26.77.51,1.15.77-.17.21-.34.41-.51.62-.24-.26.06-.96-.68-.84-.44-.13-.8.02-1.1.34-.35.02-.69-.48-1.06-.04-.17.1-.34.19-.5.29-.04-.09-.08-.18-.12-.26Z"/><path class="cls-14" d="M19.72,6.82c-.38-.26-.77-.51-1.15-.77.34.02.68.04,1.02.06,1.2.52,2.46.43,3.72.37.08,0,.16,0,.24,0,.09.05.18.09.26.14.17.02.34.04.51.06l.25.03c.22,0,.44.01.66.02.04.03.09.05.13.08-.08.21-.17.41-.25.62-.63-.19-1.25-.37-1.88-.56-.53-.05-1.06-.11-1.6-.16-.25.08-.5.16-.75.24-.09,0-.17-.01-.26-.02l-.9-.11Z"/><path class="cls-4" d="M18.51,5.93c-.07.03-.14.07-.21.1-.04-.05-.09-.09-.13-.14,0-.49-.49-.44-.75-.65-.08-.04-.17-.07-.25-.11-.17-.05-.35-.09-.52-.14.05-.08.1-.15.16-.23.2-.08.4-.15.6-.23.2.37.45.35.89.36.98,0-.14.72.21,1.02Z"/><path class="cls-9" d="M19.49,3.27s.05-.01.08-.02c.03.02.06.04.1.05-.06-.01-.11-.03-.17-.04Z"/><path class="cls-5" d="M25.97,6.22c.58-.27.72.23.71.54-.03,1.66.53,1.77,1.63.68.45.93.89,1.86,1.34,2.8-.46-.76-1.05-1.33-2-1.41,0,0-.02-.02-.02-.02l.02.02c-1.67,3.17-.86,1.36-1.91-.79.84-.12.46-.52.22-.9.02-.14.04-.27.06-.41,0,0,.02-.03.02-.03.2-.17.25-.31-.07-.38-.01-.03-.01-.06,0-.1Z"/><path class="cls-10" d="M10.97,12.97s.1-.06.15-.08c.02,1.29.03,2.59.05,3.88-.1-.06-.2-.12-.3-.18.03-.58.06-1.16.08-1.74,0-.43,0-.86.01-1.28,0-.2,0-.4,0-.59Z"/><path class="cls-2" d="M10.73,14.43c0,.11,0,.22,0,.33,0-.11,0-.22,0-.33Z"/><path class="cls-2" d="M13.22,17.7s-.03-.08-.04-.12c3.07-.41,1.5-2.65,1.68-4.2.12-.13.23-.27.35-.4,0,0,.04-.04.04-.04l.26-.2c.2.09.4.18.61.26.01.12.03.24.04.37-.59.67.3,1.01.36,1.54-.25.33-.5.67-.76,1-.04.3-.09.59-.13.89-.08.25-.17.51-.25.76-.22.08-.44.17-.66.25-.62.15-.74.58-.62,1.13-.82-.05-.38-.97-.87-1.24Z"/><path class="cls-4" d="M15.75,6.92c.04.09.08.18.12.26,0,.07-.02.15-.03.22-.26.8-1.88.48-1.52,1.8-.01.33-.02.67-.03,1,.12.56.23,1.11.35,1.67-.05.42-.1.83-.15,1.25.03.1.07.2.1.3-.41-.71-1.63-5.83-.29-6.72.43.42.86.82,1.45.21Z"/><path class="cls-10" d="M14.6,13.43c-.03-.1-.07-.2-.1-.3.24-.05.48-.1.72-.15-.12.13-.23.27-.35.4-.09.02-.18.04-.27.05Z"/><path class="cls-14" d="M17.29,5.78c-.37-.05-.73-.11-1.1-.16,0-.12,0-.23,0-.35,0,0,0,0,0,0,.03-.02.06-.04.09-.06.34.19.68.38,1.01.57Z"/><path class="cls-12" d="M17.29,5.78c-.34-.19-.68-.38-1.01-.57.12-.07.25-.13.37-.2.17.05.35.09.52.14.08.04.17.07.25.11.26.21.74.16.75.65-.2,0-.39-.02-.59-.02-.1-.03-.19-.06-.29-.09Z"/><path class="cls-10" d="M19.86,22.84c-.47.21-.93.41-1.4.62-.61-.26-1.25-.37-1.93-.33.26-.97,2.11-2.43,2.17-2.78.03-.02.06-.03.1-.04.18.12.37.25.55.37-.06.76-.14,1.5-1.13,1.63-.02,0-.02.19-.03.3-.15.09-.29.19-.44.28.02.03.05.06.07.09.13-.12.25-.24.38-.37.41,0,.81,0,1.22,0,.14.06.29.11.43.17.02.02.02.05,0,.07Z"/><path class="cls-4" d="M14.72,17.82c.22-.08.44-.17.66-.25.22.5.43,1.01.65,1.51,0,.08,0,.17-.01.25,0,.17,0,.34,0,.51,0,.08,0,.17,0,.25-1.27,2.08-1.23.31-1.51-.5,0-.09,0-.17,0-.26.08-.5.16-1.01.23-1.51Z"/><path class="cls-5" d="M16.03,19.08c-.22-.5-.43-1.01-.65-1.51.08-.25.17-.51.25-.76.33-.22.67-.43,1-.65.07.18.14.35.21.53,0,.09.02.17.03.26.05.12.1.25.14.37.04.05.09.09.13.14-.03.12-.07.25-.1.37-.94-.77-1.09.04.04.23.03-.03.06-.05.1-.05-.02.1-.03.21-.05.31-.2.14-.17.85-.69.08-.27-.4-.13.53-.43.68Z"/><path class="cls-10" d="M17.15,18.32c.02-.1.03-.21.05-.31.96-.26,1.17,1.49,2.28.83.08,0,.16-.02.24-.02.26-.07.52-.15.79-.22-.53.43-1.05.87-1.82.64-.11,0-.22.02-.34.03-.4-.31-.79-.63-1.19-.94Z"/><path class="cls-5" d="M18.34,19.26c.11,0,.22-.02.34-.03.04.36.08.71.13,1.07-.03.01-.07.03-.1.04-.27-.02-.69.05-.78-.09-.29-.44.32-.63.42-1Z"/><path class="cls-5" d="M16.01,19.84c0-.17,0-.34,0-.51,0,.17,0,.34,0,.51Z"/><path class="cls-13" d="M18.8,20.3c-.04-.36-.08-.71-.13-1.07.77.23,1.29-.21,1.82-.64,0,0,0,0,0,0,.13-.07.25-.15.38-.22.3-.34.6-.69.9-1.03h0c.11-.02.22-.04.34-.06,1.28,2.74-.54.89-1.6,2.13-1.15,1.35,3.33.72,2.83.6.11-1.18,1.63-5.45,2.24-6.23.1,1.89-.35,2.74,1.04,2.52.04.01.07.03.11.04.08.42.22.79.77.71-.84,1.67,1.69,2.3,1.21,3.86.53.05,1.05,0,1.56-.16-.64,1.34,1.02,2.68-.02,4.02-.06-.13-.12-.25-.19-.38-.27-.48-.07-1.65-.66-1.41-1.42.58-3.12.19-4.35,1.29-.36.01-.72.03-1.08.04.82-.29,1.47-.77,1.95-1.43-.98-.36-1.77.14-2.39,1.49h-.01c-.36.33.28.32.18.55,0,.07,0,.14,0,.22,0,.08,0,.17,0,.25-.01.07-.02.14-.03.21-.37.94-.71.92-2.31-.09.02-.08.04-.15.05-.23.02-.59.05-1.18.07-1.77-.22-.12-.44-.25-.66-.37.75-.25.46-.89.53-1.39.13-.14.26-.27.39-.41-.21-.08-.43-.16-.64-.25-.04,0-.08,0-.12,0,0-.27-.03-.51-.39-.5-.37-.57-.65-.44-.88.11-.12-.02-.25-.03-.37-.05-.18-.12-.37-.25-.55-.37ZM27.87,20.34c-.07-.83-.78-.66-.18.38.07-.16.15-.32.18-.38ZM26.86,18.59c-.15-.31-.28-.56-.4-.81-.3.45-.27.84.08,1.17.1-.11.2-.22.32-.36ZM24.97,22.53c-.46-.18-.87-.04-1.24.41.38.33.8.19,1.24-.41ZM24.78,21.76c.33-.36.28-.62-.15-.81-.24.28-.19.55.15.81Z"/><path class="cls-12" d="M19.35,20.68c.12.02.25.03.37.05.72.56,1.76.98,1.01,2.2-.29-.03-.58-.05-.87-.08.02-.02.02-.05,0-.07-.03-.15-.06-.3-.09-.45-.11.09-.23.19-.34.28-.41,0-.81,0-1.22,0,0,0-.01,0-.01,0,0-.1,0-.29.03-.3.99-.14,1.07-.88,1.13-1.63Z"/><path class="cls-10" d="M20.73,22.92c.76-1.22-.29-1.64-1.01-2.2.23-.56.51-.69.88-.11-.09.06-.18.12-.27.18.22.1.44.21.66.31.04,0,.08,0,.12,0,0,.08.01.16.02.25.08.13.15.26.23.4h0c-.07.51.22,1.15-.53,1.4-.04-.08-.08-.15-.11-.23Z"/><path class="cls-5" d="M21.5,23.52c-.02.59-.05,1.18-.07,1.77.07-.59-.72-1.21.07-1.77Z"/><path class="cls-5" d="M20.22,25.94c-.07.06-.13.12-.2.17.36-1.66.33-.47.2-.17Z"/><path class="cls-4" d="M19.67,23.71c1.14,1.82.2.64-.1.09.03-.03.07-.06.1-.09Z"/><path class="cls-4" d="M19.57,23.79c-.06-.11-.13-.22-.19-.32.1.08.19.16.29.24-.03.03-.07.06-.1.08Z"/><path class="cls-3" d="M25.37,30.83c-.46-.02-.93-.05-1.39-.07-.09-.01-.18-.02-.27-.03,0-.37,0-.74,0-1.11-.17-.45.89-.98-.08-1.38.15-.41.29-.81.44-1.22-.26.09,1.22.43,1.04,1.11-.98,1.08-.31,1.79.55,2.48-.09.08-.18.15-.28.23Z"/><path class="cls-1" d="M25.1,28.13c.17-.68-1.3-1.02-1.04-1.11,0-.06.01-.12.02-.18.09-.02.18-.04.27-.06.46.16,1.17-.05,1.19.79,0,.32.01.61-.44.57Z"/><path class="cls-3" d="M24.35,26.78c-.09.02-.18.04-.27.06-.13-.41-.26-.82-.38-1.23.01-.07.02-.14.03-.21.12.05.24.09.36.14.47.34.21.83.27,1.25Z"/><path class="cls-13" d="M11.28,24.91c0,.17,0,.33,0,.5-.02.37.02.87.42.86.8-.02,1.6-.23,2.4-.36,0,.76,0,1.52-.01,2.28.19,1.11-1.05,1.19-1.41,1.9-.47-.07-.6-.86-1.24-.58-.77-.72-.13-1.6-.26-2.4-.12-.71-.02-1.46-.02-2.2.04,0,.08,0,.13,0Z"/><path class="cls-2" d="M14.1,25.91c-.8.13-1.6.34-2.4.36-.39.01-.44-.49-.42-.86,1.08.59,1.85-.44,2.81-.5,0,.33,0,.67,0,1Z"/><path class="cls-4" d="M14.1,23.01c.09-.13.17-.26.26-.39.15-.03.29-.05.44-.08-.03.45-.44.36-.7.48Z"/><path class="cls-2" d="M11.28,24.91s-.08,0-.13,0c0-2.08,0-4.16,0-6.25.04,2.08.08,4.16.13,6.24Z"/><path class="cls-5" d="M25.6,13.76c-.61.78-2.14,5.05-2.24,6.23.51.13-3.98.75-2.83-.6,1.06-1.24,2.88.62,1.6-2.13.1-.15.2-.31.3-.46.11-.15.22-.31.32-.46-.16.02-.31.04-.47.05-.08.02-.16.05-.24.07.05-.18.09-.35.14-.53.22-.41.43-.82.65-1.23.22.26-.25.87.28.86.52,0,.25-.59.33-.92,1.49.42,1.09-1.67-.94-1.9-.3-.72-.43-1.48-.39-2.26,1.34.99,1.08.36.84-1.07.16.1.31.2.47.31.04.22.1.43.4.24.09.01.17.02.26.03.16.27.34.27.51.01.09-.09.18-.19.27-.28.12-.09.24-.18.37-.27.08.02.16.03.24.05.04.69.09,1.39.13,2.08,0,.09,0,.17-.01.26-.26.13-.25.27,0,.4,0,.5.01,1,.02,1.5Z"/><path class="cls-5" d="M28.44,13.37c-.14.35-.28.7-.42,1.05-.38.17-.76.33-1.14.5-.16-.19-.32-.37-.49-.56-.18-.79-.35-1.58-.53-2.37.48.64,3.2-.75,2.57,1.38Z"/><path class="cls-10" d="M25.86,11.99c.18.79.35,1.58.53,2.37-.87.76.08,1.29.24,1.92-1.38.22-.94-.63-1.04-2.52,0-.5-.01-1-.02-1.5,0-.13,0-.27,0-.4,0-.09,0-.17.01-.26.09.13.18.27.27.4Z"/><path class="cls-10" d="M25.47,9.51c-.08-.02-.16-.03-.24-.05.03-.34.38-.77-.27-.9.05-.38.11-.75.16-1.13.08-.21.17-.41.25-.62.22-.02.44-.05.66-.07-.02.14-.04.27-.06.41-.14.29-.27.58-.41.87-.03.5-.06,1-.09,1.49Z"/><path class="cls-10" d="M28.19,11.11c-.64-.7-.4-1.03.4-.55-.11.15-.22.3-.4.55Z"/><path class="cls-4" d="M25.56,8.02c.14-.29.27-.58.41-.87.24.37.62.78-.22.9-.06,0-.13-.02-.19-.02Z"/><path class="cls-9" d="M24.35,26.78c-.05-.42.2-.91-.27-1.25,1.29-1.06-.54-.68-.54-1.14,0,0,.01-.01.01-.01.15-.02.3-.04.44-.06.36-.01.72-.03,1.08-.04.13,0,.26.02.39.03.14,0,.28.01.42.02.33,0,.66.01.99.02.14,0,.28,0,.42,0,.46,0,.91,0,1.37,0,.22.01.44.02.66.04.26,0,.51,0,.77.01.06.13.12.25.19.38-.07.21-.14.42-.21.63-1.24.37-2.59.58-1.26,1.66,0,0,0,0,0,0-.17.14-.42.25-.51.43-.28.59.22.26.41.31-.7.74-.81,1.61-.58,2.55-.75.83-1.66.13-2.48.26-.85-.68-1.52-1.4-.55-2.48.45.04.44-.25.44-.57-.01-.84-.72-.62-1.19-.79ZM26.26,28.05l-.04-.02.02.04c.28.42.51.47.7.15-.23-.06-.45-.12-.68-.17Z"/><path class="cls-10" d="M26.88,14.92c.38-.17.76-.33,1.14-.5.1.33.19.66.29.99-.14.38-.27.75-.41,1.13-.08.08-.17.16-.25.25-.04.09-.09.17-.13.26-.55.07-.68-.3-.77-.71.77-.4.43-.9.14-1.41Z"/><path class="cls-13" d="M27.64,16.79c.08-.08.17-.16.25-.25-.08.08-.17.16-.25.25Z"/><path class="cls-13" d="M10.96,13.57c0,.43,0,.86-.01,1.28,0-.43,0-.86.01-1.28Z"/><path class="cls-12" d="M4.13,29.98s.08.07.12.1c-.04-.03-.08-.07-.12-.1Z"/><path class="cls-3" d="M28.13,30.35c-.22-.94-.12-1.81.58-2.55.17-.09.34-.18.52-.26.13.3.26.6.39.9-.04.22-.08.44-.11.65l-.1,1c-.53-.44-.85.19-1.28.26Z"/><path class="cls-13" d="M29.96,28.46c.07-.41.15-.83.22-1.24,0,.81,0,1.63,0,2.44-.12-.07-.23-.13-.35-.2,0-.12-.02-.24-.03-.36.05-.21.1-.42.15-.63Z"/><path class="cls-9" d="M29.81,29.09c0,.12.02.24.03.36-.15.21-.29.42-.44.63.03-.33.07-.67.1-1,.1,0,.2,0,.3,0Z"/><path class="cls-3" d="M29.23,30.86c-.12-.02-.23-.03-.35-.05-.07-.07-.13-.15-.2-.22.27,0,.54,0,.82.01-.09.08-.18.17-.27.25Z"/><path class="cls-9" d="M29.62,28.43c-.13-.3-.26-.6-.39-.9-.14-.16-.28-.32-.42-.47,0,0,0,0,0,0,.16-.22.31-.43.47-.65.15.05.3.11.45.16.03.08.06.17.09.25-.05.53-.09,1.06-.14,1.6,0,0-.05.02-.05.02Z"/><path class="cls-3" d="M29.72,26.57c-.15-.05-.3-.11-.45-.16.21-.19.42-.37.63-.56-.06.24-.12.48-.18.72Z"/><path class="cls-1" d="M29.62,28.43s.05-.02.05-.02c.1.02.2.03.29.05-.05.21-.1.42-.15.63-.1,0-.2,0-.3,0,.04-.22.08-.44.11-.65Z"/><path class="cls-5" d="M14.72,17.82c-.08.5-.16,1.01-.23,1.51-.13-.13-.26-.26-.39-.38-.12-.55,0-.98.62-1.13Z"/><path class="cls-2" d="M11.48,18.06s.05-.07.07-.11c.17-.01.34-.03.5-.04-.19.05-.38.1-.57.15Z"/><path class="cls-5" d="M25.23,6.73c-.22,0-.44-.01-.66-.02-.08-.01-.17-.02-.25-.03-.17-.02-.34-.04-.51-.06.01-.45.25-.78.66-.89.46-.12.84.15,1.14.49-.13.17-.26.34-.38.51Z"/><path class="cls-12" d="M25.23,6.73c.13-.17.26-.34.38-.51.12,0,.24,0,.35.01-.01.03-.01.06,0,.1.02.13.05.26.07.38,0,0-.02.03-.02.03-.22.03-.44.05-.66.07-.04-.03-.09-.05-.13-.08Z"/><path class="cls-14" d="M17.43,6.93c.3-.32.66-.47,1.1-.34.16.43.75.94-.24,1.13-.29-.08-.57-.17-.86-.25,0-.18,0-.36,0-.54Z"/><path class="cls-10" d="M18.3,7.73c.99-.19.39-.7.24-1.13.74-.12.43.57.68.84-.02.09-.04.17-.06.26-.06.09-.11.18-.17.27l-1.05.86c-.38,0-.82.13-.9-.45.28.15.48.05.64-.2.29-.04.72.11.63-.45Z"/><path class="cls-7" d="M19.15,7.69c.02-.09.04-.17.06-.26.17-.21.34-.41.51-.62.3.04.6.07.9.11,0,.08,0,.17-.01.25-.25.17-.49.35-.74.52-.24,0-.48,0-.72-.01Z"/><path class="cls-13" d="M15.84,7.41c0-.07.02-.15.03-.22.17-.1.34-.19.5-.29,0,0,.02.03.02.03-.09.23-.18.47-.26.7.03.36.05.72.08,1.08-.12-.43-.25-.86-.37-1.3Z"/><path class="cls-13" d="M17.43,6.93c0,.18,0,.36,0,.54,0,.05-.02.11-.03.16-.16-.02-.32-.04-.49-.06,0-.36-.05-.68-.53-.65,0,0-.02-.03-.02-.03.37-.44.71.05,1.06.04Z"/><path class="cls-7" d="M17.58,5.88c.2,0,.39.02.59.02.04.05.09.09.13.14-.29.13-.58.26-.87.39.05-.18.1-.37.15-.55Z"/><path class="cls-5" d="M25.11,7.42c-.05.38-.11.75-.16,1.13-.03.05-.07.11-.1.16-.12-.09-.24-.18-.36-.27-.13-.3-.26-.6-.4-.91-.19-.56-.67-.31-1.04-.37.06-.1.12-.2.18-.31l1.88.56Z"/><path class="cls-4" d="M23.23,6.87c-.06.1-.12.2-.18.31-.09.04-.18.09-.27.13-.84-.28-.38.92-1.01.88-.04-.49-.09-.98-.13-1.47.53.05,1.06.11,1.6.16Z"/><path class="cls-7" d="M21.63,6.71c.04.49.09.98.13,1.47-.31-.12-.62-.23-.92-.35,0-.22.01-.43.02-.65,0-.08.02-.15.02-.23.25-.08.5-.16.75-.24Z"/><path class="cls-5" d="M20.88,6.95c0,.08-.02.15-.02.23-.08,0-.17,0-.25,0,0-.08,0-.17.01-.25.09,0,.17.01.26.02Z"/><path class="cls-12" d="M24.33,6.67c.08.01.17.02.25.03-.08-.01-.17-.02-.25-.03Z"/><path class="cls-10" d="M17.43,5.25c-.08-.04-.17-.07-.25-.11.08.04.17.07.25.11Z"/><path class="cls-10" d="M26.04,6.7c-.02-.13-.05-.26-.07-.38.32.08.27.22.07.38Z"/><polygon class="cls-13" points="27.65 8.83 27.63 8.81 27.65 8.83 27.65 8.83"/><path class="cls-13" d="M17.03,8.38c.08.58.52.45.9.45-.12.13-.24.27-.36.4-.09.07-.19.15-.28.22,0,.05,0,.09-.01.14l-.23,1.39c-.08.21-.17.42-.25.63-.19-.25-.39-.5-.58-.75-.04.16-.08.32-.13.48-.21.36-.67.73.05,1.05,0,.21,0,.42-.01.63-.2-.09-.4-.18-.61-.26-.06-.04-.11-.08-.16-.12-.03.11-.06.21-.1.32,0,0-.04.04-.04.04-.24.05-.48.1-.72.15.05-.42.1-.83.15-1.25.53-.91.86-1.88.98-2.91.2.08.39.16.59.24.12-.3.25-.59.37-.89.12,0,.23,0,.35-.01.04,0,.07.03.09.06Z"/><path class="cls-12" d="M16.12,13.01c0-.21,0-.42.01-.63-.02-.35-.03-.7-.05-1.05.04-.16.08-.32.13-.48.19.25.39.5.58.75.01.21.02.41.03.62,0,.13,0,.26,0,.39.1.45.37.69.86.6.13,0,.25,0,.38-.01.74-.25.28-.57.06-.88v-.34c.74.35,1.48.54,2.22,0-.2.46-.4.92-.6,1.39-1.37-.44-2.06.32-2.57,1.41-.17-.34-.34-.68-.5-1.02,0-.25.07-.57-.38-.41-.04,0-.08,0-.12.02-.01-.12-.03-.24-.04-.37Z"/><path class="cls-13" d="M16.16,13.38s.08-.02.12-.02c.13.14.25.27.38.41.17.34.34.68.5,1.02.01.08.03.16.04.24-.12.55-.24,1.11-.35,1.66-.07-.18-.14-.35-.21-.53,0-.07,0-.14,0-.21.02-.35.58-.75-.11-1.03-.06-.53-.95-.86-.36-1.54Z"/><path class="cls-5" d="M16.52,14.91c.69.28.13.68.11,1.03-.29,0-.57-.02-.86-.03.25-.33.5-.67.76-1Z"/><path class="cls-4" d="M15.76,15.91c.29,0,.57.02.86.03,0,.07,0,.14,0,.21-.33.22-.67.43-1,.65.04-.3.09-.59.13-.89Z"/><path class="cls-10" d="M15.25,12.94c.03-.11.06-.21.1-.32.05.04.11.08.16.12-.09.07-.17.13-.26.2Z"/><path class="cls-5" d="M16.22,9.21c-.2-.08-.39-.16-.59-.24-.12,1.03-.45,2-.98,2.91-.12-.56-.23-1.11-.35-1.67.56-.31.68-.72.38-1.22-.12.07-.23.14-.35.21-.37-1.32,1.25-1,1.52-1.8.12.43.25.86.37,1.3,0,.17,0,.34,0,.51Z"/><path class="cls-13" d="M14.33,9.21c.12-.07.23-.14.35-.21.31.5.18.9-.38,1.22,0-.33.02-.67.03-1Z"/><path class="cls-13" d="M18.21,22.61c-.13.12-.25.24-.38.37-.02-.03-.05-.06-.07-.09.15-.09.29-.19.44-.28,0,0,.01,0,.01,0Z"/><path class="cls-13" d="M19.43,22.6c.11-.09.23-.19.34-.28.03.15.06.3.09.45-.14-.06-.29-.11-.43-.17Z"/><path class="cls-14" d="M17.2,15.02c-.01-.08-.03-.16-.04-.24.51-1.09,1.21-1.85,2.57-1.41.17.17.33.33.5.5-.28.03-.56.06-.84.09-.06,0-.11-.01-.17-.02-.47-.32-.9-.07-1.27.15-.22.13-.22.48.05.7.02.08.04.16.06.24-.61.31-.73.68-.17,1.15.18.14.37.28.55.42.76.23,1.53.35,2.32.12.33,0,.67-.02,1-.02.01.21.02.42.03.63,0,0,0,0,0,0-.66,0-.96.44-1.19.97-.39,0-.72.12-.88.51-.08,0-.16.02-.24.02-.82-.38-.94-1.92-2.32-1.38-.04-.05-.09-.09-.13-.14,0-.12-.01-.25-.02-.37.14-.63.52-1.24.2-1.92Z"/><path class="cls-12" d="M17.15,17.45c1.38-.54,1.5,1,2.32,1.38-1.11.67-1.32-1.09-2.28-.83-.04,0-.07.02-.1.05-.01-.08-.03-.16-.04-.23.03-.12.07-.25.1-.37Z"/><path class="cls-12" d="M17.2,15.02c.32.68-.06,1.29-.2,1.92-.04,0-.09,0-.13,0,0-.09-.02-.17-.03-.26.12-.55.24-1.11.35-1.66Z"/><path class="cls-4" d="M17.05,17.83c.01.08.03.16.04.23-1.13-.19-.98-1-.04-.23Z"/><path class="cls-13" d="M16.87,16.94s.09,0,.13,0c0,.12.01.25.02.37-.05-.12-.1-.25-.14-.37Z"/><path class="cls-12" d="M19.71,18.81c.16-.39.49-.51.88-.51.02.02.03.04.05.06-.05.08-.09.15-.14.23,0,0,0,0,0,0-.26.07-.52.15-.79.22Z"/><path class="cls-5" d="M26.87,24.33c-.33,0-.66-.01-.99-.02-.14,0-.28-.01-.42-.02-.13,0-.26-.02-.39-.03,1.23-1.1,2.93-.71,4.35-1.29.59-.24.39.93.66,1.41-.26,0-.51,0-.77-.01-.21-.13-.41-.52-.66-.04-.46,0-.91,0-1.37,0-.14-.22-.28-.23-.42,0Z"/><path class="cls-12" d="M26.88,14.92c.3.5.63,1.01-.14,1.41-.04-.01-.07-.03-.11-.04-.16-.63-1.11-1.16-.24-1.92.16.19.32.37.49.56Z"/><path class="cls-4" d="M23.99,24.31c-.15.02-.3.04-.44.06.62-1.35,1.42-1.85,2.39-1.49-.48.66-1.13,1.14-1.95,1.43Z"/><path class="cls-4" d="M23.54,24.39c0,.46,1.83.07.54,1.14-.12-.05-.24-.09-.36-.14,0-.08,0-.17,0-.25,0-.07,0-.14,0-.22.1-.23-.54-.22-.18-.53Z"/><path class="cls-5" d="M27.87,20.34c-.03.06-.1.22-.18.38-.6-1.03.11-1.21.18-.38Z"/><path class="cls-5" d="M26.86,18.59c-.12.14-.22.25-.32.36-.35-.33-.38-.72-.08-1.17.12.25.25.5.4.81Z"/><path class="cls-12" d="M20.6,18.3c.22-.53.53-.96,1.19-.97-.3.34-.6.69-.9,1.03-.08,0-.16,0-.24,0-.02-.02-.03-.04-.05-.06Z"/><path class="cls-12" d="M21.79,17.32c-.01-.21-.02-.42-.03-.63.09-.07.19-.15.28-.22.08-.02.16-.05.24-.07.05.14.1.27.15.41-.1.15-.2.31-.3.46-.11.02-.22.03-.34.05Z"/><path class="cls-9" d="M24.97,22.53c-.44.61-.85.74-1.24.41.36-.45.78-.59,1.24-.41Z"/><path class="cls-5" d="M24.78,21.76c-.35-.26-.4-.53-.15-.81.43.18.48.45.15.81Z"/><path class="cls-12" d="M21,21.11c-.22-.1-.44-.21-.66-.31.09-.06.18-.12.27-.18.36-.01.4.22.39.5Z"/><path class="cls-5" d="M21.15,21.35c0-.08-.01-.16-.02-.25.21.08.43.16.64.25-.13.14-.26.27-.39.41,0,0,0,0,0,0-.08-.13-.15-.26-.23-.4Z"/><path class="cls-10" d="M20.64,18.36c.08,0,.16,0,.24,0-.13.08-.25.15-.38.22.05-.08.09-.15.14-.23Z"/><path class="cls-3" d="M23.72,24.92c0,.07,0,.14,0,.22,0-.07,0-.14,0-.22Z"/><path class="cls-13" d="M21.15,21.35c.08.13.15.26.23.4-.08-.13-.15-.26-.23-.4Z"/><path class="cls-4" d="M22.95,9.43c.24,1.43.5,2.06-.84,1.07-.04.78.09,1.54.39,2.26,0,.03-.01.06-.02.09-.4.37-.81.73-1.21,1.09-.22-.01-.44-.02-.65-.03-.03-.02-.06-.04-.1-.05l.05-.12c.16-.4.47-.8.06-1.23,0-.25-.01-.51-.02-.76.12-.17.25-.34.37-.52.15,2.13,1.44-.3.09-.38-.03.03-.07.04-.12.03-.06-.14-.11-.29-.17-.43l-.02.04s.02-.03.02-.03c-.18-.2-.37-.4-.55-.6-.44-.51-1.04-.08-1.54-.26.29-.68,1.5-.5,1.44-1.51.25.29.49.58.74.87-.06.13.99,2.78.25.02,0-.04,0-.09,0-.13.25,0,.5,0,.48-.35.18.07.36.15.55.22l.45.14c.01.05.02.11.04.16.08.11.17.23.25.34.02.03.04.06.05.09Z"/><path class="cls-14" d="M22.82,14.72c-.22.41-.43.82-.65,1.23-.46-.08-.93-.17-1.39-.25-.75.21-1.42.81-2.28.46-.1-.09-.2-.18-.31-.27.1-.13.2-.26.3-.39.95.13,2.07.63,2.25-.98.09-.06.17-.11.26-.17.73-.12,1.41-.37,2.03-.75,0,.14.01.27.02.41-.03.13-.06.26-.09.39-.05.1-.09.2-.14.31Z"/><path class="cls-13" d="M22.96,14.41c.03-.13.06-.26.09-.39.42-.21.38-.61.43-.98-.22.03-.44.06-.66.1-.11-.1-.23-.19-.34-.29,0-.03.01-.06.02-.09,2.02.23,2.43,2.32.94,1.9-.16-.08-.31-.16-.47-.24Z"/><path class="cls-12" d="M22.65,9c-.01-.05-.02-.11-.04-.16.74-.18,1.55,1.02,2.23-.12.03-.05.07-.11.1-.16.65.13.31.57.27.9-.12.09-.24.18-.37.27-.09.04-.18.07-.27.11-.17.05-.34.11-.51.16-.09-.01-.17-.02-.26-.03-.05-.08-.09-.17-.14-.25.01-.55-.41-.48-.75-.51-.09-.07-.18-.14-.27-.21Z"/><path class="cls-10" d="M20.78,15.7c.46.08.93.17,1.39.25-.05.17-.09.35-.14.53-.09.07-.19.15-.28.22-.33,0-.67.02-1,.02-1.11-.36-.17-.68.02-1.02Z"/><path class="cls-4" d="M22.96,14.41c.16.08.31.16.47.24-.08.33.19.92-.33.92-.52,0-.05-.6-.28-.86.05-.1.09-.2.14-.31Z"/><path class="cls-10" d="M22.92,9.21c.35.04.76-.03.75.51-.09,0-.17,0-.26.01-.16-.1-.31-.2-.47-.31-.01-.03-.03-.06-.05-.09,0-.04.01-.09.02-.13Z"/><path class="cls-13" d="M24.07,10c.17-.05.34-.11.51-.16,0,.06,0,.11,0,.17-.18.25-.35.25-.51-.01Z"/><path class="cls-10" d="M22.43,16.81c-.05-.14-.1-.27-.15-.41.16-.02.31-.04.47-.05-.11.15-.22.31-.32.46Z"/><path class="cls-13" d="M23.42,9.73c.09,0,.17,0,.26-.01.05.08.09.17.14.25-.3.19-.35-.02-.4-.24Z"/><path class="cls-13" d="M25.59,11.85c0,.13,0,.27,0,.4-.24-.14-.25-.27,0-.4Z"/><path class="cls-10" d="M24.59,10.02c0-.06,0-.11,0-.17.09-.04.18-.07.27-.11-.09.09-.18.19-.27.28Z"/><path class="cls-1" d="M28.81,27.06c.14.16.28.32.42.47-.17.09-.35.18-.52.26-.18-.05-.68.28-.41-.31.09-.18.33-.29.51-.43Z"/><path class="cls-4" d="M26.26,28.05c.23.06.45.12.68.17-.19.32-.43.27-.7-.15l.02-.02Z"/><path class="cls-4" d="M28.66,24.34c.25-.48.45-.1.66.04-.22-.01-.44-.02-.66-.04Z"/><path class="cls-4" d="M26.87,24.33c.14-.22.28-.21.42,0-.14,0-.28,0-.42,0Z"/><path class="cls-4" d="M25.46,24.3c.14,0,.28.01.42.02-.14,0-.28-.01-.42-.02Z"/><polygon class="cls-4" points="26.23 28.08 26.21 28.03 26.26 28.05 26.23 28.08"/><path class="cls-5" d="M18.3,7.73c.1.56-.33.41-.63.45-.09-.18-.17-.36-.26-.54,0-.05.02-.11.03-.16.29.08.57.17.86.25Z"/><path class="cls-7" d="M20.14,8.06c.07,1.01-1.15.83-1.44,1.51-.2.18-.39.36-.59.54-.06.12-.11.24-.17.36-.03.17-.05.34-.08.51-.29.16-.23.3.03.42.01.06.02.12.03.19-.33.28-.21,1.31-1.1.64-.01-.21-.02-.41-.03-.62.08-.21.17-.42.25-.63.36-.42.73-.84.23-1.39,0-.05,0-.09.01-.14.09-.07.19-.15.28-.22.12-.13.24-.27.36-.4.35-.29.7-.58,1.05-.86.39.03.77.07,1.16.1Z"/><path class="cls-5" d="M20.14,8.06c-.39-.03-.77-.07-1.16-.1.06-.09.11-.18.17-.27.24,0,.48,0,.72.01.32.04.65.08.97.12.31.12.62.23.92.35.63.04.17-1.16,1.01-.88-.2.46-.41.93-.61,1.39-.18-.07-.36-.15-.55-.22-.26-.09-.52-.19-.78-.28.1.21.2.42.3.64,0,.04,0,.09,0,.13-.08,0-.17-.02-.25-.02-.25-.29-.49-.58-.74-.87Z"/><path class="cls-4" d="M17.41,7.63c.09.18.17.36.26.54-.15.25-.35.36-.64.2-.02-.03-.05-.05-.09-.06,0-.25-.01-.49-.02-.74.16.02.32.04.49.06Z"/><path class="cls-4" d="M20.84,7.83c-.32-.04-.65-.08-.97-.12.25-.17.49-.35.74-.52.08,0,.17,0,.25,0,0,.22-.01.43-.02.65Z"/><path class="cls-10" d="M16.93,7.58c0,.25.01.49.02.74-.12,0-.23,0-.35.01-.15-.23-.31-.47-.46-.7.09-.23.18-.47.26-.7.48-.02.54.29.53.65Z"/><path class="cls-12" d="M16.13,7.63c.15.23.31.47.46.7-.12.3-.25.59-.37.89,0-.17,0-.34,0-.51-.03-.36-.05-.72-.08-1.08Z"/><path class="cls-10" d="M22.17,8.69c.2-.46.41-.93.61-1.39.09-.04.18-.09.27-.13.37.06.85-.2,1.04.37-2.85.51.03,1.13.4.91.12.09.24.18.36.27-.68,1.14-1.5-.06-2.23.12-.15-.05-.3-.1-.45-.14Z"/><path class="cls-14" d="M24.48,8.45c-.37.22-3.24-.39-.4-.91.13.3.26.6.4.91Z"/><path class="cls-4" d="M17.27,9.59c.5.56.13.98-.23,1.39.08-.46.15-.93.23-1.39Z"/><path class="cls-10" d="M16.08,11.34c.02.35.03.7.05,1.05-.72-.32-.26-.69-.05-1.05Z"/><path class="cls-4" d="M17.57,9.23c-.09.07-.19.15-.28.22.09-.07.19-.15.28-.22Z"/><path class="cls-14" d="M17.92,11.59c-.01-.06-.02-.12-.03-.19.23-.16.2-.3-.03-.42.03-.17.05-.34.08-.51.95-.19,1.9.53,2.85-.03l-.02.03s.02-.04.02-.04c.06.14.11.29.17.43.04.02.08,0,.12-.03-.03.13-.06.25-.09.38-.12.17-.25.34-.37.52-.09.08-.18.16-.27.24-.74.54-1.47.35-2.21,0-.07-.13-.13-.27-.2-.4Z"/><path class="cls-5" d="M17.92,11.59c.07.13.13.27.2.4,0,.11,0,.23,0,.34-.02.29-.04.59-.06.88-.13,0-.25,0-.38.01-.29-.2-.57-.4-.86-.6,0-.13,0-.26,0-.39.89.67.77-.37,1.1-.64Z"/><path class="cls-10" d="M20.34,11.98c.09-.08.18-.16.27-.24,0,.26.01.51.02.76-.24.4-.8.79-.06,1.23-.02.04-.03.08-.05.12-.1,0-.19,0-.29,0-.17-.17-.33-.33-.5-.5.2-.46.4-.92.6-1.39Z"/><path class="cls-13" d="M16.82,12.62c.29.2.57.4.86.6-.49.09-.75-.15-.86-.6Z"/><path class="cls-13" d="M18.06,13.21c.02-.29.04-.59.06-.88.22.31.68.63-.06.88Z"/><path class="cls-10" d="M16.66,13.76c-.13-.14-.25-.27-.38-.41.45-.16.38.16.38.41Z"/><path class="cls-2" d="M20.74,14.52c-.18,1.61-1.3,1.11-2.25.98-.14-.16-.28-.32-.43-.47-.02-.08-.04-.16-.06-.24-.01-.87.77-.63,1.22-.86.06,0,.11.01.17.02.45.19.9.38,1.35.57Z"/><path class="cls-12" d="M20.78,15.7c-.19.34-1.14.66-.02,1.02-.79.22-1.55.11-2.32-.12.02-.15.04-.29.06-.44.86.35,1.53-.24,2.28-.46Z"/><path class="cls-12" d="M18.06,15.03c.14.16.28.32.43.47-.1.13-.2.26-.3.39-.1.1-.2.2-.3.29-.56-.47-.44-.85.17-1.15Z"/><path class="cls-12" d="M20.74,14.52c-.45-.19-.9-.38-1.35-.57.28-.03.56-.06.84-.09.1,0,.19,0,.29,0,.04,0,.07.03.1.05.13.15.26.3.39.45-.09.06-.17.11-.26.17Z"/><path class="cls-12" d="M19.22,13.93c-.45.23-1.23-.01-1.22.86-.28-.22-.27-.57-.05-.7.37-.22.8-.48,1.27-.15Z"/><path class="cls-10" d="M17.89,16.18c.1-.1.2-.2.3-.29.1.09.2.18.31.27-.02.15-.04.29-.06.44-.18-.14-.37-.28-.55-.42Z"/><path class="cls-10" d="M21,14.36c-.13-.15-.26-.3-.39-.45.22.01.44.02.65.03.69.06,1.05-.51,1.55-.81.22-.03.44-.06.66-.1-.04.37,0,.77-.43.98,0-.14-.01-.27-.02-.41-.62.38-1.3.62-2.03.75Z"/><path class="cls-12" d="M20.79,10.44c-.94.56-1.9-.16-2.85.03.06-.12.11-.24.17-.36.67-.42,1.54.74,2.13-.28.18.2.37.4.55.6Z"/><path class="cls-7" d="M20.88,8.93c.08,0,.17.02.25.02.74,2.76-.32.11-.25-.02Z"/><path class="cls-7" d="M20.98,11.23c.03-.13.06-.25.09-.38,1.35.08.06,2.52-.09.38Z"/><path class="cls-10" d="M20.24,9.84c-.59,1.02-1.46-.14-2.13.28.2-.18.39-.36.59-.54.5.18,1.1-.25,1.54.26Z"/><path class="cls-5" d="M22.82,13.13c-.5.29-.86.87-1.55.81.4-.36.81-.73,1.21-1.09.11.1.23.19.34.29Z"/><path class="cls-5" d="M20.57,13.74c-.74-.45-.18-.83.06-1.23.42.43.1.83-.06,1.23Z"/><path class="cls-7" d="M21.14,8.83l-.3-.64c.26.09.52.19.78.28.02.35-.23.36-.48.35Z"/><path class="cls-12" d="M20.95,10.87c-.06-.14-.11-.29-.17-.43.06.14.11.29.17.43Z"/><path class="cls-5" d="M22.92,9.21s-.01.09-.02.13c-.08-.11-.17-.23-.25-.34.09.07.18.14.27.21Z"/><path class="cls-5" d="M17.86,10.98c.24.12.26.26.03.42-.26-.12-.33-.26-.03-.42Z"/></g></svg>