<?xml version="1.0" encoding="UTF-8"?>
<svg version="1.1" xmlns="http://www.w3.org/2000/svg" width="1282" height="1466">
<path d="M0 0 C1.08537048 0.00060425 2.17074097 0.0012085 3.28900146 0.00183105 C20.02272254 0.02708764 36.60074128 0.3566959 53.25 2.1875 C55.09053955 2.38883545 55.09053955 2.38883545 56.96826172 2.59423828 C114.37765157 9.0799982 169.80359743 23.9681512 222.25 48.1875 C223.2198584 48.63061523 224.1897168 49.07373047 225.18896484 49.53027344 C259.44336916 65.23235933 291.38683555 85.27209218 321.25 108.1875 C321.85585938 108.6515625 322.46171875 109.115625 323.0859375 109.59375 C339.72980298 122.38554181 355.54887405 136.19622025 370.25 151.1875 C373.19434004 154.14750143 376.16102713 157.08340555 379.140625 160.0078125 C386.25064272 167.01304417 393.20061596 173.93995275 399.36328125 181.8046875 C401.15794976 184.07124607 403.04095079 186.18784044 405 188.3125 C410.56249826 194.51259687 415.5049297 201.2039349 420.50146484 207.86083984 C421.65667937 209.39800745 422.81579445 210.93225232 423.97900391 212.46337891 C443.14977615 237.70119408 458.98233974 264.9311957 473.25 293.1875 C473.71937988 294.11546387 474.18875977 295.04342773 474.67236328 295.99951172 C508.82527331 364.05411948 525.77330226 440.29581827 521.25 607.1875 C520.99742432 608.90718994 520.99742432 608.90718994 520.73974609 610.66162109 C507.11395728 700.29396729 468.04185842 784.46582808 405.25 863.1875 C404.81397461 863.70844238 404.37794922 864.22938477 403.92871094 864.76611328 C392.68441995 878.1709647 380.7222073 890.79502141 368.375 903.1875 C367.49529541 904.07187744 366.61559082 904.95625488 365.70922852 905.86743164 C360.71561403 910.84874309 355.60777576 915.60277877 350.25 920.1875 C349.09325976 921.20891129 347.938271 922.23231 346.78515625 923.2578125 C338.30935901 930.73781273 329.55985902 937.74506697 320.50195312 944.50634766 C318.97206555 945.64845583 317.44480799 946.79409373 315.91992188 947.94287109 C304.98771863 956.17801432 293.88930319 963.98356235 282.25 971.1875 C281.48107422 971.66396973 280.71214844 972.14043945 279.91992188 972.63134766 C216.90510401 1011.4717157 148.41926013 1036.44354091 75.25 1047.1875 C74.13737793 1047.35330566 73.02475586 1047.51911133 71.87841797 1047.68994141 C-10.36020491 1059.62511801 -95.28150883 1049.5045837 -227.75 1000.1875 C-228.66942383 999.74970215 -229.58884766 999.3119043 -230.53613281 998.86083984 C-258.43939882 985.50310395 -285.56129602 969.51516252 -310.01416016 950.52636719 C-312.66865328 948.47893536 -315.36784132 946.49425444 -318.0625 944.5 C-323.76161835 940.22182086 -329.280412 935.75426742 -334.75 931.1875 C-335.50966064 930.55739014 -335.50966064 930.55739014 -336.28466797 929.91455078 C-349.24189399 919.15873712 -361.42508665 907.68457291 -373.30908203 895.75878906 C-375.14110995 893.9213424 -376.97850605 892.0893835 -378.81640625 890.2578125 C-384.67321502 884.40460692 -390.42313736 878.53467747 -395.75 872.1875 C-396.62652387 871.17744692 -397.50407625 870.16828517 -398.3828125 869.16015625 C-405.85912504 860.42997938 -412.85419819 851.38059229 -419.75 842.1875 C-420.33217285 841.41567383 -420.9143457 840.64384766 -421.51416016 839.84863281 C-453.4643937 797.42878188 -478.17630186 750.24474299 -495.75 700.1875 C-496.09869141 699.21635254 -496.44738281 698.24520508 -496.80664062 697.24462891 C-516.38580755 642.61575829 -525.0001627 584.26663245 -524.9375 526.375 C-524.93689575 525.33914764 -524.9362915 524.30329529 -524.93566895 523.23605347 C-524.9097202 506.80116072 -524.48414062 490.54376166 -522.75 474.1875 C-522.62641113 472.97304199 -522.50282227 471.75858398 -522.37548828 470.50732422 C-514.39735348 394.15899174 -489.82114868 319.72660907 -449.75 254.1875 C-448.64767429 252.35202064 -447.54610633 250.51608599 -446.4453125 248.6796875 C-439.89967687 237.84428439 -432.89901838 227.45886277 -425.33203125 217.31201172 C-423.77235546 215.21752117 -422.22863082 213.11206624 -420.6875 211.00390625 C-414.94896274 203.19875152 -408.93536795 195.73261868 -402.5625 188.4375 C-399.98186404 185.47921 -397.51503867 182.44067333 -395.0625 179.375 C-391.56609194 175.06297415 -387.82536042 171.1565367 -383.8515625 167.28515625 C-381.96336594 165.40046935 -380.2238718 163.47132904 -378.5 161.4375 C-371.58974488 153.39969743 -363.90753865 145.84169247 -355.828125 138.984375 C-353.6691349 137.11757905 -351.57447007 135.18859099 -349.4831543 133.24658203 C-343.435115 127.63511736 -337.20845345 122.32629652 -330.75 117.1875 C-330.23775879 116.77564453 -329.72551758 116.36378906 -329.19775391 115.93945312 C-304.3501087 95.96522035 -277.76327132 78.39592452 -249.75 63.1875 C-248.9353125 62.74325684 -248.120625 62.29901367 -247.28125 61.84130859 C-171.48833584 20.74451827 -86.09692174 -0.08860578 0 0 Z " fill="#1A56FF" transform="translate(639.75,206.8125)"/>
<path d="M0 0 C16.49885947 -0.25755823 32.99706185 -0.4512243 49.49744892 -0.56993389 C57.15987366 -0.62653148 64.8210457 -0.703615 72.48266602 -0.82983398 C79.16472235 -0.93986248 85.8458712 -1.01052981 92.5288083 -1.03497344 C96.064313 -1.04925247 99.59722297 -1.08252336 103.13189125 -1.16303062 C127.53341365 -1.69766975 127.53341365 -1.69766975 133.73861217 3.82760143 C135.77111417 6.05819265 137.40398197 8.44399514 139 11 C140.08159776 12.2695788 141.18079017 13.52488087 142.3125 14.75 C142.84746094 15.37648438 143.38242187 16.00296875 143.93359375 16.6484375 C146.84212162 19.95833122 149.86083161 23.16141997 152.875 26.375 C157.55081654 31.36343491 162.17711113 36.38699097 166.734375 41.484375 C169.42379266 44.47055599 172.14634956 47.42469812 174.875 50.375 C175.63574829 51.19762329 175.63574829 51.19762329 176.41186523 52.03686523 C176.91919189 52.58544189 177.42651855 53.13401855 177.94921875 53.69921875 C184.15316761 60.4078422 190.33686793 67.1346369 196.4375 73.9375 C200.89643915 78.90512383 205.42438331 83.80683252 209.95703125 88.70703125 C214.20071432 93.29570729 218.42040541 97.90631603 222.64111328 102.51611328 C224.92642496 105.01164407 227.2132958 107.50574527 229.5 110 C230.41667404 110.99999325 231.3333407 111.99999324 232.25 113 C232.70375 113.495 233.1575 113.99 233.625 114.5 C235 116 236.375 117.5 237.75 119 C238.4308667 119.7427417 238.4308667 119.7427417 239.12548828 120.50048828 C240.04058633 121.49880661 240.95562555 122.49717886 241.87060547 123.49560547 C244.18578852 126.0217842 246.5020401 128.54696832 248.8203125 131.0703125 C253.04766751 135.67349765 257.26526083 140.28413776 261.4375 144.9375 C265.89643915 149.90512383 270.42438331 154.80683252 274.95703125 159.70703125 C279.20071432 164.29570729 283.42040541 168.90631603 287.64111328 173.51611328 C289.92642496 176.01164407 292.2132958 178.50574527 294.5 181 C295.41667404 181.99999325 296.3333407 182.99999324 297.25 184 C297.70375 184.495 298.1575 184.99 298.625 185.5 C300 187 301.375 188.5 302.75 190 C303.20391113 190.49516113 303.65782227 190.99032227 304.12548828 191.50048828 C305.04058633 192.49880661 305.95562555 193.49717886 306.87060547 194.49560547 C309.18578852 197.0217842 311.5020401 199.54696832 313.8203125 202.0703125 C318.04766751 206.67349765 322.26526083 211.28413776 326.4375 215.9375 C327.15035156 216.72769531 327.86320312 217.51789063 328.59765625 218.33203125 C329.90466081 219.78355014 331.210102 221.23650938 332.50732422 222.69677734 C334.12232606 224.51310468 335.74791482 226.31949668 337.375 228.125 C337.88732178 228.70628662 338.39964355 229.28757324 338.92749023 229.88647461 C340.22395991 231.3154962 341.60666886 232.66524734 343 234 C345.97229118 234.32117173 345.97229118 234.32117173 347.63476562 232.62988281 C348.21935547 231.99405273 348.80394531 231.35822266 349.40625 230.703125 C350.06214111 229.99760498 350.71803223 229.29208496 351.39379883 228.56518555 C352.08884521 227.80117432 352.7838916 227.03716309 353.5 226.25 C354.57640747 225.08561401 354.57640747 225.08561401 355.67456055 223.89770508 C357.79067372 221.60534784 359.89618416 219.30363972 362 217 C363.03711428 215.87310292 364.07479454 214.7467262 365.11328125 213.62109375 C367.75050205 210.75488127 370.37625905 207.87855039 373 205 C374.8319867 202.99876444 376.6660076 200.99939739 378.5 199 C379.41670349 198.00003375 380.33337022 197.00003381 381.25 196 C390.41666667 186 399.58333333 176 408.75 166 C409.20366943 165.50508057 409.65733887 165.01016113 410.12475586 164.50024414 C411.04220685 163.49940332 411.95968736 162.49858955 412.87719727 161.49780273 C415.15710551 159.01088739 417.43651293 156.52351685 419.71484375 154.03515625 C424.96938349 148.29744044 430.23746288 142.57254983 435.51708984 136.85791016 C440.23861697 131.74559385 444.9416967 126.61652283 449.64111328 121.48388672 C451.92642496 118.98835593 454.2132958 116.49425473 456.5 114 C457.41667404 113.00000675 458.3333407 112.00000676 459.25 111 C461.08333333 109 462.91666667 107 464.75 105 C465.20366943 104.50508057 465.65733887 104.01016113 466.12475586 103.50024414 C467.04220685 102.49940332 467.95968736 101.49858955 468.87719727 100.49780273 C471.15710551 98.01088739 473.43651293 95.52351685 475.71484375 93.03515625 C480.96938349 87.29744044 486.23746288 81.57254983 491.51708984 75.85791016 C496.23861697 70.74559385 500.9416967 65.61652283 505.64111328 60.48388672 C507.92642496 57.98835593 510.2132958 55.49425473 512.5 53 C513.41667404 52.00000675 514.3333407 51.00000676 515.25 50 C517.08333333 48 518.91666667 46 520.75 44 C521.20366943 43.50508057 521.65733887 43.01016113 522.12475586 42.50024414 C523.04220685 41.49940332 523.95968736 40.49858955 524.87719727 39.49780273 C527.15710551 37.01088739 529.43651293 34.52351685 531.71484375 32.03515625 C535.4840703 27.91945861 539.25372487 23.80432417 543.04296875 19.70703125 C543.55738525 19.15072021 544.07180176 18.59440918 544.60180664 18.02124023 C545.56781089 16.97720006 546.53437744 15.93367965 547.50170898 14.89086914 C552.05360929 9.97204882 556.5149143 4.98342855 561 0 C602.91 0 644.82 0 688 0 C688 156.09 688 312.18 688 473 C649.06 473 610.12 473 570 473 C569.67 362.45 569.34 251.9 569 138 C561.91587077 144.49378512 554.96276211 150.90888679 548.25 157.75 C544.30911212 161.76454934 540.38178559 165.72672224 536.109375 169.390625 C531.14436853 173.66476335 526.59496186 178.3354175 522 183 C516.82828024 188.25007916 511.6496079 193.37071772 506.0546875 198.16796875 C501.8501381 201.91689207 497.95168016 205.9884459 494 210 C484.51591697 219.62778126 484.51591697 219.62778126 479.9375 223.5625 C479.3435997 224.09335709 478.7496994 224.62421417 478.13780212 225.17115784 C476 227 476 227 473.68531799 228.5967865 C469.50632524 231.88648601 466.91962663 234.87921379 466.17208862 240.20706177 C465.74589907 245.51139395 465.83014941 250.81247724 465.90234375 256.12890625 C465.89668515 258.08903999 465.88706698 260.04916594 465.87367249 262.00926208 C465.8491385 267.14392807 465.87806953 272.276927 465.91845703 277.41143799 C465.95017844 282.66041645 465.93089706 287.90918651 465.91601562 293.15820312 C465.89433058 303.43923159 465.92917394 313.71922149 466 324 C462.88258604 322.78822088 460.25599173 321.65535618 457.609375 319.6015625 C456.99143066 319.12855713 456.37348633 318.65555176 455.73681641 318.16821289 C455.08116699 317.65895264 454.42551758 317.14969238 453.75 316.625 C448.11676434 312.3236937 442.43140609 308.12718726 436.625 304.0625 C430.74030582 299.93707082 424.88487683 295.77550601 419.0625 291.5625 C417.94427856 290.75353271 417.94427856 290.75353271 416.8034668 289.92822266 C413.77797668 287.73812663 410.75376105 285.54627414 407.72949219 283.35449219 C399.68370986 277.52536965 391.62605366 271.716869 383.5 266 C377.53804565 261.80439623 371.60132743 257.57569703 365.6875 253.3125 C364.93509033 252.77294678 364.18268066 252.23339355 363.4074707 251.67749023 C360.00231727 249.22426686 356.64150105 246.74517886 353.375 244.109375 C352.83012939 243.67584717 352.28525879 243.24231934 351.72387695 242.7956543 C350.29739828 241.65070852 348.88814501 240.4843916 347.48046875 239.31640625 C345.11561614 237.73493482 345.11561614 237.73493482 342.69140625 238.41015625 C338.86548481 240.6701708 335.31722882 243.22943287 331.75 245.875 C330.1308192 247.06073045 328.511013 248.24560731 326.890625 249.4296875 C326.07271484 250.0287793 325.25480469 250.62787109 324.41210938 251.24511719 C320.80314892 253.8707455 317.15351544 256.43691972 313.5 259 C305.37134462 264.71674255 297.31331947 270.52825551 289.26611328 276.35888672 C284.76517667 279.61845318 280.25824565 282.8697262 275.75244141 286.12255859 C271.98792435 288.84069523 268.22487292 291.56081405 264.46484375 294.28515625 C254.97329404 301.15855885 245.43787772 307.96511433 235.84765625 314.70019531 C234.14555407 315.8976044 232.44757949 317.10087512 230.75 318.3046875 C229.38875 319.26761719 229.38875 319.26761719 228 320.25 C227.236875 320.79140625 226.47375 321.3328125 225.6875 321.890625 C224 323 224 323 223 323 C223.01633987 321.93670471 223.03267975 320.87340942 223.04951477 319.77789307 C223.1955571 309.71564775 223.27220788 299.6548975 223.28240681 289.59157181 C223.28983994 284.4185525 223.32098922 279.24802562 223.40795898 274.07568359 C223.49113213 269.07564547 223.50988921 264.07899114 223.48558617 259.07836151 C223.4873665 257.17901655 223.51164809 255.27954417 223.55968666 253.38080597 C224.05425487 242.08702106 224.05425487 242.08702106 219.23295593 232.30525208 C216.53247667 229.63694311 213.60871209 227.34103689 210.52979469 225.12685776 C208.62836851 223.72625358 206.99389808 222.15194249 205.35620117 220.45385742 C204.88248581 219.97683884 204.40877045 219.49982025 203.92070007 219.00834656 C203.23872307 218.31392204 203.23872307 218.31392204 202.54296875 217.60546875 C201.76666862 216.82348869 201.76666862 216.82348869 200.97468567 216.02571106 C199.37635324 214.41552715 197.78145687 212.80201458 196.1875 211.1875 C188.34144192 203.13387087 188.34144192 203.13387087 180.05078125 195.55078125 C173.40188757 189.87989394 167.41029712 183.46265226 161.27246094 177.25195312 C155.65965632 171.57852129 150.0888066 165.95944186 144.00683594 160.78417969 C138.99793993 156.33101521 134.38720004 151.43361345 129.68359375 146.66308594 C128.29367409 145.25517685 126.90079023 143.85019602 125.5078125 142.4453125 C124.68941895 141.61531738 123.87102539 140.78532227 123.02783203 139.93017578 C121.14739471 137.9517258 121.14739471 137.9517258 119 137 C119 248.21 119 359.42 119 474 C80.06 474 41.12 474 1 474 C-0.72210171 472.27789829 -0.12342259 470.07777692 -0.13100848 467.78153703 C-0.12838146 467.02530865 -0.12575445 466.26908027 -0.12304783 465.48993587 C-0.12420167 464.69018128 -0.12535552 463.89042668 -0.12654433 463.0664371 C-0.12921839 460.35188326 -0.12468239 457.63738721 -0.12025452 454.9228363 C-0.12069006 452.97094253 -0.12156465 451.01904882 -0.12284368 449.06715542 C-0.12509201 443.67646297 -0.12106277 438.28579018 -0.11606562 432.89510024 C-0.11176612 427.09206428 -0.11320719 421.28902953 -0.1139679 415.48599243 C-0.11449345 405.4228584 -0.11134338 395.35973084 -0.10573006 385.29659843 C-0.0976193 370.7468146 -0.09499693 356.19703376 -0.09374207 341.64724792 C-0.09163987 318.04388292 -0.08489754 294.4405213 -0.07543945 270.8371582 C-0.06625981 247.90226255 -0.05917385 224.96736782 -0.05493164 202.0324707 C-0.05480011 201.32591378 -0.05466859 200.61935686 -0.05453308 199.89138913 C-0.05321459 192.79606059 -0.05193877 185.70073205 -0.05069422 178.60540349 C-0.04815779 164.15051492 -0.04533653 149.6956264 -0.04234314 135.24073792 C-0.04220585 134.57607894 -0.04206856 133.91141997 -0.04192711 133.22661982 C-0.03272149 88.81774514 -0.01685496 44.40887235 0 0 Z " fill="#FEFEFF" transform="translate(303,484)"/>
<path d="M0 0 C5.28 0 10.56 0 16 0 C16 7.26 16 14.52 16 22 C18.64 22.33 21.28 22.66 24 23 C39.66825359 27.06456788 50.63923518 36.87725664 59.3203125 50.2109375 C60 52 60 52 60.04296875 53.96875 C58.37032358 57.22633611 55.31184348 58.47333702 52.1875 60.125 C51.55779297 60.47175781 50.92808594 60.81851563 50.27929688 61.17578125 C47.22002965 62.85147641 44.13395066 64.46854804 41 66 C40.6596875 65.35933594 40.319375 64.71867188 39.96875 64.05859375 C33.76145922 52.98122111 28.4767763 49.53700956 16 45 C16 63.48 16 81.96 16 101 C19.3 101.99 22.6 102.98 26 104 C28.71657763 105.17017814 31.31479082 106.34508483 33.9375 107.6875 C34.62062256 108.03562744 35.30374512 108.38375488 36.00756836 108.74243164 C47.64196711 114.81998024 57.45858883 121.90378263 62.4375 134.4375 C66.33527489 147.66631175 65.12716256 162.58886873 58.52734375 174.703125 C50.27781442 187.41871159 39.0384498 194.61832423 24.640625 198.51953125 C22 199 22 199 16 199 C16 206.26 16 213.52 16 221 C10.72 221 5.44 221 0 221 C0 213.74 0 206.48 0 199 C-3.3 199 -6.6 199 -10 199 C-25.77497854 195.94909402 -39.48971895 187.11578194 -48.75 173.98828125 C-54 165.6375 -54 165.6375 -54 162 C-52.25585938 160.76318359 -52.25585938 160.76318359 -49.84375 159.3984375 C-48.98652344 158.90859375 -48.12929688 158.41875 -47.24609375 157.9140625 C-46.33988281 157.40617188 -45.43367187 156.89828125 -44.5 156.375 C-43.59378906 155.859375 -42.68757812 155.34375 -41.75390625 154.8125 C-39.5063144 153.53492148 -37.25497896 152.26448008 -35 151 C-33.04332814 153.57882241 -31.27005209 156.14974394 -29.625 158.9375 C-24.60021697 166.98908111 -17.24952413 172.63841937 -8 175 C-5.69 175.33 -3.38 175.66 -1 176 C-1 156.86 -1 137.72 -1 118 C-7.27 115.36 -13.54 112.72 -20 110 C-32.04069337 102.52646618 -40.26270476 95.58546651 -45 82 C-47.73768768 69.1952456 -46.688829 56.19872002 -40.25 44.75 C-33.07106882 33.67593098 -22.14956687 25.97514258 -9.4140625 22.375 C-6.31077175 21.89293542 -3.14050947 22 0 22 C0 14.74 0 7.48 0 0 Z " fill="#FBFCFF" transform="translate(640,778)"/>
<path d="M0 0 C9.49062523 3.16354174 17.28465641 7.57311557 23 16 C25.83826656 21.89559397 26.1141298 28.26709087 24.2421875 34.5390625 C21.3217973 41.41462683 17.8942595 45.97846352 11.0625 49.3125 C10.04285156 49.82425781 9.02320313 50.33601562 7.97265625 50.86328125 C5 52 5 52 0 52 C0 34.84 0 17.68 0 0 Z " fill="#1F59FF" transform="translate(656,902)"/>
<path d="M0 0 C0 16.17 0 32.34 0 49 C-9.45578131 45.8480729 -17.29850389 41.16791742 -22 32 C-23.8949632 25.81155375 -24.12305779 18.64392945 -21.4375 12.6875 C-16.74265977 4.59180377 -9.26545939 0 0 0 Z " fill="#1C57FF" transform="translate(640,823)"/>
</svg>
