<?xml version="1.0" encoding="UTF-8"?>
<!DOCTYPE svg PUBLIC "-//W3C//DTD SVG 1.1//EN" "http://www.w3.org/Graphics/SVG/1.1/DTD/svg11.dtd">
<svg xmlns="http://www.w3.org/2000/svg" version="1.1" width="1072px" height="1073px" style="shape-rendering:geometricPrecision; text-rendering:geometricPrecision; image-rendering:optimizeQuality; fill-rule:evenodd; clip-rule:evenodd" xmlns:xlink="http://www.w3.org/1999/xlink">
<g><path style="opacity:1" fill="#ed641f" d="M 1042.5,704.5 C 989.167,704.5 935.833,704.5 882.5,704.5C 882.667,554.833 882.5,405.166 882,255.5C 766.653,371.014 651.153,486.347 535.5,601.5C 419.847,486.347 304.347,371.014 189,255.5C 188.5,405.166 188.333,554.833 188.5,704.5C 135.167,704.5 81.8333,704.5 28.5,704.5C -6.64032,597.553 -8.47365,489.886 23,381.5C 67.0675,242.793 152.234,137.627 278.5,66C 403.366,0.183542 534.366,-15.8165 671.5,18C 794.326,51.786 893.493,119.619 969,221.5C 1058.54,349.837 1088.54,491.17 1059,645.5C 1054.88,665.674 1049.38,685.341 1042.5,704.5 Z"/></g>
<g><path style="opacity:1" fill="#faf9f9" d="M 1042.5,704.5 C 1030.66,742.84 1013.99,778.84 992.5,812.5C 917.5,812.5 842.5,812.5 767.5,812.5C 767.833,718.498 767.5,624.498 766.5,530.5C 765.893,530.624 765.56,530.957 765.5,531.5C 688.854,607.812 612.188,684.146 535.5,760.5C 458.812,684.146 382.146,607.812 305.5,531.5C 305.44,530.957 305.107,530.624 304.5,530.5C 303.5,624.498 303.167,718.498 303.5,812.5C 228.5,812.5 153.5,812.5 78.5,812.5C 57.0064,778.84 40.3397,742.84 28.5,704.5C 81.8333,704.5 135.167,704.5 188.5,704.5C 188.333,554.833 188.5,405.166 189,255.5C 304.347,371.014 419.847,486.347 535.5,601.5C 651.153,486.347 766.653,371.014 882,255.5C 882.5,405.166 882.667,554.833 882.5,704.5C 935.833,704.5 989.167,704.5 1042.5,704.5 Z"/></g>
<g><path style="opacity:1" fill="#a1a1a1" d="M 305.5,531.5 C 304.501,625.332 304.167,719.332 304.5,813.5C 229.167,813.5 153.833,813.5 78.5,813.5C 78.5,813.167 78.5,812.833 78.5,812.5C 153.5,812.5 228.5,812.5 303.5,812.5C 303.167,718.498 303.5,624.498 304.5,530.5C 305.107,530.624 305.44,530.957 305.5,531.5 Z"/></g>
<g><path style="opacity:1" fill="#a1a1a1" d="M 765.5,531.5 C 765.56,530.957 765.893,530.624 766.5,530.5C 767.5,624.498 767.833,718.498 767.5,812.5C 842.5,812.5 917.5,812.5 992.5,812.5C 992.5,812.833 992.5,813.167 992.5,813.5C 917.167,813.5 841.833,813.5 766.5,813.5C 766.833,719.332 766.499,625.332 765.5,531.5 Z"/></g>
<g><path style="opacity:1" fill="#4b4b4b" d="M 305.5,531.5 C 382.146,607.812 458.812,684.146 535.5,760.5C 612.188,684.146 688.854,607.812 765.5,531.5C 766.499,625.332 766.833,719.332 766.5,813.5C 841.833,813.5 917.167,813.5 992.5,813.5C 916.628,934.473 809.628,1014.31 671.5,1053C 531.352,1087.48 398.019,1070.15 271.5,1001C 191.245,954.912 126.911,892.412 78.5,813.5C 153.833,813.5 229.167,813.5 304.5,813.5C 304.167,719.332 304.501,625.332 305.5,531.5 Z"/></g>
</svg>
